<?xml version="1.0" encoding="UTF-8" standalone="no"?>
<!DOCTYPE svg PUBLIC "-//W3C//DTD SVG 1.1//EN" "http://www.w3.org/Graphics/SVG/1.1/DTD/svg11.dtd">
<svg width="100%" height="100%" viewBox="0 0 4136 1920" version="1.1" xmlns="http://www.w3.org/2000/svg" xmlns:xlink="http://www.w3.org/1999/xlink" xml:space="preserve" xmlns:serif="http://www.serif.com/" style="fill-rule:evenodd;clip-rule:evenodd;stroke-linecap:round;stroke-linejoin:round;stroke-miterlimit:1.5;">
    <g transform="matrix(0.999545,0,0,1.00298,-9.90454,-5.71787)">
        <rect x="10.121" y="5.613" width="4139.05" height="1914.47" style="fill:white;"/>
    </g>
    <g transform="matrix(1.10907,0,0,1.10907,-431.514,37.0643)">
        <g transform="matrix(1,0,0,1,44.1956,14.9314)">
            <text x="1233.56px" y="947.756px" style="font-family:'Arial-BoldMT', 'Arial', sans-serif;font-weight:700;font-size:48px;">{</text>
            <text x="1260.23px" y="997.326px" style="font-family:'Arial-BoldMT', 'Arial', sans-serif;font-weight:700;font-size:48px;">&quot;client_id&quot; : &quot;front_end&quot;,</text>
            <text x="1260.23px" y="1046.9px" style="font-family:'Arial-BoldMT', 'Arial', sans-serif;font-weight:700;font-size:48px;">&quot;sub&quot; : &quot;123&quot;,</text>
            <text x="1260.23px" y="1096.47px" style="font-family:'Arial-BoldMT', 'Arial', sans-serif;font-weight:700;font-size:48px;">&quot;scope&quot; : [ &quot;api1&quot;]</text>
            <g transform="matrix(48,0,0,48,1265.57,1146.04)">
            </g>
            <text x="1233.56px" y="1146.04px" style="font-family:'Arial-BoldMT', 'Arial', sans-serif;font-weight:700;font-size:48px;">}</text>
        </g>
        <g transform="matrix(1.45153,0.260276,-0.391284,0.965534,537.38,696.902)">
            <path d="M520.212,402.577L1111.04,243.308" style="fill:none;"/>
            <g transform="matrix(0.579098,-0.156105,0.23468,0.870582,-285.333,-679.475)">
                <path d="M1775.5,1337.24L1847.5,1391.24L1775.5,1445.24L1775.5,1337.24Z" style="fill:rgb(51,51,51);"/>
                <path d="M827.234,1391.24L1789.89,1391.24" style="fill:none;stroke:rgb(51,51,51);stroke-width:24px;"/>
            </g>
        </g>
        <g transform="matrix(1.4013,0.260276,-0.377745,0.965534,2094.3,691.05)">
            <path d="M520.212,402.577L1111.04,243.308" style="fill:none;"/>
            <g transform="matrix(0.599854,-0.161701,0.23468,0.870582,-1323.01,-393.691)">
                <path d="M3443.98,1330.75L3515.98,1384.75L3443.98,1438.75L3443.98,1330.75Z" style="fill:rgb(51,51,51);"/>
                <path d="M2531.03,1384.75L3458.38,1384.75" style="fill:none;stroke:rgb(51,51,51);stroke-width:24px;"/>
            </g>
        </g>
        <g transform="matrix(1.40496,0.364713,-0.381454,1.36766,1775.1,93.5889)">
            <path d="M549.897,506.671L472.886,215.964" style="fill:none;"/>
            <g transform="matrix(0.598439,-0.159585,0.16691,0.614759,-943.426,158.717)">
                <path d="M2126.15,1059.48L2179.69,1131.82L2234.14,1060.17L2126.15,1059.48Z" style="fill:rgb(51,51,51);"/>
                <path d="M2128.22,731.377L2182.68,659.721L2236.22,732.061L2128.22,731.377Z" style="fill:rgb(51,51,51);"/>
                <path d="M2180.05,1074.22C2180.63,983.444 2181.74,808.1 2182.31,717.319" style="fill:none;stroke:rgb(51,51,51);stroke-width:24px;"/>
            </g>
        </g>
        <g transform="matrix(6.5176,0,0,6.5176,2097.65,1046.26)">
            <path d="M70.16,33.15L66.15,33.15L66.15,21.62L70.22,21.62C73.76,21.62 76.63,18.75 76.63,15.21C76.63,11.67 73.76,8.8 70.22,8.8L66.15,8.8L66.15,5.37C66.15,2.4 63.75,-0 60.78,-0L15.85,-0C12.89,-0 10.48,2.4 10.48,5.37L10.48,33.15L6.41,33.15C2.87,33.15 0,36.02 0,39.56C0,43.1 2.87,45.97 6.41,45.97L10.48,45.97L10.48,50.31C10.48,53.28 12.88,55.68 15.85,55.68L60.78,55.68C63.75,55.68 66.15,53.28 66.15,50.31L66.15,45.97L70.16,45.97C73.7,45.97 76.57,43.1 76.57,39.56C76.57,36.02 73.7,33.15 70.16,33.15Z" style="fill:url(#_Linear1);fill-rule:nonzero;"/>
            <path d="M60.2,6.77L60.2,48.75C60.2,49.158 59.868,49.49 59.46,49.49L17.48,49.49C17.072,49.49 16.74,49.158 16.74,48.75L16.74,6.77C16.74,6.362 17.072,6.03 17.48,6.03L59.46,6.03C59.868,6.03 60.2,6.362 60.2,6.77Z" style="fill:rgb(145,107,219);"/>
            <path d="M24.52,36.28C24.01,36.4 23.53,36.4 23.09,36.28C22.65,36.16 22.29,35.97 22.02,35.67C21.74,35.37 21.58,34.99 21.52,34.51C21.44,33.79 21.4,33.42 21.32,32.69C21.28,32.42 21.17,32.23 20.95,32.11C20.73,31.99 20.49,31.96 20.21,32C19.54,32.12 19.19,32.18 18.51,32.3C18.4,31.6 18.34,31.26 18.23,30.56C18.9,30.45 19.23,30.39 19.89,30.28C20.17,30.23 20.39,30.1 20.54,29.91C20.68,29.72 20.73,29.5 20.66,29.24C20.46,28.51 20.36,28.14 20.18,27.4C20.07,26.95 20.07,26.55 20.19,26.17C20.31,25.8 20.53,25.5 20.84,25.24C21.15,24.99 21.54,24.82 21.98,24.71C22.4,24.62 22.62,24.57 23.03,24.47C23.2,25.15 23.27,25.5 23.43,26.18C23.15,26.25 23.02,26.27 22.73,26.35C22.49,26.4 22.32,26.5 22.2,26.65C22.08,26.8 22.06,26.99 22.13,27.25C22.34,27.98 22.45,28.35 22.66,29.08C22.79,29.52 22.71,29.92 22.39,30.27C22.07,30.62 21.58,30.87 20.91,30.99C20.91,30.95 20.91,30.94 20.9,30.91C21.56,30.78 22.1,30.82 22.54,31.02C22.98,31.22 23.24,31.55 23.3,32.02C23.41,32.76 23.45,33.14 23.56,33.88C23.6,34.1 23.71,34.27 23.9,34.36C24.09,34.45 24.3,34.48 24.56,34.43C24.87,34.36 25.02,34.32 25.33,34.25C25.5,34.93 25.57,35.28 25.73,35.96C25.25,36.08 25.01,36.13 24.53,36.23L24.53,36.27C24.53,36.27 24.52,36.27 24.53,36.28L24.52,36.28Z" style="fill-opacity:0.5;fill-rule:nonzero;"/>
            <path d="M53.83,24.28C53.45,23.69 53.28,23.38 52.9,22.79C53.17,22.62 53.3,22.54 53.56,22.37C53.77,22.23 53.91,22.06 53.98,21.85C54.04,21.65 54,21.45 53.86,21.27C53.4,20.67 53.18,20.37 52.72,19.77C52.44,19.39 52.38,18.98 52.54,18.53C52.71,18.07 53.07,17.66 53.61,17.29C53.63,17.31 53.65,17.34 53.66,17.36C53.12,17.74 52.6,17.91 52.11,17.89C51.63,17.87 51.28,17.65 51.06,17.25C50.69,16.59 50.51,16.26 50.14,15.59C50.01,15.35 49.84,15.22 49.67,15.21C49.48,15.19 49.29,15.25 49.08,15.39C48.84,15.54 48.71,15.61 48.48,15.77C48.1,15.18 47.93,14.87 47.55,14.28C47.92,14.06 48.09,13.94 48.46,13.7C48.85,13.45 49.24,13.3 49.64,13.25C50.04,13.2 50.41,13.26 50.76,13.44C51.11,13.62 51.4,13.9 51.63,14.29C52.02,14.94 52.21,15.27 52.6,15.93C52.73,16.15 52.92,16.28 53.17,16.31C53.42,16.35 53.65,16.27 53.88,16.11C54.43,15.72 54.71,15.53 55.25,15.13C55.66,15.7 55.88,15.98 56.29,16.55C55.74,16.95 55.45,17.15 54.89,17.55C54.65,17.72 54.51,17.92 54.44,18.15C54.37,18.39 54.44,18.61 54.59,18.82C55.05,19.39 55.27,19.67 55.73,20.24C56.03,20.61 56.19,21 56.2,21.4C56.2,21.81 56.11,22.2 55.88,22.59C55.64,22.98 55.31,23.31 54.86,23.61C54.45,23.88 54.23,24.01 53.82,24.27C53.41,24.53 53.82,24.28 53.83,24.27L53.83,24.28Z" style="fill-opacity:0.5;fill-rule:nonzero;"/>
            <g transform="matrix(0.912977,-0.408012,0.408012,0.912977,35.47,32.93)">
                <g>
                    <g>
                        <text x="0px" y="0px" style="font-family:'Heebo-Regular', 'Heebo';font-size:18px;">1</text>
                    </g>
                </g>
            </g>
        </g>
        <g transform="matrix(6.5364,0,0,6.5364,3555.95,1045.74)">
            <path d="M70.16,33.15L66.15,33.15L66.15,21.62L70.22,21.62C73.76,21.62 76.63,18.75 76.63,15.21C76.63,11.67 73.76,8.8 70.22,8.8L66.15,8.8L66.15,5.37C66.15,2.4 63.75,-0 60.78,-0L15.85,-0C12.89,-0 10.48,2.4 10.48,5.37L10.48,33.15L6.41,33.15C2.87,33.15 0,36.02 0,39.56C0,43.1 2.87,45.97 6.41,45.97L10.48,45.97L10.48,50.31C10.48,53.28 12.88,55.68 15.85,55.68L60.78,55.68C63.75,55.68 66.15,53.28 66.15,50.31L66.15,45.97L70.16,45.97C73.7,45.97 76.57,43.1 76.57,39.56C76.57,36.02 73.7,33.15 70.16,33.15Z" style="fill:url(#_Linear2);fill-rule:nonzero;"/>
            <path d="M60.195,6.772L60.195,48.756C60.195,49.163 59.864,49.494 59.457,49.494L17.473,49.494C17.066,49.494 16.735,49.163 16.735,48.756L16.735,6.772C16.735,6.365 17.066,6.034 17.473,6.034L59.457,6.034C59.864,6.034 60.195,6.365 60.195,6.772Z" style="fill:rgb(145,107,219);"/>
            <path d="M24.52,36.28C24.01,36.4 23.53,36.4 23.09,36.28C22.65,36.16 22.29,35.97 22.02,35.67C21.74,35.37 21.58,34.99 21.52,34.51C21.44,33.79 21.4,33.42 21.32,32.69C21.28,32.42 21.17,32.23 20.95,32.11C20.73,31.99 20.49,31.96 20.21,32C19.54,32.12 19.19,32.18 18.51,32.3C18.4,31.6 18.34,31.26 18.23,30.56C18.9,30.45 19.23,30.39 19.89,30.28C20.17,30.23 20.39,30.1 20.54,29.91C20.68,29.72 20.73,29.5 20.66,29.24C20.46,28.51 20.36,28.14 20.18,27.4C20.07,26.95 20.07,26.55 20.19,26.17C20.31,25.8 20.53,25.5 20.84,25.24C21.15,24.99 21.54,24.82 21.98,24.71C22.4,24.62 22.62,24.57 23.03,24.47C23.2,25.15 23.27,25.5 23.43,26.18C23.15,26.25 23.02,26.27 22.73,26.35C22.49,26.4 22.32,26.5 22.2,26.65C22.08,26.8 22.06,26.99 22.13,27.25C22.34,27.98 22.45,28.35 22.66,29.08C22.79,29.52 22.71,29.92 22.39,30.27C22.07,30.62 21.58,30.87 20.91,30.99C20.91,30.95 20.91,30.94 20.9,30.91C21.56,30.78 22.1,30.82 22.54,31.02C22.98,31.22 23.24,31.55 23.3,32.02C23.41,32.76 23.45,33.14 23.56,33.88C23.6,34.1 23.71,34.27 23.9,34.36C24.09,34.45 24.3,34.48 24.56,34.43C24.87,34.36 25.02,34.32 25.33,34.25C25.5,34.93 25.57,35.28 25.73,35.96C25.25,36.08 25.01,36.13 24.53,36.23L24.53,36.27L24.52,36.28Z" style="fill-opacity:0.5;fill-rule:nonzero;"/>
            <path d="M53.83,24.28C53.45,23.69 53.28,23.38 52.9,22.79C53.17,22.62 53.3,22.54 53.56,22.37C53.77,22.23 53.91,22.06 53.98,21.85C54.04,21.65 54,21.45 53.86,21.27C53.4,20.67 53.18,20.37 52.72,19.77C52.44,19.39 52.38,18.98 52.54,18.53C52.71,18.07 53.07,17.66 53.61,17.29C53.63,17.31 53.65,17.34 53.66,17.36C53.12,17.74 52.6,17.91 52.11,17.89C51.63,17.87 51.28,17.65 51.06,17.25C50.69,16.59 50.51,16.26 50.14,15.59C50.01,15.35 49.84,15.22 49.67,15.21C49.48,15.19 49.29,15.25 49.08,15.39C48.84,15.54 48.71,15.61 48.48,15.77C48.1,15.18 47.93,14.87 47.55,14.28C47.92,14.06 48.09,13.94 48.46,13.7C48.85,13.45 49.24,13.3 49.64,13.25C50.04,13.2 50.41,13.26 50.76,13.44C51.11,13.62 51.4,13.9 51.63,14.29C52.02,14.94 52.21,15.27 52.6,15.93C52.73,16.15 52.92,16.28 53.17,16.31C53.42,16.35 53.65,16.27 53.88,16.11C54.43,15.72 54.71,15.53 55.25,15.13C55.66,15.7 55.88,15.98 56.29,16.55C55.74,16.95 55.45,17.15 54.89,17.55C54.65,17.72 54.51,17.92 54.44,18.15C54.37,18.39 54.43,18.61 54.59,18.82C55.05,19.39 55.27,19.67 55.73,20.24C56.03,20.61 56.19,21 56.2,21.4C56.21,21.81 56.11,22.2 55.88,22.59C55.64,22.98 55.31,23.31 54.86,23.61C54.45,23.88 54.23,24.01 53.82,24.27C53.41,24.53 53.83,24.28 53.83,24.28Z" style="fill-opacity:0.5;fill-rule:nonzero;"/>
            <g transform="matrix(0.91297,-0.408028,0.408028,0.91297,35.47,32.932)">
                <g>
                    <text x="0px" y="0px" style="font-family:'Heebo-Regular', 'Heebo';font-size:18px;">2</text>
                </g>
            </g>
        </g>
        <g transform="matrix(5.31538,0,0,5.31538,452.02,1031.18)">
            <path d="M52.15,87.51C57.53,84.76 61.59,84.57 65.62,80.07C71.13,73.92 74.8,66.39 76.58,58.34C77.26,55.28 75.3,51.73 72.09,51.14C68.88,50.55 65.62,52.35 64.89,55.63C64.46,57.56 63.89,59.41 63.28,61.29C63.13,61.72 63.17,61.6 63.42,60.93C63.3,61.24 63.18,61.54 63.05,61.84C62.88,62.24 62.71,62.64 62.53,63.03C62.18,63.8 61.81,64.55 61.41,65.3C60.66,66.72 59.81,68.08 58.9,69.4C58.17,70.46 59.64,68.46 58.9,69.38C58.66,69.68 58.44,69.98 58.2,70.27C57.7,70.89 57.17,71.5 56.63,72.1C55.63,73.19 54.58,74.23 53.47,75.21C53.21,75.44 52.95,75.66 52.69,75.88C51.85,76.6 53.77,75.05 52.83,75.76C52.31,76.16 51.79,76.56 51.25,76.95C49.21,78.42 47.06,79.7 44.82,80.84C42.01,82.27 42.13,83.08 43.85,85.6C45.82,88.47 49.12,89.04 52.12,87.52L52.15,87.51Z" style="fill:url(#_Linear3);fill-rule:nonzero;"/>
            <g transform="matrix(0.707107,-0.707107,0.707107,0.707107,5.14,54.53)">
                <circle cx="68.39" cy="21.06" r="21.06" style="fill:url(#_Linear4);"/>
            </g>
            <path d="M109.36,75.4L106.28,50.02C105.02,41.05 95.29,36.93 87.3,39.48C84.17,40.48 81.25,42.07 78.17,43.21C74.34,44.63 69.49,45.58 67.01,49.17C64.45,52.89 64.1,58.21 64.63,62.55C64.67,62.87 64.7,63.18 64.71,63.5C64.81,66.1 64.92,68.69 65.02,71.29C65.13,74.07 64.35,80.23 66.27,82.33C67.06,83.19 68.28,83.49 69.45,83.58C79.14,84.29 88.83,85.1 98.51,85.87C104.8,86.37 110.08,81.28 109.37,75.4L109.36,75.4Z" style="fill:url(#_Linear5);fill-rule:nonzero;"/>
            <path d="M90.51,82.62L43.38,77.66C41.5,77.44 37.64,77.42 32.75,78.26L11.89,80.96C9.81,82.21 10.13,84.59 12.5,85.53L55.26,93.41C57.89,93.77 59.08,93.74 61.08,93.3L91.55,87.21C93.61,85.86 93.06,83.41 90.51,82.6L90.51,82.62Z" style="fill:url(#_Linear6);fill-rule:nonzero;"/>
            <path d="M55.72,89.94L12.21,82.37C10.79,82.12 9.63,81.1 9.21,79.71L0.17,49.96C-0.62,47.38 1.45,44.81 4.14,45.04L47.99,48.68C49.61,48.81 50.97,49.96 51.38,51.54L60.07,85.22C60.76,87.91 58.45,90.42 55.71,89.94L55.72,89.94Z" style="fill:url(#_Linear7);fill-rule:nonzero;"/>
            <path d="M83.16,96.24C89.57,91.51 95.2,85.82 99.07,78.79C103.84,70.12 105.62,60.13 104.8,50.31C104.54,47.19 102.07,44.21 98.69,44.42C95.62,44.61 92.52,47.19 92.8,50.53C92.99,52.8 93.06,55.09 92.96,57.37C92.93,57.99 92.89,58.62 92.84,59.24C92.81,59.6 92.77,61.05 92.83,59.51C92.79,60.54 92.52,61.61 92.32,62.62C91.9,64.7 91.33,66.75 90.59,68.75C90.5,69 90.4,69.26 90.3,69.51C90.65,68.64 90.7,68.52 90.45,69.14C90.29,69.5 90.13,69.87 89.97,70.23C89.56,71.11 89.12,71.98 88.65,72.84C87.78,74.43 86.78,75.93 85.74,77.41C85.12,78.29 86.63,76.29 85.59,77.61C85.37,77.89 85.14,78.16 84.92,78.44C84.36,79.11 83.78,79.76 83.19,80.4C82.09,81.58 80.92,82.7 79.71,83.77C79.15,84.26 78.59,84.74 78.01,85.21C76.78,86.21 78.83,84.6 78.01,85.21C77.69,85.45 77.37,85.69 77.05,85.93C75.73,86.9 74.72,87.96 74.3,89.61C73.94,91.04 74.13,92.9 74.95,94.16C76.58,96.66 80.48,98.25 83.17,96.26L83.16,96.24Z" style="fill:url(#_Linear8);fill-rule:nonzero;"/>
        </g>
        <g transform="matrix(4.31226,0,0,4.31226,2101.73,116.736)">
            <path d="M103.46,0L10.12,0C6.5,0 3.58,3.36 3.58,7.5L3.58,19.25L2.22,19.25C1,19.25 0.01,20.39 0.01,21.79L0.01,31.71C0.01,33.11 1,34.25 2.22,34.25L3.58,34.25L3.58,55.75L2.22,55.75C1,55.75 0.01,56.89 0.01,58.29L0.01,68.21C0.01,69.61 1,70.75 2.22,70.75L3.58,70.75L3.58,82.5C3.58,86.64 6.51,90 10.12,90L103.46,90C107.07,90 110,86.64 110,82.5L110,7.5C110,3.36 107.07,0 103.46,0Z" style="fill:url(#_Linear9);fill-rule:nonzero;"/>
            <path d="M17.64,95.97C17.92,96.7 18.63,97.18 19.41,97.18L32.96,97.18C33.74,97.18 34.45,96.7 34.73,95.97L37.16,89.68L15.21,89.68L17.64,95.97Z" style="fill:rgb(67,37,124);fill-rule:nonzero;"/>
            <path d="M78.7,89.69L81.13,95.98C81.41,96.71 82.12,97.19 82.9,97.19L96.45,97.19C97.23,97.19 97.94,96.71 98.22,95.98L100.65,89.69L78.69,89.69L78.7,89.69Z" style="fill:rgb(67,37,124);fill-rule:nonzero;"/>
            <path d="M100.65,10.101L100.65,79.099C100.65,79.745 100.125,80.27 99.479,80.27L14.091,80.27C13.445,80.27 12.92,79.745 12.92,79.099L12.92,10.101C12.92,9.455 13.445,8.93 14.091,8.93L99.479,8.93C100.125,8.93 100.65,9.455 100.65,10.101Z" style="fill:none;stroke:url(#_Linear10);stroke-width:2px;stroke-linecap:butt;stroke-linejoin:miter;stroke-miterlimit:10;"/>
            <circle cx="56.79" cy="44.6" r="13.89" style="fill:url(#_Linear11);"/>
            <path d="M93.81,40.23L59.55,40.23C57.96,37.48 56.37,34.72 54.78,31.97C51.4,26.11 48.01,20.24 44.63,14.38C43.86,13.04 43.08,11.7 42.31,10.36C41.14,8.33 38.21,7.45 36.19,8.75C34.14,10.07 33.33,12.7 34.58,14.87C36.69,18.53 38.8,22.19 40.92,25.85C44.3,31.71 47.69,37.58 51.07,43.44C51.28,43.8 51.49,44.17 51.7,44.53C50.11,47.28 48.52,50.03 46.94,52.78C43.56,58.64 40.17,64.51 36.79,70.37C36.02,71.71 35.24,73.05 34.47,74.39C33.3,76.42 33.93,79.38 36.08,80.51C38.22,81.64 40.95,81.07 42.2,78.9C44.31,75.24 46.42,71.58 48.54,67.92C51.92,62.06 55.31,56.19 58.69,50.33C58.91,49.94 59.14,49.56 59.36,49.17L93.83,49.17C96.17,49.17 98.41,47.11 98.31,44.69C98.2,42.27 96.34,40.21 93.83,40.21L93.81,40.23Z" style="fill:url(#_Linear12);fill-rule:nonzero;"/>
        </g>
        <g transform="matrix(1,0,0,1,-67.4094,71.6263)">
            <text x="2492.85px" y="714.765px" style="font-family:'Arial-BoldMT', 'Arial', sans-serif;font-weight:700;font-size:48px;">REQUEST</text>
            <text x="2492.85px" y="764.335px" style="font-family:'Arial-BoldMT', 'Arial', sans-serif;font-weight:700;font-size:48px;">T<tspan x="2521.3px 2558.64px " y="764.335px 764.335px ">OK</tspan>EN</text>
            <g transform="matrix(48,0,0,48,2764.89,813.905)">
            </g>
            <text x="2492.85px" y="813.905px" style="font-family:'Arial-BoldMT', 'Arial', sans-serif;font-weight:700;font-size:48px;">EXCHANGE</text>
        </g>
    </g>
    <g id="duende-icon-user.svg">
    </g>
    <g id="duende-icon-vault.svg">
    </g>
    <defs>
        <linearGradient id="_Linear1" x1="0" y1="0" x2="1" y2="0" gradientUnits="userSpaceOnUse" gradientTransform="matrix(3.40942e-15,-55.68,55.68,3.40942e-15,38.315,55.68)"><stop offset="0" style="stop-color:rgb(70,39,127);stop-opacity:1"/><stop offset="0.49" style="stop-color:rgb(90,54,151);stop-opacity:1"/><stop offset="1" style="stop-color:rgb(109,68,173);stop-opacity:1"/></linearGradient>
        <linearGradient id="_Linear2" x1="0" y1="0" x2="1" y2="0" gradientUnits="userSpaceOnUse" gradientTransform="matrix(3.40942e-15,-55.68,55.68,3.40942e-15,38.315,55.68)"><stop offset="0" style="stop-color:rgb(70,39,127);stop-opacity:1"/><stop offset="0.49" style="stop-color:rgb(90,54,151);stop-opacity:1"/><stop offset="1" style="stop-color:rgb(109,68,173);stop-opacity:1"/></linearGradient>
        <linearGradient id="_Linear3" x1="0" y1="0" x2="1" y2="0" gradientUnits="userSpaceOnUse" gradientTransform="matrix(34.07,0,0,34.07,42.65,69.68)"><stop offset="0" style="stop-color:rgb(67,37,124);stop-opacity:1"/><stop offset="1" style="stop-color:rgb(110,69,175);stop-opacity:1"/></linearGradient>
        <linearGradient id="_Linear4" x1="0" y1="0" x2="1" y2="0" gradientUnits="userSpaceOnUse" gradientTransform="matrix(29.7904,29.7904,-29.7904,29.7904,53.5057,6.16903)"><stop offset="0" style="stop-color:rgb(110,69,175);stop-opacity:1"/><stop offset="1" style="stop-color:rgb(145,107,219);stop-opacity:1"/></linearGradient>
        <linearGradient id="_Linear5" x1="0" y1="0" x2="1" y2="0" gradientUnits="userSpaceOnUse" gradientTransform="matrix(2026.17,0,0,2026.17,2964.35,2978.27)"><stop offset="0" style="stop-color:rgb(110,69,175);stop-opacity:1"/><stop offset="1" style="stop-color:rgb(145,107,219);stop-opacity:1"/></linearGradient>
        <linearGradient id="_Linear6" x1="0" y1="0" x2="1" y2="0" gradientUnits="userSpaceOnUse" gradientTransform="matrix(6774.25,0,0,6774.25,874.676,1457.96)"><stop offset="0" style="stop-color:rgb(67,37,124);stop-opacity:1"/><stop offset="1" style="stop-color:rgb(110,69,175);stop-opacity:1"/></linearGradient>
        <linearGradient id="_Linear7" x1="0" y1="0" x2="1" y2="0" gradientUnits="userSpaceOnUse" gradientTransform="matrix(3623.64,0,0,3623.64,-0.00010195,3081.2)"><stop offset="0" style="stop-color:rgb(67,37,124);stop-opacity:1"/><stop offset="1" style="stop-color:rgb(110,69,175);stop-opacity:1"/></linearGradient>
        <linearGradient id="_Linear8" x1="0" y1="0" x2="1" y2="0" gradientUnits="userSpaceOnUse" gradientTransform="matrix(2077.41,40.7187,-40.7187,2077.41,2302.65,3767.22)"><stop offset="0" style="stop-color:rgb(110,69,175);stop-opacity:1"/><stop offset="1" style="stop-color:rgb(145,107,219);stop-opacity:1"/></linearGradient>
        <linearGradient id="_Linear9" x1="0" y1="0" x2="1" y2="0" gradientUnits="userSpaceOnUse" gradientTransform="matrix(110,0,0,110,0,45)"><stop offset="0" style="stop-color:rgb(67,37,124);stop-opacity:1"/><stop offset="1" style="stop-color:rgb(110,69,175);stop-opacity:1"/></linearGradient>
        <linearGradient id="_Linear10" x1="0" y1="0" x2="1" y2="0" gradientUnits="userSpaceOnUse" gradientTransform="matrix(89.73,0,0,89.73,11.92,44.6)"><stop offset="0" style="stop-color:rgb(110,69,175);stop-opacity:0.53"/><stop offset="1" style="stop-color:rgb(145,107,219);stop-opacity:0.53"/></linearGradient>
        <linearGradient id="_Linear11" x1="0" y1="0" x2="1" y2="0" gradientUnits="userSpaceOnUse" gradientTransform="matrix(27.78,0,0,27.78,42.9,44.6)"><stop offset="0" style="stop-color:rgb(211,196,241);stop-opacity:0.38"/><stop offset="1" style="stop-color:white;stop-opacity:0.38"/></linearGradient>
        <linearGradient id="_Linear12" x1="0" y1="0" x2="1" y2="0" gradientUnits="userSpaceOnUse" gradientTransform="matrix(4149.52,0,0,4149.52,2216.56,3261.22)"><stop offset="0" style="stop-color:rgb(211,196,241);stop-opacity:1"/><stop offset="1" style="stop-color:white;stop-opacity:1"/></linearGradient>
    </defs>
</svg>
