<?xml version="1.0" encoding="UTF-8"?>
<!-- Generated by Pixelmator Pro 3.6.17 -->
<svg width="1450" height="1011" viewBox="0 0 1450 1011" xmlns="http://www.w3.org/2000/svg">
    <path id="Rectangle" fill="#ffffff" fill-rule="evenodd" stroke="none" d="M -28.684471 1031 L 1478.684448 1031 L 1478.684448 -20 L -28.684471 -20 Z"/>
    <path id="Rounded-Rectangle" fill="none" stroke="#916bdb" stroke-width="10" d="M 68 199 C 68 221.09137 85.908607 239 108 239 L 264 239 C 286.09137 239 304 221.09137 304 199 L 304 76 C 304 53.90863 286.09137 36 264 36 L 108 36 C 85.908607 36 68 53.90863 68 76 Z"/>
    <path id="Rounded-Rectangle-copy" fill="none" stroke="#916bdb" stroke-width="10" d="M 622 563 C 622 585.091431 639.90863 603 662 603 L 1111 603 C 1133.091431 603 1151 585.091431 1151 563 L 1151 62 C 1151 39.90863 1133.091431 22 1111 22 L 662 22 C 639.90863 22 622 39.90863 622 62 Z"/>
    <path id="Rounded-Rectangle-copy-2" fill="none" stroke="#916bdb" stroke-width="10" d="M 59 578 C 59 600.091431 76.908607 618 99 618 L 252 618 C 274.09137 618 292 600.091431 292 578 L 292 462 C 292 439.90863 274.09137 422 252 422 L 99 422 C 76.908607 422 59 439.90863 59 462 Z"/>
    <path id="Rounded-Rectangle-copy-4" fill="none" stroke="#916bdb" stroke-width="10" d="M 725 330 C 725 352.09137 742.90863 370 765 370 L 1034 370 C 1056.091431 370 1074 352.09137 1074 330 L 1074 294 C 1074 271.90863 1056.091431 254 1034 254 L 765 254 C 742.90863 254 725 271.90863 725 294 Z"/>
    <path id="Rounded-Rectangle-copy-5" fill="none" stroke="#916bdb" stroke-width="10" d="M 725 505 C 725 527.091431 742.90863 545 765 545 L 1034 545 C 1056.091431 545 1074 527.091431 1074 505 L 1074 469 C 1074 446.90863 1056.091431 429 1034 429 L 765 429 C 742.90863 429 725 446.90863 725 469 Z"/>
    <g id="User-copy">
        <path id="noun-authentication-7464752" fill="#916bdb" stroke="none" d="M 1263.441895 914.332947 C 1264.128296 915.896973 1264.913574 917.408264 1265.784668 918.860168 C 1260.577759 922.192993 1254.855835 925.215454 1248.751587 927.855225 C 1248.428101 927.993835 1248.084961 928.066406 1247.741821 928.066406 C 1247.398682 928.066406 1247.05542 927.993835 1246.738647 927.855225 C 1230.121338 920.674988 1216.784546 910.855835 1206.897705 898.553162 L 1208.79187 892.976563 C 1213.840454 875.771118 1229.712402 863.846863 1247.742432 863.846863 C 1255.780518 863.846863 1263.449219 866.150146 1270.075439 870.532104 C 1263.759644 877.804688 1259.932007 887.288208 1259.932007 897.656433 C 1259.932007 903.589294 1261.185913 909.231934 1263.442871 914.339844 Z M 1247.741699 815.637878 C 1235.849487 815.637878 1226.174072 825.312744 1226.174072 837.205566 C 1226.174072 849.098389 1235.848877 858.773254 1247.741699 858.773254 C 1259.634033 858.773254 1269.309448 849.098389 1269.309448 837.205566 C 1269.309448 825.312744 1259.634521 815.637878 1247.741699 815.637878 Z M 1337.692139 897.649475 C 1337.692139 917.691589 1321.384888 934 1301.341675 934 C 1281.29834 934 1264.997925 917.692749 1264.997925 897.649475 C 1264.997925 877.607361 1281.298462 861.299011 1301.341675 861.299011 C 1321.384766 861.299011 1337.692139 877.606201 1337.692139 897.649475 Z M 1321.239624 889.010742 C 1321.239624 886.073975 1318.850586 883.678467 1315.907349 883.678467 L 1312.363403 883.678467 L 1312.363403 877.86438 C 1312.363403 871.792725 1307.420288 866.843323 1301.342285 866.843323 C 1295.270752 866.843323 1290.321289 871.786316 1290.321289 877.86438 L 1290.321289 883.678467 L 1286.783936 883.678467 C 1283.847046 883.678467 1281.451538 886.067505 1281.451538 889.010742 L 1281.451538 918.133728 C 1281.451538 921.070496 1283.840698 923.466003 1286.783936 923.466003 L 1315.900024 923.466003 C 1318.836914 923.466003 1321.232422 921.076904 1321.232422 918.133728 L 1321.232422 889.010742 Z M 1234.997559 860.587219 C 1226.728516 856.059937 1221.105713 847.276123 1221.105713 837.205078 C 1221.105713 822.52124 1233.050659 810.56897 1247.741699 810.56897 C 1262.425537 810.56897 1274.377808 822.513977 1274.377808 837.205078 C 1274.377808 847.262573 1268.774902 856.039185 1260.518921 860.566956 C 1265.191406 861.9198 1269.619629 864.031738 1273.691528 866.849731 C 1281.030273 860.250366 1290.731445 856.231079 1301.349731 856.231079 C 1301.686279 856.231079 1302.016357 856.231079 1302.352905 856.244324 C 1304.075317 856.283936 1305.764771 856.429077 1307.434448 856.679871 C 1310.199585 842.537231 1310.602173 826.494263 1308.628906 808.939026 C 1308.490356 807.751099 1307.540039 806.814026 1306.345459 806.701843 C 1285.206909 804.702148 1266.023071 796.868652 1249.3396 783.426086 C 1248.409058 782.680359 1247.089233 782.680359 1246.158691 783.426086 C 1229.47522 796.869141 1210.291382 804.703186 1189.152832 806.701843 C 1187.958252 806.814026 1187.008057 807.75116 1186.869385 808.939026 C 1183.576172 838.254578 1186.928711 863.126831 1196.834473 882.866577 C 1198.609741 886.410522 1200.609375 889.802612 1202.82019 893.042847 C 1203.895996 890.290894 1205.479736 887.109985 1205.479736 887.109985 C 1210.785645 874.155151 1221.76062 864.440735 1234.999756 860.587097 Z M 1316.171265 889.010742 L 1316.171265 918.133728 C 1316.171265 918.272339 1316.045898 918.397705 1315.907227 918.397705 L 1286.791016 918.397705 C 1286.645874 918.397705 1286.5271 918.272339 1286.5271 918.133728 L 1286.5271 889.010742 C 1286.5271 888.872192 1286.645874 888.746765 1286.791016 888.746765 L 1315.907227 888.746765 C 1316.045898 888.746765 1316.171265 888.872192 1316.171265 889.010742 Z M 1310.515381 896.138245 C 1309.472656 895.207764 1307.869019 895.30011 1306.938477 896.342834 L 1298.867432 905.390747 L 1295.693115 902.11084 C 1294.723022 901.101135 1293.119385 901.081299 1292.109619 902.051453 C 1291.099854 903.021545 1291.073486 904.625183 1292.043579 905.634949 L 1297.111938 910.881592 C 1297.587158 911.376526 1298.24707 911.653748 1298.939941 911.653748 L 1298.992798 911.653748 C 1299.698853 911.640503 1300.365479 911.336975 1300.833984 910.80896 L 1310.719971 899.728455 C 1311.657104 898.685791 1311.564697 897.082092 1310.515381 896.15155 Z M 1307.301514 877.86499 C 1307.301514 874.585083 1304.635376 871.912354 1301.348877 871.912354 C 1298.06897 871.912354 1295.39624 874.585083 1295.39624 877.86499 L 1295.39624 883.679138 L 1307.295166 883.679138 L 1307.295166 877.86499 Z"/>
        <path id="noun-authentication-7464752-copy" fill="#633e9e" stroke="none" d="M 1337.692139 897.649475 C 1337.692139 917.691589 1321.384888 934 1301.341675 934 C 1281.29834 934 1264.997925 917.692749 1264.997925 897.649475 C 1264.997925 877.607422 1281.298584 861.29895 1301.341675 861.29895 C 1321.384766 861.29895 1337.692139 877.606201 1337.692139 897.649475 Z M 1321.239624 889.010742 C 1321.239624 886.073914 1318.850586 883.678467 1315.907349 883.678467 L 1312.363403 883.678467 L 1312.363403 877.86438 C 1312.363403 871.792725 1307.420288 866.843323 1301.342285 866.843323 C 1295.270752 866.843323 1290.321289 871.786377 1290.321289 877.86438 L 1290.321289 883.678467 L 1286.783813 883.678467 C 1283.847046 883.678467 1281.451538 886.067566 1281.451538 889.010742 L 1281.451538 918.133728 C 1281.451538 921.070496 1283.840698 923.466064 1286.783813 923.466064 L 1315.900024 923.466064 C 1318.836914 923.466064 1321.232422 921.076965 1321.232422 918.133728 L 1321.232422 889.010742 Z M 1316.171265 889.010742 L 1316.171265 918.133728 C 1316.171265 918.272278 1316.045898 918.397705 1315.907227 918.397705 L 1286.791016 918.397705 C 1286.645874 918.397705 1286.5271 918.272278 1286.5271 918.133728 L 1286.5271 889.010742 C 1286.5271 888.872131 1286.645874 888.746765 1286.791016 888.746765 L 1315.907227 888.746765 C 1316.045898 888.746765 1316.171265 888.872131 1316.171265 889.010742 Z M 1310.515381 896.138245 C 1309.472656 895.207764 1307.869019 895.300171 1306.938477 896.342834 L 1298.867432 905.390747 L 1295.693115 902.11084 C 1294.723022 901.101135 1293.119385 901.081299 1292.109619 902.051392 C 1291.099854 903.021545 1291.073486 904.625122 1292.043579 905.634949 L 1297.111938 910.881592 C 1297.587158 911.376526 1298.24707 911.653687 1298.939941 911.653687 L 1298.992798 911.653687 C 1299.698853 911.640503 1300.365479 911.336975 1300.833984 910.809021 L 1310.719971 899.728455 C 1311.657104 898.68573 1311.564697 897.082092 1310.515381 896.151489 Z M 1307.301514 877.86499 C 1307.301514 874.585083 1304.635376 871.912354 1301.348877 871.912354 C 1298.06897 871.912354 1295.39624 874.585083 1295.39624 877.86499 L 1295.39624 883.679138 L 1307.295166 883.679138 L 1307.295166 877.86499 Z"/>
    </g>
    <g id="Line">
        <path id="path1" fill="none" stroke="#000000" stroke-width="10" d="M 1167 858 L 1049 858"/>
        <path id="path2" fill="#000000" stroke="none" d="M 1064 843 L 1034 858 L 1064 873 Z"/>
    </g>
    <g id="g1">
        <path id="path3" fill="none" stroke="#000000" stroke-width="10" d="M 850 760 L 850 573"/>
        <path id="path4" fill="#000000" stroke="none" d="M 865 588 L 850 558 L 835 588 Z"/>
    </g>
    <g id="Shape">
        <path id="path5" fill="none" stroke="#000000" stroke-width="10" d="M 1099 487 L 1200.393433 385.606598"/>
        <path id="path6" fill="#000000" stroke="none" d="M 1200.393433 406.819794 L 1211 375 L 1179.180176 385.606598 Z"/>
        <path id="path7" fill="none" stroke="#000000" stroke-width="10" d="M 1090 312 L 1196 312"/>
        <path id="path8" fill="#000000" stroke="none" d="M 1181 327 L 1211 312 L 1181 297 Z"/>
        <path id="path9" fill="none" stroke="#000000" stroke-width="10" d="M 634 171 L 714.157776 247.634369"/>
        <path id="path10" fill="#000000" stroke="none" d="M 692.949951 248.110947 L 725 258 L 713.681213 226.426514 Z"/>
        <path id="path11" fill="none" stroke="#000000" stroke-width="10" d="M 634 447 L 713.236694 384.30722"/>
        <path id="path12" fill="#000000" stroke="none" d="M 710.78064 405.377777 L 725 375 L 692.166138 381.851166 Z"/>
        <path id="path13" fill="none" stroke="#000000" stroke-width="10" d="M 322 447 L 482 447"/>
        <path id="path14" fill="#000000" stroke="none" d="M 467 462 L 497 447 L 467 432 Z"/>
        <path id="path15" fill="none" stroke="#000000" stroke-width="10" d="M 186 760 L 185.118103 647.999512"/>
        <path id="path16" fill="#000000" stroke="none" d="M 200.235748 662.880981 L 185 633 L 170.236679 663.117188 Z"/>
        <path id="path17" fill="none" stroke="#000000" stroke-width="10" d="M 186 397 L 186 273"/>
        <path id="path18" fill="#000000" stroke="none" d="M 201 288 L 186 258 L 171 288 Z"/>
        <path id="path19" fill="none" stroke="#000000" stroke-width="10" d="M 322 171 L 482 171"/>
        <path id="path20" fill="#000000" stroke="none" d="M 467 186 L 497 171 L 467 156 Z"/>
    </g>
    <path id="Rounded-Rectangle-copy-3" fill="none" stroke="#916bdb" stroke-width="10" d="M 47 898 C 47 920.09137 64.908607 938 87 938 L 981 938 C 1003.09137 938 1021 920.09137 1021 898 L 1021 819 C 1021 796.90863 1003.09137 779 981 779 L 87 779 C 64.908607 779 47 796.90863 47 819 Z"/>
    <text id="introspection" xml:space="preserve" x="446" y="220" font-family="Roboto" font-size="24" font-weight="700" fill="#000000">introspection</text>
    <text id="token" xml:space="preserve"><tspan x="487" y="414" font-family="Roboto" font-size="24" font-weight="700" fill="#000000" xml:space="preserve">t</tspan><tspan font-family="Roboto" font-size="24" font-weight="700" fill="#000000" xml:space="preserve">o</tspan><tspan font-family="Roboto" font-size="24" font-weight="700" fill="#000000" xml:space="preserve">k</tspan><tspan font-family="Roboto" font-size="24" font-weight="700" fill="#000000" xml:space="preserve">e</tspan><tspan font-family="Roboto" font-size="24" font-weight="700" fill="#000000" xml:space="preserve">n</tspan></text>
    <g id="g2">
        <path id="path21" fill="none" stroke="#916bdb" stroke-width="10" d="M 622 451 L 523.99939 451.867249"/>
        <path id="path22" fill="#916bdb" stroke="none" d="M 524.132141 466.866669 C 515.848206 466.939972 509.073303 460.283936 509 452 C 508.926697 443.716064 515.582703 436.941162 523.866699 436.867859 C 532.150635 436.794525 538.925537 443.450562 538.99884 451.734528 C 539.072144 460.018463 532.416077 466.793365 524.132141 466.866669 Z"/>
    </g>
    <g id="Line-copy">
        <path id="path23" fill="none" stroke="#916bdb" stroke-width="10" d="M 622 171 L 523.99939 171.867264"/>
        <path id="path24" fill="#916bdb" stroke="none" d="M 524.132141 186.866669 C 515.848206 186.939987 509.073303 180.283951 509 172 C 508.926697 163.716049 515.582703 156.941162 523.866699 156.867844 C 532.150635 156.79454 538.925537 163.450577 538.99884 171.734528 C 539.072144 180.018463 532.416077 186.793365 524.132141 186.866669 Z"/>
    </g>
    <text id="access-sub-123-sid" xml:space="preserve"><tspan x="443" y="40" font-family="Roboto" font-size="18" font-weight="500" fill="#000000" xml:space="preserve">access</tspan><tspan x="443" y="58.9" font-family="Roboto" font-size="18" font-weight="500" fill="#000000" xml:space="preserve">sub: 123</tspan><tspan x="443" y="77.8" font-family="Roboto" font-size="18" font-weight="500" fill="#000000" xml:space="preserve">sid: 456</tspan></text>
    <g id="Group">
        <text id="text1" xml:space="preserve"><tspan x="99" y="325" font-family="Roboto" font-size="18" font-weight="500" fill="#000000" xml:space="preserve">access</tspan><tspan x="99" y="343.9" font-family="Roboto" font-size="18" font-weight="500" fill="#000000" xml:space="preserve">sub: 123</tspan><tspan x="99" y="362.8" font-family="Roboto" font-size="18" font-weight="500" fill="#000000" xml:space="preserve">sid: 456</tspan></text>
        <path id="noun-globe-6147862" fill="#000000" stroke="none" d="M 91.756577 344.821106 L 91.756577 327.178894 C 94.279846 326.668335 96.186317 324.434265 96.186317 321.762695 C 96.186317 318.715576 93.707314 316.236572 90.660202 316.236572 C 89.014168 316.236572 87.534889 316.961121 86.521149 318.106873 L 71.237633 309.283569 C 71.423561 308.730957 71.526115 308.139954 71.526115 307.526123 C 71.526115 304.479004 69.047112 302 66 302 C 62.952888 302 60.473885 304.479004 60.473885 307.526123 C 60.473885 308.140686 60.576439 308.730957 60.762363 309.283569 L 45.478855 318.106873 C 44.465855 316.961121 42.985828 316.236572 41.339802 316.236572 C 38.29269 316.236572 35.813686 318.715576 35.813686 321.762695 C 35.813686 324.434265 37.719421 326.669067 40.243431 327.178894 L 40.243431 344.821106 C 37.720158 345.331665 35.813686 347.565735 35.813686 350.237305 C 35.813686 353.284424 38.29269 355.763428 41.339802 355.763428 C 42.985828 355.763428 44.465118 355.038879 45.478855 353.893127 L 60.762363 362.716431 C 60.576439 363.269043 60.473885 363.860046 60.473885 364.473877 C 60.473885 367.520996 62.952888 370 66 370 C 69.047112 370 71.526115 367.520996 71.526115 364.473877 C 71.526115 363.859314 71.423561 363.269043 71.237633 362.716431 L 86.521149 353.893127 C 87.534142 355.038879 89.014168 355.763428 90.660202 355.763428 C 93.707314 355.763428 96.186317 353.284424 96.186317 350.237305 C 96.186317 347.565735 94.280579 345.330933 91.756577 344.821106 Z M 85.133347 350.237305 C 85.133347 350.851868 85.235901 351.442139 85.421822 351.994751 L 70.138313 360.818115 C 69.12532 359.672302 67.646027 358.947754 65.99926 358.947754 C 64.352493 358.947754 62.873947 359.672302 61.86021 360.818115 L 46.576698 351.994751 C 46.762627 351.442139 46.865177 350.851135 46.865177 350.237305 C 46.865177 347.565735 44.959442 345.330933 42.435432 344.821106 L 42.435432 327.178894 C 44.958706 326.668335 46.865177 324.434265 46.865177 321.762695 C 46.865177 321.148132 46.762627 320.557861 46.576698 320.005249 L 61.86021 311.181885 C 62.873207 312.327698 64.353233 313.052246 65.99926 313.052246 C 67.645294 313.052246 69.12458 312.327698 70.138313 311.181885 L 85.421822 320.005249 C 85.235901 320.557861 85.133347 321.148865 85.133347 321.762695 C 85.133347 324.434265 87.039078 326.669067 89.562355 327.178894 L 89.562355 344.821106 C 87.039078 345.331665 85.133347 347.565735 85.133347 350.237305 Z M 66 316.890259 C 55.462753 316.890259 46.890263 325.462769 46.890263 336 C 46.890263 346.537231 55.462753 355.109741 66 355.109741 C 76.537247 355.109741 85.109741 346.537231 85.109741 336 C 85.109741 325.462769 76.537247 316.890259 66 316.890259 Z M 78.018013 324.107422 C 76.411819 324.680664 74.570274 325.115967 72.606255 325.412598 C 72.370895 324.522034 72.106026 323.675049 71.810165 322.887085 C 71.323219 321.591492 70.767662 320.492188 70.158241 319.601685 C 73.183952 320.368958 75.887245 321.954529 78.018013 324.107422 Z M 60.340343 334.902893 C 60.400841 332.323547 60.673828 329.938232 61.092159 327.843628 C 62.696873 328.009644 64.348808 328.093018 66 328.093018 C 67.651192 328.093018 69.303131 328.009644 70.907845 327.843628 C 71.326172 329.938232 71.598419 332.323547 71.65966 334.902893 L 60.340343 334.902893 Z M 71.65966 337.096375 C 71.599159 339.676453 71.326172 342.061768 70.907845 344.156372 C 67.69841 343.824341 64.30159 343.824341 61.092159 344.156372 C 60.673828 342.061768 60.400841 339.67572 60.340343 337.096375 L 71.65966 337.096375 Z M 66 319.083008 C 67.583321 319.083008 69.278046 321.613647 70.398758 325.68335 C 67.519867 325.95929 64.480873 325.95929 61.601982 325.68335 C 62.722694 321.613647 64.416687 319.083008 66.00074 319.083008 Z M 61.841763 319.600952 C 61.232342 320.491455 60.676781 321.591492 60.189831 322.886353 C 59.893974 323.674316 59.629105 324.521301 59.393749 325.411865 C 57.429726 325.115234 55.588181 324.679932 53.981987 324.106689 C 56.112751 321.953796 58.816051 320.368225 61.841763 319.600952 Z M 52.456219 325.874451 C 54.336872 326.629211 56.541416 327.190674 58.903847 327.560303 C 58.462643 329.829773 58.203674 332.319092 58.14613 334.902893 L 49.119892 334.902893 C 49.336807 331.531128 50.544582 328.424988 52.456219 325.874451 Z M 52.457695 346.126282 C 50.545322 343.575745 49.336807 340.468872 49.119892 337.096375 L 58.14613 337.096375 C 58.203674 339.680908 58.463383 342.170227 58.903847 344.44043 C 56.541416 344.810059 54.337608 345.372253 52.456959 346.126282 Z M 53.983467 347.893311 C 55.589653 347.320068 57.430462 346.884766 59.394485 346.588135 C 59.629845 347.478699 59.893974 348.324951 60.189831 349.112183 C 60.676781 350.407715 61.232342 351.50708 61.841763 352.397583 C 58.816788 351.630249 56.114231 350.045471 53.983467 347.893311 Z M 66 352.915527 C 64.416687 352.915527 62.722694 350.38562 61.601982 346.31665 C 64.480873 346.04071 67.519127 346.04071 70.398018 346.31665 C 69.277306 350.38562 67.583321 352.915527 66 352.915527 Z M 70.158241 352.397583 C 70.767662 351.50708 71.323219 350.407715 71.810165 349.112183 C 72.106026 348.324951 72.370895 347.477966 72.605515 346.588135 C 74.568802 346.884766 76.410347 347.320068 78.016541 347.893311 C 75.885773 350.045471 73.183212 351.630249 70.158241 352.397583 Z M 79.542305 346.126282 C 77.661652 345.371521 75.457848 344.810059 73.095413 344.44043 C 73.536621 342.170227 73.796326 339.680908 73.853134 337.096375 L 82.879372 337.096375 C 82.66246 340.468872 81.453941 343.575745 79.541565 346.126282 Z M 82.880104 334.902893 L 73.853874 334.902893 C 73.796326 332.319092 73.537354 329.829773 73.096153 327.560303 C 75.458588 327.190674 77.663132 326.629211 79.543785 325.874451 C 81.455414 328.424988 82.663193 331.531128 82.880104 334.902893 Z"/>
    </g>
    <g id="g3">
        <text id="refresh-sub-123-sid" xml:space="preserve"><tspan x="390" y="385" font-family="Roboto" font-size="18" font-weight="500" fill="#000000" xml:space="preserve">r</tspan><tspan font-family="Roboto" font-size="18" font-weight="500" fill="#000000" xml:space="preserve">e</tspan><tspan font-family="Roboto" font-size="18" font-weight="500" fill="#000000" xml:space="preserve">fres</tspan><tspan font-family="Roboto" font-size="18" font-weight="500" fill="#000000" xml:space="preserve">h</tspan><tspan x="390" y="403.9" font-family="Roboto" font-size="18" font-weight="500" fill="#000000" xml:space="preserve">sub: 123</tspan><tspan x="390" y="422.8" font-family="Roboto" font-size="18" font-weight="500" fill="#000000" xml:space="preserve">sid: 456</tspan></text>
        <path id="noun-globe-6147862-copy" fill="#000000" stroke="none" d="M 370.756561 403.821106 L 370.756561 386.178894 C 373.279846 385.668335 375.18631 383.434265 375.18631 380.762695 C 375.18631 377.715576 372.707306 375.236572 369.660217 375.236572 C 368.01416 375.236572 366.534882 375.961121 365.521149 377.106873 L 350.23764 368.283569 C 350.423553 367.730957 350.526123 367.139954 350.526123 366.526123 C 350.526123 363.479004 348.047119 361 345 361 C 341.952881 361 339.473877 363.479004 339.473877 366.526123 C 339.473877 367.140686 339.576447 367.730957 339.76236 368.283569 L 324.478851 377.106873 C 323.465851 375.961121 321.98584 375.236572 320.339813 375.236572 C 317.292694 375.236572 314.81369 377.715576 314.81369 380.762695 C 314.81369 383.434265 316.719421 385.669067 319.243439 386.178894 L 319.243439 403.821106 C 316.720154 404.331665 314.81369 406.565735 314.81369 409.237305 C 314.81369 412.284424 317.292694 414.763428 320.339813 414.763428 C 321.98584 414.763428 323.465118 414.038879 324.478851 412.893127 L 339.76236 421.716431 C 339.576447 422.269043 339.473877 422.860046 339.473877 423.473877 C 339.473877 426.520996 341.952881 429 345 429 C 348.047119 429 350.526123 426.520996 350.526123 423.473877 C 350.526123 422.859314 350.423553 422.269043 350.23764 421.716431 L 365.521149 412.893127 C 366.534149 414.038879 368.01416 414.763428 369.660217 414.763428 C 372.707306 414.763428 375.18631 412.284424 375.18631 409.237305 C 375.18631 406.565735 373.280579 404.330933 370.756561 403.821106 Z M 364.133331 409.237305 C 364.133331 409.851868 364.235901 410.442139 364.421814 410.994751 L 349.138306 419.818115 C 348.125305 418.672302 346.646027 417.947754 344.999268 417.947754 C 343.352509 417.947754 341.873932 418.672302 340.860199 419.818115 L 325.576691 410.994751 C 325.762634 410.442139 325.865173 409.851135 325.865173 409.237305 C 325.865173 406.565735 323.959442 404.330933 321.435425 403.821106 L 321.435425 386.178894 C 323.95871 385.668335 325.865173 383.434265 325.865173 380.762695 C 325.865173 380.148132 325.762634 379.557861 325.576691 379.005249 L 340.860199 370.181885 C 341.873199 371.327698 343.353241 372.052246 344.999268 372.052246 C 346.645294 372.052246 348.124573 371.327698 349.138306 370.181885 L 364.421814 379.005249 C 364.235901 379.557861 364.133331 380.148865 364.133331 380.762695 C 364.133331 383.434265 366.039093 385.669067 368.562347 386.178894 L 368.562347 403.821106 C 366.039093 404.331665 364.133331 406.565735 364.133331 409.237305 Z M 345 375.890259 C 334.462738 375.890259 325.890259 384.462769 325.890259 395 C 325.890259 405.537231 334.462738 414.109741 345 414.109741 C 355.537262 414.109741 364.109741 405.537231 364.109741 395 C 364.109741 384.462769 355.537262 375.890259 345 375.890259 Z M 357.018005 383.107422 C 355.411835 383.680664 353.570282 384.115967 351.606262 384.412598 C 351.37088 383.522034 351.106018 382.675049 350.810181 381.887085 C 350.323212 380.591492 349.76767 379.492188 349.158234 378.601685 C 352.18396 379.368958 354.887238 380.954529 357.018005 383.107422 Z M 339.340332 393.902893 C 339.400848 391.323547 339.673828 388.938232 340.092163 386.843628 C 341.696869 387.009644 343.348816 387.093018 345 387.093018 C 346.651184 387.093018 348.303131 387.009644 349.907837 386.843628 C 350.326172 388.938232 350.598419 391.323547 350.659668 393.902893 L 339.340332 393.902893 Z M 350.659668 396.096375 C 350.599152 398.676453 350.326172 401.061768 349.907837 403.156372 C 346.698425 402.824341 343.301575 402.824341 340.092163 403.156372 C 339.673828 401.061768 339.400848 398.67572 339.340332 396.096375 L 350.659668 396.096375 Z M 345 378.083008 C 346.583313 378.083008 348.278046 380.613647 349.398773 384.68335 C 346.519867 384.95929 343.480865 384.95929 340.60199 384.68335 C 341.722687 380.613647 343.416687 378.083008 345.000732 378.083008 Z M 340.841766 378.600952 C 340.23233 379.491455 339.676788 380.591492 339.189819 381.886353 C 338.893982 382.674316 338.62912 383.521301 338.393738 384.411865 C 336.429718 384.115234 334.588165 383.679932 332.981995 383.106689 C 335.112762 380.953796 337.81604 379.368225 340.841766 378.600952 Z M 331.456207 384.874451 C 333.336884 385.629211 335.541412 386.190674 337.903839 386.560303 C 337.462646 388.829773 337.203674 391.319092 337.146118 393.902893 L 328.119904 393.902893 C 328.336792 390.531128 329.544586 387.424988 331.456207 384.874451 Z M 331.457703 405.126282 C 329.545319 402.575745 328.336792 399.468872 328.119904 396.096375 L 337.146118 396.096375 C 337.203674 398.680908 337.463379 401.170227 337.903839 403.44043 C 335.541412 403.810059 333.337616 404.372253 331.45697 405.126282 Z M 332.983459 406.893311 C 334.589661 406.320068 336.43045 405.884766 338.39447 405.588135 C 338.629852 406.478699 338.893982 407.324951 339.189819 408.112183 C 339.676788 409.407715 340.23233 410.50708 340.841766 411.397583 C 337.816772 410.630249 335.114227 409.045471 332.983459 406.893311 Z M 345 411.915527 C 343.416687 411.915527 341.722687 409.38562 340.60199 405.31665 C 343.480865 405.04071 346.519135 405.04071 349.39801 405.31665 C 348.277313 409.38562 346.583313 411.915527 345 411.915527 Z M 349.158234 411.397583 C 349.76767 410.50708 350.323212 409.407715 350.810181 408.112183 C 351.106018 407.324951 351.37088 406.477966 351.60553 405.588135 C 353.568787 405.884766 355.410339 406.320068 357.016541 406.893311 C 354.885773 409.045471 352.183228 410.630249 349.158234 411.397583 Z M 358.542297 405.126282 C 356.661652 404.371521 354.457855 403.810059 352.095428 403.44043 C 352.536621 401.170227 352.796326 398.680908 352.853149 396.096375 L 361.879364 396.096375 C 361.662445 399.468872 360.453949 402.575745 358.541565 405.126282 Z M 361.880096 393.902893 L 352.853882 393.902893 C 352.796326 391.319092 352.537354 388.829773 352.096161 386.560303 C 354.458588 386.190674 356.663116 385.629211 358.543793 384.874451 C 360.455414 387.424988 361.663208 390.531128 361.880096 393.902893 Z"/>
    </g>
    <text id="key-111" xml:space="preserve"><tspan x="753" y="754" font-family="Roboto" font-size="18" font-weight="500" fill="#000000" xml:space="preserve">k</tspan><tspan font-family="Roboto" font-size="18" font-weight="500" fill="#000000" xml:space="preserve">e</tspan><tspan font-family="Roboto" font-size="18" font-weight="500" fill="#000000" xml:space="preserve">y</tspan><tspan font-family="Roboto" font-size="18" font-weight="500" fill="#000000" xml:space="preserve">:</tspan><tspan font-family="Roboto" font-size="18" font-weight="500" fill="#000000" xml:space="preserve"> 1</tspan><tspan font-family="Roboto" font-size="18" font-weight="500" fill="#000000" xml:space="preserve">11</tspan></text>
    <text id="key-111-sub-123" xml:space="preserve"><tspan x="1247" y="465" font-family="Roboto" font-size="30" font-weight="500" fill="#000000" xml:space="preserve">key: 111</tspan><tspan x="1247" y="500" font-family="Roboto" font-size="30" font-weight="500" fill="#000000" xml:space="preserve">sub: 123</tspan><tspan x="1247" y="535" font-family="Roboto" font-size="30" font-weight="500" fill="#000000" xml:space="preserve">sid: 456</tspan><tspan x="1247" y="570" font-family="Roboto" font-size="30" font-weight="500" fill="#000000" xml:space="preserve">expires: 10</tspan></text>
    <text id="API" xml:space="preserve" x="145" y="158" font-family="Roboto" font-size="48" font-weight="700" fill="#000000">API</text>
    <text id="Browser" xml:space="preserve"><tspan x="443" y="877" font-family="Roboto" font-size="48" font-weight="700" fill="#000000" xml:space="preserve">Br</tspan><tspan font-family="Roboto" font-size="48" font-weight="700" fill="#000000" xml:space="preserve">o</tspan><tspan font-family="Roboto" font-size="48" font-weight="700" fill="#000000" xml:space="preserve">w</tspan><tspan font-family="Roboto" font-size="48" font-weight="700" fill="#000000" xml:space="preserve">se</tspan><tspan font-family="Roboto" font-size="48" font-weight="700" fill="#000000" xml:space="preserve">r</tspan></text>
    <text id="Coordiation-Service" xml:space="preserve"><tspan x="803.826379" y="307" font-family="Roboto" font-size="36" font-weight="700" fill="#000000" xml:space="preserve">Coordiation</tspan><tspan x="837.470192" y="344.8" font-family="Roboto" font-size="36" font-weight="700" fill="#000000" xml:space="preserve">Service</tspan></text>
    <text id="Cookie-Handler" xml:space="preserve"><tspan x="841.790932" y="483" font-family="Roboto" font-size="36" font-weight="700" fill="#000000" xml:space="preserve">C</tspan><tspan font-family="Roboto" font-size="36" font-weight="700" fill="#000000" xml:space="preserve">o</tspan><tspan font-family="Roboto" font-size="36" font-weight="700" fill="#000000" xml:space="preserve">ok</tspan><tspan font-family="Roboto" font-size="36" font-weight="700" fill="#000000" xml:space="preserve">i</tspan><tspan font-family="Roboto" font-size="36" font-weight="700" fill="#000000" xml:space="preserve">e</tspan><tspan x="834.355672" y="520.8" font-family="Roboto" font-size="36" font-weight="700" fill="#000000" xml:space="preserve">H</tspan><tspan font-family="Roboto" font-size="36" font-weight="700" fill="#000000" xml:space="preserve">andler</tspan></text>
    <text id="Client" xml:space="preserve"><tspan x="111" y="539" font-family="Roboto" font-size="48" font-weight="700" fill="#000000" xml:space="preserve">C</tspan><tspan font-family="Roboto" font-size="48" font-weight="700" fill="#000000" xml:space="preserve">l</tspan><tspan font-family="Roboto" font-size="48" font-weight="700" fill="#000000" xml:space="preserve">i</tspan><tspan font-family="Roboto" font-size="48" font-weight="700" fill="#000000" xml:space="preserve">e</tspan><tspan font-family="Roboto" font-size="48" font-weight="700" fill="#000000" xml:space="preserve">n</tspan><tspan font-family="Roboto" font-size="48" font-weight="700" fill="#000000" xml:space="preserve">t</tspan></text>
    <text id="IdentityServer" xml:space="preserve"><tspan x="745" y="191" font-family="Roboto" font-size="48" font-weight="700" fill="#000000" xml:space="preserve">I</tspan><tspan font-family="Roboto" font-size="48" font-weight="700" fill="#000000" xml:space="preserve">d</tspan><tspan font-family="Roboto" font-size="48" font-weight="700" fill="#000000" xml:space="preserve">en</tspan><tspan font-family="Roboto" font-size="48" font-weight="700" fill="#000000" xml:space="preserve">t</tspan><tspan font-family="Roboto" font-size="48" font-weight="700" fill="#000000" xml:space="preserve">it</tspan><tspan font-family="Roboto" font-size="48" font-weight="700" fill="#000000" xml:space="preserve">y</tspan><tspan font-family="Roboto" font-size="48" font-weight="700" fill="#000000" xml:space="preserve">Se</tspan><tspan font-family="Roboto" font-size="48" font-weight="700" fill="#000000" xml:space="preserve">r</tspan><tspan font-family="Roboto" font-size="48" font-weight="700" fill="#000000" xml:space="preserve">ve</tspan><tspan font-family="Roboto" font-size="48" font-weight="700" fill="#000000" xml:space="preserve">r</tspan></text>
    <g id="Group-copy-3">
        <path id="Path" fill="#633e9e" stroke="none" d="M 805.995728 114.84613 L 805.995728 114.84613 C 801.726929 112.276428 800.336914 106.681335 802.906555 102.412598 L 824.598145 66.379456 C 827.167786 62.110718 832.762939 60.720581 837.031616 63.290344 L 837.031616 63.290344 C 841.300415 65.860107 842.690552 71.4552 840.120789 75.723938 L 818.42926 111.757019 C 815.859558 116.025757 810.264404 117.415894 805.995728 114.84613 Z"/>
        <path id="path25" fill="#43257c" stroke="none" d="M 835.337891 151.980225 L 835.337891 151.980286 C 830.978027 154.392212 825.437439 152.798523 823.025513 148.438721 L 802.66571 111.63678 C 800.253662 107.276978 801.847412 101.736389 806.207214 99.324402 L 806.207214 99.324402 C 810.567078 96.912415 816.107605 98.506104 818.519592 102.865967 L 838.879395 139.667847 C 841.291382 144.02771 839.697632 149.568298 835.337891 151.980225 Z"/>
        <path id="path26" fill="#8361c5" stroke="none" d="M 759.74646 107.260742 L 759.74646 107.260803 C 759.74646 112.243347 763.82312 116.320007 768.805603 116.320007 L 810.864014 116.320007 C 815.846497 116.320007 819.923157 112.243347 819.923157 107.260803 L 819.923157 107.260742 C 819.923157 102.278259 815.846497 98.20166 810.864014 98.20166 L 768.805603 98.20166 C 763.82312 98.20166 759.74646 102.278259 759.74646 107.260742 Z"/>
        <g id="g4">
            <path id="path27" fill="#000000" stroke="none" d="M 864.97821 94.907471 C 867.021912 96.087769 868.617126 97.74707 869.763733 99.885193 C 870.9104 102.023376 871.483704 104.468384 871.483704 107.220337 L 871.483704 108.51532 C 871.483704 111.280762 870.9104 113.729187 869.763733 115.860596 C 868.617126 117.992004 867.018555 119.647888 864.968079 120.828247 C 862.917603 122.008606 860.570374 122.598816 857.926331 122.598816 L 851.532166 122.598816 L 848.780212 122.598816 L 848.780212 93.136902 L 855.133911 93.136902 L 857.966858 93.136902 C 860.597412 93.136902 862.934509 93.727051 864.97821 94.907471 Z M 865.028809 107.179871 C 865.028809 104.266052 864.428528 102.053711 863.227905 100.542847 C 862.027283 99.031982 860.273682 98.276489 857.966858 98.276489 L 855.133911 98.276489 L 855.133911 117.479431 L 857.926331 117.479431 C 860.233154 117.479431 861.993591 116.713806 863.207642 115.182739 C 864.421753 113.651611 865.028809 111.429138 865.028809 108.51532 L 865.028809 107.179871 Z"/>
            <path id="path28" fill="#000000" stroke="none" d="M 895.158569 100.704712 L 895.158569 122.598816 L 889.432007 122.598816 L 889.270203 120.312256 C 888.581604 121.175598 887.738464 121.839966 886.740234 122.30542 C 885.741882 122.770813 884.60199 123.003479 883.320496 123.003479 C 881.04071 123.003479 879.256714 122.342468 877.968445 121.020447 C 876.680176 119.698486 876.036011 117.64801 876.036011 114.86908 L 876.036011 100.704712 L 882.126648 100.704712 L 882.126648 114.909546 C 882.126648 115.98877 882.393066 116.784668 882.925903 117.297302 C 883.45874 117.809875 884.197388 118.066223 885.141663 118.066223 C 887.016846 118.066223 888.318542 117.411926 889.047546 116.103455 L 889.047546 100.704712 L 895.158569 100.704712 Z"/>
            <path id="path29" fill="#000000" stroke="none" d="M 919.520142 113.634766 L 905.679443 113.634766 C 905.908813 114.997253 906.475342 116.079834 907.37915 116.882507 C 908.28302 117.68512 909.443176 118.086426 910.859558 118.086426 C 911.911804 118.086426 912.886475 117.887451 913.783447 117.489502 C 914.680542 117.091553 915.446228 116.494629 916.0802 115.69873 L 919.01416 119.077942 C 918.2453 120.184143 917.122314 121.114868 915.645081 121.870361 C 914.167969 122.625793 912.437927 123.003479 910.454834 123.003479 C 908.215515 123.003479 906.269714 122.531372 904.617188 121.587097 C 902.964539 120.642761 901.696655 119.361206 900.812988 117.742432 C 899.929321 116.123657 899.487549 114.336243 899.487549 112.380188 L 899.487549 111.611267 C 899.487549 109.425903 899.899048 107.476624 900.721924 105.763428 C 901.5448 104.050232 902.731873 102.711304 904.283325 101.746826 C 905.834595 100.782288 907.669189 100.299988 909.78717 100.299988 C 911.851074 100.299988 913.611511 100.738464 915.06842 101.615295 C 916.525391 102.492126 917.63147 103.736572 918.387024 105.348572 C 919.142395 106.960632 919.520142 108.859375 919.520142 111.044739 L 919.520142 113.634766 Z M 913.530518 109.061707 C 913.503601 107.874573 913.176514 106.937073 912.549133 106.249023 C 911.921936 105.561096 910.987732 105.217102 909.746704 105.217102 C 908.586548 105.217102 907.679321 105.601501 907.025085 106.370422 C 906.370789 107.139343 905.942505 108.198364 905.740173 109.547363 L 913.530518 109.547363 L 913.530518 109.061707 Z"/>
            <path id="path30" fill="#000000" stroke="none" d="M 940.725098 102.272888 C 941.925659 103.588196 942.526001 105.73645 942.526001 108.717712 L 942.526001 122.598816 L 936.414978 122.598816 L 936.414978 108.697449 C 936.414978 107.402466 936.138489 106.502014 935.585388 105.996155 C 935.03241 105.490234 934.175781 105.237305 933.015625 105.237305 C 932.219727 105.237305 931.528381 105.405945 930.941467 105.743225 C 930.354675 106.080444 929.879211 106.559326 929.514954 107.179871 L 929.514954 122.598816 L 923.404053 122.598816 L 923.404053 100.704712 L 929.130554 100.704712 L 929.332886 103.23407 C 930.101746 102.276306 931.019104 101.547852 932.084839 101.048706 C 933.150513 100.549561 934.330811 100.299988 935.625854 100.299988 C 937.824707 100.299988 939.524475 100.957642 940.725098 102.272888 Z"/>
            <path id="path31" fill="#000000" stroke="none" d="M 966.604309 91.518127 L 966.604309 122.598816 L 961.100464 122.598816 L 960.796936 120.251587 C 959.366943 122.086182 957.518921 123.003479 955.252563 123.003479 C 953.485352 123.003479 951.957642 122.528015 950.669373 121.576965 C 949.381104 120.625916 948.403137 119.314026 947.735229 117.641296 C 947.067566 115.968506 946.733704 114.059692 946.733704 111.914795 L 946.733704 111.489868 C 946.733704 109.264099 947.067566 107.308044 947.735229 105.621765 C 948.403137 103.935547 949.381104 102.627014 950.669373 101.696228 C 951.957642 100.765381 953.498901 100.299988 955.29303 100.299988 C 957.370544 100.299988 959.103882 101.089172 960.493408 102.66748 L 960.493408 91.518127 L 966.604309 91.518127 Z M 960.493408 115.880859 L 960.493408 107.422729 C 959.791931 105.965759 958.57782 105.237305 956.851135 105.237305 C 955.46167 105.237305 954.446533 105.803894 953.805786 106.937073 C 953.165039 108.07019 952.844604 109.587769 952.844604 111.489868 L 952.844604 111.914795 C 952.844604 113.789856 953.158264 115.283936 953.785522 116.396851 C 954.412842 117.509705 955.421143 118.066223 956.810669 118.066223 C 958.523865 118.066223 959.751465 117.337769 960.493408 115.880859 Z"/>
            <path id="path32" fill="#000000" stroke="none" d="M 991.088501 113.634766 L 977.247803 113.634766 C 977.477173 114.997253 978.043701 116.079834 978.94751 116.882507 C 979.851379 117.68512 981.011536 118.086426 982.427917 118.086426 C 983.480103 118.086426 984.454834 117.887451 985.351807 117.489502 C 986.248962 117.091553 987.014465 116.494629 987.64856 115.69873 L 990.582642 119.077942 C 989.81366 120.184143 988.690552 121.114868 987.21344 121.870361 C 985.736328 122.625793 984.006287 123.003479 982.023315 123.003479 C 979.783997 123.003479 977.837952 122.531372 976.185547 121.587097 C 974.53302 120.642761 973.265015 119.361206 972.381348 117.742432 C 971.497803 116.123657 971.055908 114.336243 971.055908 112.380188 L 971.055908 111.611267 C 971.055908 109.425903 971.467468 107.476624 972.290283 105.763428 C 973.113159 104.050232 974.300232 102.711304 975.851685 101.746826 C 977.402954 100.782288 979.237549 100.299988 981.355469 100.299988 C 983.419495 100.299988 985.179871 100.738464 986.636841 101.615295 C 988.093628 102.492126 989.199829 103.736572 989.955261 105.348572 C 990.710693 106.960632 991.088501 108.859375 991.088501 111.044739 L 991.088501 113.634766 Z M 985.098938 109.061707 C 985.07196 107.874573 984.744812 106.937073 984.117493 106.249023 C 983.490234 105.561096 982.556091 105.217102 981.315063 105.217102 C 980.154907 105.217102 979.247681 105.601501 978.593506 106.370422 C 977.939148 107.139343 977.510864 108.198364 977.308533 109.547363 L 985.098938 109.547363 L 985.098938 109.061707 Z"/>
        </g>
        <path id="path33" fill="#764fc1" stroke="none" d="M 1013.25354 116.24231 C 1013.25354 119.939819 1010.256104 122.937256 1006.558533 122.937256 C 1002.861023 122.937256 999.863586 119.939819 999.863586 116.24231 C 999.863586 112.544739 1002.861023 109.547363 1006.558533 109.547363 C 1010.256104 109.547363 1013.25354 112.544739 1013.25354 116.24231 Z"/>
        <path id="path34" fill="#764fc1" stroke="none" d="M 821.040283 107.260803 L 821.040283 107.260742 C 821.040283 102.278259 816.94165 98.201599 811.93219 98.201599 L 805.447144 98.201599 L 802.898438 102.412598 C 802.638489 102.842102 802.429688 103.287659 802.249207 103.739502 C 802.208435 103.836121 802.166809 103.931885 802.129456 104.029785 C 802.117737 104.062561 802.107117 104.095581 802.095764 104.128479 C 801.215576 106.515015 801.329407 109.251404 802.65625 111.636719 L 805.261108 116.320007 L 811.93219 116.320007 C 816.94165 116.320007 821.040283 112.243347 821.040283 107.260803 Z"/>
    </g>
    <path id="noun-globe-6147862-copy-2" fill="#000000" stroke="none" d="M 425.756561 58.821106 L 425.756561 41.178894 C 428.279846 40.668335 430.18631 38.434265 430.18631 35.762695 C 430.18631 32.715576 427.707306 30.236572 424.660217 30.236572 C 423.01416 30.236572 421.534882 30.961121 420.521149 32.106873 L 405.23764 23.283569 C 405.423553 22.730957 405.526123 22.139954 405.526123 21.526123 C 405.526123 18.479004 403.047119 16 400 16 C 396.952881 16 394.473877 18.479004 394.473877 21.526123 C 394.473877 22.140686 394.576447 22.730957 394.76236 23.283569 L 379.478851 32.106873 C 378.465851 30.961121 376.98584 30.236572 375.339813 30.236572 C 372.292694 30.236572 369.81369 32.715576 369.81369 35.762695 C 369.81369 38.434265 371.719421 40.669067 374.243439 41.178894 L 374.243439 58.821106 C 371.720154 59.331665 369.81369 61.565735 369.81369 64.237305 C 369.81369 67.284424 372.292694 69.763428 375.339813 69.763428 C 376.98584 69.763428 378.465118 69.038879 379.478851 67.893127 L 394.76236 76.716431 C 394.576447 77.269043 394.473877 77.860046 394.473877 78.473877 C 394.473877 81.520996 396.952881 84 400 84 C 403.047119 84 405.526123 81.520996 405.526123 78.473877 C 405.526123 77.859314 405.423553 77.269043 405.23764 76.716431 L 420.521149 67.893127 C 421.534149 69.038879 423.01416 69.763428 424.660217 69.763428 C 427.707306 69.763428 430.18631 67.284424 430.18631 64.237305 C 430.18631 61.565735 428.280579 59.330933 425.756561 58.821106 Z M 419.133331 64.237305 C 419.133331 64.851868 419.235901 65.442139 419.421814 65.994751 L 404.138306 74.818115 C 403.125305 73.672302 401.646027 72.947754 399.999268 72.947754 C 398.352509 72.947754 396.873932 73.672302 395.860199 74.818115 L 380.576691 65.994751 C 380.762634 65.442139 380.865173 64.851135 380.865173 64.237305 C 380.865173 61.565735 378.959442 59.330933 376.435425 58.821106 L 376.435425 41.178894 C 378.95871 40.668335 380.865173 38.434265 380.865173 35.762695 C 380.865173 35.148132 380.762634 34.557861 380.576691 34.005249 L 395.860199 25.181885 C 396.873199 26.327698 398.353241 27.052246 399.999268 27.052246 C 401.645294 27.052246 403.124573 26.327698 404.138306 25.181885 L 419.421814 34.005249 C 419.235901 34.557861 419.133331 35.148865 419.133331 35.762695 C 419.133331 38.434265 421.039093 40.669067 423.562347 41.178894 L 423.562347 58.821106 C 421.039093 59.331665 419.133331 61.565735 419.133331 64.237305 Z M 400 30.890259 C 389.462738 30.890259 380.890259 39.462769 380.890259 50 C 380.890259 60.537231 389.462738 69.109741 400 69.109741 C 410.537262 69.109741 419.109741 60.537231 419.109741 50 C 419.109741 39.462769 410.537262 30.890259 400 30.890259 Z M 412.018005 38.107422 C 410.411835 38.680664 408.570282 39.115967 406.606262 39.412598 C 406.37088 38.522034 406.106018 37.675049 405.810181 36.887085 C 405.323212 35.591492 404.76767 34.492188 404.158234 33.601685 C 407.18396 34.368958 409.887238 35.954529 412.018005 38.107422 Z M 394.340332 48.902893 C 394.400848 46.323547 394.673828 43.938232 395.092163 41.843628 C 396.696869 42.009644 398.348816 42.093018 400 42.093018 C 401.651184 42.093018 403.303131 42.009644 404.907837 41.843628 C 405.326172 43.938232 405.598419 46.323547 405.659668 48.902893 L 394.340332 48.902893 Z M 405.659668 51.096375 C 405.599152 53.676453 405.326172 56.061768 404.907837 58.156372 C 401.698425 57.824341 398.301575 57.824341 395.092163 58.156372 C 394.673828 56.061768 394.400848 53.67572 394.340332 51.096375 L 405.659668 51.096375 Z M 400 33.083008 C 401.583313 33.083008 403.278046 35.613647 404.398773 39.68335 C 401.519867 39.95929 398.480865 39.95929 395.60199 39.68335 C 396.722687 35.613647 398.416687 33.083008 400.000732 33.083008 Z M 395.841766 33.600952 C 395.23233 34.491455 394.676788 35.591492 394.189819 36.886353 C 393.893982 37.674316 393.62912 38.521301 393.393738 39.411865 C 391.429718 39.115234 389.588165 38.679932 387.981995 38.106689 C 390.112762 35.953796 392.81604 34.368225 395.841766 33.600952 Z M 386.456207 39.874451 C 388.336884 40.629211 390.541412 41.190674 392.903839 41.560303 C 392.462646 43.829773 392.203674 46.319092 392.146118 48.902893 L 383.119904 48.902893 C 383.336792 45.531128 384.544586 42.424988 386.456207 39.874451 Z M 386.457703 60.126282 C 384.545319 57.575745 383.336792 54.468872 383.119904 51.096375 L 392.146118 51.096375 C 392.203674 53.680908 392.463379 56.170227 392.903839 58.44043 C 390.541412 58.810059 388.337616 59.372253 386.45697 60.126282 Z M 387.983459 61.893311 C 389.589661 61.320068 391.43045 60.884766 393.39447 60.588135 C 393.629852 61.478699 393.893982 62.324951 394.189819 63.112183 C 394.676788 64.407715 395.23233 65.50708 395.841766 66.397583 C 392.816772 65.630249 390.114227 64.045471 387.983459 61.893311 Z M 400 66.915527 C 398.416687 66.915527 396.722687 64.38562 395.60199 60.31665 C 398.480865 60.04071 401.519135 60.04071 404.39801 60.31665 C 403.277313 64.38562 401.583313 66.915527 400 66.915527 Z M 404.158234 66.397583 C 404.76767 65.50708 405.323212 64.407715 405.810181 63.112183 C 406.106018 62.324951 406.37088 61.477966 406.60553 60.588135 C 408.568787 60.884766 410.410339 61.320068 412.016541 61.893311 C 409.885773 64.045471 407.183228 65.630249 404.158234 66.397583 Z M 413.542297 60.126282 C 411.661652 59.371521 409.457855 58.810059 407.095428 58.44043 C 407.536621 56.170227 407.796326 53.680908 407.853149 51.096375 L 416.879364 51.096375 C 416.662445 54.468872 415.453949 57.575745 413.541565 60.126282 Z M 416.880096 48.902893 L 407.853882 48.902893 C 407.796326 46.319092 407.537354 43.829773 407.096161 41.560303 C 409.458588 41.190674 411.663116 40.629211 413.543793 39.874451 C 415.455414 42.424988 416.663208 45.531128 416.880096 48.902893 Z"/>
    <path id="noun-access-3407267" fill="#000000" stroke="none" d="M 788.986328 645.241272 C 778.997437 645.241272 770.817627 653.421143 770.817627 663.410034 C 770.817627 670.567383 774.986328 677.016846 781.435669 679.927002 L 781.435669 686.219238 C 781.435669 686.769653 781.671753 687.320435 782.065002 687.713623 L 785.289673 690.938354 L 782.065002 694.163025 C 781.671753 694.556274 781.435669 695.106689 781.435669 695.657471 L 781.435669 698.724976 C 781.435669 699.275513 781.671753 699.826172 782.065002 700.219482 L 785.289673 703.444153 L 782.065002 706.668823 C 781.671753 707.062134 781.435669 707.612549 781.435669 708.16333 L 781.435669 711.938721 C 781.435669 712.489197 781.671753 713.039917 781.986145 713.433228 L 787.334656 719.096069 C 787.727905 719.489319 788.27832 719.803955 788.907715 719.803955 C 789.45813 719.803955 790.087463 719.567932 790.480713 719.096069 L 795.829224 713.433228 C 796.222473 713.039917 796.3797 712.489502 796.3797 711.938721 L 796.3797 679.927246 C 802.829041 676.938293 806.997803 670.567566 806.997803 663.410156 C 807.154968 653.421326 798.97522 645.241455 788.986389 645.241455 Z M 797.952698 661.286377 L 788.986328 670.72467 C 788.514465 671.275146 787.806519 671.589783 787.02002 671.589783 C 786.233459 671.589783 785.604126 671.275146 785.053711 670.72467 L 780.09845 665.455078 C 779.075867 664.353882 779.154785 662.702271 780.177063 661.679626 C 781.278259 660.656982 782.929871 660.735962 783.952515 661.75824 L 787.02002 664.98291 L 794.098755 657.5896 C 795.121338 656.488403 796.851563 656.488403 797.874207 657.510986 C 798.896545 658.533569 798.975098 660.185242 797.952759 661.286438 Z"/>
    <path id="noun-data-security-7464775-copy" fill="#916bdb" stroke="none" d="M 1349.557007 297.735657 C 1349.557007 301.197571 1345.359985 304.987244 1338.338745 307.88269 C 1330.175049 311.247314 1319.266724 313.097839 1307.598145 313.097839 C 1295.928345 313.097839 1285.011108 311.247314 1276.857422 307.88269 C 1269.835938 304.987427 1265.639282 301.188965 1265.639282 297.735657 C 1265.639282 294.273804 1269.836182 290.484131 1276.857422 287.588684 C 1285.021118 284.22406 1295.929443 282.373535 1307.598145 282.373535 C 1319.259033 282.373535 1330.17627 284.22406 1338.338745 287.588684 C 1345.360229 290.483887 1349.557007 294.27356 1349.557007 297.735657 Z M 1274.348755 281.505798 C 1264.58252 285.534363 1259.163818 291.227844 1259.057495 297.558411 L 1259.057495 297.735535 L 1259.057495 321.075439 L 1252.195557 321.075439 C 1232.512695 321.075439 1216.504517 305.067078 1216.504517 285.384399 C 1216.504517 265.905029 1232.185425 250.028809 1251.585815 249.702393 C 1255.056519 237.766968 1266.044678 229.364197 1278.715698 229.364197 C 1282.859375 229.364197 1286.914673 230.267334 1290.615723 231.984924 C 1296.680908 218.685913 1309.98877 210 1324.853882 210 C 1344.99707 210 1361.492432 225.910889 1362.439819 245.815735 L 1363.192505 245.815735 C 1383.937744 245.815735 1400.823853 262.691772 1400.823853 283.447083 C 1400.823853 304.192383 1383.947754 321.07843 1363.192505 321.07843 L 1356.126831 321.07843 L 1356.126831 297.738464 L 1356.126831 297.561401 C 1356.029419 291.23053 1350.610596 285.537354 1340.84436 281.508789 C 1331.910522 277.825439 1320.099121 275.797913 1307.596802 275.797913 C 1295.085938 275.797913 1283.282227 277.8255 1274.349243 281.508789 Z M 1347.519287 249.355347 C 1345.668701 238.880798 1337.832886 230.876709 1327.535278 228.9729 C 1318.991089 227.396851 1311.898926 229.141174 1306.46228 234.16156 C 1305.125244 235.392273 1305.045654 237.472961 1306.276367 238.810059 C 1307.50708 240.147034 1309.587769 240.226746 1310.924805 238.995972 C 1314.811768 235.410095 1319.849854 234.250061 1326.340088 235.445496 C 1333.910278 236.844421 1339.674438 242.750305 1341.038086 250.497559 C 1341.321411 252.091309 1342.711548 253.215759 1344.278687 253.215759 C 1344.4646 253.215759 1344.659424 253.198059 1344.854248 253.162659 C 1346.642822 252.843872 1347.838135 251.143921 1347.528198 249.346436 Z M 1245.643555 298.186279 C 1241.729858 294.821655 1239.48999 289.987305 1239.48999 284.940308 C 1239.48999 280.300659 1241.331665 275.908936 1244.687378 272.588745 C 1245.971313 271.304871 1245.980103 269.22406 1244.696289 267.931396 C 1243.421265 266.647522 1241.331665 266.638672 1240.047852 267.922546 C 1235.443726 272.500122 1232.911377 278.538757 1232.911377 284.949158 C 1232.911377 291.917358 1235.983887 298.558044 1241.358398 303.179993 C 1241.978149 303.711243 1242.739624 303.976868 1243.501099 303.976868 C 1244.430786 303.976868 1245.351685 303.58728 1245.998047 302.834656 C 1247.18457 301.45343 1247.025146 299.381592 1245.65271 298.195007 Z M 1391.100586 340.607117 C 1395.155884 376.767395 1382.724609 401.365356 1354.142456 413.725525 C 1353.726318 413.902588 1353.283569 414 1352.84082 414 C 1352.398193 414 1351.955444 413.911438 1351.530518 413.725525 C 1344.880981 410.847961 1339.10791 407.315125 1334.21167 403.118164 C 1332.237183 401.435852 1330.413208 399.638367 1328.722046 397.734802 C 1326.614746 395.361816 1324.737671 392.838318 1323.081909 390.137817 C 1321.868896 388.16333 1320.770996 386.100403 1319.796997 383.948669 C 1318.805298 381.779419 1317.946533 379.521606 1317.19397 377.166321 C 1316.538818 375.076721 1315.972046 372.925171 1315.511719 370.702698 C 1314.927368 367.957947 1314.502319 365.097839 1314.227783 362.140747 C 1314.02417 360.006897 1313.900146 357.820007 1313.855957 355.571045 C 1313.802856 353.251282 1313.838257 350.878296 1313.953369 348.443481 C 1314.050781 346.28302 1314.218994 344.069458 1314.449219 341.811646 C 1314.493408 341.404358 1314.53772 340.997009 1314.582031 340.589783 C 1314.759033 339.040283 1315.989746 337.827148 1317.539307 337.685669 C 1329.350708 336.570068 1340.108643 332.328857 1349.546997 325.068481 C 1349.954346 324.758545 1350.361572 324.430969 1350.768921 324.112183 C 1351.973022 323.138245 1353.690918 323.138245 1354.894897 324.112183 C 1355.302246 324.439819 1355.709473 324.758545 1356.116821 325.077332 C 1365.55542 332.328857 1376.313354 336.570007 1388.124512 337.685669 C 1389.67395 337.836182 1390.904785 339.049255 1391.081909 340.589783 Z M 1369.823975 385.709412 C 1369.956787 385.231262 1370.036499 384.726624 1370.036499 384.204224 L 1370.036499 360.891479 C 1370.036499 357.84552 1367.54834 355.366455 1364.502686 355.366455 L 1364.166138 355.366455 L 1364.166138 351.94873 C 1364.166138 348.176758 1362.306763 344.821167 1359.4646 342.775757 C 1358.614624 342.333008 1357.773438 341.87262 1356.941162 341.39447 C 1355.666138 340.898621 1354.28479 340.624146 1352.841675 340.624146 C 1351.398438 340.624146 1350.01709 340.898621 1348.742188 341.39447 C 1347.90979 341.87262 1347.059814 342.333008 1346.209839 342.775757 C 1343.367676 344.829895 1341.51709 348.176758 1341.51709 351.94873 L 1341.51709 355.366455 L 1341.180664 355.366455 C 1338.125854 355.366455 1335.646729 357.845764 1335.646729 360.891479 L 1335.646729 384.204224 C 1335.646729 384.708923 1335.70874 385.187012 1335.841553 385.656311 C 1336.700439 386.851563 1337.630127 388.002747 1338.621826 389.100525 C 1339.383301 389.507813 1340.259888 389.738037 1341.180664 389.738037 L 1364.49353 389.738037 C 1365.432007 389.738037 1366.317383 389.507813 1367.096558 389.082825 C 1368.070435 388.002563 1368.973633 386.878113 1369.823608 385.70929 Z M 1357.587524 351.947327 C 1357.587524 349.335388 1355.462524 347.201294 1352.841553 347.201294 C 1350.229736 347.201294 1348.095703 349.335205 1348.095703 351.947327 L 1348.095703 355.36499 L 1357.578491 355.36499 L 1357.578491 351.947327 Z M 1317.47876 393.579285 C 1318.638672 395.474121 1319.913574 397.306885 1321.286133 399.06897 C 1316.92981 399.65332 1312.325684 399.963257 1307.597412 399.963257 C 1295.927612 399.963257 1285.010498 398.112732 1276.856812 394.748108 C 1269.835327 391.852844 1265.63855 388.063171 1265.63855 384.601074 L 1265.63855 367.007813 C 1267.967041 368.805237 1270.880249 370.452026 1274.351196 371.877563 C 1283.285034 375.560913 1295.096436 377.58844 1307.598755 377.58844 C 1308.546143 377.58844 1309.502441 377.57959 1310.440918 377.55304 C 1310.600342 378.09314 1310.759766 378.63324 1310.927979 379.17334 C 1311.521118 381.041565 1312.185181 382.86554 1312.902466 384.609741 C 1313.19458 385.309204 1313.486816 385.999817 1313.796631 386.672729 C 1314.460693 388.142578 1315.177979 389.585876 1315.957153 390.99353 C 1316.435181 391.878967 1316.94873 392.746643 1317.471191 393.596558 Z M 1291.643188 383.706787 C 1288.677002 383.264099 1285.790649 382.661987 1283.081299 381.944824 C 1281.328125 381.475586 1279.521973 382.520386 1279.052734 384.273376 C 1278.583496 386.02655 1279.628296 387.832764 1281.381226 388.301941 C 1284.329834 389.089966 1287.455322 389.736328 1290.660645 390.214478 C 1290.828857 390.241028 1290.988159 390.249878 1291.156494 390.249878 C 1292.759033 390.249878 1294.166748 389.081116 1294.405884 387.451904 C 1294.68042 385.65448 1293.440796 383.972107 1291.643311 383.706665 Z M 1307.359375 348.625488 C 1307.253174 351.051514 1307.226563 353.4422 1307.279785 355.708862 L 1307.279785 355.815125 C 1307.323975 358.010925 1307.447998 360.215637 1307.642822 362.393677 C 1307.651611 362.517639 1307.660522 362.641602 1307.678223 362.765564 C 1307.943848 365.598877 1308.342285 368.370361 1308.855835 370.999939 C 1308.439697 370.999939 1308.014648 371.008789 1307.5896 371.008789 C 1295.919922 371.008789 1285.002686 369.158203 1276.848999 365.793579 C 1269.827515 362.898376 1265.630737 359.108704 1265.630737 355.646606 L 1265.630737 338.044495 C 1267.959351 339.850769 1270.872437 341.488708 1274.343384 342.914246 C 1283.215454 346.571045 1294.938232 348.598572 1307.359741 348.625122 Z M 1291.643188 354.752502 C 1288.677002 354.300964 1285.790649 353.707703 1283.081299 352.981689 C 1281.328125 352.512451 1279.521973 353.557251 1279.052734 355.310242 C 1278.583496 357.063354 1279.628296 358.869629 1281.381226 359.338806 C 1284.329834 360.126831 1287.455322 360.773193 1290.660645 361.251343 C 1290.828857 361.277893 1290.988159 361.286743 1291.156494 361.286743 C 1292.759033 361.286743 1294.166748 360.117981 1294.405884 358.48877 C 1294.68042 356.691345 1293.440796 355.008972 1291.643311 354.74353 Z M 1308.04126 339.877502 C 1307.988159 340.30249 1307.943848 340.736328 1307.899536 341.152466 C 1307.873047 341.453491 1307.837646 341.745728 1307.811035 342.046753 L 1307.589722 342.046753 C 1295.919922 342.046753 1285.002686 340.196228 1276.848999 336.831604 C 1269.827515 333.93634 1265.630737 330.137878 1265.630737 326.68457 L 1265.630737 309.09137 C 1267.959351 310.888733 1270.872437 312.535522 1274.343384 313.96106 C 1283.277344 317.644409 1295.088745 319.671936 1307.591064 319.671936 C 1320.09314 319.671936 1331.90564 317.644348 1340.838623 313.96106 C 1344.300537 312.535522 1347.222534 310.888611 1349.542236 309.09137 L 1349.542236 317.378784 C 1348.497437 317.74176 1347.523438 318.28186 1346.664673 318.972473 C 1346.301636 319.264709 1345.92981 319.556885 1345.531372 319.85791 C 1342.556274 322.142273 1339.439575 324.090271 1336.181274 325.710449 C 1330.195923 328.676636 1323.749878 330.50061 1316.914551 331.146851 C 1315.134888 331.315063 1313.496826 331.961426 1312.106689 332.953125 C 1309.893188 334.546875 1308.352661 337.026123 1308.033691 339.877136 Z M 1291.643188 325.436279 C 1288.677002 324.98468 1285.790649 324.391479 1283.081299 323.665405 C 1281.328125 323.196167 1279.521973 324.240967 1279.052734 325.993958 C 1278.583496 327.747131 1279.628296 329.553345 1281.381226 330.022522 C 1284.329834 330.810547 1287.446411 331.456909 1290.660645 331.935059 C 1290.828857 331.961609 1290.988159 331.970459 1291.156494 331.970459 C 1292.759033 331.970459 1294.166748 330.801697 1294.405884 329.172485 C 1294.68042 327.375061 1293.440796 325.692688 1291.643311 325.427246 Z M 1342.235352 383.157166 L 1363.450073 383.157166 L 1363.450073 361.942444 L 1342.235352 361.942444 Z"/>
</svg>
