<?xml version="1.0" encoding="UTF-8"?>
<!-- Generated by Pixelmator Pro 3.6.17 -->
<svg width="1450" height="818" viewBox="0 0 1450 818" xmlns="http://www.w3.org/2000/svg">
    <path id="Rectangle" fill="#ffffff" fill-rule="evenodd" stroke="none" d="M -28.684471 967 L 1478.684448 967 L 1478.684448 -84 L -28.684471 -84 Z"/>
    <g id="Group">
        <path id="Rounded-Rectangle" fill="none" stroke="#916bdb" stroke-width="7.939262" d="M 202.031784 192.288513 C 202.031784 209.827454 216.249893 224.045532 233.788834 224.045532 L 357.641327 224.045532 C 375.180267 224.045532 389.398376 209.827454 389.398376 192.288513 L 389.398376 94.635559 C 389.398376 77.096619 375.180267 62.87854 357.641327 62.87854 L 233.788834 62.87854 C 216.249893 62.87854 202.031784 77.096619 202.031784 94.635559 Z"/>
        <path id="Rounded-Rectangle-copy" fill="none" stroke="#916bdb" stroke-width="7.939262" d="M 641.866943 481.277649 C 641.866943 498.816589 656.085022 513.034668 673.623962 513.034668 L 1030.096924 513.034668 C 1047.635742 513.034668 1061.853882 498.816589 1061.853882 481.277649 L 1061.853882 83.52063 C 1061.853882 65.981689 1047.635742 51.76355 1030.096924 51.76355 L 673.623962 51.76355 C 656.085022 51.76355 641.866943 65.981689 641.866943 83.52063 Z"/>
        <path id="Rounded-Rectangle-copy-2" fill="none" stroke="#916bdb" stroke-width="7.939262" d="M 194.886444 493.186554 C 194.886444 510.725494 209.104553 524.943604 226.643494 524.943604 L 348.114197 524.943604 C 365.653137 524.943604 379.871246 510.725494 379.871246 493.186554 L 379.871246 401.091095 C 379.871246 383.552155 365.653137 369.334045 348.114197 369.334045 L 226.643494 369.334045 C 209.104553 369.334045 194.886444 383.552155 194.886444 401.091095 Z"/>
        <path id="Rounded-Rectangle-copy-4" fill="none" stroke="#916bdb" stroke-width="7.939262" d="M 723.641296 296.292847 C 723.641296 313.831787 737.859436 328.049896 755.398376 328.049896 L 968.964539 328.049896 C 986.503479 328.049896 1000.721558 313.831787 1000.721558 296.292847 L 1000.721558 267.711487 C 1000.721558 250.172546 986.503479 235.954468 968.964539 235.954468 L 755.398376 235.954468 C 737.859436 235.954468 723.641296 250.172546 723.641296 267.711487 Z"/>
        <path id="Rounded-Rectangle-copy-5" fill="none" stroke="#916bdb" stroke-width="7.939262" d="M 723.641296 435.22995 C 723.641296 452.76886 737.859436 466.987 755.398376 466.987 L 968.964539 466.987 C 986.503479 466.987 1000.721558 452.76886 1000.721558 435.22995 L 1000.721558 406.64859 C 1000.721558 389.10965 986.503479 374.891541 968.964539 374.891541 L 755.398376 374.891541 C 737.859436 374.891541 723.641296 389.10965 723.641296 406.64859 Z"/>
        <g id="User-copy">
            <path id="noun-authentication-7464752" fill="#916bdb" stroke="none" d="M 1151.124512 760.210083 C 1151.669434 761.451843 1152.292847 762.651672 1152.984497 763.804382 C 1148.850586 766.450378 1144.307861 768.849976 1139.461426 770.945801 C 1139.204712 771.055847 1138.932251 771.113464 1138.65979 771.113464 C 1138.387329 771.113464 1138.114868 771.055847 1137.863403 770.945801 C 1124.67041 765.245239 1114.081909 757.449524 1106.232544 747.682129 L 1107.736328 743.254761 C 1111.744629 729.594849 1124.345825 720.127869 1138.660278 720.127869 C 1145.04187 720.127869 1151.130249 721.956482 1156.390991 725.435425 C 1151.376831 731.209351 1148.337891 738.738525 1148.337891 746.970154 C 1148.337891 751.68042 1149.333374 756.160278 1151.125244 760.215576 Z M 1138.659668 681.853516 C 1129.21814 681.853516 1121.536499 689.534668 1121.536499 698.976624 C 1121.536499 708.41864 1129.217651 716.099792 1138.659668 716.099792 C 1148.101318 716.099792 1155.782837 708.41864 1155.782837 698.976624 C 1155.782837 689.534668 1148.101685 681.853516 1138.659668 681.853516 Z M 1210.07373 746.964661 C 1210.07373 762.876648 1197.126953 775.82428 1181.214111 775.82428 C 1165.301147 775.82428 1152.359863 762.877563 1152.359863 746.964661 C 1152.359863 731.052734 1165.30127 718.105042 1181.214111 718.105042 C 1197.126831 718.105042 1210.07373 731.051758 1210.07373 746.964661 Z M 1197.011597 740.10614 C 1197.011597 737.774536 1195.114868 735.872681 1192.778198 735.872681 L 1189.964478 735.872681 L 1189.964478 731.256714 C 1189.964478 726.43634 1186.040161 722.506836 1181.2146 722.506836 C 1176.394165 722.506836 1172.464722 726.431213 1172.464722 731.256714 L 1172.464722 735.872681 L 1169.65625 735.872681 C 1167.324707 735.872681 1165.422852 737.76947 1165.422852 740.10614 L 1165.422852 763.227661 C 1165.422852 765.559265 1167.31958 767.46106 1169.65625 767.46106 L 1192.772461 767.46106 C 1195.104004 767.46106 1197.005859 765.564331 1197.005859 763.227661 L 1197.005859 740.10614 Z M 1128.541748 717.539978 C 1121.976807 713.945679 1117.512573 706.971924 1117.512573 698.976257 C 1117.512573 687.318359 1126.996094 677.829163 1138.659668 677.829163 C 1150.317505 677.829163 1159.806763 687.312622 1159.806763 698.976257 C 1159.806763 706.961182 1155.358521 713.929138 1148.803833 717.523865 C 1152.513428 718.597961 1156.029175 720.274658 1159.261963 722.511963 C 1165.088379 717.272522 1172.790405 714.081543 1181.220581 714.081543 C 1181.487793 714.081543 1181.749756 714.081543 1182.016968 714.092041 C 1183.384399 714.123413 1184.725708 714.238708 1186.05127 714.437805 C 1188.246582 703.209595 1188.566284 690.472656 1186.999634 676.535095 C 1186.889648 675.59198 1186.135132 674.848022 1185.186768 674.758911 C 1168.404297 673.171387 1153.173706 666.952148 1139.928345 656.279724 C 1139.189575 655.687622 1138.141724 655.687622 1137.402832 656.279724 C 1124.157471 666.952515 1108.92688 673.17218 1092.144409 674.758911 C 1091.196045 674.848022 1090.44165 675.592041 1090.331543 676.535095 C 1087.717041 699.809509 1090.378662 719.556274 1098.243042 735.228088 C 1099.652588 738.041748 1101.240112 740.734863 1102.995361 743.307373 C 1103.849365 741.122498 1105.106812 738.597046 1105.106812 738.597046 C 1109.319336 728.31189 1118.032593 720.599365 1128.543579 717.539856 Z M 1192.987671 740.10614 L 1192.987671 763.227661 C 1192.987671 763.337646 1192.888184 763.437195 1192.778076 763.437195 L 1169.661987 763.437195 C 1169.546753 763.437195 1169.452393 763.337646 1169.452393 763.227661 L 1169.452393 740.10614 C 1169.452393 739.996094 1169.546753 739.896545 1169.661987 739.896545 L 1192.778076 739.896545 C 1192.888184 739.896545 1192.987671 739.996094 1192.987671 740.10614 Z M 1188.497437 745.764893 C 1187.669556 745.026123 1186.396362 745.099426 1185.657593 745.927307 L 1179.249756 753.110657 L 1176.729492 750.506653 C 1175.959351 749.705017 1174.686157 749.68927 1173.884521 750.459473 C 1173.082886 751.229675 1173.06189 752.502808 1173.832153 753.304565 L 1177.856079 757.469971 C 1178.233276 757.862915 1178.757202 758.083008 1179.307373 758.083008 L 1179.349243 758.083008 C 1179.909912 758.07251 1180.439087 757.831482 1180.811035 757.412354 L 1188.65979 748.615234 C 1189.403809 747.787415 1189.330444 746.514221 1188.497437 745.775391 Z M 1185.945801 731.257263 C 1185.945801 728.653259 1183.829102 726.531311 1181.219849 726.531311 C 1178.615845 726.531311 1176.493896 728.653259 1176.493896 731.257263 L 1176.493896 735.87323 L 1185.940674 735.87323 L 1185.940674 731.257263 Z"/>
            <path id="noun-authentication-7464752-copy" fill="#633e9e" stroke="none" d="M 1210.07373 746.964661 C 1210.07373 762.876587 1197.126953 775.82428 1181.214111 775.82428 C 1165.301147 775.82428 1152.359863 762.877563 1152.359863 746.964661 C 1152.359863 731.052734 1165.30127 718.105042 1181.214111 718.105042 C 1197.126831 718.105042 1210.07373 731.051758 1210.07373 746.964661 Z M 1197.011597 740.10614 C 1197.011597 737.774536 1195.114868 735.872681 1192.778198 735.872681 L 1189.964478 735.872681 L 1189.964478 731.256714 C 1189.964478 726.436279 1186.040161 722.506836 1181.2146 722.506836 C 1176.394165 722.506836 1172.464722 726.431274 1172.464722 731.256714 L 1172.464722 735.872681 L 1169.65625 735.872681 C 1167.324707 735.872681 1165.422852 737.76947 1165.422852 740.10614 L 1165.422852 763.227661 C 1165.422852 765.559204 1167.31958 767.461121 1169.65625 767.461121 L 1192.772461 767.461121 C 1195.104004 767.461121 1197.005859 765.564331 1197.005859 763.227661 L 1197.005859 740.10614 Z M 1192.987671 740.10614 L 1192.987671 763.227661 C 1192.987671 763.337646 1192.888184 763.437256 1192.778076 763.437256 L 1169.661987 763.437256 C 1169.546753 763.437256 1169.452393 763.337646 1169.452393 763.227661 L 1169.452393 740.10614 C 1169.452393 739.996094 1169.546753 739.896606 1169.661987 739.896606 L 1192.778076 739.896606 C 1192.888184 739.896606 1192.987671 739.996094 1192.987671 740.10614 Z M 1188.497437 745.764893 C 1187.669556 745.026123 1186.396362 745.099487 1185.657593 745.927246 L 1179.249756 753.110657 L 1176.729614 750.506653 C 1175.959351 749.705017 1174.686157 749.68927 1173.884521 750.459473 C 1173.082886 751.229675 1173.06189 752.502808 1173.832153 753.304565 L 1177.856079 757.470032 C 1178.233276 757.862915 1178.757202 758.083008 1179.307373 758.083008 L 1179.349243 758.083008 C 1179.909912 758.07251 1180.439087 757.831543 1180.811035 757.412354 L 1188.65979 748.615234 C 1189.403809 747.787354 1189.330444 746.51416 1188.497437 745.775391 Z M 1185.945801 731.257263 C 1185.945801 728.653198 1183.829102 726.531311 1181.219849 726.531311 C 1178.615845 726.531311 1176.493896 728.653198 1176.493896 731.257263 L 1176.493896 735.87323 L 1185.940674 735.87323 L 1185.940674 731.257263 Z"/>
        </g>
        <g id="Line">
            <path id="path1" fill="none" stroke="#000000" stroke-width="8.918315" d="M 1074.556763 715.485901 L 982.342041 715.485901"/>
            <path id="path2" fill="#000000" stroke="none" d="M 995.719482 702.108398 L 968.964539 715.485901 L 995.719482 728.863403 Z"/>
        </g>
        <g id="g1">
            <path id="path3" fill="none" stroke="#000000" stroke-width="8.918315" d="M 822.88208 637.681152 L 822.88208 490.685486"/>
            <path id="path4" fill="#000000" stroke="none" d="M 836.259583 504.062958 L 822.88208 477.308014 L 809.504578 504.062958 Z"/>
        </g>
        <g id="Shape">
            <path id="path5" fill="none" stroke="#000000" stroke-width="7.939262" d="M 1020.569763 420.93927 L 1101.068604 340.440399"/>
            <path id="path6" fill="#000000" stroke="none" d="M 1101.068604 357.282104 L 1109.489502 332.019531 L 1084.226929 340.440399 Z"/>
            <path id="path7" fill="none" stroke="#000000" stroke-width="7.939262" d="M 1013.424377 282.002197 L 1097.580566 282.002197"/>
            <path id="path8" fill="#000000" stroke="none" d="M 1085.671753 293.911102 L 1109.489502 282.002197 L 1085.671753 270.093292 Z"/>
            <path id="path9" fill="none" stroke="#000000" stroke-width="7.939262" d="M 651.394043 170.058594 L 715.033386 230.900574"/>
            <path id="path10" fill="#000000" stroke="none" d="M 698.195923 231.278946 L 723.641296 239.130127 L 714.655029 214.06311 Z"/>
            <path id="path11" fill="none" stroke="#000000" stroke-width="7.939262" d="M 651.394043 389.18222 L 714.302124 339.408783"/>
            <path id="path12" fill="#000000" stroke="none" d="M 712.352173 356.137238 L 723.641296 332.019531 L 697.573669 337.458862 Z"/>
            <path id="path13" fill="none" stroke="#000000" stroke-width="7.939262" d="M 403.689056 389.18222 L 530.717285 389.18222"/>
            <path id="path14" fill="#000000" stroke="none" d="M 518.80835 401.091125 L 542.62616 389.18222 L 518.80835 377.273315 Z"/>
            <path id="path15" fill="none" stroke="#000000" stroke-width="7.939262" d="M 295.715088 637.681152 L 295.014923 548.761047"/>
            <path id="path16" fill="#000000" stroke="none" d="M 307.017212 560.575806 L 294.921143 536.852539 L 283.200165 560.763367 Z"/>
            <path id="path17" fill="none" stroke="#000000" stroke-width="7.939262" d="M 295.715088 349.485901 L 295.715088 251.039017"/>
            <path id="path18" fill="#000000" stroke="none" d="M 307.623993 262.947906 L 295.715088 239.130127 L 283.806183 262.947906 Z"/>
            <path id="path19" fill="none" stroke="#000000" stroke-width="7.939262" d="M 403.689056 170.058594 L 530.717285 170.058594"/>
            <path id="path20" fill="#000000" stroke="none" d="M 518.80835 181.967484 L 542.62616 170.058594 L 518.80835 158.149704 Z"/>
        </g>
        <path id="Rounded-Rectangle-copy-3" fill="none" stroke="#916bdb" stroke-width="7.939262" d="M 185.359329 747.24292 C 185.359329 764.78186 199.577438 779 217.116379 779 L 926.886414 779 C 944.425354 779 958.643494 764.78186 958.643494 747.24292 L 958.643494 684.522766 C 958.643494 666.983826 944.425354 652.765747 926.886414 652.765747 L 217.116379 652.765747 C 199.577438 652.765747 185.359329 666.983826 185.359329 684.522766 Z"/>
        <text id="introspection" xml:space="preserve" x="501" y="210" font-family="Roboto, san-serif" font-size="19.05423" font-weight="700" fill="#000000">introspection</text>
        <text id="token" xml:space="preserve" x="534" y="364" font-family="Roboto, san-serif" font-size="19.05423" font-weight="700" fill="#000000">token</text>
        <g id="g2">
            <path id="path21" fill="none" stroke="#916bdb" stroke-width="8.918315" d="M 641.866943 392.35791 L 565.530212 393.033478"/>
            <path id="path22" fill="#916bdb" stroke="none" d="M 565.648621 406.410431 C 558.260681 406.4758 552.218628 400.539734 552.153259 393.151855 C 552.087891 385.763977 558.023926 379.721893 565.411804 379.656525 C 572.799683 379.591156 578.841797 385.527191 578.907166 392.9151 C 578.972534 400.302979 573.036499 406.345032 565.648621 406.410431 Z"/>
        </g>
        <g id="Line-copy">
            <path id="path23" fill="none" stroke="#916bdb" stroke-width="8.918315" d="M 641.866943 170.058594 L 565.530212 170.7341"/>
            <path id="path24" fill="#916bdb" stroke="none" d="M 565.64856 184.111053 C 558.260681 184.176422 552.218628 178.240356 552.153259 170.852478 C 552.087891 163.4646 558.023926 157.422531 565.411804 157.357162 C 572.799744 157.291779 578.841797 163.227844 578.907166 170.615738 C 578.972534 178.003616 573.036438 184.04567 565.64856 184.111053 Z"/>
        </g>
        <g id="g3">
            <text id="access-sub-123-sid" xml:space="preserve"><tspan x="226" y="293" font-family="Roboto, san-serif" font-size="14.290672" font-weight="500" fill="#000000" xml:space="preserve">access</tspan><tspan x="226" y="307.4" font-family="Roboto, san-serif" font-size="14.290672" font-weight="500" fill="#000000" xml:space="preserve">sub: 123</tspan><tspan x="226" y="321.8" font-family="Roboto, san-serif" font-size="14.290672" font-weight="500" fill="#000000" xml:space="preserve">sid: 456</tspan></text>
            <path id="noun-globe-6147862" fill="#000000" stroke="none" d="M 220.892746 308.059723 L 220.892746 294.053101 C 222.896042 293.647705 224.409637 291.874084 224.409637 289.753052 C 224.409637 287.333862 222.441483 285.365723 220.022308 285.365723 C 218.715485 285.365723 217.541031 285.940918 216.736206 286.850586 L 204.602219 279.84552 C 204.749832 279.406799 204.831253 278.937561 204.831253 278.450256 C 204.831253 276.031067 202.863113 274.062927 200.443924 274.062927 C 198.02475 274.062927 196.056595 276.031067 196.056595 278.450256 C 196.056595 278.938171 196.138016 279.406799 196.285629 279.84552 L 184.151657 286.850586 C 183.347397 285.940918 182.172379 285.365723 180.86554 285.365723 C 178.446365 285.365723 176.478226 287.333862 176.478226 289.753052 C 176.478226 291.874084 177.991226 293.648315 179.995117 294.053101 L 179.995117 308.059723 C 177.991821 308.465057 176.478226 310.238739 176.478226 312.359772 C 176.478226 314.778961 178.446365 316.747101 180.86554 316.747101 C 182.172379 316.747101 183.346817 316.171875 184.151657 315.262207 L 196.285629 322.267273 C 196.138016 322.706024 196.056595 323.175201 196.056595 323.662567 C 196.056595 326.081757 198.02475 328.049896 200.443924 328.049896 C 202.863113 328.049896 204.831253 326.081757 204.831253 323.662567 C 204.831253 323.174622 204.749832 322.706024 204.602219 322.267273 L 216.736206 315.262207 C 217.540451 316.171875 218.715485 316.747101 220.022308 316.747101 C 222.441483 316.747101 224.409637 314.778961 224.409637 312.359772 C 224.409637 310.238739 222.896622 308.464478 220.892746 308.059723 Z M 215.634384 312.359772 C 215.634384 312.847717 215.715805 313.316315 215.863419 313.755035 L 203.729446 320.760132 C 202.925201 319.850433 201.750748 319.275238 200.443344 319.275238 C 199.135925 319.275238 197.962067 319.850433 197.157242 320.760132 L 185.023254 313.755035 C 185.170868 313.316315 185.252289 312.847137 185.252289 312.359772 C 185.252289 310.238739 183.739273 308.464478 181.735397 308.059723 L 181.735397 294.053101 C 183.738693 293.647705 185.252289 291.874084 185.252289 289.753052 C 185.252289 289.265076 185.170868 288.796509 185.023254 288.357727 L 197.157242 281.352661 C 197.961487 282.262329 199.13652 282.837585 200.443344 282.837585 C 201.750168 282.837585 202.924606 282.262329 203.729446 281.352661 L 215.863419 288.357727 C 215.715805 288.796509 215.634384 289.265686 215.634384 289.753052 C 215.634384 291.874084 217.1474 293.648315 219.150696 294.053101 L 219.150696 308.059723 C 217.1474 308.465057 215.634384 310.238739 215.634384 312.359772 Z M 200.443924 285.884705 C 192.078125 285.884705 185.272202 292.690613 185.272202 301.056396 C 185.272202 309.422211 192.078125 316.228119 200.443924 316.228119 C 208.809723 316.228119 215.615646 309.422211 215.615646 301.056396 C 215.615646 292.690613 208.809723 285.884705 200.443924 285.884705 Z M 209.985336 291.614563 C 208.710144 292.069702 207.248093 292.415283 205.688797 292.650757 C 205.501953 291.943787 205.291656 291.271301 205.056778 290.645752 C 204.670166 289.617126 204.229095 288.744324 203.745255 288.037354 C 206.147461 288.646545 208.293671 289.905334 209.985336 291.614563 Z M 195.950577 300.185364 C 195.998611 298.137573 196.215332 296.243835 196.54747 294.580872 C 197.821487 294.712646 199.132996 294.778809 200.443924 294.778809 C 201.754852 294.778809 203.06636 294.712646 204.340393 294.580872 C 204.672516 296.243835 204.888657 298.137573 204.937271 300.185364 L 195.950577 300.185364 Z M 204.937271 301.926819 C 204.889252 303.97522 204.672516 305.868958 204.340393 307.531952 C 201.792343 307.268372 199.09552 307.268372 196.54747 307.531952 C 196.215332 305.868958 195.998611 303.97467 195.950577 301.926819 L 204.937271 301.926819 Z M 200.443924 287.625549 C 201.700958 287.625549 203.046448 289.634705 203.936218 292.865723 C 201.650589 293.084839 199.237854 293.084839 196.952225 292.865723 C 197.841995 289.634705 199.18689 287.625549 200.444519 287.625549 Z M 197.142593 288.036743 C 196.658752 288.743774 196.217682 289.617126 195.831085 290.645142 C 195.596191 291.270752 195.38591 291.943176 195.199051 292.650208 C 193.639755 292.414734 192.177704 292.069092 190.902512 291.613953 C 192.594177 289.904724 194.740402 288.645935 197.142593 288.036743 Z M 189.691162 293.017456 C 191.184265 293.616699 192.934509 294.062439 194.810104 294.355896 C 194.459824 296.157715 194.254227 298.134033 194.208527 300.185364 L 187.042374 300.185364 C 187.214584 297.508484 188.173462 295.042419 189.691162 293.017456 Z M 189.692337 309.095917 C 188.174057 307.070953 187.214584 304.604309 187.042374 301.926819 L 194.208527 301.926819 C 194.254227 303.97876 194.460403 305.955078 194.810104 307.757477 C 192.934509 308.050934 191.184845 308.497284 189.691757 309.095917 Z M 190.903687 310.49881 C 192.178879 310.043701 193.64035 309.69809 195.199631 309.462616 C 195.38649 310.169617 195.596191 310.841492 195.831085 311.466492 C 196.217682 312.495087 196.658752 313.367859 197.142593 314.07486 C 194.740982 313.465698 192.595352 312.207489 190.903687 310.49881 Z M 200.443924 314.486084 C 199.18689 314.486084 197.841995 312.477509 196.952225 309.24707 C 199.237854 309.027985 201.650009 309.027985 203.935623 309.24707 C 203.045868 312.477509 201.700958 314.486084 200.443924 314.486084 Z M 203.745255 314.07486 C 204.229095 313.367859 204.670166 312.495087 205.056778 311.466492 C 205.291656 310.841492 205.501953 310.169037 205.688217 309.462616 C 207.246918 309.69809 208.708969 310.043701 209.984177 310.49881 C 208.292496 312.207489 206.146866 313.465698 203.745255 314.07486 Z M 211.195526 309.095917 C 209.702423 308.496704 207.952759 308.050934 206.077164 307.757477 C 206.427444 305.955078 206.633636 303.97876 206.678741 301.926819 L 213.844894 301.926819 C 213.672684 304.604309 212.713211 307.070953 211.194931 309.095917 Z M 213.84549 300.185364 L 206.679321 300.185364 C 206.633636 298.134033 206.428024 296.157715 206.077744 294.355896 C 207.953339 294.062439 209.703598 293.616699 211.196686 293.017456 C 212.714386 295.042419 213.673279 297.508484 213.84549 300.185364 Z"/>
        </g>
        <g id="g4">
            <text id="refresh-sub-123-sid" xml:space="preserve"><tspan x="457" y="341" font-family="Roboto, san-serif" font-size="14.290672" font-weight="500" fill="#000000" xml:space="preserve">refresh</tspan><tspan x="457" y="355.4" font-family="Roboto, san-serif" font-size="14.290672" font-weight="500" fill="#000000" xml:space="preserve">sub: 123</tspan><tspan x="457" y="369.8" font-family="Roboto, san-serif" font-size="14.290672" font-weight="500" fill="#000000" xml:space="preserve">sid: 456</tspan></text>
            <path id="noun-globe-6147862-copy" fill="#000000" stroke="none" d="M 442.398163 354.901367 L 442.398163 340.894714 C 444.401459 340.48938 445.91507 338.715698 445.91507 336.594666 C 445.91507 334.175476 443.946899 332.207336 441.52774 332.207336 C 440.220917 332.207336 439.046448 332.782562 438.241638 333.69223 L 426.107635 326.687164 C 426.255249 326.248413 426.33667 325.779236 426.33667 325.29187 C 426.33667 322.872711 424.36853 320.904541 421.949341 320.904541 C 419.530182 320.904541 417.562012 322.872711 417.562012 325.29187 C 417.562012 325.779816 417.643433 326.248413 417.791046 326.687164 L 405.657074 333.69223 C 404.852814 332.782562 403.677795 332.207336 402.370972 332.207336 C 399.951782 332.207336 397.983643 334.175476 397.983643 336.594666 C 397.983643 338.715698 399.496643 340.48996 401.500519 340.894714 L 401.500519 354.901367 C 399.497253 355.306702 397.983643 357.080383 397.983643 359.201416 C 397.983643 361.620605 399.951782 363.588745 402.370972 363.588745 C 403.677795 363.588745 404.852234 363.01355 405.657074 362.103851 L 417.791046 369.108948 C 417.643433 369.547668 417.562012 370.016876 417.562012 370.504211 C 417.562012 372.923401 419.530182 374.891541 421.949341 374.891541 C 424.36853 374.891541 426.33667 372.923401 426.33667 370.504211 C 426.33667 370.016266 426.255249 369.547668 426.107635 369.108948 L 438.241638 362.103851 C 439.045868 363.01355 440.220917 363.588745 441.52774 363.588745 C 443.946899 363.588745 445.91507 361.620605 445.91507 359.201416 C 445.91507 357.080383 444.402039 355.306122 442.398163 354.901367 Z M 437.139801 359.201416 C 437.139801 359.689362 437.221222 360.157959 437.368835 360.59671 L 425.234863 367.601776 C 424.430634 366.692108 423.256165 366.116882 421.948761 366.116882 C 420.641357 366.116882 419.467499 366.692108 418.662659 367.601776 L 406.528687 360.59671 C 406.6763 360.157959 406.757721 359.688782 406.757721 359.201416 C 406.757721 357.080383 405.24469 355.306122 403.240814 354.901367 L 403.240814 340.894714 C 405.24411 340.48938 406.757721 338.715698 406.757721 336.594666 C 406.757721 336.10675 406.6763 335.638123 406.528687 335.199402 L 418.662659 328.194305 C 419.466919 329.104004 420.641937 329.679199 421.948761 329.679199 C 423.255585 329.679199 424.430023 329.104004 425.234863 328.194305 L 437.368835 335.199402 C 437.221222 335.638123 437.139801 336.10733 437.139801 336.594666 C 437.139801 338.715698 438.652832 340.48996 440.656128 340.894714 L 440.656128 354.901367 C 438.652832 355.306702 437.139801 357.080383 437.139801 359.201416 Z M 421.949341 332.726318 C 413.583557 332.726318 406.777618 339.532257 406.777618 347.898041 C 406.777618 356.263855 413.583557 363.069763 421.949341 363.069763 C 430.315155 363.069763 437.121063 356.263855 437.121063 347.898041 C 437.121063 339.532257 430.315155 332.726318 421.949341 332.726318 Z M 431.490753 338.456207 C 430.215576 338.911346 428.75351 339.256958 427.194214 339.492432 C 427.007385 338.7854 426.797089 338.112946 426.562195 337.487366 C 426.175598 336.458771 425.734528 335.585999 425.250671 334.878998 C 427.652863 335.488159 429.799103 336.746979 431.490753 338.456207 Z M 417.455994 347.027039 C 417.504028 344.979218 417.720764 343.085449 418.052887 341.422485 C 419.326904 341.554291 420.638428 341.620483 421.949341 341.620483 C 423.260284 341.620483 424.571777 341.554291 425.845825 341.422485 C 426.177948 343.085449 426.394073 344.979218 426.442688 347.027039 L 417.455994 347.027039 Z M 426.442688 348.768494 C 426.394684 350.816895 426.177948 352.710632 425.845825 354.373596 C 423.29776 354.110016 420.600922 354.110016 418.052887 354.373596 C 417.720764 352.710632 417.504028 350.816284 417.455994 348.768494 L 426.442688 348.768494 Z M 421.949341 334.467194 C 423.20639 334.467194 424.55188 336.476349 425.44165 339.707397 C 423.156006 339.926453 420.743286 339.926453 418.457642 339.707397 C 419.347412 336.476349 420.692322 334.467194 421.949921 334.467194 Z M 418.64801 334.878418 C 418.164185 335.585419 417.723114 336.458771 417.336517 337.486786 C 417.101624 338.112366 416.891327 338.784821 416.704468 339.491821 C 415.145172 339.256348 413.683136 338.910767 412.407928 338.455627 C 414.099609 336.746368 416.245819 335.487579 418.64801 334.878418 Z M 411.196594 339.8591 C 412.689697 340.458344 414.439941 340.904083 416.315521 341.197571 C 415.96524 342.999359 415.759644 344.975708 415.713959 347.027039 L 408.547791 347.027039 C 408.720001 344.350098 409.678894 341.884064 411.196594 339.8591 Z M 411.197754 355.937592 C 409.679474 353.912628 408.720001 351.445984 408.547791 348.768494 L 415.713959 348.768494 C 415.759644 350.820404 415.96582 352.796753 416.315521 354.599121 C 414.439941 354.892578 412.690277 355.338928 411.197174 355.937592 Z M 412.409119 357.340485 C 413.684296 356.885345 415.145782 356.539734 416.705048 356.30426 C 416.891907 357.011261 417.101624 357.683136 417.336517 358.308136 C 417.723114 359.336731 418.164185 360.209503 418.64801 360.916534 C 416.246399 360.307343 414.100769 359.049133 412.409119 357.340485 Z M 421.949341 361.327728 C 420.692322 361.327728 419.347412 359.319153 418.457642 356.088715 C 420.743286 355.869629 423.155426 355.869629 425.44104 356.088715 C 424.5513 359.319153 423.20639 361.327728 421.949341 361.327728 Z M 425.250671 360.916534 C 425.734528 360.209503 426.175598 359.336731 426.562195 358.308136 C 426.797089 357.683136 427.007385 357.010681 427.193634 356.30426 C 428.75235 356.539734 430.214386 356.885345 431.489594 357.340485 C 429.797913 359.049133 427.652283 360.307343 425.250671 360.916534 Z M 432.700928 355.937592 C 431.207855 355.338348 429.458191 354.892578 427.582581 354.599121 C 427.932861 352.796753 428.139069 350.820404 428.184174 348.768494 L 435.350311 348.768494 C 435.178101 351.445984 434.218628 353.912628 432.700348 355.937592 Z M 435.350922 347.027039 L 428.184753 347.027039 C 428.139069 344.975708 427.933441 342.999359 427.58316 341.197571 C 429.458771 340.904083 431.209015 340.458344 432.702118 339.8591 C 434.219818 341.884064 435.178711 344.350098 435.350922 347.027039 Z"/>
        </g>
        <text id="key-111" xml:space="preserve" x="745" y="633" font-family="Roboto, san-serif" font-size="14.290672" font-weight="500" fill="#000000">key: 111</text>
        <text id="key-111-sub-123" xml:space="preserve"><tspan x="1138" y="403" font-family="Roboto, san-serif" font-size="23.817787" font-weight="500" fill="#000000" xml:space="preserve">key: 111</tspan><tspan x="1138" y="431" font-family="Roboto, san-serif" font-size="23.817787" font-weight="500" fill="#000000" xml:space="preserve">sub: 123</tspan><tspan x="1138" y="459" font-family="Roboto, san-serif" font-size="23.817787" font-weight="500" fill="#000000" xml:space="preserve">sid: 456</tspan><tspan x="1138" y="487" font-family="Roboto, san-serif" font-size="23.817787" font-weight="500" fill="#000000" xml:space="preserve">expires: 10</tspan></text>
        <text id="API" xml:space="preserve" x="263" y="160" font-family="Roboto, san-serif" font-size="38.10846" font-weight="700" fill="#000000">API</text>
        <text id="Browser" xml:space="preserve" x="499" y="730" font-family="Roboto, san-serif" font-size="38.10846" font-weight="700" fill="#000000">Browser</text>
        <text id="Coordiation-Service" xml:space="preserve"><tspan x="786.23309" y="279" font-family="Roboto, san-serif" font-size="28.581345" font-weight="700" fill="#000000" xml:space="preserve">Coordiation</tspan><tspan x="812.943797" y="309.6" font-family="Roboto, san-serif" font-size="28.581345" font-weight="700" fill="#000000" xml:space="preserve">Service</tspan></text>
        <text id="Cookie-Handler" xml:space="preserve"><tspan x="815.874145" y="418" font-family="Roboto, san-serif" font-size="28.581345" font-weight="700" fill="#000000" xml:space="preserve">Cookie</tspan><tspan x="809.971097" y="448.6" font-family="Roboto, san-serif" font-size="28.581345" font-weight="700" fill="#000000" xml:space="preserve">Handler</tspan></text>
        <text id="Client" xml:space="preserve" x="236" y="463" font-family="Roboto, san-serif" font-size="38.10846" font-weight="700" fill="#000000">Client</text>
        <text id="IdentityServer" xml:space="preserve" x="739" y="186" font-family="Roboto, san-serif" font-size="38.10846" font-weight="700" fill="#000000">IdentityServer</text>
        <g id="Group-copy-3">
            <path id="Path" fill="#633e9e" stroke="none" d="M 787.945984 125.476563 L 787.945984 125.476563 C 784.556885 123.436401 783.453247 118.994263 785.493408 115.605225 L 802.714905 86.997559 C 804.755005 83.608521 809.197144 82.504883 812.586182 84.545044 L 812.586182 84.545044 C 815.975281 86.585266 817.078979 91.027344 815.038757 94.416382 L 797.817261 123.024048 C 795.7771 126.413086 791.334961 127.516724 787.945984 125.476563 Z"/>
            <path id="path25" fill="#43257c" stroke="none" d="M 811.241455 154.958252 L 811.241455 154.958313 C 807.780029 156.87323 803.381287 155.60791 801.46637 152.146545 L 785.302124 122.928528 C 783.387146 119.467163 784.652527 115.068359 788.113892 113.153442 L 788.113892 113.153381 C 791.575256 111.238525 795.97406 112.503784 797.888977 115.965149 L 814.053162 145.183167 C 815.968079 148.644531 814.70282 153.043396 811.241455 154.958252 Z"/>
            <path id="path26" fill="#8361c5" stroke="none" d="M 751.227478 119.454346 L 751.227478 119.454346 C 751.227478 123.410095 754.46405 126.646667 758.419739 126.646667 L 791.811035 126.646667 C 795.766724 126.646667 799.003357 123.410095 799.003357 119.454346 L 799.003357 119.454346 C 799.003357 115.498535 795.766724 112.262024 791.811035 112.262024 L 758.419739 112.262024 C 754.46405 112.262024 751.227478 115.498535 751.227478 119.454346 Z"/>
            <g id="g5">
                <path id="path27" fill="#000000" stroke="none" d="M 834.773682 109.646729 C 836.39624 110.583801 837.66272 111.901123 838.573059 113.598694 C 839.483398 115.296204 839.938599 117.237366 839.938599 119.422241 L 839.938599 120.450378 C 839.938599 122.645935 839.483398 124.589783 838.573059 126.281921 C 837.66272 127.974121 836.393555 129.288757 834.765686 130.225891 C 833.137756 131.163025 831.274231 131.631592 829.175049 131.631592 L 824.098511 131.631592 L 821.913696 131.631592 L 821.913696 108.240967 L 826.958069 108.240967 L 829.207153 108.240967 C 831.295654 108.240967 833.151123 108.709534 834.773682 109.646729 Z M 834.813843 119.390076 C 834.813843 117.076721 834.33728 115.320251 833.384094 114.120789 C 832.430908 112.921265 831.038635 112.321472 829.207153 112.321472 L 826.958069 112.321472 L 826.958069 127.567139 L 829.175049 127.567139 C 831.00647 127.567139 832.404114 126.959351 833.368042 125.743774 C 834.331909 124.528198 834.813843 122.763733 834.813843 120.450378 L 834.813843 119.390076 Z"/>
                <path id="path28" fill="#000000" stroke="none" d="M 858.73468 114.249329 L 858.73468 131.631592 L 854.188232 131.631592 L 854.059753 129.816223 C 853.513062 130.501709 852.843628 131.029175 852.051147 131.398621 C 851.258545 131.768127 850.353577 131.952881 849.336121 131.952881 C 847.526123 131.952881 846.109802 131.428101 845.086975 130.378479 C 844.064209 129.328979 843.552734 127.70105 843.552734 125.494751 L 843.552734 114.249329 L 848.388306 114.249329 L 848.388306 125.526855 C 848.388306 126.383728 848.599792 127.015564 849.022827 127.422546 C 849.445923 127.829529 850.032288 128.03302 850.781982 128.03302 C 852.270752 128.03302 853.304199 127.513611 853.882935 126.474731 L 853.882935 114.249329 L 858.73468 114.249329 Z"/>
                <path id="path29" fill="#000000" stroke="none" d="M 878.075928 124.514832 L 867.087463 124.514832 C 867.269592 125.596497 867.71936 126.455994 868.43689 127.093262 C 869.154541 127.730469 870.075623 128.049133 871.200134 128.049133 C 872.035522 128.049133 872.809326 127.891113 873.521484 127.575195 C 874.233704 127.259277 874.841553 126.785278 875.34491 126.153442 L 877.674255 128.836304 C 877.063843 129.714539 876.172241 130.453491 874.999451 131.053284 C 873.826721 131.653015 872.453186 131.952881 870.878784 131.952881 C 869.100952 131.952881 867.556091 131.578003 866.244141 130.828369 C 864.932068 130.078613 863.925415 129.061157 863.223877 127.776001 C 862.522339 126.490845 862.17157 125.071716 862.17157 123.518799 L 862.17157 122.908325 C 862.17157 121.173279 862.498291 119.625732 863.15155 118.265503 C 863.804871 116.905396 864.747314 115.842407 865.979065 115.07666 C 867.210693 114.310852 868.667175 113.927979 870.348694 113.927979 C 871.987305 113.927979 873.384949 114.276062 874.541626 114.972229 C 875.698364 115.668335 876.576538 116.656372 877.176331 117.936218 C 877.776062 119.216064 878.075928 120.72345 878.075928 122.458496 L 878.075928 124.514832 Z M 873.320679 120.884155 C 873.299316 119.94165 873.039612 119.197327 872.541504 118.651062 C 872.043579 118.104919 871.301819 117.831787 870.316589 117.831787 C 869.395508 117.831787 868.675232 118.137024 868.155823 118.747498 C 867.636353 119.35791 867.296326 120.198669 867.135681 121.269714 L 873.320679 121.269714 L 873.320679 120.884155 Z"/>
                <path id="path30" fill="#000000" stroke="none" d="M 894.911133 115.494324 C 895.864319 116.538574 896.340942 118.24408 896.340942 120.611023 L 896.340942 131.631592 L 891.489258 131.631592 L 891.489258 120.594971 C 891.489258 119.566833 891.269714 118.851929 890.830566 118.450317 C 890.391541 118.048645 889.711487 117.847839 888.790405 117.847839 C 888.158508 117.847839 887.609619 117.981689 887.143677 118.249512 C 886.677795 118.517212 886.300293 118.8974 886.011108 119.390076 L 886.011108 131.631592 L 881.159485 131.631592 L 881.159485 114.249329 L 885.705933 114.249329 L 885.866577 116.257446 C 886.47699 115.497009 887.205322 114.918701 888.051392 114.5224 C 888.897522 114.12616 889.834534 113.927979 890.862732 113.927979 C 892.608459 113.927979 893.957947 114.450134 894.911133 115.494324 Z"/>
                <path id="path31" fill="#000000" stroke="none" d="M 915.457336 106.955811 L 915.457336 131.631592 L 911.087646 131.631592 L 910.84668 129.768066 C 909.711426 131.224609 908.244202 131.952881 906.444885 131.952881 C 905.04187 131.952881 903.828918 131.575378 902.806152 130.820313 C 901.783386 130.065247 901.006897 129.023682 900.476685 127.695679 C 899.946594 126.367615 899.681519 124.852173 899.681519 123.149292 L 899.681519 122.811951 C 899.681519 121.0448 899.946594 119.491821 900.476685 118.153076 C 901.006897 116.814331 901.783386 115.775452 902.806152 115.036499 C 903.828918 114.297485 905.052612 113.927979 906.47699 113.927979 C 908.126404 113.927979 909.502563 114.554504 910.605713 115.807617 L 910.605713 106.955811 L 915.457336 106.955811 Z M 910.605713 126.298035 L 910.605713 119.582886 C 910.048767 118.426208 909.0849 117.847839 907.713989 117.847839 C 906.610901 117.847839 905.804932 118.297668 905.296265 119.197327 C 904.787537 120.096924 904.533142 121.301819 904.533142 122.811951 L 904.533142 123.149292 C 904.533142 124.637939 904.782166 125.824097 905.280151 126.707703 C 905.778198 127.591248 906.578735 128.03302 907.681885 128.03302 C 909.042053 128.03302 910.016663 127.454712 910.605713 126.298035 Z"/>
                <path id="path32" fill="#000000" stroke="none" d="M 934.895935 124.514832 L 923.907471 124.514832 C 924.089539 125.596497 924.539368 126.455994 925.256897 127.093262 C 925.974548 127.730469 926.895569 128.049133 928.020142 128.049133 C 928.855469 128.049133 929.629333 127.891113 930.341492 127.575195 C 931.053711 127.259277 931.661499 126.785278 932.164917 126.153442 L 934.494385 128.836304 C 933.88385 129.714539 932.992188 130.453491 931.819458 131.053284 C 930.646729 131.653015 929.273193 131.952881 927.698853 131.952881 C 925.921021 131.952881 924.376038 131.578003 923.064148 130.828369 C 921.752136 130.078613 920.745422 129.061157 920.043884 127.776001 C 919.342407 126.490845 918.991577 125.071716 918.991577 123.518799 L 918.991577 122.908325 C 918.991577 121.173279 919.318298 119.625732 919.971558 118.265503 C 920.624878 116.905396 921.567322 115.842407 922.799011 115.07666 C 924.03064 114.310852 925.487183 113.927979 927.16864 113.927979 C 928.807312 113.927979 930.204956 114.276062 931.361694 114.972229 C 932.51825 115.668335 933.396545 116.656372 933.996277 117.936218 C 934.596008 119.216064 934.895935 120.72345 934.895935 122.458496 L 934.895935 124.514832 Z M 930.140686 120.884155 C 930.119324 119.94165 929.859497 119.197327 929.361511 118.651062 C 928.863464 118.104919 928.121826 117.831787 927.136597 117.831787 C 926.215515 117.831787 925.495239 118.137024 924.97583 118.747498 C 924.45636 119.35791 924.116333 120.198669 923.955688 121.269714 L 930.140686 121.269714 L 930.140686 120.884155 Z"/>
            </g>
            <path id="path33" fill="#764fc1" stroke="none" d="M 952.493347 126.585022 C 952.493347 129.520569 950.113647 131.90033 947.17804 131.90033 C 944.242493 131.90033 941.862732 129.520569 941.862732 126.585022 C 941.862732 123.649414 944.242493 121.269714 947.17804 121.269714 C 950.113647 121.269714 952.493347 123.649414 952.493347 126.585022 Z"/>
            <path id="path34" fill="#764fc1" stroke="none" d="M 799.890198 119.454346 L 799.890198 119.454346 C 799.890198 115.498535 796.636169 112.262024 792.659119 112.262024 L 787.510376 112.262024 L 785.486938 115.605225 C 785.280518 115.946228 785.114746 116.299927 784.971497 116.658691 C 784.939148 116.735413 784.906067 116.811462 784.876465 116.88916 C 784.867126 116.915161 784.858704 116.941406 784.84967 116.967529 C 784.150879 118.862244 784.241211 121.034729 785.294617 122.928528 L 787.362732 126.646667 L 792.659119 126.646667 C 796.636169 126.646667 799.890198 123.410095 799.890198 119.454346 Z"/>
        </g>
        <g id="g6">
            <text id="text1" xml:space="preserve"><tspan x="468" y="121" font-family="Roboto, san-serif" font-size="14.290672" font-weight="500" fill="#000000" xml:space="preserve">access</tspan><tspan x="468" y="135.4" font-family="Roboto, san-serif" font-size="14.290672" font-weight="500" fill="#000000" xml:space="preserve">sub: 123</tspan><tspan x="468" y="149.8" font-family="Roboto, san-serif" font-size="14.290672" font-weight="500" fill="#000000" xml:space="preserve">sid: 456</tspan></text>
            <path id="noun-globe-6147862-copy-2" fill="#000000" stroke="none" d="M 455.064117 134.996826 L 455.064117 120.990173 C 457.067413 120.584839 458.580994 118.811157 458.580994 116.690125 C 458.580994 114.270935 456.612854 112.302795 454.193665 112.302795 C 452.886841 112.302795 451.712402 112.877991 450.907562 113.787659 L 438.77359 106.782593 C 438.921204 106.343872 439.002625 105.874695 439.002625 105.387329 C 439.002625 102.96814 437.034485 101 434.615295 101 C 432.196106 101 430.227966 102.96814 430.227966 105.387329 C 430.227966 105.875244 430.309387 106.343872 430.457001 106.782593 L 418.323029 113.787659 C 417.518768 112.877991 416.34375 112.302795 415.036926 112.302795 C 412.617737 112.302795 410.649597 114.270935 410.649597 116.690125 C 410.649597 118.811157 412.162598 120.585388 414.166473 120.990173 L 414.166473 134.996826 C 412.163177 135.402161 410.649597 137.175842 410.649597 139.296875 C 410.649597 141.716064 412.617737 143.684204 415.036926 143.684204 C 416.34375 143.684204 417.518188 143.109009 418.323029 142.19928 L 430.457001 149.204407 C 430.309387 149.643127 430.227966 150.112305 430.227966 150.59967 C 430.227966 153.01886 432.196106 154.987 434.615295 154.987 C 437.034485 154.987 439.002625 153.01886 439.002625 150.59967 C 439.002625 150.111694 438.921204 149.643127 438.77359 149.204407 L 450.907562 142.19928 C 451.711823 143.109009 452.886841 143.684204 454.193665 143.684204 C 456.612854 143.684204 458.580994 141.716064 458.580994 139.296875 C 458.580994 137.175842 457.067993 135.40155 455.064117 134.996826 Z M 449.805756 139.296875 C 449.805756 139.78479 449.887177 140.253418 450.03479 140.692139 L 437.900818 147.697205 C 437.096558 146.787537 435.922119 146.212341 434.614716 146.212341 C 433.307281 146.212341 432.133423 146.787537 431.328613 147.697205 L 419.194611 140.692139 C 419.342224 140.253418 419.423645 139.784241 419.423645 139.296875 C 419.423645 137.175842 417.910645 135.40155 415.906769 134.996826 L 415.906769 120.990173 C 417.910065 120.584839 419.423645 118.811157 419.423645 116.690125 C 419.423645 116.202209 419.342224 115.733582 419.194611 115.294861 L 431.328613 108.289734 C 432.132843 109.199463 433.307892 109.774658 434.614716 109.774658 C 435.921539 109.774658 437.095978 109.199463 437.900818 108.289734 L 450.03479 115.294861 C 449.887177 115.733582 449.805756 116.202759 449.805756 116.690125 C 449.805756 118.811157 451.318787 120.585388 453.322052 120.990173 L 453.322052 134.996826 C 451.318787 135.402161 449.805756 137.175842 449.805756 139.296875 Z M 434.615295 112.821777 C 426.249481 112.821777 419.443573 119.627686 419.443573 127.993469 C 419.443573 136.359314 426.249481 143.165222 434.615295 143.165222 C 442.981079 143.165222 449.787018 136.359314 449.787018 127.993469 C 449.787018 119.627686 442.981079 112.821777 434.615295 112.821777 Z M 444.156708 118.551636 C 442.8815 119.006775 441.419464 119.352417 439.860168 119.587891 C 439.673309 118.880859 439.463043 118.208374 439.228149 117.582825 C 438.841553 116.554199 438.400452 115.681458 437.916626 114.974426 C 440.318817 115.583618 442.465027 116.842407 444.156708 118.551636 Z M 430.121948 127.122498 C 430.169983 125.074646 430.386719 123.180908 430.718842 121.517944 C 431.992859 121.649719 433.304382 121.715942 434.615295 121.715942 C 435.926208 121.715942 437.237732 121.649719 438.511749 121.517944 C 438.843872 123.180908 439.060028 125.074646 439.108643 127.122498 L 430.121948 127.122498 Z M 439.108643 128.863953 C 439.060608 130.912354 438.843872 132.806091 438.511749 134.469055 C 435.963715 134.205444 433.266876 134.205444 430.718842 134.469055 C 430.386719 132.806091 430.169983 130.911743 430.121948 128.863953 L 439.108643 128.863953 Z M 434.615295 114.562622 C 435.872345 114.562622 437.217804 116.571777 438.107574 119.802856 C 435.82196 120.021912 433.40921 120.021912 431.123596 119.802856 C 432.013367 116.571777 433.358246 114.562622 434.615875 114.562622 Z M 431.313965 114.973877 C 430.830109 115.680847 430.389038 116.554199 430.002441 117.582214 C 429.767548 118.207825 429.557281 118.880249 429.370422 119.58728 C 427.811127 119.351807 426.34906 119.006226 425.073883 118.551086 C 426.765533 116.841858 428.911774 115.583008 431.313965 114.973877 Z M 423.862518 119.954529 C 425.355621 120.553772 427.105865 120.999512 428.981476 121.29303 C 428.631195 123.094788 428.425598 125.071167 428.379883 127.122498 L 421.213745 127.122498 C 421.385956 124.445557 422.344818 121.979492 423.862518 119.954529 Z M 423.863708 136.03302 C 422.345428 134.008057 421.385956 131.541443 421.213745 128.863953 L 428.379883 128.863953 C 428.425598 130.915833 428.631775 132.892212 428.981476 134.69458 C 427.105865 134.988037 425.356201 135.434387 423.863129 136.03302 Z M 425.075043 137.435913 C 426.35025 136.980774 427.811707 136.635193 429.371002 136.399719 C 429.557861 137.106689 429.767548 137.778564 430.002441 138.403564 C 430.389038 139.43219 430.830109 140.304932 431.313965 141.011963 C 428.912354 140.402771 426.766724 139.144592 425.075043 137.435913 Z M 434.615295 141.423157 C 433.358246 141.423157 432.013367 139.414612 431.123596 136.184143 C 433.40921 135.965088 435.821381 135.965088 438.106995 136.184143 C 437.217224 139.414612 435.872345 141.423157 434.615295 141.423157 Z M 437.916626 141.011963 C 438.400452 140.304932 438.841553 139.43219 439.228149 138.403564 C 439.463043 137.778564 439.673309 137.10614 439.859589 136.399719 C 441.418274 136.635193 442.880341 136.980774 444.155548 137.435913 C 442.463867 139.144592 440.318237 140.402771 437.916626 141.011963 Z M 445.366882 136.03302 C 443.873779 135.433777 442.124115 134.988037 440.248535 134.69458 C 440.598816 132.892212 440.804993 130.915833 440.850098 128.863953 L 448.016266 128.863953 C 447.844055 131.541443 446.884583 134.008057 445.366302 136.03302 Z M 448.016846 127.122498 L 440.850677 127.122498 C 440.804993 125.071167 440.599396 123.094788 440.249115 121.29303 C 442.124725 120.999512 443.874969 120.553772 445.368042 119.954529 C 446.885742 121.979492 447.844635 124.445557 448.016846 127.122498 Z"/>
        </g>
        <path id="noun-access-3407267" fill="#000000" stroke="none" d="M 774.441711 546.571167 C 766.511292 546.571167 760.01709 553.065369 760.01709 560.995789 C 760.01709 566.678223 763.326782 571.798645 768.447083 574.10907 L 768.447083 579.104614 C 768.447083 579.541626 768.634521 579.978882 768.946716 580.291138 L 771.506897 582.851257 L 768.946716 585.411438 C 768.634521 585.723633 768.447083 586.160645 768.447083 586.5979 L 768.447083 589.033325 C 768.447083 589.470337 768.634521 589.907593 768.946716 590.219788 L 771.506897 592.779968 L 768.946716 595.340088 C 768.634521 595.652344 768.447083 596.089355 768.447083 596.526611 L 768.447083 599.524048 C 768.447083 599.96106 768.634521 600.398315 768.884094 600.71051 L 773.130432 605.206421 C 773.442627 605.518616 773.879639 605.768433 774.379333 605.768433 C 774.816345 605.768433 775.315979 605.581055 775.628174 605.206421 L 779.874512 600.71051 C 780.186707 600.398315 780.311523 599.961304 780.311523 599.524048 L 780.311523 574.109253 C 785.431885 571.736267 788.741516 566.678345 788.741516 560.995972 C 788.866333 553.065552 782.372192 546.571289 774.441772 546.571289 Z M 781.560364 559.309814 L 774.441711 566.803101 C 774.067139 567.240112 773.505066 567.489929 772.880615 567.489929 C 772.256165 567.489929 771.756531 567.240112 771.319519 566.803101 L 767.385437 562.619446 C 766.573547 561.745178 766.63623 560.433899 767.447815 559.622009 C 768.322083 558.81012 769.633362 558.872803 770.445251 559.684448 L 772.880615 562.244568 L 778.50061 556.374817 C 779.3125 555.500549 780.686157 555.500549 781.498047 556.312378 C 782.309753 557.124268 782.372131 558.435547 781.560425 559.309814 Z"/>
        <path id="noun-data-security-7464775-copy" fill="#916bdb" stroke="none" d="M 1219.49353 270.677368 C 1219.49353 273.425842 1216.161377 276.43457 1210.587036 278.733337 C 1204.105713 281.404602 1195.445313 282.873779 1186.181274 282.873779 C 1176.916382 282.873779 1168.248901 281.404602 1161.775391 278.733337 C 1156.200928 276.434692 1152.869019 273.419006 1152.869019 270.677368 C 1152.869019 267.928833 1156.20105 264.920166 1161.775391 262.621399 C 1168.256836 259.950073 1176.917236 258.480957 1186.181274 258.480957 C 1195.439209 258.480957 1204.106567 259.950134 1210.587036 262.621399 C 1216.161621 264.919983 1219.49353 267.928711 1219.49353 270.677368 Z M 1159.783691 257.792053 C 1152.030029 260.990417 1147.728027 265.51062 1147.643555 270.536621 L 1147.643555 270.677185 L 1147.643555 289.207397 L 1142.195679 289.207397 C 1126.56897 289.207397 1113.859619 276.497925 1113.859619 260.871338 C 1113.859619 245.406189 1126.309082 232.801575 1141.71167 232.54248 C 1144.467163 223.06665 1153.190918 216.395447 1163.250732 216.395447 C 1166.540527 216.395447 1169.760132 217.112488 1172.698486 218.476135 C 1177.513794 207.917664 1188.079224 201.021667 1199.880981 201.021667 C 1215.873291 201.021667 1228.96936 213.653809 1229.721558 229.456726 L 1230.319092 229.456726 C 1246.789307 229.456726 1260.195557 242.855103 1260.195557 259.333252 C 1260.195557 275.803467 1246.797241 289.209778 1230.319092 289.209778 L 1224.709473 289.209778 L 1224.709473 270.679565 L 1224.709473 270.53894 C 1224.63208 265.512756 1220.329956 260.992798 1212.576294 257.794373 C 1205.483521 254.870056 1196.106079 253.260376 1186.180176 253.260376 C 1176.247437 253.260376 1166.876221 254.870117 1159.784058 257.794373 Z M 1217.875732 232.266907 C 1216.406494 223.950928 1210.185425 217.596252 1202.009888 216.084778 C 1195.22644 214.833557 1189.595703 216.218384 1185.279541 220.204163 C 1184.218018 221.181335 1184.154785 222.833191 1185.131836 223.894775 C 1186.109009 224.956238 1187.760864 225.01947 1188.822388 224.042358 C 1191.908325 221.195435 1195.908203 220.274414 1201.060913 221.223511 C 1207.071167 222.334229 1211.647461 227.02301 1212.730103 233.173767 C 1212.955078 234.439087 1214.058716 235.331848 1215.302979 235.331848 C 1215.450562 235.331848 1215.605225 235.317749 1215.759888 235.289673 C 1217.17981 235.03656 1218.128906 233.68689 1217.882813 232.259888 Z M 1136.993896 271.035095 C 1133.886719 268.363831 1132.108398 264.525696 1132.108398 260.518738 C 1132.108398 256.835205 1133.570557 253.348511 1136.234863 250.712524 C 1137.25415 249.693237 1137.261108 248.04126 1136.241821 247.014954 C 1135.229614 245.995667 1133.570557 245.988647 1132.55127 247.007935 C 1128.895996 250.642151 1126.885498 255.436401 1126.885498 260.525757 C 1126.885498 266.058044 1129.324829 271.3302 1133.591797 274.999756 C 1134.083862 275.421509 1134.688354 275.632385 1135.292969 275.632385 C 1136.031006 275.632385 1136.762085 275.323059 1137.275391 274.725586 C 1138.217285 273.628967 1138.09082 271.98407 1137.001221 271.042053 Z M 1252.476074 304.714111 C 1255.695679 333.422699 1245.82605 352.95166 1223.134033 362.76474 C 1222.803589 362.905334 1222.452148 362.982635 1222.100708 362.982635 C 1221.749268 362.982635 1221.397705 362.912354 1221.060303 362.76474 C 1215.781128 360.480164 1211.197754 357.675354 1207.310547 354.343262 C 1205.74292 353.007629 1204.2948 351.580566 1202.952148 350.069275 C 1201.279053 348.185303 1199.788818 346.181854 1198.474243 344.037842 C 1197.51123 342.470245 1196.639526 340.832428 1195.866333 339.124084 C 1195.078979 337.401855 1194.397095 335.609375 1193.799683 333.73941 C 1193.279419 332.080414 1192.82959 330.372253 1192.463989 328.607758 C 1192.000122 326.42865 1191.66272 324.157959 1191.444702 321.810242 C 1191.283081 320.116089 1191.184692 318.379883 1191.149536 316.59436 C 1191.1073 314.752655 1191.135498 312.868683 1191.226807 310.935608 C 1191.304199 309.220367 1191.437744 307.462952 1191.620483 305.67041 C 1191.65564 305.347046 1191.690796 305.023682 1191.725952 304.700317 C 1191.866577 303.470154 1192.843628 302.507019 1194.073853 302.394714 C 1203.451172 301.508972 1211.992188 298.141785 1219.485596 292.377563 C 1219.80896 292.131531 1220.132324 291.87146 1220.455688 291.618347 C 1221.411743 290.845093 1222.775513 290.845093 1223.731445 291.618347 C 1224.05481 291.878479 1224.378174 292.131531 1224.701538 292.384583 C 1232.195068 298.141785 1240.736084 301.508972 1250.113281 302.394714 C 1251.343506 302.514221 1252.320679 303.477234 1252.461182 304.700317 Z M 1235.583984 340.522003 C 1235.689453 340.142426 1235.752686 339.74173 1235.752686 339.326965 L 1235.752686 320.81839 C 1235.752686 318.400116 1233.777344 316.431915 1231.359253 316.431915 L 1231.092163 316.431915 L 1231.092163 313.718536 C 1231.092163 310.723846 1229.615967 308.059784 1227.359497 306.435852 C 1226.68457 306.084351 1226.016846 305.718811 1225.355957 305.339233 C 1224.34375 304.945557 1223.24707 304.727661 1222.101318 304.727661 C 1220.955444 304.727661 1219.858887 304.945557 1218.846558 305.339233 C 1218.185791 305.718811 1217.510986 306.084351 1216.83606 306.435852 C 1214.57959 308.066681 1213.110474 310.723846 1213.110474 313.718536 L 1213.110474 316.431915 L 1212.843262 316.431915 C 1210.417969 316.431915 1208.449829 318.400299 1208.449829 320.81839 L 1208.449829 339.326965 C 1208.449829 339.727692 1208.499023 340.107269 1208.604492 340.479828 C 1209.286377 341.428802 1210.024414 342.342743 1210.81189 343.214294 C 1211.416382 343.537628 1212.112305 343.720428 1212.843384 343.720428 L 1231.351929 343.720428 C 1232.097046 343.720428 1232.800049 343.537628 1233.418579 343.200226 C 1234.191895 342.342621 1234.908813 341.44986 1235.583618 340.521942 Z M 1225.869263 313.717377 C 1225.869263 311.643707 1224.182129 309.949432 1222.101196 309.949432 C 1220.027588 309.949432 1218.333374 311.643555 1218.333374 313.717377 L 1218.333374 316.430756 L 1225.862061 316.430756 L 1225.862061 313.717377 Z M 1194.025757 346.770142 C 1194.946655 348.274445 1195.958862 349.729523 1197.048462 351.12851 C 1193.589966 351.592468 1189.93457 351.838501 1186.180664 351.838501 C 1176.915771 351.838501 1168.248291 350.369324 1161.774902 347.698059 C 1156.200317 345.399445 1152.868408 342.390747 1152.868408 339.642059 L 1152.868408 325.674316 C 1154.717163 327.101318 1157.029907 328.408783 1159.785645 329.540527 C 1166.87854 332.464844 1176.255859 334.074554 1186.181763 334.074554 C 1186.93396 334.074554 1187.693115 334.067535 1188.438232 334.046417 C 1188.564819 334.47525 1188.691284 334.904053 1188.824951 335.332855 C 1189.295898 336.816101 1189.82312 338.26416 1190.392456 339.648926 C 1190.624512 340.204254 1190.856445 340.752594 1191.102417 341.286835 C 1191.629639 342.453766 1192.199097 343.59964 1192.817627 344.717194 C 1193.197266 345.420166 1193.60498 346.109039 1194.019775 346.783813 Z M 1173.514282 338.932098 C 1171.159302 338.580597 1168.867676 338.1026 1166.716675 337.533203 C 1165.324829 337.160645 1163.890869 337.990143 1163.518311 339.381897 C 1163.145752 340.773773 1163.97522 342.207764 1165.367065 342.580292 C 1167.707886 343.205933 1170.189331 343.719086 1172.734131 344.098663 C 1172.867676 344.119781 1172.994263 344.126801 1173.127808 344.126801 C 1174.400146 344.126801 1175.517822 343.198883 1175.707642 341.905396 C 1175.925537 340.478394 1174.941406 339.1427 1173.514282 338.931976 Z M 1185.991699 311.080109 C 1185.907349 313.006195 1185.886353 314.904205 1185.928467 316.703766 L 1185.928467 316.788116 C 1185.963623 318.531464 1186.062012 320.281799 1186.216675 322.011017 C 1186.223755 322.109436 1186.230713 322.207855 1186.244873 322.306274 C 1186.455688 324.555725 1186.772095 326.756042 1187.17981 328.84375 C 1186.849365 328.84375 1186.511963 328.850769 1186.174561 328.850769 C 1176.909668 328.850769 1168.242188 327.381592 1161.768677 324.710327 C 1156.194214 322.411713 1152.862305 319.403015 1152.862305 316.654358 L 1152.862305 302.679565 C 1154.710938 304.113586 1157.023804 305.414063 1159.779419 306.545776 C 1166.82312 309.449036 1176.130249 311.058746 1185.992065 311.079803 Z M 1173.514282 315.944519 C 1171.159302 315.585999 1168.867676 315.115021 1166.716675 314.538605 C 1165.324829 314.166046 1163.890869 314.995544 1163.518311 316.387329 C 1163.145752 317.779175 1163.97522 319.213165 1165.367065 319.585693 C 1167.707886 320.211334 1170.189331 320.724487 1172.734131 321.104095 C 1172.867676 321.125183 1172.994263 321.132202 1173.127808 321.132202 C 1174.400146 321.132202 1175.517822 320.204315 1175.707642 318.910797 C 1175.925537 317.483795 1174.941406 316.148102 1173.514282 315.937378 Z M 1186.533081 304.134827 C 1186.490845 304.472229 1186.455688 304.816711 1186.420532 305.147095 C 1186.399536 305.386108 1186.371338 305.618042 1186.350342 305.857056 L 1186.174561 305.857056 C 1176.909668 305.857056 1168.242188 304.387878 1161.768799 301.716614 C 1156.194214 299.41803 1152.862305 296.402283 1152.862305 293.660645 L 1152.862305 279.692932 C 1154.71106 281.119934 1157.023804 282.427368 1159.779541 283.559082 C 1166.872314 286.483398 1176.249756 288.09314 1186.175659 288.09314 C 1196.101318 288.09314 1205.479614 286.483337 1212.571777 283.559082 C 1215.320313 282.427368 1217.640137 281.119812 1219.481812 279.692932 L 1219.481812 286.272522 C 1218.652222 286.56073 1217.879028 286.989502 1217.197266 287.537842 C 1216.908936 287.769775 1216.61377 288.00177 1216.297485 288.240784 C 1213.935547 290.054382 1211.46106 291.600952 1208.874146 292.887268 C 1204.122192 295.242188 1199.004639 296.690308 1193.577881 297.203369 C 1192.164917 297.336914 1190.86438 297.850098 1189.760742 298.63739 C 1188.003296 299.90271 1186.780273 301.871033 1186.5271 304.134583 Z M 1173.514282 292.669556 C 1171.159302 292.311035 1168.867676 291.840088 1166.716675 291.263672 C 1165.324829 290.891113 1163.890869 291.720581 1163.518311 293.112366 C 1163.145752 294.504211 1163.97522 295.938232 1165.367065 296.31073 C 1167.707886 296.936401 1170.182373 297.449524 1172.734131 297.829102 C 1172.867676 297.85022 1172.994263 297.857239 1173.127808 297.857239 C 1174.400146 297.857239 1175.517822 296.929321 1175.707642 295.635864 C 1175.925537 294.208862 1174.941406 292.873169 1173.514282 292.662415 Z M 1213.680664 338.495697 L 1230.52356 338.495697 L 1230.52356 321.652771 L 1213.680664 321.652771 Z"/>
    </g>
</svg>
