<?xml version="1.0" encoding="UTF-8"?>
<!-- Generated by Pixelmator Pro 3.6.17 -->
<svg width="1450" height="818" viewBox="0 0 1450 818" xmlns="http://www.w3.org/2000/svg">
    <path id="Rectangle" fill="#ffffff" fill-rule="evenodd" stroke="none" d="M -28.684471 967 L 1478.684448 967 L 1478.684448 -84 L -28.684471 -84 Z"/>
    <text id="key-222-sub-123" xml:space="preserve"><tspan x="77" y="562" font-family="Roboto, san-serif" font-size="18" font-weight="700" fill="#000000" xml:space="preserve">key: 222</tspan><tspan x="77" y="583" font-family="Roboto, san-serif" font-size="18" font-weight="700" fill="#000000" xml:space="preserve">sub: 123</tspan><tspan x="77" y="604" font-family="Roboto, san-serif" font-size="18" font-weight="700" fill="#000000" xml:space="preserve">sid: 456</tspan><tspan x="77" y="625" font-family="Roboto, san-serif" font-size="18" font-weight="700" fill="#000000" xml:space="preserve">access token</tspan><tspan x="77" y="646" font-family="Roboto, san-serif" font-size="18" font-weight="700" fill="#000000" xml:space="preserve">refresh token</tspan></text>
    <text id="key-111-sub-123" xml:space="preserve"><tspan x="1268" y="416" font-family="Roboto, san-serif" font-size="18" font-weight="700" fill="#000000" xml:space="preserve">key:</tspan><tspan font-family="Roboto, san-serif" font-size="18" font-weight="700" fill="#000000" xml:space="preserve"> 111</tspan><tspan x="1268" y="437" font-family="Roboto, san-serif" font-size="18" font-weight="700" fill="#000000" xml:space="preserve">sub: 123</tspan><tspan x="1268" y="458" font-family="Roboto, san-serif" font-size="18" font-weight="700" fill="#000000" xml:space="preserve">sid: 456</tspan><tspan x="1268" y="479" font-family="Roboto, san-serif" font-size="18" font-weight="700" fill="#000000" xml:space="preserve">expires: *expired*</tspan></text>
    <g id="Group-copy">
        <text id="refresh-sub-123-sid" xml:space="preserve"><tspan x="523" y="196" font-family="Roboto, san-serif" font-size="16.411765" font-weight="500" fill="#000000" xml:space="preserve">refresh</tspan><tspan x="523" y="213.1" font-family="Roboto, san-serif" font-size="16.411765" font-weight="500" fill="#000000" xml:space="preserve">sub: 123</tspan><tspan x="523" y="230.2" font-family="Roboto, san-serif" font-size="16.411765" font-weight="500" fill="#000000" xml:space="preserve">sid: 456</tspan></text>
        <path id="noun-globe-6147862" fill="#000000" stroke="none" d="M 517.005127 214.042786 L 517.005127 197.957214 C 519.305786 197.491699 521.044006 195.454773 521.044006 193.018921 C 521.044006 190.240662 518.783752 187.980408 516.005493 187.980408 C 514.5047 187.980408 513.155945 188.640991 512.231628 189.685669 L 498.296692 181.640869 C 498.466217 181.137024 498.559723 180.598206 498.559723 180.038513 C 498.559723 177.260254 496.299438 175 493.521179 175 C 490.74295 175 488.482666 177.260254 488.482666 180.038513 C 488.482666 180.598877 488.576172 181.137024 488.745697 181.640869 L 474.81073 189.685669 C 473.887115 188.640991 472.537689 187.980408 471.036896 187.980408 C 468.258636 187.980408 465.998383 190.240662 465.998383 193.018921 C 465.998383 195.454773 467.735962 197.492371 470.037262 197.957214 L 470.037262 214.042786 C 467.736633 214.508301 465.998383 216.545227 465.998383 218.981079 C 465.998383 221.759338 468.258636 224.019592 471.036896 224.019592 C 472.537689 224.019592 473.886444 223.359009 474.81073 222.314331 L 488.745697 230.359131 C 488.576172 230.862976 488.482666 231.401794 488.482666 231.961487 C 488.482666 234.739746 490.74295 237 493.521179 237 C 496.299438 237 498.559723 234.739746 498.559723 231.961487 C 498.559723 231.401123 498.466217 230.862976 498.296692 230.359131 L 512.231628 222.314331 C 513.155273 223.359009 514.5047 224.019592 516.005493 224.019592 C 518.783752 224.019592 521.044006 221.759338 521.044006 218.981079 C 521.044006 216.545227 519.306458 214.507629 517.005127 214.042786 Z M 510.966309 218.981079 C 510.966309 219.541443 511.059814 220.07959 511.22934 220.583435 L 497.294373 228.628235 C 496.370758 227.583557 495.021973 226.922974 493.520508 226.922974 C 492.019043 226.922974 490.670959 227.583557 489.746674 228.628235 L 475.811707 220.583435 C 475.981232 220.07959 476.074738 219.540771 476.074738 218.981079 C 476.074738 216.545227 474.337158 214.507629 472.035858 214.042786 L 472.035858 197.957214 C 474.336487 197.491699 476.074738 195.454773 476.074738 193.018921 C 476.074738 192.458557 475.981232 191.92041 475.811707 191.416565 L 489.746674 183.371765 C 490.670288 184.416443 492.019714 185.077026 493.520508 185.077026 C 495.021301 185.077026 496.370087 184.416443 497.294373 183.371765 L 511.22934 191.416565 C 511.059814 191.92041 510.966309 192.459229 510.966309 193.018921 C 510.966309 195.454773 512.703857 197.492371 515.004517 197.957214 L 515.004517 214.042786 C 512.703857 214.508301 510.966309 216.545227 510.966309 218.981079 Z M 493.521179 188.576416 C 483.913696 188.576416 476.097595 196.392517 476.097595 206 C 476.097595 215.607483 483.913696 223.423584 493.521179 223.423584 C 503.128693 223.423584 510.944763 215.607483 510.944763 206 C 510.944763 196.392517 503.128693 188.576416 493.521179 188.576416 Z M 504.47879 195.156738 C 503.014313 195.679443 501.335266 196.076355 499.544556 196.346741 C 499.329956 195.53479 499.08844 194.762573 498.818695 194.044128 C 498.374725 192.862854 497.868164 191.860535 497.312531 191.048584 C 500.071259 191.748169 502.536041 193.193848 504.47879 195.156738 Z M 488.360901 204.999695 C 488.416077 202.647949 488.664978 200.473083 489.046387 198.563293 C 490.509521 198.714661 492.015686 198.79071 493.521179 198.79071 C 495.026703 198.79071 496.532867 198.714661 497.996002 198.563293 C 498.377411 200.473083 498.625641 202.647949 498.681458 204.999695 L 488.360901 204.999695 Z M 498.681458 206.999634 C 498.626312 209.352051 498.377411 211.526917 497.996002 213.436707 C 495.069733 213.133972 491.972626 213.133972 489.046387 213.436707 C 488.664978 211.526917 488.416077 209.351379 488.360901 206.999634 L 498.681458 206.999634 Z M 493.521179 190.575684 C 494.964813 190.575684 496.51001 192.883057 497.53183 196.593628 C 494.906952 196.845215 492.136108 196.845215 489.51123 196.593628 C 490.533051 192.883057 492.077576 190.575684 493.521851 190.575684 Z M 489.729858 191.047913 C 489.174194 191.859863 488.667664 192.862854 488.223694 194.043457 C 487.953918 194.761902 487.712433 195.534119 487.497833 196.346069 C 485.707123 196.075684 484.028046 195.678772 482.563599 195.156067 C 484.506348 193.193176 486.97113 191.747498 489.729858 191.047913 Z M 481.172455 196.767883 C 482.887177 197.456055 484.897186 197.967957 487.051178 198.304993 C 486.648895 200.374207 486.412781 202.643921 486.360321 204.999695 L 478.130493 204.999695 C 478.328278 201.925476 479.429474 199.093384 481.172455 196.767883 Z M 481.173798 215.232788 C 479.430176 212.907288 478.328278 210.074524 478.130493 206.999634 L 486.360321 206.999634 C 486.412781 209.356079 486.649567 211.625793 487.051178 213.695679 C 484.897186 214.032715 482.887848 214.545288 481.173126 215.232788 Z M 482.564941 216.843933 C 484.029419 216.321228 485.707794 215.924316 487.498505 215.653931 C 487.713104 216.465881 487.953918 217.237427 488.223694 217.9552 C 488.667664 219.136475 489.174194 220.138794 489.729858 220.950745 C 486.971802 220.25116 484.50769 218.806152 482.564941 216.843933 Z M 493.521179 221.422974 C 492.077576 221.422974 490.533051 219.116272 489.51123 215.406372 C 492.136108 215.154785 494.906281 215.154785 497.531158 215.406372 C 496.509338 219.116272 494.964813 221.422974 493.521179 221.422974 Z M 497.312531 220.950745 C 497.868164 220.138794 498.374725 219.136475 498.818695 217.9552 C 499.08844 217.237427 499.329956 216.46521 499.543854 215.653931 C 501.333923 215.924316 503.01297 216.321228 504.477448 216.843933 C 502.534698 218.806152 500.070587 220.25116 497.312531 220.950745 Z M 505.868591 215.232788 C 504.15387 214.544617 502.144531 214.032715 499.99054 213.695679 C 500.392822 211.625793 500.629608 209.356079 500.681396 206.999634 L 508.911194 206.999634 C 508.71344 210.074524 507.611542 212.907288 505.86792 215.232788 Z M 508.911865 204.999695 L 500.682068 204.999695 C 500.629608 202.643921 500.393494 200.374207 499.991211 198.304993 C 502.145203 197.967957 504.155212 197.456055 505.869934 196.767883 C 507.612885 199.093384 508.714111 201.925476 508.911865 204.999695 Z"/>
    </g>
    <path id="noun-access-3407267-copy" fill="#000000" stroke="none" d="M 894.968079 539 C 887.325989 539 881.067871 545.258118 881.067871 552.900269 C 881.067871 558.376099 884.257202 563.310364 889.191406 565.536804 L 889.191406 570.350769 C 889.191406 570.771851 889.372009 571.193237 889.672852 571.494141 L 892.139954 573.961182 L 889.672852 576.428284 C 889.372009 576.729126 889.191406 577.150269 889.191406 577.571655 L 889.191406 579.918457 C 889.191406 580.3396 889.372009 580.760986 889.672852 581.061829 L 892.139954 583.528931 L 889.672852 585.996033 C 889.372009 586.296875 889.191406 586.718018 889.191406 587.139404 L 889.191406 590.027832 C 889.191406 590.448975 889.372009 590.870361 889.612549 591.171204 L 893.704468 595.503662 C 894.00531 595.804504 894.426453 596.045288 894.907959 596.045288 C 895.329102 596.045288 895.810547 595.864685 896.11145 595.503662 L 900.203369 591.171204 C 900.504272 590.870361 900.624512 590.449219 900.624512 590.027832 L 900.624512 565.536987 C 905.558716 563.250244 908.748047 558.376221 908.748047 552.900391 C 908.868286 545.258301 902.610291 539.000122 894.96814 539.000122 Z M 901.827942 551.275513 L 894.968079 558.49646 C 894.607117 558.917603 894.065491 559.158325 893.463745 559.158325 C 892.862 559.158325 892.380493 558.917603 891.959412 558.49646 L 888.168335 554.464844 C 887.385986 553.622375 887.44635 552.358765 888.228455 551.576416 C 889.070923 550.794067 890.334534 550.85437 891.116943 551.636536 L 893.463745 554.103638 L 898.879456 548.447266 C 899.661804 547.604736 900.985535 547.604736 901.767883 548.387085 C 902.550049 549.169495 902.610168 550.433105 901.828003 551.275574 Z"/>
    <g id="User-copy">
        <path id="noun-authentication-7464752" fill="#916bdb" stroke="none" d="M 1268.441895 748.332947 C 1269.128296 749.896973 1269.913574 751.408264 1270.784668 752.860168 C 1265.577759 756.192993 1259.855835 759.215454 1253.751587 761.855225 C 1253.428101 761.993835 1253.084961 762.066406 1252.741821 762.066406 C 1252.398682 762.066406 1252.05542 761.993835 1251.738647 761.855225 C 1235.121338 754.674988 1221.784546 744.855835 1211.897705 732.553162 L 1213.79187 726.976563 C 1218.840454 709.771118 1234.712402 697.846863 1252.742432 697.846863 C 1260.780518 697.846863 1268.449219 700.150146 1275.075439 704.532104 C 1268.759644 711.804688 1264.932007 721.288208 1264.932007 731.656433 C 1264.932007 737.589294 1266.185913 743.231934 1268.442871 748.339844 Z M 1252.741699 649.637878 C 1240.849487 649.637878 1231.174072 659.312744 1231.174072 671.205566 C 1231.174072 683.098389 1240.848877 692.773254 1252.741699 692.773254 C 1264.634033 692.773254 1274.309448 683.098389 1274.309448 671.205566 C 1274.309448 659.312744 1264.634521 649.637878 1252.741699 649.637878 Z M 1342.692139 731.649475 C 1342.692139 751.691589 1326.384888 768 1306.341675 768 C 1286.29834 768 1269.997925 751.692749 1269.997925 731.649475 C 1269.997925 711.607361 1286.298462 695.299011 1306.341675 695.299011 C 1326.384766 695.299011 1342.692139 711.606201 1342.692139 731.649475 Z M 1326.239624 723.010742 C 1326.239624 720.073975 1323.850586 717.678467 1320.907349 717.678467 L 1317.363403 717.678467 L 1317.363403 711.86438 C 1317.363403 705.792725 1312.420288 700.843323 1306.342285 700.843323 C 1300.270752 700.843323 1295.321289 705.786316 1295.321289 711.86438 L 1295.321289 717.678467 L 1291.783936 717.678467 C 1288.847046 717.678467 1286.451538 720.067505 1286.451538 723.010742 L 1286.451538 752.133728 C 1286.451538 755.070496 1288.840698 757.466003 1291.783936 757.466003 L 1320.900024 757.466003 C 1323.836914 757.466003 1326.232422 755.076904 1326.232422 752.133728 L 1326.232422 723.010742 Z M 1239.997559 694.587219 C 1231.728516 690.059937 1226.105713 681.276123 1226.105713 671.205078 C 1226.105713 656.52124 1238.050659 644.56897 1252.741699 644.56897 C 1267.425537 644.56897 1279.377808 656.513977 1279.377808 671.205078 C 1279.377808 681.262573 1273.774902 690.039185 1265.518921 694.566956 C 1270.191406 695.919861 1274.619629 698.031677 1278.691528 700.849731 C 1286.030273 694.250366 1295.731445 690.231079 1306.349731 690.231079 C 1306.686279 690.231079 1307.016357 690.231079 1307.352905 690.244324 C 1309.075317 690.283936 1310.764771 690.429077 1312.434448 690.679871 C 1315.199585 676.537231 1315.602173 660.494263 1313.628906 642.939026 C 1313.490356 641.751099 1312.540039 640.814026 1311.345459 640.701843 C 1290.206909 638.702148 1271.023071 630.868652 1254.3396 617.426086 C 1253.409058 616.680359 1252.089233 616.680359 1251.158691 617.426086 C 1234.47522 630.869141 1215.291382 638.703186 1194.152832 640.701843 C 1192.958252 640.814026 1192.008057 641.75116 1191.869385 642.939026 C 1188.576172 672.254578 1191.928711 697.126831 1201.834473 716.866577 C 1203.609741 720.410522 1205.609375 723.802612 1207.82019 727.042847 C 1208.895996 724.290894 1210.479736 721.109985 1210.479736 721.109985 C 1215.785645 708.155151 1226.76062 698.440735 1239.999756 694.587097 Z M 1321.171265 723.010742 L 1321.171265 752.133728 C 1321.171265 752.272339 1321.045898 752.397705 1320.907227 752.397705 L 1291.791016 752.397705 C 1291.645874 752.397705 1291.5271 752.272339 1291.5271 752.133728 L 1291.5271 723.010742 C 1291.5271 722.872192 1291.645874 722.746765 1291.791016 722.746765 L 1320.907227 722.746765 C 1321.045898 722.746765 1321.171265 722.872192 1321.171265 723.010742 Z M 1315.515381 730.138245 C 1314.472656 729.207764 1312.869019 729.30011 1311.938477 730.342834 L 1303.867432 739.390747 L 1300.693115 736.11084 C 1299.723022 735.101135 1298.119385 735.081299 1297.109619 736.051453 C 1296.099854 737.021545 1296.073486 738.625183 1297.043579 739.634949 L 1302.111938 744.881592 C 1302.587158 745.376526 1303.24707 745.653748 1303.939941 745.653748 L 1303.992798 745.653748 C 1304.698853 745.640503 1305.365479 745.336975 1305.833984 744.80896 L 1315.719971 733.728455 C 1316.657104 732.685791 1316.564697 731.082092 1315.515381 730.15155 Z M 1312.301514 711.865051 C 1312.301514 708.585083 1309.635376 705.912354 1306.348877 705.912354 C 1303.06897 705.912354 1300.39624 708.585083 1300.39624 711.865051 L 1300.39624 717.679138 L 1312.295166 717.679138 L 1312.295166 711.865051 Z"/>
        <path id="noun-authentication-7464752-copy" fill="#633e9e" stroke="none" d="M 1342.692139 731.649475 C 1342.692139 751.691589 1326.384888 768 1306.341675 768 C 1286.29834 768 1269.997925 751.692749 1269.997925 731.649475 C 1269.997925 711.607422 1286.298584 695.299011 1306.341675 695.299011 C 1326.384766 695.299011 1342.692139 711.60614 1342.692139 731.649475 Z M 1326.239624 723.010742 C 1326.239624 720.073914 1323.850586 717.678467 1320.907349 717.678467 L 1317.363403 717.678467 L 1317.363403 711.86438 C 1317.363403 705.792725 1312.420288 700.843323 1306.342285 700.843323 C 1300.270752 700.843323 1295.321289 705.786377 1295.321289 711.86438 L 1295.321289 717.678467 L 1291.783813 717.678467 C 1288.847046 717.678467 1286.451538 720.067566 1286.451538 723.010742 L 1286.451538 752.133728 C 1286.451538 755.070496 1288.840698 757.466064 1291.783813 757.466064 L 1320.900024 757.466064 C 1323.836914 757.466064 1326.232422 755.076965 1326.232422 752.133728 L 1326.232422 723.010742 Z M 1321.171265 723.010742 L 1321.171265 752.133728 C 1321.171265 752.272278 1321.045898 752.397705 1320.907227 752.397705 L 1291.791016 752.397705 C 1291.645874 752.397705 1291.5271 752.272278 1291.5271 752.133728 L 1291.5271 723.010742 C 1291.5271 722.872131 1291.645874 722.746765 1291.791016 722.746765 L 1320.907227 722.746765 C 1321.045898 722.746765 1321.171265 722.872131 1321.171265 723.010742 Z M 1315.515381 730.138245 C 1314.472656 729.207764 1312.869019 729.300171 1311.938477 730.342834 L 1303.867432 739.390747 L 1300.693115 736.11084 C 1299.723022 735.101135 1298.119385 735.081299 1297.109619 736.051392 C 1296.099854 737.021545 1296.073486 738.625122 1297.043579 739.634949 L 1302.111938 744.881592 C 1302.587158 745.376526 1303.24707 745.653687 1303.939941 745.653687 L 1303.992798 745.653687 C 1304.698853 745.640503 1305.365479 745.336975 1305.833984 744.809021 L 1315.719971 733.728455 C 1316.657104 732.68573 1316.564697 731.082092 1315.515381 730.151489 Z M 1312.301514 711.86499 C 1312.301514 708.585083 1309.635376 705.912354 1306.348877 705.912354 C 1303.06897 705.912354 1300.39624 708.585083 1300.39624 711.86499 L 1300.39624 717.679138 L 1312.295166 717.679138 L 1312.295166 711.86499 Z"/>
    </g>
    <path id="noun-access-3407267-copy-2" fill="#000000" stroke="none" d="M 438.968109 539 C 431.325989 539 425.067871 545.258118 425.067871 552.900269 C 425.067871 558.376099 428.257202 563.310364 433.191376 565.536804 L 433.191376 570.350769 C 433.191376 570.771851 433.371979 571.193237 433.672852 571.494141 L 436.139954 573.961182 L 433.672852 576.428284 C 433.371979 576.729126 433.191376 577.150269 433.191376 577.571655 L 433.191376 579.918457 C 433.191376 580.3396 433.371979 580.760986 433.672852 581.061829 L 436.139954 583.528931 L 433.672852 585.996033 C 433.371979 586.296875 433.191376 586.718018 433.191376 587.139404 L 433.191376 590.027832 C 433.191376 590.448975 433.371979 590.870361 433.612518 591.171204 L 437.704468 595.503662 C 438.005341 595.804504 438.426453 596.045288 438.907959 596.045288 C 439.329102 596.045288 439.810577 595.864685 440.11145 595.503662 L 444.203369 591.171204 C 444.504242 590.870361 444.624512 590.449219 444.624512 590.027832 L 444.624512 565.536987 C 449.558685 563.250244 452.748016 558.376221 452.748016 552.900391 C 452.868317 545.258301 446.61026 539.000122 438.96814 539.000122 Z M 445.827972 551.275513 L 438.968109 558.49646 C 438.607086 558.917603 438.065491 559.158325 437.463745 559.158325 C 436.862 559.158325 436.380524 558.917603 435.959412 558.49646 L 432.168335 554.464844 C 431.385956 553.622375 431.44632 552.358765 432.228455 551.576416 C 433.070953 550.794067 434.334564 550.85437 435.116913 551.636536 L 437.463745 554.103638 L 442.879425 548.447266 C 443.661804 547.604736 444.985535 547.604736 445.767883 548.387085 C 446.550049 549.169495 446.610199 550.433105 445.828033 551.275574 Z"/>
    <path id="noun-data-security-7464775-copy" fill="#916bdb" stroke="none" d="M 1356.557007 271.735657 C 1356.557007 275.197571 1352.359985 278.987244 1345.338745 281.88269 C 1337.175049 285.247314 1326.266724 287.097839 1314.598145 287.097839 C 1302.928345 287.097839 1292.011108 285.247314 1283.857422 281.88269 C 1276.835938 278.987427 1272.639282 275.188965 1272.639282 271.735657 C 1272.639282 268.273804 1276.836182 264.484131 1283.857422 261.588684 C 1292.021118 258.22406 1302.929443 256.373535 1314.598145 256.373535 C 1326.259033 256.373535 1337.17627 258.22406 1345.338745 261.588684 C 1352.360229 264.483887 1356.557007 268.27356 1356.557007 271.735657 Z M 1281.348755 255.505798 C 1271.58252 259.534363 1266.163818 265.227844 1266.057495 271.558411 L 1266.057495 271.735535 L 1266.057495 295.075439 L 1259.195557 295.075439 C 1239.512695 295.075439 1223.504517 279.067078 1223.504517 259.384399 C 1223.504517 239.905029 1239.185425 224.028809 1258.585815 223.702393 C 1262.056519 211.766968 1273.044678 203.364197 1285.715698 203.364197 C 1289.859375 203.364197 1293.914673 204.267334 1297.615723 205.984924 C 1303.680908 192.685913 1316.98877 184 1331.853882 184 C 1351.99707 184 1368.492432 199.910889 1369.439819 219.815735 L 1370.192505 219.815735 C 1390.937744 219.815735 1407.823853 236.691772 1407.823853 257.447083 C 1407.823853 278.192383 1390.947754 295.07843 1370.192505 295.07843 L 1363.126831 295.07843 L 1363.126831 271.738464 L 1363.126831 271.561401 C 1363.029419 265.23053 1357.610596 259.537354 1347.84436 255.508789 C 1338.910522 251.825439 1327.099121 249.797913 1314.596802 249.797913 C 1302.085938 249.797913 1290.282227 251.8255 1281.349243 255.508789 Z M 1354.519287 223.355347 C 1352.668701 212.880798 1344.832886 204.876709 1334.535278 202.9729 C 1325.991089 201.396851 1318.898926 203.141174 1313.46228 208.16156 C 1312.125244 209.392273 1312.045654 211.472961 1313.276367 212.810059 C 1314.50708 214.147034 1316.587769 214.226746 1317.924805 212.995972 C 1321.811768 209.410095 1326.849854 208.250061 1333.340088 209.445496 C 1340.910278 210.844421 1346.674438 216.750305 1348.038086 224.497559 C 1348.321411 226.091309 1349.711548 227.215759 1351.278687 227.215759 C 1351.4646 227.215759 1351.659424 227.198059 1351.854248 227.162659 C 1353.642822 226.843872 1354.838135 225.143921 1354.528198 223.346436 Z M 1252.643555 272.186279 C 1248.729858 268.821655 1246.48999 263.987305 1246.48999 258.940308 C 1246.48999 254.300659 1248.331665 249.908936 1251.687378 246.588745 C 1252.971313 245.304871 1252.980103 243.22406 1251.696289 241.931396 C 1250.421265 240.647522 1248.331665 240.638672 1247.047852 241.922546 C 1242.443726 246.500122 1239.911377 252.538757 1239.911377 258.949158 C 1239.911377 265.917358 1242.983887 272.558044 1248.358398 277.179993 C 1248.978149 277.711243 1249.739624 277.976868 1250.501099 277.976868 C 1251.430786 277.976868 1252.351685 277.58728 1252.998047 276.834656 C 1254.18457 275.45343 1254.025146 273.381592 1252.65271 272.195007 Z M 1398.100586 314.607117 C 1402.155884 350.767395 1389.724609 375.365326 1361.142456 387.725525 C 1360.726318 387.902618 1360.283569 388 1359.84082 388 C 1359.398193 388 1358.955444 387.911469 1358.530518 387.725525 C 1351.880981 384.847961 1346.10791 381.315125 1341.21167 377.118164 C 1339.237183 375.435852 1337.413208 373.638367 1335.722046 371.734802 C 1333.614746 369.361816 1331.737671 366.838348 1330.081909 364.137817 C 1328.868896 362.16333 1327.770996 360.100403 1326.796997 357.948669 C 1325.805298 355.779388 1324.946533 353.521637 1324.19397 351.166321 C 1323.538818 349.076721 1322.972046 346.92514 1322.511719 344.702667 C 1321.927368 341.957947 1321.502319 339.09787 1321.227783 336.140747 C 1321.02417 334.006897 1320.900146 331.820007 1320.855957 329.571045 C 1320.802856 327.251312 1320.838257 324.878326 1320.953369 322.443481 C 1321.050781 320.283051 1321.218994 318.069458 1321.449219 315.811615 C 1321.493408 315.404327 1321.53772 314.99704 1321.582031 314.589752 C 1321.759033 313.040283 1322.989746 311.827118 1324.539307 311.685699 C 1336.350708 310.570038 1347.108643 306.328857 1356.546997 299.068481 C 1356.954346 298.758545 1357.361572 298.430969 1357.768921 298.112183 C 1358.973022 297.138245 1360.690918 297.138245 1361.894897 298.112183 C 1362.302246 298.439819 1362.709473 298.758545 1363.116821 299.077332 C 1372.55542 306.328857 1383.313354 310.570038 1395.124512 311.685699 C 1396.67395 311.836212 1397.904785 313.049225 1398.081909 314.589752 Z M 1376.823975 359.709412 C 1376.956787 359.231293 1377.036499 358.726624 1377.036499 358.204193 L 1377.036499 334.891449 C 1377.036499 331.84549 1374.54834 329.366425 1371.502686 329.366425 L 1371.166138 329.366425 L 1371.166138 325.948761 C 1371.166138 322.176788 1369.306763 318.821198 1366.4646 316.775726 C 1365.614624 316.333038 1364.773438 315.87262 1363.941162 315.39447 C 1362.666138 314.898621 1361.28479 314.624176 1359.841675 314.624176 C 1358.398438 314.624176 1357.01709 314.898621 1355.742188 315.39447 C 1354.90979 315.87262 1354.059814 316.333008 1353.209839 316.775726 C 1350.367676 318.829895 1348.51709 322.176788 1348.51709 325.948761 L 1348.51709 329.366425 L 1348.180664 329.366425 C 1345.125854 329.366425 1342.646729 331.845734 1342.646729 334.891449 L 1342.646729 358.204193 C 1342.646729 358.708923 1342.70874 359.187012 1342.841553 359.656281 C 1343.700439 360.851593 1344.630127 362.002747 1345.621826 363.100494 C 1346.383301 363.507782 1347.259888 363.738007 1348.180664 363.738007 L 1371.49353 363.738007 C 1372.432007 363.738007 1373.317383 363.507782 1374.096558 363.082794 C 1375.070435 362.002594 1375.973633 360.878113 1376.823608 359.70932 Z M 1364.587524 325.947296 C 1364.587524 323.335388 1362.462524 321.201324 1359.841553 321.201324 C 1357.229736 321.201324 1355.095703 323.335205 1355.095703 325.947296 L 1355.095703 329.36499 L 1364.578491 329.36499 L 1364.578491 325.947296 Z M 1324.47876 367.579315 C 1325.638672 369.474121 1326.913574 371.306854 1328.286133 373.06897 C 1323.92981 373.653351 1319.325684 373.963226 1314.597412 373.963226 C 1302.927612 373.963226 1292.010498 372.112701 1283.856812 368.748077 C 1276.835327 365.852875 1272.63855 362.063202 1272.63855 358.601074 L 1272.63855 341.007813 C 1274.967041 342.805237 1277.880249 344.452026 1281.351196 345.877533 C 1290.285034 349.560883 1302.096436 351.58844 1314.598755 351.58844 C 1315.546143 351.58844 1316.502441 351.57959 1317.440918 351.553009 C 1317.600342 352.09314 1317.759766 352.63324 1317.927979 353.17334 C 1318.521118 355.041565 1319.185181 356.865509 1319.902466 358.609741 C 1320.19458 359.309204 1320.486816 359.999847 1320.796631 360.67276 C 1321.460693 362.142578 1322.177979 363.585907 1322.957153 364.9935 C 1323.435181 365.878937 1323.94873 366.746643 1324.471191 367.596558 Z M 1298.643188 357.706818 C 1295.677002 357.264099 1292.790649 356.662018 1290.081299 355.944855 C 1288.328125 355.475555 1286.521973 356.520355 1286.052734 358.273407 C 1285.583496 360.02652 1286.628296 361.832733 1288.381226 362.301941 C 1291.329834 363.089996 1294.455322 363.736328 1297.660645 364.214447 C 1297.828857 364.241028 1297.988159 364.249878 1298.156494 364.249878 C 1299.759033 364.249878 1301.166748 363.081116 1301.405884 361.451904 C 1301.68042 359.65448 1300.440796 357.972076 1298.643311 357.706665 Z M 1314.359375 322.625488 C 1314.253174 325.051514 1314.226563 327.442169 1314.279785 329.708832 L 1314.279785 329.815094 C 1314.323975 332.010925 1314.447998 334.215607 1314.642822 336.393677 C 1314.651611 336.517609 1314.660522 336.641602 1314.678223 336.765533 C 1314.943848 339.598877 1315.342285 342.370331 1315.855835 344.999908 C 1315.439697 344.999908 1315.014648 345.008759 1314.5896 345.008759 C 1302.919922 345.008759 1292.002686 343.158203 1283.848999 339.79361 C 1276.827515 336.898376 1272.630737 333.108734 1272.630737 329.646606 L 1272.630737 312.044525 C 1274.959351 313.850739 1277.872437 315.488739 1281.343384 316.914246 C 1290.215454 320.571045 1301.938232 322.598602 1314.359741 322.625122 Z M 1298.643188 328.752533 C 1295.677002 328.300964 1292.790649 327.707733 1290.081299 326.981689 C 1288.328125 326.512421 1286.521973 327.55722 1286.052734 329.310242 C 1285.583496 331.063385 1286.628296 332.869598 1288.381226 333.338806 C 1291.329834 334.126831 1294.455322 334.773193 1297.660645 335.251312 C 1297.828857 335.277893 1297.988159 335.286743 1298.156494 335.286743 C 1299.759033 335.286743 1301.166748 334.118011 1301.405884 332.48877 C 1301.68042 330.691345 1300.440796 329.008942 1298.643311 328.7435 Z M 1315.04126 313.877472 C 1314.988159 314.30249 1314.943848 314.736328 1314.899536 315.152496 C 1314.873047 315.453522 1314.837646 315.745728 1314.811035 316.046753 L 1314.589722 316.046753 C 1302.919922 316.046753 1292.002686 314.196228 1283.848999 310.831573 C 1276.827515 307.936371 1272.630737 304.137878 1272.630737 300.68457 L 1272.630737 283.09137 C 1274.959351 284.888733 1277.872437 286.535522 1281.343384 287.96106 C 1290.277344 291.644409 1302.088745 293.671936 1314.591064 293.671936 C 1327.09314 293.671936 1338.90564 291.644348 1347.838623 287.96106 C 1351.300537 286.535522 1354.222534 284.888611 1356.542236 283.09137 L 1356.542236 291.378784 C 1355.497437 291.74176 1354.523438 292.28186 1353.664673 292.972473 C 1353.301636 293.264709 1352.92981 293.556885 1352.531372 293.85791 C 1349.556274 296.142273 1346.439575 298.090271 1343.181274 299.710449 C 1337.195923 302.676636 1330.749878 304.50061 1323.914551 305.146851 C 1322.134888 305.315063 1320.496826 305.961426 1319.106689 306.953125 C 1316.893188 308.546875 1315.352661 311.026123 1315.033691 313.877136 Z M 1298.643188 299.436279 C 1295.677002 298.98468 1292.790649 298.391479 1290.081299 297.665405 C 1288.328125 297.196167 1286.521973 298.240967 1286.052734 299.993958 C 1285.583496 301.747131 1286.628296 303.553345 1288.381226 304.022522 C 1291.329834 304.810547 1294.446411 305.456909 1297.660645 305.935059 C 1297.828857 305.961609 1297.988159 305.970459 1298.156494 305.970459 C 1299.759033 305.970459 1301.166748 304.801697 1301.405884 303.172485 C 1301.68042 301.375061 1300.440796 299.692688 1298.643311 299.427246 Z M 1349.235352 357.157135 L 1370.450073 357.157135 L 1370.450073 335.942413 L 1349.235352 335.942413 Z"/>
    <path id="noun-data-security-7464775-copy-2" fill="#916bdb" stroke="none" d="M 173.556976 414.735687 C 173.556976 418.197571 169.360001 421.987213 162.338745 424.88269 C 154.175095 428.247314 143.266708 430.097839 131.598114 430.097839 C 119.928345 430.097839 109.011139 428.247314 100.85746 424.88269 C 93.835968 421.987457 89.639221 418.188965 89.639221 414.735687 C 89.639221 411.273773 93.836197 407.484131 100.85746 404.588684 C 109.021111 401.22403 119.929489 399.373535 131.598114 399.373535 C 143.259003 399.373535 154.176224 401.22406 162.338745 404.588684 C 169.360229 407.483917 173.556976 411.27356 173.556976 414.735687 Z M 98.348701 398.505829 C 88.582504 402.534393 83.163788 408.227814 83.05748 414.558441 L 83.05748 414.735504 L 83.05748 438.07547 L 76.19558 438.07547 C 56.512676 438.07547 40.504509 422.067078 40.504509 402.384399 C 40.504509 382.90506 56.185371 367.028809 75.585846 366.702393 C 79.056572 354.766998 90.044731 346.364197 102.715675 346.364197 C 106.859383 346.364197 110.914696 347.267334 114.615715 348.984924 C 120.680885 335.685883 133.98877 327 148.853836 327 C 168.997101 327 185.492386 342.910919 186.439865 362.815735 L 187.192444 362.815735 C 207.937744 362.815735 224.823792 379.691803 224.823792 400.447083 C 224.823792 421.192352 207.947708 438.0784 187.192444 438.0784 L 180.126785 438.0784 L 180.126785 414.738464 L 180.126785 414.561371 C 180.029373 408.23056 174.610596 402.537354 164.844391 398.508789 C 155.910522 394.825439 144.099106 392.797882 131.596817 392.797882 C 119.085892 392.797882 107.282181 394.8255 98.34922 398.508789 Z M 171.519226 366.355316 C 169.668701 355.880768 161.832825 347.876709 151.535324 345.972931 C 142.991089 344.396881 135.898895 346.141144 130.462265 351.16156 C 129.12529 352.392303 129.045593 354.472961 130.276337 355.810059 C 131.507065 357.147034 133.587708 357.226746 134.92482 355.996002 C 138.811722 352.410126 143.849854 351.250031 150.340027 352.445465 C 157.910263 353.844452 163.674423 359.750305 165.038055 367.497559 C 165.321396 369.091309 166.711502 370.215759 168.278717 370.215759 C 168.464661 370.215759 168.65947 370.198059 168.854248 370.162628 C 170.642807 369.843903 171.838104 368.14389 171.528244 366.346466 Z M 69.643524 415.18631 C 65.729881 411.821625 63.489956 406.987274 63.489956 401.940308 C 63.489956 397.300629 65.331627 392.908966 68.687439 389.588745 C 69.971306 388.304871 69.980148 386.224091 68.696297 384.931396 C 67.421288 383.647522 65.331642 383.638672 64.047798 384.922546 C 59.443729 389.500092 56.911396 395.538727 56.911396 401.949127 C 56.911396 408.917328 59.983879 415.558014 65.358391 420.179993 C 65.978188 420.711243 66.739632 420.976868 67.501106 420.976868 C 68.430794 420.976868 69.351631 420.58728 69.99807 419.834656 C 71.18454 418.4534 71.025169 416.381622 69.652763 415.195007 Z M 215.100586 457.607117 C 219.155899 493.767395 206.724548 518.365356 178.142441 530.725525 C 177.726318 530.902588 177.2836 531 176.840881 531 C 176.398178 531 175.955475 530.911499 175.530472 530.725525 C 168.880951 527.847961 163.107956 524.315125 158.211716 520.118164 C 156.237244 518.435852 154.413223 516.638367 152.722061 514.734802 C 150.614746 512.361816 148.737701 509.838348 147.081894 507.137817 C 145.868866 505.16333 144.771011 503.100403 143.797028 500.948669 C 142.805359 498.779388 141.946503 496.521637 141.19397 494.166321 C 140.538773 492.076721 139.972092 489.92514 139.511673 487.702667 C 138.927307 484.957947 138.502304 482.09787 138.227814 479.140747 C 138.024155 477.006897 137.900208 474.820007 137.855927 472.571045 C 137.802811 470.251312 137.838226 467.878326 137.953339 465.443481 C 138.050735 463.283051 138.218964 461.069458 138.449173 458.811615 C 138.493439 458.404327 138.53772 457.99704 138.581985 457.589752 C 138.759064 456.040283 139.989792 454.827118 141.539322 454.685699 C 153.350723 453.570038 164.108597 449.328857 173.547043 442.068481 C 173.954315 441.758575 174.361618 441.430969 174.76889 441.112213 C 175.973068 440.138245 177.690872 440.138245 178.894943 441.112213 C 179.302231 441.439819 179.709518 441.758575 180.116821 442.077301 C 189.555466 449.328857 200.313324 453.570038 212.124512 454.685699 C 213.674011 454.836212 214.904816 456.049225 215.081863 457.589752 Z M 193.824005 502.709412 C 193.956818 502.231293 194.036499 501.726624 194.036499 501.204193 L 194.036499 477.891449 C 194.036499 474.84549 191.548355 472.366425 188.50264 472.366425 L 188.166168 472.366425 L 188.166168 468.948761 C 188.166168 465.176788 186.306793 461.821198 183.464645 459.775726 C 182.614639 459.333038 181.773483 458.87262 180.941147 458.39447 C 179.666138 457.898621 178.284836 457.624176 176.841644 457.624176 C 175.398438 457.624176 174.017136 457.898621 172.742126 458.39447 C 171.909821 458.87262 171.059814 459.333008 170.209793 459.775726 C 167.367615 461.829895 165.517105 465.176788 165.517105 468.948761 L 165.517105 472.366425 L 165.180618 472.366425 C 162.125839 472.366425 159.646774 474.845734 159.646774 477.891449 L 159.646774 501.204193 C 159.646774 501.708923 159.708755 502.187012 159.841568 502.656281 C 160.700424 503.851593 161.630112 505.002747 162.621872 506.100494 C 163.383347 506.507782 164.259903 506.738007 165.18071 506.738007 L 188.493484 506.738007 C 189.432007 506.738007 190.317444 506.507782 191.096527 506.082794 C 192.07048 505.002594 192.973602 503.878113 193.823563 502.70932 Z M 181.587585 468.947296 C 181.587585 466.335388 179.46257 464.201324 176.841599 464.201324 C 174.229721 464.201324 172.095657 466.335205 172.095657 468.947296 L 172.095657 472.36499 L 181.578522 472.36499 L 181.578522 468.947296 Z M 141.478775 510.579315 C 142.638672 512.474121 143.913635 514.306885 145.286087 516.06897 C 140.929779 516.65332 136.325699 516.963257 131.597427 516.963257 C 119.927673 516.963257 109.010452 515.112671 100.856773 511.748077 C 93.835297 508.852875 89.63855 505.063202 89.63855 501.601074 L 89.63855 484.007813 C 91.967094 485.805237 94.880234 487.452026 98.351189 488.877533 C 107.285065 492.560883 119.096481 494.58844 131.598785 494.58844 C 132.546188 494.58844 133.502411 494.57959 134.440964 494.553009 C 134.600327 495.09314 134.759705 495.63324 134.927933 496.17334 C 135.521179 498.041565 136.185242 499.865509 136.90242 501.609741 C 137.194626 502.309204 137.486786 502.999847 137.796692 503.67276 C 138.460754 505.142578 139.177948 506.585907 139.957108 507.9935 C 140.435226 508.878937 140.948761 509.746643 141.471176 510.596558 Z M 115.643204 500.706818 C 112.677032 500.264099 109.790642 499.662018 107.081291 498.944855 C 105.328156 498.475555 103.521927 499.520355 103.052727 501.273407 C 102.583458 503.02652 103.628258 504.832733 105.381287 505.301941 C 108.329781 506.089996 111.455292 506.736328 114.660599 507.214447 C 114.828827 507.241028 114.988197 507.249878 115.156433 507.249878 C 116.759041 507.249878 118.166801 506.081116 118.40593 504.451904 C 118.680405 502.65448 117.440834 500.972076 115.643311 500.706665 Z M 131.359421 465.625488 C 131.253174 468.051514 131.226608 470.442169 131.279739 472.708832 L 131.279739 472.815094 C 131.324005 475.010925 131.447968 477.215607 131.642761 479.393677 C 131.651627 479.517609 131.660461 479.641602 131.678177 479.765533 C 131.943817 482.598877 132.342255 485.370331 132.855789 487.999908 C 132.439651 487.999908 132.014648 488.008759 131.589645 488.008759 C 119.919891 488.008759 109.002678 486.158203 100.848999 482.79361 C 93.827515 479.898376 89.630768 476.108734 89.630768 472.646606 L 89.630768 455.044525 C 91.959328 456.850739 94.872459 458.488739 98.343414 459.914246 C 107.215401 463.571045 118.938194 465.598602 131.359802 465.625122 Z M 115.643204 471.752533 C 112.677032 471.300964 109.790642 470.707733 107.081291 469.981689 C 105.328156 469.512421 103.521927 470.55722 103.052727 472.310242 C 102.583458 474.063385 103.628258 475.869598 105.381287 476.338806 C 108.329781 477.126831 111.455292 477.773193 114.660599 478.251312 C 114.828827 478.277893 114.988197 478.286743 115.156433 478.286743 C 116.759041 478.286743 118.166801 477.118011 118.40593 475.48877 C 118.680405 473.691345 117.440834 472.008942 115.643311 471.7435 Z M 132.041245 456.877472 C 131.988113 457.30249 131.943832 457.736328 131.899567 458.152496 C 131.873001 458.453522 131.837585 458.745728 131.81102 459.046753 L 131.589676 459.046753 C 119.919922 459.046753 109.002708 457.196228 100.84903 453.831573 C 93.827553 450.936371 89.630798 447.137878 89.630798 443.684601 L 89.630798 426.091339 C 91.959351 427.888733 94.872482 429.535553 98.343437 430.96106 C 107.277313 434.644409 119.088737 436.671967 131.591019 436.671967 C 144.093109 436.671967 155.905655 434.644348 164.838623 430.96106 C 168.300507 429.535522 171.222473 427.88858 173.542191 426.091339 L 173.542191 434.378754 C 172.497406 434.741791 171.523453 435.281891 170.664658 435.972504 C 170.301636 436.264709 169.929749 436.556885 169.531326 436.85791 C 166.55632 439.142273 163.439636 441.09024 160.181274 442.710449 C 154.195908 445.676636 147.749924 447.500641 140.914551 448.146851 C 139.134842 448.315094 137.496841 448.961456 136.106705 449.953125 C 133.893158 451.546875 132.352631 454.026123 132.033722 456.877136 Z M 115.643204 442.436249 C 112.677032 441.98468 109.790642 441.391479 107.081291 440.665436 C 105.328156 440.196167 103.521927 441.240967 103.052727 442.993988 C 102.583458 444.747101 103.628258 446.553345 105.381287 447.022522 C 108.329781 447.810577 111.446457 448.456909 114.660599 448.935028 C 114.828827 448.961609 114.988197 448.970459 115.156433 448.970459 C 116.759041 448.970459 118.166801 447.801727 118.40593 446.172485 C 118.680405 444.375061 117.440834 442.692688 115.643311 442.427246 Z M 166.235382 500.157135 L 187.450089 500.157135 L 187.450089 478.942413 L 166.235382 478.942413 Z"/>
    <text id="Client-2" xml:space="preserve" x="397.979244" y="463" font-family="Roboto, san-serif" font-size="36" font-weight="700" fill="#000000">Client 2</text>
    <text id="Browser" xml:space="preserve" x="644.25342" y="706" font-family="Roboto, san-serif" font-size="36" font-weight="700" fill="#000000">Browser</text>
    <text id="Session-Monitor" xml:space="preserve"><tspan x="942.681461" y="229" font-family="Roboto, san-serif" font-size="36" font-weight="700" fill="#000000" xml:space="preserve">Session</tspan><tspan x="943.617622" y="266.8" font-family="Roboto, san-serif" font-size="36" font-weight="700" fill="#000000" xml:space="preserve">Monitor</tspan></text>
    <path id="noun-sla-7464711" fill="#000000" stroke="none" d="M 908.483826 216.930969 C 908.483826 216.702881 908.388794 216.49585 908.236694 216.348022 C 908.278931 216.386047 908.363464 216.462097 908.483826 216.571899 C 908.809143 216.86554 909.396362 217.395691 910.106079 218.037842 C 911.305847 219.121399 912.856262 220.521912 914.081421 221.626587 C 914.881958 222.351074 915.543091 222.946716 915.876831 223.248779 L 908.483765 223.248779 Z M 879.921692 215.669983 C 880.242798 215.310913 880.585022 214.968689 880.944031 214.647644 C 881.349609 214.284302 881.780518 213.948486 882.230408 213.640076 L 880.198425 211.608032 C 879.77594 211.185608 879.087341 211.185608 878.664917 211.608032 L 876.882141 213.390869 C 876.459656 213.813293 876.459656 214.501892 876.882141 214.924316 L 878.914124 216.95636 C 879.222534 216.506409 879.558411 216.0755 879.921692 215.669983 Z M 897.806274 214.647644 L 897.956238 214.497681 L 902.132263 214.497681 C 902.256897 214.119568 902.170288 213.68866 901.870361 213.388733 L 900.087585 211.605957 C 899.986206 211.504517 899.865784 211.424255 899.734802 211.37146 C 899.605957 211.318665 899.464478 211.289124 899.318726 211.289124 C 899.029297 211.289124 898.756836 211.401062 898.551941 211.605957 L 896.519897 213.637939 C 896.908569 213.904114 897.280334 214.191345 897.635193 214.49762 C 897.692261 214.54834 897.749268 214.596924 897.804199 214.647583 Z M 889.599976 235.149414 C 889.526001 235.15155 889.450012 235.15155 889.376038 235.15155 C 883.28186 235.15155 878.324341 230.19397 878.324341 224.099792 C 878.324341 218.005615 883.28186 213.048096 889.376038 213.048096 C 892.783203 213.048096 895.835266 214.596375 897.863037 217.027649 L 897.955994 217.141663 C 898.002441 217.19873 898.04895 217.257874 898.095398 217.317017 C 898.173523 217.418396 898.251709 217.519775 898.325623 217.625366 C 898.384766 217.705688 898.443909 217.788025 898.49884 217.870422 C 898.534729 217.921082 898.568542 217.971802 898.602356 218.024597 C 898.608704 218.033081 898.61499 218.041504 898.619263 218.049988 C 898.653015 218.100647 898.686829 218.153442 898.720642 218.206299 C 898.805115 218.339355 898.887512 218.474548 898.967773 218.611816 C 899.89502 220.227722 900.425232 222.099182 900.425232 224.093384 C 900.425232 229.617065 896.354919 234.204712 891.055237 235.015869 C 890.966492 235.028503 890.877808 235.041199 890.791199 235.053894 C 890.717224 235.062317 890.645447 235.072876 890.571533 235.079224 C 890.529236 235.083435 890.487 235.087646 890.444763 235.091919 C 890.356079 235.100342 890.265198 235.108765 890.174377 235.115112 C 890.121582 235.119324 890.068787 235.12146 890.013855 235.125671 C 889.97583 235.127808 889.937805 235.129944 889.901917 235.132019 C 889.83429 235.13623 889.766724 235.138367 889.699158 235.140503 C 889.665344 235.140503 889.631531 235.140503 889.597717 235.142578 Z M 884.181702 229.29425 C 884.340149 229.452637 884.547119 229.530823 884.756226 229.530823 C 884.963257 229.530823 885.170227 229.452637 885.328674 229.29425 L 885.816589 228.806274 C 886.133484 228.489441 886.133484 227.976135 885.816589 227.659302 C 885.499756 227.342468 884.98645 227.342468 884.669617 227.659302 L 884.181702 228.147278 C 883.864868 228.464111 883.864868 228.977417 884.181702 229.29425 Z M 884.221863 224.911255 C 884.669617 224.911255 885.032959 224.547913 885.032959 224.100098 C 885.032959 223.652344 884.669617 223.289001 884.221863 223.289001 L 882.842529 223.289001 C 882.394714 223.289001 882.031372 223.652344 882.031372 224.100098 C 882.031372 224.547913 882.394714 224.911255 882.842529 224.911255 Z M 885.816589 219.394043 L 885.328674 218.906067 C 885.011841 218.589233 884.498535 218.589233 884.181702 218.906067 C 883.864868 219.222961 883.864868 219.736267 884.181702 220.05304 L 884.669617 220.541016 C 884.828064 220.699402 885.035034 220.777588 885.242065 220.777588 C 885.449036 220.777588 885.658203 220.699402 885.816589 220.541016 C 886.133423 220.224121 886.133423 219.710815 885.816589 219.394043 Z M 888.562561 217.566895 L 888.562561 218.948364 C 888.562561 219.396118 888.925842 219.75946 889.373657 219.75946 C 889.821472 219.75946 890.184814 219.396118 890.184814 218.948364 L 890.184814 217.566895 C 890.184814 217.11908 889.821472 216.755798 889.373657 216.755798 C 888.925842 216.755798 888.562561 217.11908 888.562561 217.566895 Z M 886.481934 225.771057 C 886.631897 226.030884 886.904419 226.176636 887.185303 226.176636 C 887.322632 226.176636 887.462036 226.140747 887.590881 226.068909 L 889.781311 224.80365 C 890.032715 224.657898 890.18689 224.391785 890.18689 224.100281 L 890.18689 220.769165 C 890.18689 220.32135 889.823608 219.958069 889.375793 219.958069 C 888.927979 219.958069 888.564636 220.32135 888.564636 220.769165 L 888.564636 223.631348 L 886.779785 224.662109 C 886.391113 224.885986 886.258057 225.382385 886.481934 225.771057 Z M 888.562561 230.633545 C 888.562561 231.08136 888.925842 231.444641 889.373657 231.444641 C 889.821472 231.444641 890.184814 231.08136 890.184814 230.633545 L 890.184814 229.252136 C 890.184814 228.804321 889.821472 228.440979 889.373657 228.440979 C 888.925842 228.440979 888.562561 228.804321 888.562561 229.252136 Z M 894.567505 218.908081 C 894.250671 218.591187 893.737366 218.591187 893.420532 218.908081 L 892.932617 219.395996 C 892.615784 219.71283 892.615784 220.226135 892.932617 220.542969 C 893.091064 220.701355 893.298035 220.779541 893.507141 220.779541 C 893.714172 220.779541 893.921143 220.701355 894.07959 220.542969 L 894.567505 220.055054 C 894.884338 219.738159 894.884338 219.224854 894.567505 218.908081 Z M 894.527405 223.291077 C 894.07959 223.291077 893.716248 223.654358 893.716248 224.102173 C 893.716248 224.549988 894.07959 224.913269 894.527405 224.913269 L 895.906738 224.913269 C 896.354492 224.913269 896.717834 224.549988 896.717834 224.102173 C 896.717834 223.654358 896.354492 223.291077 895.906738 223.291077 Z M 892.932617 228.806091 L 893.420532 229.294067 C 893.578979 229.452454 893.786011 229.53064 893.995117 229.53064 C 894.202087 229.53064 894.411194 229.452454 894.569641 229.294067 C 894.886475 228.977173 894.886475 228.463867 894.569641 228.147095 L 894.081726 227.659119 C 893.764832 227.342285 893.251526 227.342285 892.934753 227.659119 C 892.617859 227.975952 892.617859 228.489258 892.934753 228.806091 Z M 885.000977 210.856079 L 886.014893 210.856079 L 886.014893 211.880554 C 886.542969 211.734802 887.08374 211.622864 887.637085 211.546814 C 888.205322 211.468628 888.786194 211.426392 889.375488 211.426392 C 889.964783 211.426392 890.545715 211.466553 891.113892 211.546814 C 891.667297 211.622864 892.208008 211.734802 892.736145 211.880554 L 892.736145 210.856079 L 893.75 210.856079 C 894.356262 210.856079 894.848389 210.361816 894.848389 209.757751 L 894.848389 207.098389 C 894.848389 206.492126 894.356201 206 893.75 206 L 885.000793 206 C 884.394531 206 883.902405 206.492188 883.902405 207.098389 L 883.902405 209.755615 C 883.902405 210.361877 884.394592 210.854004 885.000793 210.854004 Z M 924.766785 246.657166 C 924.766785 251.073975 921.173828 254.666687 916.757263 254.666687 C 914.319702 254.666687 912.133484 253.57251 910.663086 251.848877 L 910.542664 251.70105 C 910.500427 251.648254 910.458191 251.595459 910.415955 251.542603 C 910.291321 251.38208 910.173035 251.217346 910.063171 251.04834 C 910.025208 250.991333 909.989258 250.934265 909.953369 250.877258 C 909.919556 250.822327 909.883667 250.76532 909.85199 250.708252 C 909.849854 250.708252 909.849854 250.706177 909.849854 250.704041 C 909.81604 250.647034 909.784363 250.589966 909.75061 250.530823 C 909.718872 250.47168 909.68512 250.412537 909.655518 250.353394 L 909.60907 250.262573 C 909.0578 249.17688 908.747192 247.951782 908.747192 246.652649 C 908.747192 242.808289 911.469971 239.58728 915.088562 238.820557 L 915.090637 238.820557 C 915.137146 238.809998 915.181458 238.801514 915.22583 238.793091 C 915.306091 238.776184 915.388489 238.761414 915.470825 238.748718 C 915.504639 238.744507 915.540588 238.738159 915.574341 238.731812 C 915.747559 238.706482 915.924988 238.685364 916.102417 238.670593 C 916.148865 238.668457 916.193237 238.664246 916.239746 238.662109 C 916.250305 238.662109 916.262939 238.660034 916.273499 238.660034 C 916.326355 238.657898 916.37915 238.653687 916.434082 238.65155 C 916.472107 238.649414 916.510132 238.649414 916.550232 238.647339 C 916.619934 238.645203 916.687561 238.645203 916.757263 238.645203 C 921.174011 238.645203 924.766724 242.23822 924.766724 246.654724 Z M 921.002686 243.307068 C 920.668945 243.009277 920.155701 243.036743 919.857849 243.372559 L 915.540344 248.211792 L 913.637207 246.241028 C 913.32666 245.917847 912.811279 245.909424 912.490234 246.21991 C 912.169128 246.530457 912.160706 247.043701 912.471191 247.366882 L 914.980591 249.967102 C 915.13269 250.125549 915.343872 250.214233 915.563538 250.214233 L 915.580444 250.214233 C 915.806458 250.210022 916.019836 250.112854 916.169739 249.943909 L 921.068115 244.452087 C 921.365967 244.118347 921.336426 243.605042 921.002686 243.307251 Z M 908.218994 251.105713 C 908.521057 251.684448 908.878052 252.22522 909.287842 252.727905 L 892.070496 252.727905 C 890.693298 252.727905 889.571655 251.676025 889.571655 250.381226 L 889.571655 236.769592 C 890.12085 236.761169 890.661621 236.718872 891.193909 236.640747 C 891.747314 236.560486 892.288086 236.444336 892.816162 236.296448 C 898.136963 234.794617 902.046631 229.894043 902.046631 224.099976 C 902.046631 222.427002 901.719238 220.828003 901.127808 219.364197 C 900.901794 218.802368 900.635681 218.25946 900.333557 217.742004 C 900.177246 217.473755 900.010376 217.209717 899.835083 216.956238 C 899.638611 216.668945 899.429504 216.390137 899.209839 216.119751 L 906.8479 216.119751 L 906.8479 217.742004 L 906.858459 217.742004 L 906.858459 223.331116 C 906.858459 224.178162 907.580811 224.868896 908.468018 224.868896 L 916.37207 224.868896 L 916.37207 237.033508 C 915.818665 237.054626 915.275818 237.124329 914.749817 237.236267 C 914.190063 237.354553 913.647217 237.52356 913.127625 237.736877 C 909.610657 239.173218 907.126404 242.628906 907.126404 246.656982 C 907.126404 247.641296 907.274292 248.589722 907.548889 249.483215 C 907.724182 250.047241 907.94812 250.590088 908.21637 251.105469 Z M 911.381104 227.534668 C 911.381104 227.086853 911.017761 226.723511 910.569946 226.723511 L 903.554871 226.723511 C 903.107117 226.723511 902.743774 227.086853 902.743774 227.534668 C 902.743774 227.982483 903.107117 228.345764 903.554871 228.345764 L 910.569946 228.345764 C 911.017761 228.345764 911.381104 227.982483 911.381104 227.534668 Z M 900.564026 232.863953 C 900.564026 233.311768 900.927368 233.675049 901.375183 233.675049 L 907.52179 233.675049 C 907.969604 233.675049 908.332886 233.311768 908.332886 232.863953 C 908.332886 232.416138 907.969604 232.052856 907.52179 232.052856 L 901.375183 232.052856 C 900.927368 232.052856 900.564026 232.416138 900.564026 232.863953 Z M 894.203796 238.613708 C 894.203796 239.061523 894.567139 239.424805 895.014893 239.424805 L 907.395264 239.424805 C 907.843079 239.424805 908.20636 239.061523 908.20636 238.613708 C 908.20636 238.165894 907.843079 237.802551 907.395264 237.802551 L 895.014893 237.802551 C 894.567139 237.802551 894.203796 238.165894 894.203796 238.613708 Z M 894.203796 243.942993 C 894.203796 244.390808 894.567139 244.75415 895.014893 244.75415 L 905.411804 244.75415 C 905.859619 244.75415 906.2229 244.390808 906.2229 243.942993 C 906.2229 243.495178 905.859619 243.131897 905.411804 243.131897 L 895.014893 243.131897 C 894.567139 243.131897 894.203796 243.495178 894.203796 243.942993 Z"/>
    <text id="Coordination-Service" xml:space="preserve"><tspan x="880.737073" y="419" font-family="Roboto, san-serif" font-size="36" font-weight="700" fill="#000000" xml:space="preserve">C</tspan><tspan font-family="Roboto, san-serif" font-size="36" font-weight="700" fill="#000000" xml:space="preserve">oordination</tspan><tspan x="924.470192" y="456.8" font-family="Roboto, san-serif" font-size="36" font-weight="700" fill="#000000" xml:space="preserve">Servic</tspan><tspan font-family="Roboto, san-serif" font-size="36" font-weight="700" fill="#000000" xml:space="preserve">e</tspan></text>
    <text id="IdentityServer" xml:space="preserve" x="845.918864" y="152" font-family="Roboto, san-serif" font-size="36" font-weight="700" fill="#000000">IdentityServer</text>
    <path id="Rounded-Rectangle-copy-4" fill="none" stroke="#916bdb" stroke-width="5" d="M 364 707 C 364 729.09137 381.9086 747 404 747 L 1021 747 C 1043.091309 747 1061 729.09137 1061 707 L 1061 672 C 1061 649.908569 1043.091309 632 1021 632 L 404 632 C 381.9086 632 364 649.908569 364 672 Z"/>
    <path id="Rounded-Rectangle-copy-8" fill="none" stroke="#916bdb" stroke-width="5" d="M 854 244 C 854 266.09137 871.90863 284 894 284 L 1066 284 C 1088.091431 284 1106 266.09137 1106 244 L 1106 224 C 1106 201.90863 1088.091431 184 1066 184 L 894 184 C 871.90863 184 854 201.90863 854 224 Z"/>
    <path id="Rounded-Rectangle-copy-9" fill="none" stroke="#916bdb" stroke-width="5" d="M 854 434 C 854 456.0914 871.90863 474 894 474 L 1066 474 C 1088.091431 474 1106 456.0914 1106 434 L 1106 414 C 1106 391.9086 1088.091431 374 1066 374 L 894 374 C 871.90863 374 854 391.9086 854 414 Z"/>
    <path id="Rounded-Rectangle-copy-5" fill="none" stroke="#916bdb" stroke-width="5" d="M 376 477 C 376 499.0914 393.9086 517 416 517 L 507 517 C 529.09137 517 547 499.0914 547 477 L 547 414 C 547 391.9086 529.09137 374 507 374 L 416 374 C 393.9086 374 376 391.9086 376 414 Z"/>
    <path id="Rounded-Rectangle-copy-6" fill="none" stroke="#916bdb" stroke-width="5" d="M 268 287 C 268 309.0914 285.9086 327 308 327 L 399 327 C 421.09137 327 439 309.0914 439 287 L 439 224 C 439 201.90863 421.09137 184 399 184 L 308 184 C 285.9086 184 268 201.90863 268 224 Z"/>
    <path id="Rounded-Rectangle-copy-7" fill="none" stroke="#916bdb" stroke-width="5" d="M 776 466 C 776 488.0914 793.90863 506 816 506 L 1108 506 C 1130.091431 506 1148 488.0914 1148 466 L 1148 65 C 1148 42.908569 1130.091431 25 1108 25 L 816 25 C 793.90863 25 776 42.908569 776 65 Z"/>
    <g id="Line">
        <path id="path1" fill="none" stroke="#916bdb" stroke-width="5" d="M 776 250 L 711.75 250"/>
        <path id="path2" fill="#916bdb" stroke="none" d="M 711.75 259.75 C 706.365234 259.75 702 255.384781 702 250 C 702 244.615219 706.365234 240.25 711.75 240.25 C 717.134766 240.25 721.5 244.615219 721.5 250 C 721.5 255.384781 717.134766 259.75 711.75 259.75 Z"/>
    </g>
    <text id="Client-1" xml:space="preserve" x="289.979244" y="273" font-family="Roboto, san-serif" font-size="36" font-weight="700" fill="#000000">Client 1</text>
    <g id="Group-copy-3">
        <path id="Path" fill="#633e9e" stroke="none" d="M 898.668396 93.245117 L 898.668396 93.245117 C 895.336731 91.239502 894.251831 86.872681 896.257385 83.541016 L 913.187134 55.41803 C 915.192688 52.086426 919.55957 51.001465 922.891174 53.00708 L 922.891174 53.00708 C 926.222839 55.012695 927.3078 59.379578 925.302185 62.711182 L 908.372437 90.834167 C 906.366882 94.165771 902 95.250732 898.668396 93.245117 Z"/>
        <path id="path3" fill="#43257c" stroke="none" d="M 921.569214 122.227356 L 921.569214 122.227417 C 918.166443 124.109863 913.842224 122.866028 911.959717 119.463257 L 896.069397 90.740295 C 894.186829 87.337524 895.430786 83.013245 898.833435 81.130798 L 898.833435 81.130737 C 902.236206 79.248291 906.560486 80.492126 908.442932 83.894897 L 924.333313 112.617859 C 926.215759 116.02063 924.971924 120.34491 921.569214 122.227356 Z"/>
        <path id="path4" fill="#8361c5" stroke="none" d="M 862.572021 87.32489 L 862.572021 87.324951 C 862.572021 91.213684 865.753723 94.395386 869.642395 94.395386 L 902.467957 94.395386 C 906.356689 94.395386 909.538452 91.213684 909.538452 87.324951 L 909.538452 87.32489 C 909.538452 83.436157 906.356689 80.254517 902.467957 80.254517 L 869.642395 80.254517 C 865.753723 80.254517 862.572021 83.436157 862.572021 87.32489 Z"/>
        <g id="Group">
            <path id="path5" fill="#000000" stroke="none" d="M 944.702759 77.683472 C 946.297791 78.604675 947.542847 79.899658 948.437744 81.568481 C 949.332703 83.237244 949.780151 85.145569 949.780151 87.293335 L 949.780151 88.304077 C 949.780151 90.462463 949.332703 92.373352 948.437744 94.036865 C 947.542847 95.700378 946.295227 96.992737 944.694885 97.914001 C 943.094543 98.835266 941.262573 99.295898 939.198975 99.295898 L 934.208435 99.295898 L 932.060608 99.295898 L 932.060608 76.301575 L 937.019531 76.301575 L 939.230591 76.301575 C 941.283691 76.301575 943.107727 76.762207 944.702759 77.683472 Z M 944.742249 87.26178 C 944.742249 84.98761 944.273743 83.260925 943.336731 82.081726 C 942.399658 80.902527 941.031006 80.312927 939.230591 80.312927 L 937.019531 80.312927 L 937.019531 95.300293 L 939.198975 95.300293 C 940.99939 95.300293 942.373352 94.70282 943.320923 93.507813 C 944.268494 92.312805 944.742249 90.578247 944.742249 88.304077 L 944.742249 87.26178 Z"/>
            <path id="path6" fill="#000000" stroke="none" d="M 968.257751 82.208069 L 968.257751 99.295898 L 963.788391 99.295898 L 963.662048 97.511292 C 963.124634 98.18512 962.466553 98.703613 961.6875 99.066895 C 960.908325 99.430115 960.018677 99.611694 959.018494 99.611694 C 957.239136 99.611694 955.846802 99.095825 954.841309 98.064026 C 953.835876 97.032227 953.333069 95.431885 953.333069 93.263062 L 953.333069 82.208069 L 958.086731 82.208069 L 958.086731 93.294617 C 958.086731 94.136902 958.294617 94.758057 958.71051 95.158142 C 959.126404 95.558228 959.702881 95.758301 960.439819 95.758301 C 961.903381 95.758301 962.919312 95.247681 963.488281 94.226379 L 963.488281 82.208069 L 968.257751 82.208069 Z"/>
            <path id="path7" fill="#000000" stroke="none" d="M 987.271362 92.299683 L 976.469116 92.299683 C 976.648071 93.363037 977.090271 94.207947 977.795654 94.834412 C 978.501099 95.460876 979.406555 95.774109 980.512024 95.774109 C 981.333313 95.774109 982.093994 95.618774 982.794067 95.308228 C 983.494263 94.99762 984.091797 94.531677 984.586609 93.910522 L 986.876526 96.547913 C 986.276428 97.411255 985.399963 98.137695 984.247009 98.727356 C 983.094177 99.316895 981.743896 99.611694 980.196167 99.611694 C 978.448425 99.611694 976.929749 99.243225 975.640015 98.506226 C 974.350159 97.769226 973.360596 96.769043 972.670959 95.505615 C 971.981262 94.242188 971.636475 92.847168 971.636475 91.320496 L 971.636475 90.720398 C 971.636475 89.014771 971.957642 87.493408 972.599854 86.15625 C 973.242126 84.819153 974.168579 83.77417 975.379395 83.021423 C 976.59021 82.268616 978.022034 81.892212 979.675049 81.892212 C 981.285889 81.892212 982.659851 82.234375 983.796936 82.918762 C 984.934082 83.603088 985.797363 84.574341 986.387024 85.83252 C 986.976624 87.090698 987.271362 88.572571 987.271362 90.278198 L 987.271362 92.299683 Z M 982.59668 88.73053 C 982.575684 87.804016 982.320374 87.072266 981.830688 86.535278 C 981.341187 85.998352 980.612061 85.729858 979.643494 85.729858 C 978.737976 85.729858 978.029968 86.029907 977.519348 86.630066 C 977.008667 87.230164 976.674377 88.056702 976.516479 89.109558 L 982.59668 89.109558 L 982.59668 88.73053 Z"/>
            <path id="path8" fill="#000000" stroke="none" d="M 1003.82135 83.432007 C 1004.758362 84.458557 1005.226929 86.135193 1005.226929 88.462036 L 1005.226929 99.295898 L 1000.457397 99.295898 L 1000.457397 88.446228 C 1000.457397 87.435486 1000.241638 86.732727 999.809937 86.337891 C 999.378357 85.943054 998.709778 85.745667 997.804321 85.745667 C 997.183105 85.745667 996.643555 85.877258 996.185486 86.140503 C 995.727478 86.403687 995.356384 86.777466 995.072144 87.26178 L 995.072144 99.295898 L 990.302673 99.295898 L 990.302673 82.208069 L 994.772095 82.208069 L 994.929993 84.18219 C 995.53009 83.434631 996.246094 82.86615 997.07782 82.476563 C 997.909607 82.086975 998.830811 81.892212 999.841553 81.892212 C 1001.557678 81.892212 1002.884338 82.405518 1003.82135 83.432007 Z"/>
            <path id="path9" fill="#000000" stroke="none" d="M 1024.019409 75.038147 L 1024.019409 99.295898 L 1019.723816 99.295898 L 1019.486938 97.463928 C 1018.37085 98.895813 1016.928528 99.611694 1015.159668 99.611694 C 1013.780457 99.611694 1012.588074 99.240601 1011.582581 98.498352 C 1010.577148 97.756104 1009.813843 96.732178 1009.292603 95.426636 C 1008.771484 94.121094 1008.510925 92.631287 1008.510925 90.957275 L 1008.510925 90.62561 C 1008.510925 88.888428 1008.771484 87.361816 1009.292603 86.045715 C 1009.813843 84.729675 1010.577148 83.708374 1011.582581 82.981934 C 1012.588074 82.255432 1013.791016 81.892212 1015.191284 81.892212 C 1016.812683 81.892212 1018.165588 82.508118 1019.25 83.73999 L 1019.25 75.038147 L 1024.019409 75.038147 Z M 1019.25 94.052673 L 1019.25 87.451294 C 1018.702515 86.314209 1017.754944 85.745667 1016.407349 85.745667 C 1015.322876 85.745667 1014.530579 86.187866 1014.030518 87.072266 C 1013.530396 87.956665 1013.280334 89.141113 1013.280334 90.62561 L 1013.280334 90.957275 C 1013.280334 92.420715 1013.525146 93.586792 1014.014709 94.455383 C 1014.504272 95.323975 1015.29126 95.758301 1016.375732 95.758301 C 1017.712891 95.758301 1018.670959 95.189758 1019.25 94.052673 Z"/>
            <path id="path10" fill="#000000" stroke="none" d="M 1043.128784 92.299683 L 1032.326416 92.299683 C 1032.505493 93.363037 1032.947632 94.207947 1033.652954 94.834412 C 1034.358521 95.460876 1035.263916 95.774109 1036.369385 95.774109 C 1037.190552 95.774109 1037.951294 95.618774 1038.651367 95.308228 C 1039.351563 94.99762 1039.949097 94.531677 1040.44397 93.910522 L 1042.733887 96.547913 C 1042.133789 97.411255 1041.257202 98.137695 1040.10437 98.727356 C 1038.951538 99.316895 1037.601196 99.611694 1036.053589 99.611694 C 1034.305908 99.611694 1032.786987 99.243225 1031.497314 98.506226 C 1030.207642 97.769226 1029.217896 96.769043 1028.52832 95.505615 C 1027.838745 94.242188 1027.493774 92.847168 1027.493774 91.320496 L 1027.493774 90.720398 C 1027.493774 89.014771 1027.814941 87.493408 1028.457153 86.15625 C 1029.099487 84.819153 1030.025879 83.77417 1031.236816 83.021423 C 1032.44751 82.268616 1033.879395 81.892212 1035.532349 81.892212 C 1037.143311 81.892212 1038.517212 82.234375 1039.654297 82.918762 C 1040.791382 83.603088 1041.654663 84.574341 1042.244263 85.83252 C 1042.833862 87.090698 1043.128784 88.572571 1043.128784 90.278198 L 1043.128784 92.299683 Z M 1038.453979 88.73053 C 1038.432983 87.804016 1038.177612 87.072266 1037.68811 86.535278 C 1037.198486 85.998352 1036.46936 85.729858 1035.500854 85.729858 C 1034.595337 85.729858 1033.887329 86.029907 1033.376709 86.630066 C 1032.865967 87.230164 1032.531738 88.056702 1032.373779 89.109558 L 1038.453979 89.109558 L 1038.453979 88.73053 Z"/>
        </g>
        <path id="path11" fill="#764fc1" stroke="none" d="M 1060.427979 94.334778 C 1060.427979 97.220581 1058.088623 99.560059 1055.202759 99.560059 C 1052.316895 99.560059 1049.977539 97.220581 1049.977539 94.334778 C 1049.977539 91.448975 1052.316895 89.109558 1055.202759 89.109558 C 1058.088623 89.109558 1060.427979 91.448975 1060.427979 94.334778 Z"/>
        <path id="path12" fill="#764fc1" stroke="none" d="M 910.410278 87.324951 L 910.410278 87.32489 C 910.410278 83.436157 907.211426 80.254456 903.301697 80.254456 L 898.240234 80.254456 L 896.251038 83.541016 C 896.048157 83.876221 895.885193 84.223999 895.744324 84.57666 C 895.712524 84.652039 895.679993 84.726807 895.650879 84.803223 C 895.641724 84.828796 895.633423 84.854614 895.624573 84.880249 C 894.937622 86.742859 895.026428 88.87854 896.062012 90.740234 L 898.095093 94.395386 L 903.301697 94.395386 C 907.211426 94.395386 910.410278 91.213684 910.410278 87.324951 Z"/>
    </g>
    <g id="g1">
        <g id="g2">
            <path id="path13" fill="none" stroke="#000000" stroke-width="5" d="M 1160 692 L 1079.75 692"/>
            <path id="path14" fill="#000000" stroke="none" d="M 1089.5 682.25 L 1070 692 L 1089.5 701.75 Z"/>
        </g>
        <g id="Line-copy">
            <path id="path15" fill="none" stroke="#000000" stroke-width="5" d="M 939 617 L 938.999329 526.749878"/>
            <path id="path16" fill="#000000" stroke="none" d="M 948.74939 536.499817 L 938.999268 516.999878 L 929.24939 536.499939 Z"/>
        </g>
        <g id="Line-copy-2">
            <path id="path17" fill="none" stroke="#000000" stroke-width="5" d="M 1123.000244 429.000092 L 1216.023926 363.608337"/>
            <path id="path18" fill="#000000" stroke="none" d="M 1213.654663 377.191833 L 1224.000366 358.001251 L 1202.44043 361.239014 Z"/>
        </g>
        <g id="Line-copy-3">
            <path id="path19" fill="none" stroke="#000000" stroke-width="5" d="M 1115.000244 245.000061 L 1203.249756 245.000275"/>
            <path id="path20" fill="#000000" stroke="none" d="M 1193.499756 254.750259 L 1212.999756 245.000305 L 1193.499756 235.250259 Z"/>
        </g>
        <g id="Line-copy-4">
            <path id="path21" fill="none" stroke="#000000" stroke-width="5" d="M 987.000061 292.999939 L 987.000366 351.250275"/>
            <path id="path22" fill="#000000" stroke="none" d="M 977.250305 341.500336 L 987.000427 361.000275 L 996.750305 341.500214 Z"/>
        </g>
        <g id="Line-copy-5">
            <path id="path23" fill="none" stroke="#000000" stroke-width="5" d="M 785.000061 249.999939 L 870.677856 350.577332"/>
            <path id="path24" fill="#000000" stroke="none" d="M 856.933167 349.477814 L 877.000427 357.99942 L 871.777344 336.832642 Z"/>
        </g>
        <g id="Line-copy-6">
            <path id="path25" fill="none" stroke="#000000" stroke-width="5" d="M 467 250 L 675.249695 249.999527"/>
            <path id="path26" fill="#000000" stroke="none" d="M 665.499695 259.749542 L 684.999695 249.999512 L 665.499695 240.249557 Z"/>
        </g>
        <g id="Line-copy-7">
            <path id="path27" fill="none" stroke="#000000" stroke-width="5" d="M 685 278.000305 L 465.75 278.000183"/>
            <path id="path28" fill="#000000" stroke="none" d="M 475.5 268.250183 L 456 278.000183 L 475.5 287.750183 Z"/>
        </g>
        <g id="Line-copy-8">
            <path id="path29" fill="none" stroke="#000000" stroke-width="5" d="M 846 457.999725 L 567.750061 456.068176"/>
            <path id="path30" fill="#000000" stroke="none" d="M 577.567505 446.386078 L 558.000305 456.000488 L 577.432129 465.88562 Z"/>
        </g>
        <g id="Line-copy-9">
            <path id="path31" fill="none" stroke="#000000" stroke-width="5" d="M 364 456.000336 L 299.750336 456.000458"/>
            <path id="path32" fill="#000000" stroke="none" d="M 309.500305 446.250458 L 290.000336 456.000488 L 309.500366 465.750458 Z"/>
        </g>
        <g id="Line-copy-10">
            <path id="path33" fill="none" stroke="#000000" stroke-width="5" d="M 484.000824 616.000061 L 484.000397 539.750488"/>
            <path id="path34" fill="#000000" stroke="none" d="M 493.750458 549.500427 L 484.000336 530.000488 L 474.250458 549.500549 Z"/>
        </g>
    </g>
    <text id="token" xml:space="preserve" x="697.850745" y="227" font-family="Roboto, san-serif" font-size="20" font-weight="700" fill="#000000">token</text>
    <text id="invalidgrant" xml:space="preserve" x="518.482421" y="311" font-family="Roboto, san-serif" font-size="20" font-weight="700" fill="#000000">invalid_grant</text>
    <text id="back-channel-logout" xml:space="preserve"><tspan x="596.108298" y="483" font-family="Roboto, san-serif" font-size="20" font-weight="700" fill="#000000" xml:space="preserve">back-channel</tspan><tspan x="628.362384" y="504.6" font-family="Roboto, san-serif" font-size="20" font-weight="700" fill="#000000" xml:space="preserve">logout</tspan></text>
    <text id="key-111" xml:space="preserve" x="788.86338" y="576" font-family="Roboto, san-serif" font-size="20" font-weight="700" fill="#000000">key: 111</text>
    <text id="key-222" xml:space="preserve"><tspan x="335.86338" y="576" font-family="Roboto, san-serif" font-size="20" font-weight="700" fill="#000000" xml:space="preserve">k</tspan><tspan font-family="Roboto, san-serif" font-size="20" font-weight="700" fill="#000000" xml:space="preserve">ey</tspan><tspan font-family="Roboto, san-serif" font-size="20" font-weight="700" fill="#000000" xml:space="preserve">:</tspan><tspan font-family="Roboto, san-serif" font-size="20" font-weight="700" fill="#000000" xml:space="preserve"> </tspan><tspan font-family="Roboto, san-serif" font-size="20" font-weight="700" fill="#000000" xml:space="preserve">222</tspan></text>
</svg>
