<svg width="1068" height="199" viewBox="0 0 1068 199" fill="none" xmlns="http://www.w3.org/2000/svg">
<path d="M127.768 0V68.7996C115.395 58.2432 98.9223 52.9676 78.3549 52.9676C63.2486 52.9676 49.6889 55.9708 37.6758 61.9774C25.8429 67.9839 16.563 76.5382 9.83078 87.6402C3.27869 98.5621 0 111.211 0 125.591C0 139.972 3.36874 152.711 10.1009 163.813C16.8384 174.729 26.2984 183.194 38.4968 189.2C50.69 195.207 64.6151 198.21 80.2671 198.21C104.653 198.21 123.038 190.657 135.417 175.55L150.433 193.84H168.177V0H127.768ZM120.401 159.168C116.756 168.633 111.756 176.006 105.384 181.282C99.0123 186.382 91.9146 188.93 84.086 188.93C76.2574 188.93 69.5305 186.382 63.3386 181.282C57.3321 176.006 52.6021 168.633 49.1433 159.168C45.6845 149.522 43.9578 138.33 43.9578 125.591C43.9578 112.853 45.6845 101.745 49.1433 92.2801C52.6021 82.6347 57.3321 75.2616 63.3386 70.1662C69.5305 64.8906 76.4428 62.2475 84.086 62.2475C91.7293 62.2475 99.0123 64.8906 105.384 70.1662C111.756 75.2616 116.756 82.6347 120.401 92.2801C124.22 101.745 126.132 112.847 126.132 125.591C126.132 138.335 124.22 149.522 120.401 159.168ZM1008.97 178.278C1002.24 186.652 993.592 190.837 983.036 190.837C970.477 190.837 960.652 185.016 953.554 173.368C946.451 161.715 942.902 145.793 942.902 125.591V122.588H1067.12C1066.76 108.573 1063.21 96.3745 1056.48 86.0035C1049.74 75.447 1040.1 67.3483 1027.54 61.7019C1014.98 55.8808 1000.15 52.9676 983.036 52.9676C965.922 52.9676 950.185 55.9708 937.447 61.9774C924.883 67.7985 915.243 76.2627 908.505 87.3647C901.953 98.2867 898.674 111.031 898.674 125.591C898.674 140.152 901.953 152.891 908.505 163.813C915.243 174.729 924.883 183.194 937.447 189.2C950.185 195.207 965.382 198.21 983.036 198.21C1005.79 198.21 1024.17 193.39 1038.19 183.739C1052.38 173.914 1061.39 160.444 1065.22 143.336H1022.08C1020.08 158.262 1015.71 169.909 1008.97 178.278ZM956.552 73.9904C963.475 64.8906 972.299 60.3407 983.036 60.3407C993.773 60.3407 1002.88 64.7952 1009.8 73.715C1016.71 82.6347 1020.99 95.0133 1022.62 110.845H943.723C945.36 95.1933 949.64 82.9102 956.552 73.9904ZM842.746 0V68.7996C830.373 58.2432 813.9 52.9676 793.333 52.9676C778.226 52.9676 764.667 55.9708 752.653 61.9774C740.826 67.9839 731.541 76.5382 724.808 87.6402C718.256 98.5621 714.978 111.211 714.978 125.591C714.978 139.972 718.346 152.711 725.079 163.813C731.811 174.729 741.281 183.194 753.474 189.2C765.668 195.207 779.593 198.21 795.245 198.21C819.636 198.21 838.016 190.657 850.395 175.55L865.406 193.84H883.155V0H842.746ZM835.378 159.168C831.739 168.633 826.734 176.006 820.362 181.282C813.99 186.382 806.892 188.93 799.069 188.93C791.246 188.93 784.508 186.382 778.316 181.282C772.31 176.006 767.58 168.633 764.121 159.168C760.662 149.522 758.93 138.33 758.93 125.591C758.93 112.853 760.662 101.745 764.121 92.2801C767.58 82.6347 772.31 75.2616 778.316 70.1662C784.508 64.8906 791.42 62.2475 799.069 62.2475C806.717 62.2475 813.99 64.8906 820.362 70.1662C826.734 75.2616 831.739 82.6347 835.378 92.2801C839.197 101.745 841.109 112.847 841.109 125.591C841.109 138.335 839.197 149.522 835.378 159.168ZM679.283 67.4383C665.999 57.973 646.792 53.2377 621.68 53.2377C596.569 53.2377 577.813 57.973 564.889 67.4383C551.97 76.7182 545.508 92.5556 545.508 114.94V194.116H587.003V114.94C587.003 100.199 589.28 87.6402 593.83 77.2638C598.38 66.8928 607.665 61.7019 621.68 61.7019C635.696 61.7019 644.976 67.0729 650.071 77.8094C655.167 88.3658 657.714 100.744 657.714 114.94V194.116H699.49V114.94C699.49 92.7356 692.752 76.9036 679.283 67.4383ZM472.005 178.278C465.273 186.652 456.628 190.837 446.072 190.837C433.513 190.837 423.682 185.016 416.585 173.368C409.487 161.715 405.938 145.793 405.938 125.591V122.588H530.158C529.792 108.573 526.249 96.3745 519.511 86.0035C512.779 75.447 503.134 67.3483 490.575 61.7019C478.017 55.8808 463.18 52.9676 446.072 52.9676C428.963 52.9676 413.216 55.9708 400.477 61.9774C387.919 67.7985 378.268 76.2627 371.536 87.3647C364.984 98.2867 361.71 111.031 361.71 125.591C361.71 140.152 364.984 152.891 371.536 163.813C378.268 174.729 387.919 183.194 400.477 189.2C413.216 195.207 428.418 198.21 446.072 198.21C468.821 198.21 487.206 193.39 501.222 183.739C515.417 173.914 524.427 160.444 528.251 143.336H485.109C483.107 158.262 478.742 169.909 472.005 178.278ZM419.588 73.9904C426.5 64.8906 435.33 60.3407 446.072 60.3407C456.814 60.3407 465.913 64.7952 472.826 73.715C479.743 82.6347 484.018 95.0133 485.654 110.845H406.759C408.396 95.1933 412.67 82.9102 419.588 73.9904ZM304.421 57.3374V136.508C304.421 150.709 301.693 163.172 296.232 173.914C290.951 184.65 281.03 190.021 266.469 190.021C251.909 190.021 241.898 184.836 236.988 174.459C232.252 164.083 229.885 151.434 229.885 136.508V57.3374H188.39V136.508C188.39 158.897 194.942 174.825 208.046 184.285C221.15 193.57 240.626 198.21 266.469 198.21C292.312 198.21 312.249 193.48 325.714 184.015C339.363 174.549 346.191 158.712 346.191 136.508V57.3374H304.421Z" fill="#292828"/>
</svg>
