<?xml version="1.0" encoding="UTF-8"?>
<!-- Generated by Pixelmator Pro 3.8 -->
<svg width="518" height="529" viewBox="0 0 518 529" xmlns="http://www.w3.org/2000/svg">
    <g id="sad-thought-light">
        <path id="Oval" fill="#f3f2e9" fill-rule="evenodd" stroke="none" d="M 476 269.5 C 476 149.930359 379.069641 53 259.5 53 C 139.930359 53 43 149.930359 43 269.5 C 43 389.069641 139.930359 486 259.5 486 C 379.069641 486 476 389.069641 476 269.5 Z"/>
        <linearGradient id="linearGradient1" x1="0.799988" y1="259.499985" x2="516" y2="259.499985" gradientUnits="userSpaceOnUse">
            <stop offset="0" stop-color="#61fb92" stop-opacity="1"/>
            <stop offset="1" stop-color="#53b6f9" stop-opacity="1"/>
        </linearGradient>
        <path id="SENTIMENTDISSATISFIED-copy-3" fill="url(#linearGradient1)" fill-rule="evenodd" stroke="none" d="M 258.400024 517.100037 C 222.765137 517.100037 189.277496 510.338104 157.93602 496.814026 C 126.594482 483.289948 99.332123 464.936127 76.147995 441.752045 C 52.963863 418.567902 34.610054 391.305481 21.085989 359.963989 C 7.561925 328.622528 0.799988 295.134827 0.799988 259.5 C 0.799988 223.865173 7.561925 190.377472 21.085989 159.03598 C 34.610054 127.694519 52.963863 100.432098 76.147995 77.247955 C 99.332123 54.063904 126.594482 35.710022 157.93602 22.185974 C 189.277496 8.661926 222.765137 1.899963 258.400024 1.899963 C 294.034851 1.899963 327.522552 8.661926 358.864044 22.185974 C 390.205505 35.710022 417.467865 54.063904 440.652008 77.247955 C 463.836121 100.432098 482.190002 127.694519 495.713989 159.03598 C 509.238007 190.377472 516 223.865173 516 259.5 C 516 295.134827 509.238007 328.622528 495.713989 359.963989 C 482.190002 391.305481 463.836121 418.567902 440.652008 441.752045 C 417.467865 464.936127 390.205505 483.289948 358.864044 496.814026 C 327.522552 510.338104 294.034851 517.100037 258.400024 517.100037 Z M 258.400024 259.5 C 258.400024 259.5 258.400024 259.5 258.400024 259.5 C 258.400024 259.5 258.400024 259.5 258.400024 259.5 C 258.400024 259.5 258.400024 259.5 258.400024 259.5 C 258.400024 259.5 258.400024 259.5 258.400024 259.5 C 258.400024 259.5 258.400024 259.5 258.400024 259.5 C 258.400024 259.5 258.400024 259.5 258.400024 259.5 C 258.400024 259.5 258.400024 259.5 258.400024 259.5 C 258.400024 259.5 258.400024 259.5 258.400024 259.5 Z M 258.400024 465.579987 C 315.930939 465.579987 364.65979 445.616211 404.588013 405.687988 C 444.516235 365.759827 464.480072 317.030975 464.480072 259.5 C 464.480072 201.969025 444.516235 153.240173 404.588013 113.311951 C 364.65979 73.383789 315.930939 53.420013 258.400024 53.420013 C 200.869049 53.420013 152.140213 73.383789 112.211975 113.311951 C 72.283806 153.240173 52.319969 201.969025 52.319969 259.5 C 52.319969 317.030975 72.283806 365.759827 112.211975 405.687988 C 152.140213 445.616211 200.869049 465.579987 258.400024 465.579987 Z"/>
        <path id="SENTIMENTDISSATISFIED-copy" fill="#74acfb" fill-rule="evenodd" stroke="none" d="M 265.400024 308.6875 C 243.087402 308.6875 222.117981 313.54248 202.49115 323.252563 C 182.864319 332.962708 167.059814 347.114502 155.077087 365.708344 C 150.531921 372.319489 149.912109 378.930542 153.217712 385.541687 C 156.523315 392.152832 161.894775 395.458313 169.332275 395.458313 C 172.637878 395.458313 175.633484 394.735229 178.319275 393.289063 C 181.005066 391.842896 183.380859 389.673645 185.446899 386.78125 C 194.950378 373.972168 206.726318 363.952301 220.775024 356.721313 C 234.823669 349.490417 249.698547 345.875 265.400024 345.875 C 281.10144 345.875 295.976318 349.490417 310.025024 356.721313 C 324.073669 363.952301 335.849609 373.972168 345.353149 386.78125 C 347.00592 389.673645 349.175171 391.842896 351.860962 393.289063 C 354.546753 394.735229 357.542358 395.458313 360.8479 395.458313 C 368.285461 395.458313 373.656921 392.0495 376.962524 385.23175 C 380.268066 378.414032 379.648315 371.493103 375.103149 364.46875 C 363.120422 346.288086 347.315918 332.446228 327.689087 322.942749 C 308.062256 313.439209 287.299438 308.6875 265.400024 308.6875 Z M 352.170837 246.708374 C 362.500732 246.708374 371.281006 243.092896 378.511963 235.861938 C 385.74292 228.631042 389.358337 219.850708 389.358337 209.520874 C 389.358337 199.190918 385.74292 190.410645 378.511963 183.179688 C 371.281006 175.94873 362.500732 172.333374 352.170837 172.333374 C 341.840942 172.333374 333.060669 175.94873 325.829712 183.179688 C 318.598755 190.410645 314.983337 199.190918 314.983337 209.520874 C 314.983337 219.850708 318.598755 228.631042 325.829712 235.861938 C 333.060669 243.092896 341.840942 246.708374 352.170837 246.708374 Z M 178.62915 246.708374 C 188.959106 246.708374 197.73938 243.092896 204.970337 235.861938 C 212.201233 228.631042 215.81665 219.850708 215.81665 209.520874 C 215.81665 199.190918 212.201233 190.410645 204.970337 183.179688 C 197.73938 175.94873 188.959106 172.333374 178.62915 172.333374 C 168.299255 172.333374 159.518982 175.94873 152.288025 183.179688 C 145.057068 190.410645 141.44165 199.190918 141.44165 209.520874 C 141.44165 219.850708 145.057068 228.631042 152.288025 235.861938 C 159.518982 243.092896 168.299255 246.708374 178.62915 246.708374 Z M 265.400024 519.416626 C 231.104675 519.416626 198.875854 512.908936 168.712524 499.89325 C 138.549133 486.877533 112.311584 469.213654 89.998962 446.901062 C 67.68634 424.58844 50.022461 398.35083 37.006775 368.1875 C 23.991089 338.02417 17.483337 305.795288 17.483337 271.5 C 17.483337 237.204712 23.991089 204.97583 37.006775 174.8125 C 50.022461 144.64917 67.68634 118.41156 89.998962 96.098938 C 112.311584 73.786377 138.549133 56.122437 168.712524 43.10675 C 198.875854 30.091064 231.104675 23.583313 265.400024 23.583313 C 299.695313 23.583313 331.924194 30.091064 362.087524 43.10675 C 392.250854 56.122437 418.488403 73.786377 440.801025 96.098938 C 463.113647 118.41156 480.777588 144.64917 493.793213 174.8125 C 506.808838 204.97583 513.31665 237.204712 513.31665 271.5 C 513.31665 305.795288 506.808838 338.02417 493.793213 368.1875 C 480.777588 398.35083 463.113647 424.58844 440.801025 446.901062 C 418.488403 469.213654 392.250854 486.877533 362.087524 499.89325 C 331.924194 512.908936 299.695313 519.416626 265.400024 519.416626 Z M 265.400024 271.5 C 265.400024 271.5 265.400024 271.5 265.400024 271.5 C 265.400024 271.5 265.400024 271.5 265.400024 271.5 C 265.400024 271.5 265.400024 271.5 265.400024 271.5 C 265.400024 271.5 265.400024 271.5 265.400024 271.5 C 265.400024 271.5 265.400024 271.5 265.400024 271.5 C 265.400024 271.5 265.400024 271.5 265.400024 271.5 C 265.400024 271.5 265.400024 271.5 265.400024 271.5 C 265.400024 271.5 265.400024 271.5 265.400024 271.5 Z M 265.400024 469.833313 C 320.768311 469.833313 367.665405 450.619995 406.092712 412.192688 C 444.52002 373.765442 463.733398 326.868347 463.733398 271.5 C 463.733398 216.131653 444.52002 169.234558 406.092712 130.807251 C 367.665405 92.380005 320.768311 73.166687 265.400024 73.166687 C 210.031677 73.166687 163.134583 92.380005 124.707275 130.807251 C 86.280029 169.234558 67.06665 216.131653 67.06665 271.5 C 67.06665 326.868347 86.280029 373.765442 124.707275 412.192688 C 163.134583 450.619995 210.031677 469.833313 265.400024 469.833313 Z"/>
        <path id="SENTIMENTDISSATISFIED-copy-2" fill="#61fb92" fill-rule="evenodd" stroke="none" d="M 256.400024 317.6875 C 234.087402 317.6875 213.117981 322.54248 193.49115 332.252563 C 173.864319 341.962708 158.059814 356.114502 146.077087 374.708344 C 141.531921 381.319489 140.912109 387.930542 144.217712 394.541687 C 147.523315 401.152832 152.894775 404.458313 160.332275 404.458313 C 163.637878 404.458313 166.633484 403.735229 169.319275 402.289063 C 172.005066 400.842896 174.380859 398.673645 176.446899 395.78125 C 185.950378 382.972168 197.726318 372.952301 211.775024 365.721313 C 225.823669 358.490417 240.698547 354.875 256.400024 354.875 C 272.10144 354.875 286.976318 358.490417 301.025024 365.721313 C 315.073669 372.952301 326.849609 382.972168 336.353149 395.78125 C 338.00592 398.673645 340.175171 400.842896 342.860962 402.289063 C 345.546753 403.735229 348.542358 404.458313 351.8479 404.458313 C 359.285461 404.458313 364.656921 401.0495 367.962524 394.23175 C 371.268066 387.414032 370.648315 380.493103 366.103149 373.46875 C 354.120422 355.288086 338.315918 341.446228 318.689087 331.942749 C 299.062256 322.439209 278.299438 317.6875 256.400024 317.6875 Z M 343.170837 255.708374 C 353.500732 255.708374 362.281006 252.092896 369.511963 244.861938 C 376.74292 237.631042 380.358337 228.850708 380.358337 218.520874 C 380.358337 208.190918 376.74292 199.410645 369.511963 192.179688 C 362.281006 184.94873 353.500732 181.333374 343.170837 181.333374 C 332.840942 181.333374 324.060669 184.94873 316.829712 192.179688 C 309.598755 199.410645 305.983337 208.190918 305.983337 218.520874 C 305.983337 228.850708 309.598755 237.631042 316.829712 244.861938 C 324.060669 252.092896 332.840942 255.708374 343.170837 255.708374 Z M 169.62915 255.708374 C 179.959106 255.708374 188.73938 252.092896 195.970337 244.861938 C 203.201233 237.631042 206.81665 228.850708 206.81665 218.520874 C 206.81665 208.190918 203.201233 199.410645 195.970337 192.179688 C 188.73938 184.94873 179.959106 181.333374 169.62915 181.333374 C 159.299255 181.333374 150.518982 184.94873 143.288025 192.179688 C 136.057068 199.410645 132.44165 208.190918 132.44165 218.520874 C 132.44165 228.850708 136.057068 237.631042 143.288025 244.861938 C 150.518982 252.092896 159.299255 255.708374 169.62915 255.708374 Z M 256.400024 528.416626 C 222.104675 528.416626 189.875854 521.908936 159.712524 508.89325 C 129.549133 495.877533 103.311584 478.213654 80.998962 455.901062 C 58.68634 433.58844 41.022461 407.35083 28.006775 377.1875 C 14.991089 347.02417 8.483337 314.795288 8.483337 280.5 C 8.483337 246.204712 14.991089 213.97583 28.006775 183.8125 C 41.022461 153.64917 58.68634 127.41156 80.998962 105.098938 C 103.311584 82.786377 129.549133 65.122437 159.712524 52.10675 C 189.875854 39.091064 222.104675 32.583313 256.400024 32.583313 C 290.695313 32.583313 322.924194 39.091064 353.087524 52.10675 C 383.250854 65.122437 409.488403 82.786377 431.801025 105.098938 C 454.113647 127.41156 471.777588 153.64917 484.793213 183.8125 C 497.808838 213.97583 504.31665 246.204712 504.31665 280.5 C 504.31665 314.795288 497.808838 347.02417 484.793213 377.1875 C 471.777588 407.35083 454.113647 433.58844 431.801025 455.901062 C 409.488403 478.213654 383.250854 495.877533 353.087524 508.89325 C 322.924194 521.908936 290.695313 528.416626 256.400024 528.416626 Z M 256.400024 280.5 C 256.400024 280.5 256.400024 280.5 256.400024 280.5 C 256.400024 280.5 256.400024 280.5 256.400024 280.5 C 256.400024 280.5 256.400024 280.5 256.400024 280.5 C 256.400024 280.5 256.400024 280.5 256.400024 280.5 C 256.400024 280.5 256.400024 280.5 256.400024 280.5 C 256.400024 280.5 256.400024 280.5 256.400024 280.5 C 256.400024 280.5 256.400024 280.5 256.400024 280.5 C 256.400024 280.5 256.400024 280.5 256.400024 280.5 Z M 256.400024 478.833313 C 311.768311 478.833313 358.665405 459.619995 397.092712 421.192688 C 435.52002 382.765442 454.733398 335.868347 454.733398 280.5 C 454.733398 225.131653 435.52002 178.234558 397.092712 139.807251 C 358.665405 101.380005 311.768311 82.166687 256.400024 82.166687 C 201.031677 82.166687 154.134583 101.380005 115.707275 139.807251 C 77.280029 178.234558 58.06665 225.131653 58.06665 280.5 C 58.06665 335.868347 77.280029 382.765442 115.707275 421.192688 C 154.134583 459.619995 201.031677 478.833313 256.400024 478.833313 Z"/>
        <path id="SENTIMENTDISSATISFIED" fill="#212121" fill-rule="evenodd" stroke="none" d="M 260.400024 306.6875 C 238.087402 306.6875 217.117981 311.54248 197.49115 321.252563 C 177.864319 330.962708 162.059814 345.114502 150.077087 363.708344 C 145.531921 370.319489 144.912109 376.930542 148.217712 383.541687 C 151.523315 390.152832 156.894775 393.458313 164.332275 393.458313 C 167.637878 393.458313 170.633484 392.735229 173.319275 391.289063 C 176.005066 389.842896 178.380859 387.673645 180.446899 384.78125 C 189.950378 371.972168 201.726318 361.952301 215.775024 354.721313 C 229.823669 347.490417 244.698547 343.875 260.400024 343.875 C 276.10144 343.875 290.976318 347.490417 305.025024 354.721313 C 319.073669 361.952301 330.849609 371.972168 340.353149 384.78125 C 342.00592 387.673645 344.175171 389.842896 346.860962 391.289063 C 349.546753 392.735229 352.542358 393.458313 355.8479 393.458313 C 363.285461 393.458313 368.656921 390.0495 371.962524 383.23175 C 375.268066 376.414032 374.648315 369.493103 370.103149 362.46875 C 358.120422 344.288086 342.315918 330.446228 322.689087 320.942749 C 303.062256 311.439209 282.299438 306.6875 260.400024 306.6875 Z M 347.170837 244.708374 C 357.500732 244.708374 366.281006 241.092896 373.511963 233.861938 C 380.74292 226.631042 384.358337 217.850708 384.358337 207.520874 C 384.358337 197.190918 380.74292 188.410645 373.511963 181.179688 C 366.281006 173.94873 357.500732 170.333374 347.170837 170.333374 C 336.840942 170.333374 328.060669 173.94873 320.829712 181.179688 C 313.598755 188.410645 309.983337 197.190918 309.983337 207.520874 C 309.983337 217.850708 313.598755 226.631042 320.829712 233.861938 C 328.060669 241.092896 336.840942 244.708374 347.170837 244.708374 Z M 173.62915 244.708374 C 183.959106 244.708374 192.73938 241.092896 199.970337 233.861938 C 207.201233 226.631042 210.81665 217.850708 210.81665 207.520874 C 210.81665 197.190918 207.201233 188.410645 199.970337 181.179688 C 192.73938 173.94873 183.959106 170.333374 173.62915 170.333374 C 163.299255 170.333374 154.518982 173.94873 147.288025 181.179688 C 140.057068 188.410645 136.44165 197.190918 136.44165 207.520874 C 136.44165 217.850708 140.057068 226.631042 147.288025 233.861938 C 154.518982 241.092896 163.299255 244.708374 173.62915 244.708374 Z M 260.400024 517.416626 C 226.104675 517.416626 193.875854 510.908936 163.712524 497.89325 C 133.549133 484.877533 107.311584 467.213654 84.998962 444.901062 C 62.68634 422.58844 45.022461 396.35083 32.006775 366.1875 C 18.991089 336.02417 12.483337 303.795288 12.483337 269.5 C 12.483337 235.204712 18.991089 202.97583 32.006775 172.8125 C 45.022461 142.64917 62.68634 116.41156 84.998962 94.098938 C 107.311584 71.786377 133.549133 54.122437 163.712524 41.10675 C 193.875854 28.091064 226.104675 21.583313 260.400024 21.583313 C 294.695313 21.583313 326.924194 28.091064 357.087524 41.10675 C 387.250854 54.122437 413.488403 71.786377 435.801025 94.098938 C 458.113647 116.41156 475.777588 142.64917 488.793213 172.8125 C 501.808838 202.97583 508.31665 235.204712 508.31665 269.5 C 508.31665 303.795288 501.808838 336.02417 488.793213 366.1875 C 475.777588 396.35083 458.113647 422.58844 435.801025 444.901062 C 413.488403 467.213654 387.250854 484.877533 357.087524 497.89325 C 326.924194 510.908936 294.695313 517.416626 260.400024 517.416626 Z M 260.400024 269.5 C 260.400024 269.5 260.400024 269.5 260.400024 269.5 C 260.400024 269.5 260.400024 269.5 260.400024 269.5 C 260.400024 269.5 260.400024 269.5 260.400024 269.5 C 260.400024 269.5 260.400024 269.5 260.400024 269.5 C 260.400024 269.5 260.400024 269.5 260.400024 269.5 C 260.400024 269.5 260.400024 269.5 260.400024 269.5 C 260.400024 269.5 260.400024 269.5 260.400024 269.5 C 260.400024 269.5 260.400024 269.5 260.400024 269.5 Z M 260.400024 467.833313 C 315.768311 467.833313 362.665405 448.619995 401.092712 410.192688 C 439.52002 371.765442 458.733398 324.868347 458.733398 269.5 C 458.733398 214.131653 439.52002 167.234558 401.092712 128.807251 C 362.665405 90.380005 315.768311 71.166687 260.400024 71.166687 C 205.031677 71.166687 158.134583 90.380005 119.707275 128.807251 C 81.280029 167.234558 62.06665 214.131653 62.06665 269.5 C 62.06665 324.868347 81.280029 371.765442 119.707275 410.192688 C 158.134583 448.619995 205.031677 467.833313 260.400024 467.833313 Z"/>
    </g>
</svg>
