<?xml version="1.0" encoding="UTF-8"?>
<svg width="100pt" height="100pt" version="1.1" viewBox="0 0 100 100" xmlns="http://www.w3.org/2000/svg">
 <g>
  <path d="m29.195 72.945c-1.8711 0-3.6289 0.73047-4.9453 2.0508-1.3203 1.3203-2.0508 3.0781-2.0469 4.9492 0 1.8711 0.72656 3.6289 2.0508 4.9492 1.3203 1.3203 3.0781 2.0508 4.9492 2.0508s3.6289-0.72656 4.9492-2.0469c1.3203-1.3203 2.0469-3.0781 2.0469-4.9492 0-1.8711-0.72656-3.6289-2.0469-4.9492-1.3242-1.3242-3.082-2.0547-4.957-2.0547z"/>
  <path d="m19.219 85.426c-1.2031 0-2.3359 0.46875-3.1836 1.3164-0.85156 0.85156-1.3164 1.9805-1.3164 3.1836 0 1.1992 0.46875 2.332 1.3203 3.1836 0.85156 0.84766 1.9805 1.3164 3.1797 1.3164 1.2031 0 2.332-0.46875 3.1836-1.3164 0.84766-0.85156 1.3164-1.9805 1.3164-3.1836s-0.46875-2.332-1.3164-3.1797c-0.85156-0.85156-1.9805-1.3203-3.1836-1.3203z"/>
  <path d="m92.656 7.3438c-1.5117-1.5117-3.5195-2.3438-5.6562-2.3438h-74c-2.1367 0-4.1445 0.83203-5.6562 2.3438s-2.3438 3.5195-2.3438 5.6562v48c0 2.1367 0.83203 4.1445 2.3438 5.6562s3.5195 2.3438 5.6562 2.3438h20.211c0.10156 0.48828 0.24609 0.96875 0.42969 1.4375 0.45312 1.1523 1.125 2.1836 2.0078 3.0625 1.6953 1.6953 3.957 2.6328 6.3633 2.6328s4.668-0.9375 6.3633-2.6328c0.87891-0.87891 1.5547-1.9102 2.0039-3.0625 0.18359-0.46875 0.32812-0.94922 0.42969-1.4375h36.191c2.1367 0 4.1445-0.83203 5.6562-2.3438s2.3438-3.5195 2.3438-5.6562v-48c0-2.1367-0.83203-4.1445-2.3438-5.6562zm-57.867 42.605c-2.2539 0-3.9492-1.7617-3.9492-4.1016 0-2.4023 1.6836-4.1484 4-4.1484 2.2617 0 3.8867 1.6953 3.9492 4.1211 0 2.4062-1.6797 4.1289-4 4.1289zm0-17.648c-2.2539 0-3.9492-1.7617-3.9492-4.1016 0-2.4062 1.6836-4.1484 4-4.1484 2.2617 0 3.8867 1.6953 3.9492 4.1211 0 2.4023-1.6797 4.1289-4 4.1289zm19.648 6.3242c0 0.55469-0.44531 1-1 1h-12.348c-0.55078 0-1-0.44531-1-1v-3.25c0-0.55078 0.44922-1 1-1h12.352c0.55469 0 1 0.44922 1 1v3.25zm13.723 19.75h-0.019531-3.4492c-0.3125 0-0.60938-0.14453-0.79688-0.39453-4.5469-5.9844-6.7539-12.824-6.7539-20.902 0.039063-8.168 2.25-15.051 6.75-21.051 0.1875-0.25391 0.48438-0.39844 0.80078-0.39844h3.4492c0.37891 0 0.72266 0.21484 0.89453 0.55078 0.17188 0.33984 0.13672 0.74219-0.09375 1.0469-4.1055 5.5117-6.1016 12.008-6.1016 19.855 0 7.418 1.9688 13.824 6.0195 19.586 0.1875 0.18359 0.30078 0.43359 0.30078 0.71484 0 0.54688-0.44531 0.99219-1 0.99219z"/>
 </g>
</svg>
