<?xml version="1.0" encoding="UTF-8"?>
<!-- Generated by Pixelmator Pro 3.6.17 -->
<svg width="256" height="256" viewBox="0 0 256 256" xmlns="http://www.w3.org/2000/svg">
    <g id="Group-copy">
        <path id="Path" fill="#633e9e" stroke="none" d="M 142.310394 149.055511 L 142.310349 149.055511 C 130.270111 141.807404 126.349289 126.026077 133.597336 113.985947 L 194.779449 12.352463 C 202.027512 0.312256 217.808823 -3.608521 229.849045 3.639511 L 229.849075 3.639511 C 241.889313 10.887543 245.810135 26.668854 238.562103 38.709061 L 177.37999 140.342545 C 170.131912 152.382751 154.350601 156.303543 142.310394 149.055511 Z"/>
        <path id="path1" fill="#43257c" stroke="none" d="M 225.071503 253.794327 L 225.071472 253.794327 C 212.774353 260.597351 197.146912 256.102295 190.343796 243.805161 L 132.917755 140.003235 C 126.114624 127.7061 130.609726 112.078629 142.906845 105.275467 L 142.906891 105.275467 C 155.20401 98.472519 170.831482 102.967514 177.634567 115.264633 L 235.060638 219.066574 C 241.863739 231.363693 237.368637 246.991165 225.071503 253.794327 Z"/>
        <path id="path2" fill="#8361c5" stroke="none" d="M 11.861814 127.660522 L 11.861814 127.66066 C 11.861814 141.714142 23.360146 153.212524 37.413651 153.212524 L 156.041656 153.212524 C 170.095154 153.212524 181.593506 141.714142 181.593506 127.660522 L 181.593506 127.660522 C 181.593506 113.607101 170.095154 102.108719 156.041656 102.108719 L 37.413651 102.108719 C 23.360128 102.108719 11.861814 113.607101 11.861814 127.660522 Z"/>
        <path id="path3" fill="#764fc1" stroke="none" d="M 184.744492 127.66066 L 184.744492 127.660522 C 184.744492 113.607101 173.184006 102.108719 159.054642 102.108719 L 140.76297 102.108719 L 133.574478 113.985947 C 132.841171 115.197449 132.252151 116.454056 131.74321 117.728714 C 131.628281 118.001114 131.510803 118.271286 131.405472 118.547318 C 131.372177 118.639893 131.34259 118.733002 131.31041 118.825836 C 128.827682 125.557037 129.148911 133.275131 132.89122 140.003235 L 140.238373 153.212524 L 159.054642 153.212524 C 173.184006 153.212524 184.744492 141.714142 184.744492 127.66066 Z"/>
    </g>
</svg>
