<?xml version="1.0" encoding="UTF-8"?>
<!-- Generated by Pixelmator Pro 3.8 -->
<svg width="1800" height="976" viewBox="0 0 1800 976" xmlns="http://www.w3.org/2000/svg">
    <g id="Group">
        <path id="Rectangle" fill="#f3f2e9" fill-rule="evenodd" stroke="none" d="M 0 976 L 1800 976 L 1800 0 L 0 0 Z"/>
        <path id="token" fill="#212121" fill-rule="evenodd" stroke="none" d="M 1638.439941 257.650024 C 1637.640015 257.650024 1636.86499 257.549988 1636.11499 257.349976 C 1635.36499 257.150024 1634.640015 256.849976 1633.939941 256.450012 L 1588.939941 230.650024 C 1587.540039 229.849976 1586.440063 228.775024 1585.640015 227.424988 C 1584.839966 226.075012 1584.439941 224.549988 1584.439941 222.849976 L 1584.439941 173.650024 C 1584.439941 171.950012 1584.86499 170.400024 1585.714966 169 C 1586.565063 167.599976 1587.689941 166.5 1589.089966 165.700012 L 1634.089966 141.25 C 1634.790039 140.849976 1635.48999 140.575012 1636.189941 140.424988 C 1636.890015 140.275024 1637.640015 140.200012 1638.439941 140.200012 C 1639.23999 140.200012 1639.98999 140.275024 1640.689941 140.424988 C 1641.390015 140.575012 1642.089966 140.849976 1642.790039 141.25 L 1687.790039 165.700012 C 1689.190063 166.5 1690.314941 167.599976 1691.165039 169 C 1692.015015 170.400024 1692.439941 171.950012 1692.439941 173.650024 L 1692.439941 222.849976 C 1692.439941 224.549988 1692.040039 226.075012 1691.23999 227.424988 C 1690.439941 228.775024 1689.339966 229.849976 1687.939941 230.650024 L 1642.939941 256.450012 C 1642.23999 256.849976 1641.515015 257.150024 1640.765015 257.349976 C 1640.015015 257.549988 1639.23999 257.650024 1638.439941 257.650024 Z M 1621.339966 184.299988 C 1623.640015 182 1626.265015 180.125 1629.214966 178.674988 C 1632.165039 177.224976 1635.23999 176.5 1638.439941 176.5 C 1641.640015 176.5 1644.714966 177.224976 1647.665039 178.674988 C 1650.61499 180.125 1653.23999 182 1655.540039 184.299988 L 1678.48999 170.799988 L 1638.439941 149.5 C 1638.439941 149.5 1638.439941 149.5 1638.439941 149.5 C 1638.439941 149.5 1638.439941 149.5 1638.439941 149.5 L 1598.390015 170.799988 Z M 1633.939941 246.099976 L 1633.939941 221.049988 C 1628.73999 219.650024 1624.440063 216.925049 1621.040039 212.875 C 1617.640015 208.824951 1615.939941 204.200012 1615.939941 199 C 1615.939941 198 1615.98999 196.950012 1616.089966 195.849976 C 1616.189941 194.75 1616.48999 193.549988 1616.98999 192.25 L 1593.439941 178.299988 L 1593.439941 222.849976 C 1593.439941 222.849976 1593.439941 222.849976 1593.439941 222.849976 C 1593.439941 222.849976 1593.439941 222.849976 1593.439941 222.849976 Z M 1638.439941 212.5 C 1642.23999 212.5 1645.439941 211.174988 1648.040039 208.525024 C 1650.640015 205.875 1651.939941 202.700012 1651.939941 199 C 1651.939941 195.199951 1650.640015 192 1648.040039 189.400024 C 1645.439941 186.799988 1642.23999 185.5 1638.439941 185.5 C 1634.73999 185.5 1631.565063 186.799988 1628.915039 189.400024 C 1626.265015 192 1624.939941 195.199951 1624.939941 199 C 1624.939941 202.700012 1626.265015 205.875 1628.915039 208.525024 C 1631.565063 211.174988 1634.73999 212.5 1638.439941 212.5 Z M 1642.939941 246.099976 L 1683.439941 222.849976 C 1683.439941 222.849976 1683.439941 222.849976 1683.439941 222.849976 C 1683.439941 222.849976 1683.439941 222.849976 1683.439941 222.849976 L 1683.439941 178.299988 L 1659.890015 192.25 C 1660.390015 193.650024 1660.689941 194.875 1660.790039 195.924988 C 1660.890015 196.974976 1660.939941 198 1660.939941 199 C 1660.939941 204.200012 1659.23999 208.824951 1655.839966 212.875 C 1652.439941 216.925049 1648.140015 219.650024 1642.939941 221.049988 Z"/>
        <path id="laptopPERSOn" fill="#212121" fill-rule="evenodd" stroke="none" d="M 1099 842.849976 C 1092.399902 842.849976 1087 840.75 1082.800049 836.549988 C 1078.599976 832.349976 1076.5 826.950073 1076.5 820.349976 C 1076.5 813.75 1078.599976 808.350037 1082.800049 804.150024 C 1087 799.949951 1092.399902 797.849976 1099 797.849976 C 1105.600098 797.849976 1111 799.949951 1115.199951 804.150024 C 1119.400024 808.350037 1121.5 813.75 1121.5 820.349976 C 1121.5 826.950073 1119.400024 832.349976 1115.199951 836.549988 C 1111 840.75 1105.600098 842.849976 1099 842.849976 Z M 1051 882 L 1051 876.900024 C 1051 873.099976 1051.949951 869.850037 1053.849976 867.150024 C 1055.75 864.450012 1058.199951 862.400024 1061.199951 861 C 1067.900024 858 1074.324951 855.75 1080.474976 854.25 C 1086.625 852.75 1092.799927 852 1099 852 C 1105.200073 852 1111.349976 852.775024 1117.449951 854.325012 C 1123.550049 855.875 1129.949951 858.099976 1136.650024 861 C 1139.75 862.400024 1142.25 864.450012 1144.150024 867.150024 C 1146.050049 869.850037 1147 873.099976 1147 876.900024 L 1147 882 C 1147 884.5 1146.125 886.625 1144.375 888.375 C 1142.625 890.125 1140.5 891 1138 891 L 1060 891 C 1057.5 891 1055.375 890.125 1053.625 888.375 C 1051.875 886.625 1051 884.5 1051 882 Z M 1060 882 L 1138 882 L 1138 876.900024 C 1138 875.299988 1137.525024 873.775024 1136.574951 872.325012 C 1135.625 870.875 1134.449951 869.799988 1133.050049 869.099976 C 1126.649902 866 1120.800049 863.875 1115.5 862.724976 C 1110.199951 861.575012 1104.700073 861 1099 861 C 1093.299927 861 1087.75 861.575012 1082.349976 862.724976 C 1076.949951 863.875 1071.100098 866 1064.800049 869.099976 C 1063.400024 869.799988 1062.25 870.875 1061.349976 872.325012 C 1060.449951 873.775024 1060 875.299988 1060 876.900024 Z M 1099 833.849976 C 1102.900024 833.849976 1106.125 832.575012 1108.675049 830.025024 C 1111.224976 827.474976 1112.5 824.25 1112.5 820.349976 C 1112.5 816.449951 1111.224976 813.224976 1108.675049 810.674988 C 1106.125 808.125 1102.900024 806.849976 1099 806.849976 C 1095.099976 806.849976 1091.875 808.125 1089.324951 810.674988 C 1086.775024 813.224976 1085.5 816.449951 1085.5 820.349976 C 1085.5 824.25 1086.775024 827.474976 1089.324951 830.025024 C 1091.875 832.575012 1095.099976 833.849976 1099 833.849976 Z M 1099 820.349976 C 1099 820.349976 1099 820.349976 1099 820.349976 C 1099 820.349976 1099 820.349976 1099 820.349976 C 1099 820.349976 1099 820.349976 1099 820.349976 C 1099 820.349976 1099 820.349976 1099 820.349976 C 1099 820.349976 1099 820.349976 1099 820.349976 C 1099 820.349976 1099 820.349976 1099 820.349976 C 1099 820.349976 1099 820.349976 1099 820.349976 C 1099 820.349976 1099 820.349976 1099 820.349976 Z M 1099 882 L 1099 882 C 1099 882 1099 882 1099 882 C 1099 882 1099 882 1099 882 C 1099 882 1099 882 1099 882 C 1099 882 1099 882 1099 882 C 1099 882 1099 882 1099 882 C 1099 882 1099 882 1099 882 C 1099 882 1099 882 1099 882 C 1099 882 1099 882 1099 882 L 1099 882 Z M 896.380005 897 C 895.10498 897 894.036255 896.566406 893.173767 895.699219 C 892.311218 894.832031 891.880005 893.757019 891.880005 892.474243 C 891.880005 891.191406 892.311218 890.125 893.173767 889.275024 C 894.036255 888.424988 895.10498 888 896.380005 888 L 1019.380005 888 C 1020.655029 888 1021.723755 888.433594 1022.586243 889.300781 C 1023.44873 890.167969 1023.880005 891.242981 1023.880005 892.525757 C 1023.880005 893.808594 1023.44873 894.875 1022.586243 895.724976 C 1021.723755 896.575012 1020.655029 897 1019.380005 897 Z M 906.880005 879 C 904.47998 879 902.380005 878.099976 900.580017 876.299988 C 898.779968 874.5 897.880005 872.400024 897.880005 870 L 897.880005 798 C 897.880005 795.599976 898.779968 793.5 900.580017 791.700012 C 902.380005 789.900024 904.47998 789 906.880005 789 L 1008.880005 789 C 1011.280029 789 1013.380005 789.900024 1015.179993 791.700012 C 1016.97998 793.5 1017.880005 795.599976 1017.880005 798 L 1017.880005 870 C 1017.880005 872.400024 1016.97998 874.5 1015.179993 876.299988 C 1013.380005 878.099976 1011.280029 879 1008.880005 879 Z M 906.880005 870 L 1008.880005 870 C 1008.880005 870 1008.880005 870 1008.880005 870 C 1008.880005 870 1008.880005 870 1008.880005 870 L 1008.880005 798 C 1008.880005 798 1008.880005 798 1008.880005 798 C 1008.880005 798 1008.880005 798 1008.880005 798 L 906.880005 798 C 906.880005 798 906.880005 798 906.880005 798 C 906.880005 798 906.880005 798 906.880005 798 L 906.880005 870 C 906.880005 870 906.880005 870 906.880005 870 C 906.880005 870 906.880005 870 906.880005 870 Z M 906.880005 870 C 906.880005 870 906.880005 870 906.880005 870 C 906.880005 870 906.880005 870 906.880005 870 L 906.880005 798 C 906.880005 798 906.880005 798 906.880005 798 C 906.880005 798 906.880005 798 906.880005 798 L 906.880005 798 C 906.880005 798 906.880005 798 906.880005 798 C 906.880005 798 906.880005 798 906.880005 798 L 906.880005 870 C 906.880005 870 906.880005 870 906.880005 870 C 906.880005 870 906.880005 870 906.880005 870 Z"/>
        <path id="database" fill="#212121" fill-rule="evenodd" stroke="none" d="M 1638.439941 456 C 1623.339966 456 1610.565063 453.675049 1600.11499 449.025024 C 1589.664917 444.375 1584.439941 438.700012 1584.439941 432 L 1584.439941 372 C 1584.439941 365.399963 1589.714966 359.75 1600.265015 355.049988 C 1610.815063 350.349976 1623.539917 348 1638.439941 348 C 1653.340088 348 1666.064941 350.349976 1676.61499 355.049988 C 1687.165039 359.75 1692.439941 365.399963 1692.439941 372 L 1692.439941 432 C 1692.439941 438.700012 1687.215088 444.375 1676.765015 449.025024 C 1666.314941 453.675049 1653.540039 456 1638.439941 456 Z M 1638.439941 382.799988 C 1647.040039 382.799988 1655.86499 381.475037 1664.915039 378.825012 C 1673.965088 376.174988 1679.790039 373.200012 1682.390015 369.900024 C 1679.689941 366.699951 1673.815063 363.75 1664.765015 361.049988 C 1655.714966 358.349976 1646.940063 357 1638.439941 357 C 1629.639893 357 1620.790039 358.299988 1611.890015 360.900024 C 1602.98999 363.5 1597.140015 366.5 1594.339966 369.900024 C 1597.140015 373.400024 1602.939941 376.424988 1611.73999 378.974976 C 1620.540039 381.525024 1629.439941 382.799988 1638.439941 382.799988 Z M 1638.290039 414.900024 C 1642.48999 414.900024 1646.689941 414.674988 1650.890015 414.224976 C 1655.089966 413.775024 1659.11499 413.099976 1662.964966 412.200012 C 1666.815063 411.299988 1670.48999 410.200012 1673.98999 408.900024 C 1677.48999 407.599976 1680.640015 406.150024 1683.439941 404.549988 L 1683.439941 381.299988 C 1680.540039 382.900024 1677.339966 384.349976 1673.839966 385.650024 C 1670.339966 386.950012 1666.640015 388.049988 1662.73999 388.950012 C 1658.839966 389.849976 1654.839966 390.549988 1650.73999 391.049988 C 1646.640015 391.549988 1642.48999 391.799988 1638.290039 391.799988 C 1634.089966 391.799988 1629.890015 391.549988 1625.689941 391.049988 C 1621.48999 390.549988 1617.464966 389.849976 1613.61499 388.950012 C 1609.765015 388.049988 1606.11499 386.950012 1602.665039 385.650024 C 1599.214966 384.349976 1596.140015 382.900024 1593.439941 381.299988 L 1593.439941 404.549988 C 1596.140015 406.150024 1599.189941 407.599976 1602.589966 408.900024 C 1605.98999 410.200012 1609.61499 411.299988 1613.464966 412.200012 C 1617.315063 413.099976 1621.339966 413.775024 1625.540039 414.224976 C 1629.73999 414.674988 1633.98999 414.900024 1638.290039 414.900024 Z M 1638.439941 447 C 1643.23999 447 1648.189941 446.575012 1653.290039 445.724976 C 1658.390015 444.875 1663.064941 443.75 1667.314941 442.349976 C 1671.565063 440.950012 1675.165039 439.400024 1678.11499 437.700012 C 1681.065063 436 1682.839966 434.25 1683.439941 432.450012 L 1683.439941 413.700012 C 1680.640015 415.299988 1677.48999 416.724976 1673.98999 417.974976 C 1670.48999 419.224976 1666.815063 420.299988 1662.964966 421.200012 C 1659.11499 422.099976 1655.11499 422.775024 1650.964966 423.224976 C 1646.814941 423.674988 1642.589966 423.900024 1638.290039 423.900024 C 1633.98999 423.900024 1629.73999 423.674988 1625.540039 423.224976 C 1621.339966 422.775024 1617.315063 422.099976 1613.464966 421.200012 C 1609.61499 420.299988 1605.98999 419.224976 1602.589966 417.974976 C 1599.189941 416.724976 1596.140015 415.299988 1593.439941 413.700012 L 1593.439941 432.599976 C 1593.939941 434.299988 1595.640015 436.024963 1598.540039 437.775024 C 1601.440063 439.525024 1605.040039 441.075012 1609.339966 442.424988 C 1613.640015 443.775024 1618.339966 444.875 1623.439941 445.724976 C 1628.540039 446.575012 1633.540039 447 1638.439941 447 Z"/>
        <path id="duende" fill="#292828" stroke="none" d="M 602.955017 197 L 602.955017 213.039673 C 600.070435 210.578613 596.230042 209.348694 591.435059 209.348694 C 587.913208 209.348694 584.751953 210.048828 581.951233 211.449219 C 579.192566 212.849548 577.029053 214.843872 575.459534 217.432129 C 573.932007 219.978455 573.167664 222.927368 573.167664 226.279846 C 573.167664 229.632568 573.953003 232.602539 575.522522 235.190796 C 577.093262 237.735718 579.298767 239.709229 582.142639 241.109436 C 584.985352 242.509888 588.23175 243.210022 591.880859 243.210022 C 597.566101 243.210022 601.852295 241.449097 604.738281 237.927124 L 608.239075 242.191223 L 612.375854 242.191223 L 612.375854 197 L 602.955017 197 Z M 601.237488 234.10791 C 600.387756 236.314514 599.222046 238.033447 597.736511 239.263489 C 596.251038 240.452454 594.596313 241.046509 592.771179 241.046509 C 590.946045 241.046509 589.377747 240.452454 587.934204 239.263489 C 586.533875 238.033447 585.431091 236.314514 584.624756 234.10791 C 583.818359 231.85907 583.415833 229.249756 583.415833 226.279846 C 583.415833 223.310181 583.818359 220.720459 584.624756 218.513855 C 585.431091 216.265198 586.533875 214.546204 587.934204 213.358337 C 589.377747 212.128357 590.989258 211.512146 592.771179 211.512146 C 594.553101 211.512146 596.251038 212.128357 597.736511 213.358337 C 599.222046 214.546204 600.387756 216.265198 601.237488 218.513855 C 602.127869 220.720459 602.573608 223.308777 602.573608 226.279846 C 602.573608 229.250977 602.127869 231.85907 601.237488 234.10791 Z M 808.395447 238.56311 C 806.826477 240.515381 804.810303 241.491089 802.349304 241.491089 C 799.421326 241.491089 797.130798 240.133972 795.475952 237.418396 C 793.820007 234.70166 792.992615 230.989685 792.992615 226.279846 L 792.992615 225.579773 L 821.952332 225.579773 C 821.868408 222.312317 821.040771 219.468445 819.471802 217.050537 C 817.900452 214.589478 815.653015 212.701355 812.724854 211.384949 C 809.796631 210.027832 806.339233 209.348694 802.349304 209.348694 C 798.359375 209.348694 794.690552 210.048828 791.720825 211.449219 C 788.791687 212.806335 786.54425 214.779602 784.973389 217.36792 C 783.445862 219.914246 782.681458 222.885376 782.681458 226.279846 C 782.681458 229.674561 783.445862 232.64447 784.973389 235.190796 C 786.54425 237.735718 788.791687 239.709229 791.720825 241.109436 C 794.690552 242.509888 798.233521 243.210022 802.349304 243.210022 C 807.654114 243.210022 811.939148 242.086304 815.207703 239.836304 C 818.51593 237.545715 820.616516 234.405396 821.509399 230.41687 L 811.451904 230.41687 C 810.985596 233.896667 809.966797 236.612 808.395447 238.56311 Z M 796.174927 214.249878 C 797.78894 212.128357 799.84613 211.067627 802.349304 211.067627 C 804.852478 211.067627 806.975647 212.10614 808.588989 214.185669 C 810.199951 216.265198 811.197754 219.151062 811.577759 222.842041 L 793.184021 222.842041 C 793.565674 219.193054 794.563477 216.329407 796.174927 214.249878 Z M 769.642578 197 L 769.642578 213.039673 C 766.757996 210.578613 762.917542 209.348694 758.12262 209.348694 C 754.600586 209.348694 751.439514 210.048828 748.638611 211.449219 C 745.881287 212.849548 743.716614 214.843872 742.146912 217.432129 C 740.619385 219.978455 739.855164 222.927368 739.855164 226.279846 C 739.855164 229.632568 740.640381 232.602539 742.210083 235.190796 C 743.779541 237.735718 745.987366 239.709229 748.830017 241.109436 C 751.672852 242.509888 754.919312 243.210022 758.568359 243.210022 C 764.254761 243.210022 768.539856 241.449097 771.425842 237.927124 L 774.925476 242.191223 L 779.063416 242.191223 L 779.063416 197 L 769.642578 197 Z M 767.924805 234.10791 C 767.076416 236.314514 765.909607 238.033447 764.424011 239.263489 C 762.938477 240.452454 761.283691 241.046509 759.459839 241.046509 C 757.636047 241.046509 756.065186 240.452454 754.621582 239.263489 C 753.221375 238.033447 752.118652 236.314514 751.312195 234.10791 C 750.505798 231.85907 750.10199 229.249756 750.10199 226.279846 C 750.10199 223.310181 750.505798 220.720459 751.312195 218.513855 C 752.118652 216.265198 753.221375 214.546204 754.621582 213.358337 C 756.065186 212.128357 757.676575 211.512146 759.459839 211.512146 C 761.242859 211.512146 762.938477 212.128357 764.424011 213.358337 C 765.909607 214.546204 767.076416 216.265198 767.924805 218.513855 C 768.815186 220.720459 769.260925 223.308777 769.260925 226.279846 C 769.260925 229.250977 768.815186 231.85907 767.924805 234.10791 Z M 731.533386 212.722351 C 728.436401 210.515625 723.958496 209.411682 718.104004 209.411682 C 712.249695 209.411682 707.877014 210.515625 704.863953 212.722351 C 701.852051 214.885803 700.34552 218.578125 700.34552 223.796692 L 700.34552 242.255554 L 710.019531 242.255554 L 710.019531 223.796692 C 710.019531 220.360046 710.550354 217.432129 711.611145 215.013 C 712.671936 212.595154 714.836609 211.384949 718.104004 211.384949 C 721.371643 211.384949 723.535156 212.637146 724.722961 215.140198 C 725.911011 217.601318 726.504822 220.487122 726.504822 223.796692 L 726.504822 242.255554 L 736.244324 242.255554 L 736.244324 223.796692 C 736.244324 218.620056 734.673462 214.929016 731.533386 212.722351 Z M 683.20929 238.56311 C 681.639832 240.515381 679.624329 241.491089 677.16333 241.491089 C 674.235352 241.491089 671.94342 240.133972 670.288818 237.418396 C 668.634033 234.70166 667.806641 230.989685 667.806641 226.279846 L 667.806641 225.579773 L 696.766846 225.579773 C 696.681519 222.312317 695.85553 219.468445 694.284668 217.050537 C 692.71521 214.589478 690.466614 212.701355 687.538635 211.384949 C 684.610901 210.027832 681.151855 209.348694 677.16333 209.348694 C 673.174622 209.348694 669.503418 210.048828 666.533508 211.449219 C 663.605774 212.806335 661.355774 214.779602 659.786255 217.36792 C 658.258789 219.914246 657.495483 222.885376 657.495483 226.279846 C 657.495483 229.674561 658.258789 232.64447 659.786255 235.190796 C 661.355774 237.735718 663.605774 239.709229 666.533508 241.109436 C 669.503418 242.509888 673.047546 243.210022 677.16333 243.210022 C 682.46698 243.210022 686.753174 242.086304 690.020813 239.836304 C 693.3302 237.545715 695.430786 234.405396 696.322266 230.41687 L 686.264282 230.41687 C 685.797546 233.896667 684.779907 236.612 683.20929 238.56311 Z M 670.988953 214.249878 C 672.600403 212.128357 674.658997 211.067627 677.16333 211.067627 C 679.667725 211.067627 681.789001 212.10614 683.400696 214.185669 C 685.013306 216.265198 686.009949 219.151062 686.391357 222.842041 L 667.998047 222.842041 C 668.3797 219.193054 669.376099 216.329407 670.988953 214.249878 Z M 644.139282 210.367432 L 644.139282 228.825012 C 644.139282 232.135803 643.503296 235.041382 642.230164 237.545715 C 640.998962 240.048645 638.686035 241.300842 635.291321 241.300842 C 631.896851 241.300842 629.562927 240.092041 628.418213 237.672791 C 627.314087 235.253723 626.762268 232.30481 626.762268 228.825012 L 626.762268 210.367432 L 617.088257 210.367432 L 617.088257 228.825012 C 617.088257 234.044678 618.615723 237.758118 621.670776 239.963562 C 624.725769 242.128235 629.266357 243.210022 635.291321 243.210022 C 641.316284 243.210022 645.964294 242.107239 649.103516 239.900635 C 652.285583 237.693787 653.877441 234.001587 653.877441 228.825012 L 653.877441 210.367432 L 644.139282 210.367432 Z"/>
        <text id="Client" xml:space="preserve" x="125" y="321" font-family="Funnel Sans" font-size="51" fill="#000000">Client</text>
        <text id="IdentityServer" xml:space="preserve" x="538" y="309" font-family="Funnel Sans" font-size="51" fill="#000000">IdentityServer</text>
        <text id="Middleware" xml:space="preserve" x="564" y="362" font-family="Funnel Sans" font-size="51" fill="#000000">Middleware</text>
        <text id="request" xml:space="preserve" x="1227" y="392" font-family="Funnel Sans" font-size="51" fill="#000000">request</text>
        <text id="CIBA" xml:space="preserve" x="1096" y="392" font-family="Funnel Sans" font-size="51" fill="#000000">CIBA</text>
        <text id="store" xml:space="preserve" x="1188" y="445" font-family="Funnel Sans" font-size="51" fill="#000000">store</text>
        <g id="CIBA-user-notification-service">
            <text id="CIBA-user-interaction-service" xml:space="preserve"><tspan x="1065.162448" y="610" font-family="Funnel Sans" font-size="51" fill="#000000" xml:space="preserve">CIBA u</tspan><tspan font-family="Funnel Sans" font-size="51" fill="#000000" xml:space="preserve">s</tspan><tspan font-family="Funnel Sans" font-size="51" fill="#000000" xml:space="preserve">er</tspan><tspan x="966.392399" y="674" font-family="Funnel Sans" font-size="51" fill="#000000" xml:space="preserve">i</tspan><tspan font-family="Funnel Sans" font-size="51" fill="#000000" xml:space="preserve">n</tspan><tspan font-family="Funnel Sans" font-size="51" fill="#000000" xml:space="preserve">t</tspan><tspan font-family="Funnel Sans" font-size="51" fill="#000000" xml:space="preserve">e</tspan><tspan font-family="Funnel Sans" font-size="51" fill="#000000" xml:space="preserve">r</tspan><tspan font-family="Funnel Sans" font-size="51" fill="#000000" xml:space="preserve">a</tspan><tspan font-family="Funnel Sans" font-size="51" fill="#000000" xml:space="preserve">c</tspan><tspan font-family="Funnel Sans" font-size="51" fill="#000000" xml:space="preserve">tio</tspan><tspan font-family="Funnel Sans" font-size="51" fill="#000000" xml:space="preserve">n </tspan><tspan font-family="Funnel Sans" font-size="51" fill="#000000" xml:space="preserve">s</tspan><tspan font-family="Funnel Sans" font-size="51" fill="#000000" xml:space="preserve">ervi</tspan><tspan font-family="Funnel Sans" font-size="51" fill="#000000" xml:space="preserve">ce</tspan></text>
            <text id="user" xml:space="preserve" x="543" y="843" font-family="Funnel Sans" font-size="51" fill="#000000">user</text>
            <text id="text1" xml:space="preserve" x="413" y="843" font-family="Funnel Sans" font-size="51" fill="#000000">CIBA</text>
            <text id="notication-service" xml:space="preserve" x="296" y="896" font-family="Funnel Sans" font-size="51" fill="#000000">notiﬁcation service*</text>
        </g>
        <g id="g2">
            <g id="Line">
                <path id="path11" fill="none" stroke="#212121" stroke-width="7" d="M 316 187 L 389.350006 187"/>
                <path id="path12" fill="#212121" stroke="none" d="M 375.700012 200.650024 L 403 187 L 375.700012 173.349976 L 375.700012 200.650024 Z"/>
            </g>
            <g id="Line-copy">
                <path id="path13" fill="none" stroke="#212121" stroke-width="7" d="M 316 355 L 389.350006 355"/>
                <path id="path14" fill="#212121" stroke="none" d="M 375.700012 368.650024 L 403 355 L 375.700012 341.349976 L 375.700012 368.650024 Z"/>
            </g>
            <g id="Line-copy-2">
                <path id="path15" fill="none" stroke="#212121" stroke-width="7" d="M 901 198 L 967.349976 198"/>
                <path id="path16" fill="#212121" stroke="none" d="M 953.700012 211.650024 L 981 198 L 953.700012 184.349976 L 953.700012 211.650024 Z"/>
            </g>
            <g id="Line-copy-5">
                <path id="path17" fill="none" stroke="#212121" stroke-width="7" d="M 1456 198 L 1522.349976 198"/>
                <path id="path18" fill="#212121" stroke="none" d="M 1508.699951 211.650024 L 1536 198 L 1508.699951 184.349976 L 1508.699951 211.650024 Z"/>
            </g>
            <g id="Line-copy-6">
                <path id="path19" fill="none" stroke="#212121" stroke-width="7" d="M 1456 402 L 1522.349976 402"/>
                <path id="path20" fill="#212121" stroke="none" d="M 1508.699951 415.650024 L 1536 402 L 1508.699951 388.349976 L 1508.699951 415.650024 Z"/>
            </g>
            <g id="Line-copy-8">
                <path id="path21" fill="#212121" stroke="#212121" stroke-width="7" d="M 783 843 L 830.349976 843"/>
                <path id="path22" fill="#212121" stroke="none" d="M 816.700012 856.650024 L 844 843 L 816.700012 829.349976 L 816.700012 856.650024 Z"/>
            </g>
            <g id="g3">
                <path id="path23" fill="none" stroke="#212121" stroke-width="7" d="M 666 487 L 666 649 L 223 651 L 223.917999 804.349976"/>
                <path id="path24" fill="#212121" stroke="none" d="M 210.186996 790.781982 L 224 818 L 237.485992 790.619019 L 210.186996 790.781982 Z"/>
            </g>
            <g id="Line-copy-7">
                <path id="path25" fill="#212121" stroke="#212121" stroke-width="7" d="M 887.999023 766 L 888 670.650024"/>
                <path id="path26" fill="#212121" stroke="none" d="M 901.650024 684.299988 L 888 657 L 874.349976 684.299988 L 901.650024 684.299988 Z"/>
            </g>
            <g id="Line-copy-3">
                <path id="path27" fill="#212121" stroke="#212121" stroke-width="7" d="M 894 402 L 960.349976 402"/>
                <path id="path28" fill="#212121" stroke="none" d="M 946.700012 415.650024 L 974 402 L 946.700012 388.349976 L 946.700012 415.650024 Z"/>
            </g>
            <g id="Line-copy-4">
                <path id="path29" fill="#212121" stroke="#212121" stroke-width="7" d="M 996 533 L 996 439.650024"/>
                <path id="path30" fill="#212121" stroke="none" d="M 1009.650024 453.299988 L 996 426 L 982.349976 453.299988 L 1009.650024 453.299988 Z"/>
            </g>
        </g>
        <g id="g4">
            <g id="g5">
                <path id="path31" fill="none" stroke="#434343" stroke-width="7" d="M 505 187 L 416.649994 187"/>
                <path id="path32" fill="#434343" stroke="none" d="M 416.649994 200.650024 C 409.110992 200.650024 403 194.539001 403 187 C 403 179.460999 409.110992 173.349976 416.649994 173.349976 C 424.188995 173.349976 430.299988 179.460999 430.299988 187 C 430.299988 194.539001 424.188995 200.650024 416.649994 200.650024 Z"/>
            </g>
            <g id="Line-copy-9">
                <path id="path33" fill="none" stroke="#434343" stroke-width="7" d="M 505 355 L 416.649994 355"/>
                <path id="path34" fill="#434343" stroke="none" d="M 416.649994 368.650024 C 409.110992 368.650024 403 362.539001 403 355 C 403 347.460999 409.110992 341.349976 416.649994 341.349976 C 424.188995 341.349976 430.299988 347.460999 430.299988 355 C 430.299988 362.539001 424.188995 368.650024 416.649994 368.650024 Z"/>
            </g>
            <g id="Line-copy-10">
                <path id="path35" fill="none" stroke="#434343" stroke-width="7" d="M 1057 402 L 994.650024 402"/>
                <path id="path36" fill="#434343" stroke="none" d="M 994.650024 415.650024 C 987.111023 415.650024 981 409.539001 981 402 C 981 394.460999 987.111023 388.349976 994.650024 388.349976 C 1002.190002 388.349976 1008.299988 394.460999 1008.299988 402 C 1008.299988 409.539001 1002.190002 415.650024 994.650024 415.650024 Z"/>
            </g>
            <g id="Line-copy-11">
                <path id="path37" fill="none" stroke="#434343" stroke-width="7" d="M 1057 198 L 994.650024 198"/>
                <path id="path38" fill="#434343" stroke="none" d="M 994.650024 211.650024 C 987.111023 211.650024 981 205.539001 981 198 C 981 190.460999 987.111023 184.349976 994.650024 184.349976 C 1002.190002 184.349976 1008.299988 190.460999 1008.299988 198 C 1008.299988 205.539001 1002.190002 211.650024 994.650024 211.650024 Z"/>
            </g>
            <g id="Line-copy-12">
                <path id="path39" fill="none" stroke="#434343" stroke-width="7" d="M 949 624 L 886.650024 624"/>
                <path id="path40" fill="#434343" stroke="none" d="M 886.650024 637.650024 C 879.111023 637.650024 873 631.539001 873 624 C 873 616.460999 879.111023 610.349976 886.650024 610.349976 C 894.189026 610.349976 900.299988 616.460999 900.299988 624 C 900.299988 631.539001 894.189026 637.650024 886.650024 637.650024 Z"/>
            </g>
            <g id="Line-copy-13">
                <path id="path41" fill="#212121" stroke="#434343" stroke-width="7" d="M 274 841 L 224.649994 841"/>
                <path id="path42" fill="#212121" stroke="none" d="M 224.649994 854.650024 C 217.110992 854.650024 211 848.539001 211 841 C 211 833.460999 217.110992 827.349976 224.649994 827.349976 C 232.188995 827.349976 238.300003 833.460999 238.300003 841 C 238.300003 848.539001 232.188995 854.650024 224.649994 854.650024 Z"/>
            </g>
        </g>
        <g id="g6">
            <path id="path44" fill="none" stroke="#212121" stroke-width="10" d="M 505 431 C 505 453.091003 522.908997 471 545 471 L 848 471 C 870.091003 471 888 453.091003 888 431 L 888 146 C 888 123.908997 870.091003 106 848 106 L 545 106 C 522.908997 106 505 123.908997 505 146 L 505 431 Z"/>
            <path id="path43" fill="none" stroke="#212121" stroke-width="10" d="M 84 431 C 84 453.091003 101.908997 471 124 471 L 264 471 C 286.091003 471 304 453.091003 304 431 L 304 146 C 304 123.908997 286.091003 106 264 106 L 124 106 C 101.908997 106 84 123.908997 84 146 L 84 431 Z"/>
            <path id="path45" fill="none" stroke="#212121" stroke-width="10" d="M 1057 235 C 1057 257.091003 1074.910034 275 1097 275 L 1400 275 C 1422.089966 275 1440 257.091003 1440 235 L 1440 146 C 1440 123.908997 1422.089966 106 1400 106 L 1097 106 C 1074.910034 106 1057 123.908997 1057 146 L 1057 235 Z"/>
            <path id="path46" fill="none" stroke="#212121" stroke-width="10" d="M 1057 431 C 1057 453.091003 1074.910034 471 1097 471 L 1400 471 C 1422.089966 471 1440 453.091003 1440 431 L 1440 342 C 1440 319.908997 1422.089966 302 1400 302 L 1097 302 C 1074.910034 302 1057 319.908997 1057 342 L 1057 431 Z"/>
            <path id="path47" fill="none" stroke="#212121" stroke-width="10" d="M 949 657 C 949 679.091003 966.908997 697 989 697 L 1370 697 C 1392.089966 697 1410 679.091003 1410 657 L 1410 586 C 1410 563.908997 1392.089966 546 1370 546 L 989 546 C 966.908997 546 949 563.908997 949 586 L 949 657 Z"/>
            <path id="path48" fill="none" stroke="#212121" stroke-width="10" d="M 274 877 C 274 899.091003 291.908997 917 314 917 L 743 917 C 765.091003 917 783 899.091003 783 877 L 783 806 C 783 783.908997 765.091003 766 743 766 L 314 766 C 291.908997 766 274 783.908997 274 806 L 274 877 Z"/>
        </g>
        <text id="2" xml:space="preserve" x="920" y="187" font-family="Funnel Sans" font-size="36" fill="#000000">2</text>
        <text id="4" xml:space="preserve" x="431" y="640" font-family="Funnel Sans" font-size="36" fill="#000000">4</text>
        <text id="5" xml:space="preserve" x="847" y="741" font-family="Funnel Sans" font-size="36" fill="#000000">5</text>
        <text id="6" xml:space="preserve" x="340" y="349" font-family="Funnel Sans" font-size="36" fill="#000000">6</text>
        <text id="1" xml:space="preserve" x="340" y="181" font-family="Funnel Sans" font-size="36" fill="#000000">1</text>
        <text id="validation" xml:space="preserve" x="1124" y="246" font-family="Funnel Sans" font-size="51" fill="#000000">validation*</text>
        <text id="text2" xml:space="preserve" x="1263" y="193" font-family="Funnel Sans" font-size="51" fill="#000000">user</text>
        <text id="text3" xml:space="preserve" x="1133" y="193" font-family="Funnel Sans" font-size="51" fill="#000000">CIBA</text>
        <text id="interfaces-you-must-implement" xml:space="preserve" x="1248" y="953" font-family="Funnel Sans" font-size="36" fill="#000000">*interfaces you must implement</text>
    </g>
</svg>
