<?xml version="1.0" encoding="UTF-8"?>
<!-- Generated by Pixelmator Pro 3.8 -->
<svg width="1920" height="1080" viewBox="0 0 1920 1080" xmlns="http://www.w3.org/2000/svg">
    <path id="Rectangle" fill="#f3f2e9" fill-rule="evenodd" stroke="#212121" stroke-width="7" d="M 0 1080 L 1920 1080 L 1920 0 L 0 0 Z"/>
    <g id="duende-icon-keysvg">
        <g id="Group">
            <text id="Clients" xml:space="preserve" x="152" y="883" font-family="'Funnel Sans', 'Helvetica', 'Arial', sans-serif" font-size="86.221665" fill="#000000">Clients</text>
            <text id="etc" transform="matrix(0.82809 0.560595 -0.560595 0.82809 575.752833 -665.519546)" xml:space="preserve" x="1321" y="626" font-family="'Funnel Sans', 'Helvetica', 'Arial', sans-serif" font-size="47.999909" fill="#000000">etc...</text>
            <text id="FEDERATION-GATEWAY" xml:space="preserve"><tspan x="731.062408" y="835" font-family="'Funnel Sans', 'Helvetica', 'Arial', sans-serif" font-size="75" fill="#000000" xml:space="preserve">FEDERATION</tspan><tspan x="788.499905" y="929" font-family="'Funnel Sans', 'Helvetica', 'Arial', sans-serif" font-size="75" fill="#000000" xml:space="preserve">GATEWAY</tspan></text>
            <path id="KEY" fill="#000000" fill-rule="evenodd" stroke="none" d="M 1703.705811 748.040344 C 1706.136353 743.830444 1709.723145 741.090088 1714.466309 739.819214 C 1719.209473 738.548279 1723.685913 739.128052 1727.895874 741.558655 C 1732.105713 743.989197 1734.846069 747.57605 1736.116943 752.319214 C 1737.387939 757.062378 1736.808105 761.538818 1734.377563 765.748657 C 1731.947021 769.958496 1728.360107 772.698914 1723.616943 773.969849 C 1718.873779 775.240723 1714.397339 774.66095 1710.1875 772.230347 C 1705.977661 769.799805 1703.237305 766.213013 1701.966309 761.469849 C 1700.695435 756.726685 1701.275269 752.250244 1703.705811 748.040344 Z M 1664.915039 725.644531 C 1673.595703 710.609253 1686.236328 700.867676 1702.837402 696.419434 C 1719.438477 691.971191 1735.25647 694.087341 1750.291626 702.767944 C 1765.326904 711.448486 1775.068481 724.089172 1779.516724 740.690247 C 1783.964966 757.291382 1781.848877 773.109253 1773.168213 788.144531 C 1766.918213 798.969849 1758.893555 806.966248 1749.094116 812.133911 C 1739.294556 817.301514 1727.862305 819.220947 1714.796997 817.892273 L 1670.005371 895.473694 C 1669.484497 896.375854 1668.856812 897.115967 1668.12207 897.694092 C 1667.387329 898.272217 1666.427002 898.720154 1665.241211 899.037903 L 1636.070923 906.854065 C 1634.885132 907.171814 1633.791992 907.24231 1632.791382 907.065552 C 1631.790894 906.888855 1630.8396 906.540039 1629.937378 906.019226 C 1629.035278 905.498413 1628.316895 904.833008 1627.782104 904.023132 C 1627.247437 903.213196 1626.821167 902.215393 1626.503418 901.029602 L 1616.843872 857.864685 C 1616.5896 856.916077 1616.529175 855.979065 1616.662476 855.053711 C 1616.795898 854.128296 1617.07959 853.289795 1617.51355 852.538025 C 1617.947632 851.786255 1618.435059 851.115479 1618.976074 850.525696 C 1619.51709 849.935913 1620.230103 849.395386 1621.115112 848.904053 L 1641.375854 839.853027 L 1638.988647 817.425537 C 1638.884766 816.563721 1638.953003 815.751099 1639.193237 814.987671 C 1639.433472 814.224304 1639.77063 813.466736 1640.204712 812.714966 C 1640.638672 811.963196 1641.163818 811.314148 1641.780029 810.767761 C 1642.396118 810.221436 1643.103394 809.77771 1643.901611 809.436707 L 1661.697754 802.571228 L 1668.338379 791.069336 C 1661.487427 782.102173 1657.489746 771.925781 1656.345337 760.539917 C 1655.200806 749.154053 1658.057373 737.522339 1664.915039 725.644531 Z M 1678.446777 733.457031 C 1673.411987 742.17749 1671.662109 751.892212 1673.197266 762.60144 C 1674.7323 773.310791 1679.40271 782.321899 1687.208618 789.635254 L 1672.364868 815.345337 L 1655.184814 821.664429 C 1655.271606 821.514099 1655.271606 821.514099 1655.184814 821.664429 C 1655.098022 821.814819 1655.098022 821.814819 1655.184814 821.664429 C 1655.184814 821.664429 1655.163086 821.702026 1655.119751 821.777222 C 1655.076294 821.852417 1655.098022 821.814819 1655.184814 821.664429 L 1657.934692 849.713989 L 1633.274902 860.134338 C 1633.274902 860.134338 1633.296631 860.096741 1633.340088 860.021545 C 1633.383423 859.946411 1633.361694 859.983948 1633.274902 860.134338 C 1633.274902 860.134338 1633.274902 860.134338 1633.274902 860.134338 C 1633.274902 860.134338 1633.274902 860.134338 1633.274902 860.134338 L 1640.023926 889.590637 C 1640.023926 889.590637 1639.9646 889.606506 1639.846069 889.638306 C 1639.727417 889.670044 1639.786743 889.654175 1640.023926 889.590637 C 1639.937134 889.740967 1639.915405 889.778564 1639.958862 889.703369 C 1640.002197 889.628174 1640.023926 889.590637 1640.023926 889.590637 L 1658.166382 884.72937 C 1658.166382 884.72937 1658.166382 884.72937 1658.166382 884.72937 C 1658.166382 884.72937 1658.166382 884.72937 1658.166382 884.72937 L 1706.603882 800.83313 C 1716.065308 803.890015 1725.923828 803.567871 1736.17981 799.866577 C 1746.435791 796.165283 1754.254639 789.65387 1759.636597 780.332031 C 1766.147095 769.055542 1767.734131 757.192139 1764.397949 744.741333 C 1761.061768 732.290527 1753.755615 722.810059 1742.479126 716.299561 C 1731.202759 709.789124 1719.339355 708.202026 1706.888428 711.538208 C 1694.437622 714.87439 1684.957153 722.180542 1678.446777 733.457031 Z"/>
            <path id="DEVICEs" fill="#000000" fill-rule="evenodd" stroke="none" d="M 319.571869 435.4375 L 319.571869 435.4375 C 319.571869 435.4375 319.571869 435.4375 319.571869 435.4375 C 319.571869 435.4375 319.571869 435.4375 319.571869 435.4375 L 319.571869 435.4375 C 319.571869 435.4375 319.571869 435.4375 319.571869 435.4375 C 319.571869 435.4375 319.571869 435.4375 319.571869 435.4375 L 319.571869 435.4375 C 319.571869 435.4375 319.571869 435.4375 319.571869 435.4375 C 319.571869 435.4375 319.571869 435.4375 319.571869 435.4375 Z M 308.040619 581.5 L 169.28125 581.5 C 166.014038 581.5 163.275406 580.388916 161.065231 578.166748 C 158.855072 575.94458 157.75 573.189941 157.75 569.90271 C 157.75 566.615479 158.855072 563.882813 161.065231 561.704712 C 163.275406 559.52655 166.014038 558.4375 169.28125 558.4375 L 308.040619 558.4375 C 311.307831 558.4375 314.046478 559.548584 316.256653 561.770752 C 318.466797 563.99292 319.571869 566.747559 319.571869 570.03479 C 319.571869 573.322021 318.466797 576.054688 316.256653 578.232788 C 314.046478 580.41095 311.307831 581.5 308.040619 581.5 Z M 196.1875 535.375 C 190.037476 535.375 184.656281 533.068787 180.043747 528.456238 C 175.431229 523.84375 173.125 518.462524 173.125 512.3125 L 173.125 358.5625 C 173.125 352.412476 175.431229 347.03125 180.043747 342.418762 C 184.656281 337.806213 190.037476 335.5 196.1875 335.5 L 438.34375 335.5 C 441.610962 335.5 444.349609 336.611084 446.559753 338.833252 C 448.769928 341.05542 449.875 343.810059 449.875 347.09729 C 449.875 350.384521 448.769928 353.117188 446.559753 355.295288 C 444.349609 357.47345 441.610962 358.5625 438.34375 358.5625 L 196.1875 358.5625 C 196.1875 358.5625 196.1875 358.5625 196.1875 358.5625 C 196.1875 358.5625 196.1875 358.5625 196.1875 358.5625 L 196.1875 512.3125 C 196.1875 512.3125 196.1875 512.3125 196.1875 512.3125 C 196.1875 512.3125 196.1875 512.3125 196.1875 512.3125 L 308.040619 512.3125 C 311.307831 512.3125 314.046478 513.423584 316.256653 515.645752 C 318.466797 517.86792 319.571869 520.622559 319.571869 523.90979 C 319.571869 527.197021 318.466797 529.929688 316.256653 532.107788 C 314.046478 534.28595 311.307831 535.375 308.040619 535.375 Z M 442.1875 558.4375 L 442.1875 404.6875 C 442.1875 404.6875 442.1875 404.6875 442.1875 404.6875 C 442.1875 404.6875 442.1875 404.6875 442.1875 404.6875 L 365.696869 404.6875 C 365.696869 404.6875 365.696869 404.6875 365.696869 404.6875 C 365.696869 404.6875 365.696869 404.6875 365.696869 404.6875 L 365.696869 558.4375 C 365.696869 558.4375 365.696869 558.4375 365.696869 558.4375 C 365.696869 558.4375 365.696869 558.4375 365.696869 558.4375 L 442.1875 558.4375 C 442.1875 558.4375 442.1875 558.4375 442.1875 558.4375 C 442.1875 558.4375 442.1875 558.4375 442.1875 558.4375 Z M 359.931244 581.5 C 355.318726 581.5 351.282837 579.770325 347.823425 576.310913 C 344.364044 572.851563 342.634369 568.815674 342.634369 564.203125 L 342.634369 398.921875 C 342.634369 394.309326 344.364044 390.273438 347.823425 386.814087 C 351.282837 383.354675 355.318726 381.625 359.931244 381.625 L 447.953125 381.625 C 452.565643 381.625 456.601532 383.354675 460.060944 386.814087 C 463.520325 390.273438 465.25 394.309326 465.25 398.921875 L 465.25 564.203125 C 465.25 568.815674 463.520325 572.851563 460.060944 576.310913 C 456.601532 579.770325 452.565643 581.5 447.953125 581.5 Z M 404.134369 443.125 C 407.209381 443.125 409.899994 441.971924 412.206238 439.665649 C 414.512512 437.359375 415.665619 434.668762 415.665619 431.59375 C 415.665619 428.518738 414.512512 425.828125 412.206238 423.521851 C 409.899994 421.215576 407.147339 420.0625 403.948181 420.0625 C 400.997314 420.0625 398.368774 421.215576 396.0625 423.521851 C 393.756226 425.828125 392.603119 428.580811 392.603119 431.779907 C 392.603119 434.730835 393.756226 437.359375 396.0625 439.665649 C 398.368774 441.971924 401.059357 443.125 404.134369 443.125 Z M 404.134369 481.5625 C 404.134369 481.5625 404.134369 481.5625 404.134369 481.5625 C 404.134369 481.5625 404.134369 481.5625 404.134369 481.5625 L 404.134369 481.5625 C 404.134369 481.5625 404.134369 481.5625 404.134369 481.5625 C 404.134369 481.5625 404.134369 481.5625 404.134369 481.5625 L 404.134369 481.5625 C 404.134369 481.5625 404.134369 481.5625 404.134369 481.5625 C 404.134369 481.5625 404.134369 481.5625 404.134369 481.5625 L 404.134369 481.5625 C 404.134369 481.5625 404.134369 481.5625 404.134369 481.5625 C 404.134369 481.5625 404.134369 481.5625 404.134369 481.5625 Z"/>
            <path id="ASSUREDWORKLOAD" fill="#000000" fill-rule="evenodd" stroke="none" d="M 884.208313 512.427063 L 884.208313 439.770813 C 884.208313 437.557251 884.961121 435.701843 886.466614 434.204407 C 887.972168 432.707031 889.838501 431.958313 892.065613 431.958313 C 894.292725 431.958313 896.144104 432.707031 897.619812 434.204407 C 899.09552 435.701843 899.833313 437.557251 899.833313 439.770813 L 899.833313 512.427063 C 899.833313 514.640625 899.080566 516.496094 897.575012 517.993469 C 896.069458 519.490906 894.203186 520.239563 891.976074 520.239563 C 889.748962 520.239563 887.897583 519.490906 886.421875 517.993469 C 884.946167 516.496094 884.208313 514.640625 884.208313 512.427063 Z M 947.229187 512.427063 L 947.229187 439.770813 C 947.229187 437.557251 947.981934 435.701843 949.487488 434.204407 C 950.993042 432.707031 952.859314 431.958313 955.086426 431.958313 C 957.313538 431.958313 959.164917 432.707031 960.640625 434.204407 C 962.116333 435.701843 962.854187 437.557251 962.854187 439.770813 L 962.854187 512.427063 C 962.854187 514.640625 962.10144 516.496094 960.595886 517.993469 C 959.090332 519.490906 957.223999 520.239563 954.996887 520.239563 C 952.769775 520.239563 950.918396 519.490906 949.442688 517.993469 C 947.96698 516.496094 947.229187 514.640625 947.229187 512.427063 Z M 1051.395874 416.333313 L 855.822937 416.333313 C 854.160034 416.333313 852.746094 415.750793 851.580994 414.585693 C 850.415894 413.420593 849.833313 412.006592 849.833313 410.34375 L 849.833313 405.916687 C 849.833313 404.875 850.137146 403.876709 850.744812 402.921875 C 851.352417 401.967041 852.090271 401.229187 852.958313 400.708313 L 946.1875 347.583374 C 948.647888 346.194458 951.252075 345.5 954 345.5 C 956.747925 345.5 959.352112 346.194458 961.8125 347.583374 L 1054.78125 400.447937 C 1055.822876 401.142334 1056.647583 402.010376 1057.255249 403.052063 C 1057.862793 404.09375 1058.166626 405.265625 1058.166626 406.567688 L 1058.166626 409.23291 C 1058.166626 411.243042 1057.5177 412.928955 1056.219604 414.29071 C 1054.921631 415.652466 1053.313721 416.333313 1051.395874 416.333313 Z M 884.729187 400.708313 L 1023.270813 400.708313 L 954 361.125 C 954 361.125 954 361.125 954 361.125 C 954 361.125 954 361.125 954 361.125 Z M 857.645813 551.489563 C 855.432251 551.489563 853.576843 550.736816 852.079407 549.231262 C 850.582031 547.725769 849.833313 545.859436 849.833313 543.632324 C 849.833313 541.405212 850.582031 539.553833 852.079407 538.078125 C 853.576843 536.602417 855.432251 535.864563 857.645813 535.864563 L 972.229187 535.864563 C 974.442749 535.864563 976.298157 536.61731 977.795593 538.122864 C 979.292969 539.628418 980.041687 541.494751 980.041687 543.721863 C 980.041687 545.948975 979.292969 547.800354 977.795593 549.276062 C 976.298157 550.75177 974.442749 551.489563 972.229187 551.489563 Z M 1015.934387 471.802063 C 1013.707275 471.802063 1011.855896 471.053406 1010.380188 469.555969 C 1008.904541 468.058594 1008.166687 466.203125 1008.166687 463.989563 L 1008.166687 439.770813 C 1008.166687 437.557251 1008.919434 435.701843 1010.424988 434.204407 C 1011.930542 432.707031 1013.796814 431.958313 1016.023926 431.958313 C 1018.251038 431.958313 1020.102417 432.707031 1021.578125 434.204407 C 1023.053833 435.701843 1023.791687 437.557251 1023.791687 439.770813 L 1023.791687 463.989563 C 1023.791687 466.203125 1023.03894 468.058594 1021.533386 469.555969 C 1020.027832 471.053406 1018.161499 471.802063 1015.934387 471.802063 Z M 995.666687 526.229187 L 995.666687 504.614563 C 995.666687 503.198547 996.057251 501.846313 996.838562 500.5578 C 997.619812 499.269287 998.704834 498.277771 1000.09375 497.583313 L 1033.947876 480.65625 C 1034.940796 480.135437 1036.057007 479.875 1037.296753 479.875 C 1038.536377 479.875 1039.677124 480.135437 1040.71875 480.65625 L 1074.572876 497.583313 C 1075.961792 498.277771 1077.046875 499.269287 1077.828125 500.5578 C 1078.609375 501.846313 1079 503.198547 1079 504.614563 L 1079 526.229187 C 1079 539.770874 1075.571167 551.142334 1068.713501 560.34375 C 1061.855835 569.545166 1052.4375 576.663208 1040.458374 581.697876 C 1039.763916 582.045166 1038.722168 582.21875 1037.333374 582.21875 C 1037.333374 582.21875 1036.291626 582.045166 1034.208374 581.697876 C 1022.229126 576.663208 1012.810791 569.545166 1005.953125 560.34375 C 999.095459 551.142334 995.666687 539.770874 995.666687 526.229187 Z M 1031.864624 537.166687 L 1020.145813 525.447937 C 1019.104126 524.40625 1017.888916 523.885437 1016.5 523.885437 C 1015.111084 523.885437 1013.895874 524.40625 1012.854187 525.447937 C 1011.8125 526.489563 1011.291687 527.704834 1011.291687 529.09375 C 1011.291687 530.482666 1011.8125 531.697937 1012.854187 532.739563 L 1026.395874 546.28125 C 1027.958374 547.84375 1029.78125 548.625 1031.864624 548.625 C 1033.947876 548.625 1035.770874 547.84375 1037.333374 546.28125 L 1065.197876 518.416687 C 1066.239624 517.375 1066.760376 516.159729 1066.760376 514.770813 C 1066.760376 513.381958 1066.239624 512.166687 1065.197876 511.125 C 1064.15625 510.083313 1062.940918 509.5625 1061.552124 509.5625 C 1060.163208 509.5625 1058.947876 510.083313 1057.90625 511.125 Z M 884.729187 400.708313 L 954 400.708313 L 1023.270813 400.708313 Z"/>
            <g id="Line-copy-2">
                <g id="g1" opacity="0.65">
                    <path id="path7" fill="none" stroke="#000000" stroke-width="6.736068" stroke-linecap="round" d="M 501.178619 459.75824 L 724.451111 459.759583"/>
                    <path id="path8" fill="#000000" stroke="none" d="M 704.153748 479.878662 L 744.748535 459.759583 L 704.153748 439.640564 L 704.153748 479.878662 Z"/>
                </g>
            </g>
            <g id="Line-copy-3">
                <g id="g2" opacity="0.65">
                    <path id="path19" fill="none" stroke="#000000" stroke-width="6.736068" stroke-linecap="round" d="M 1170.993408 459.759583 L 1518.755127 459.762329"/>
                    <path id="path20" fill="#000000" stroke="none" d="M 1498.457764 479.881348 L 1539.05249 459.762329 L 1498.457764 439.643311 L 1498.457764 479.881348 Z"/>
                </g>
            </g>
            <g id="Line-copy-5">
                <g id="g3" opacity="0.65">
                    <path id="path21" fill="none" stroke="#000000" stroke-width="6.736068" stroke-linecap="round" stroke-dasharray="5 25 5 0" stroke-dashoffset="0" d="M 1169.640259 518.776794 L 1502.138306 749.992676"/>
                    <path id="path22" fill="#000000" stroke="#000000" stroke-width="0.996938" stroke-linejoin="round" stroke-dasharray="0.74 3.71 0.74 0" stroke-dashoffset="0" d="M 1473.87085 754.907104 L 1518.755127 761.546387 L 1497.185913 721.966919 L 1473.87085 754.907104 Z"/>
                </g>
            </g>
            <g id="Line-copy-4">
                <g id="g4" opacity="0.65">
                    <path id="path23" fill="none" stroke="#000000" stroke-width="6.736068" stroke-linecap="round" d="M 1169.640259 394.037476 L 1521.596802 187.019348"/>
                    <path id="path24" fill="#000000" stroke="none" d="M 1514.506226 214.589172 L 1539.05249 176.753296 L 1493.789429 179.984436 L 1514.506226 214.589172 Z"/>
                </g>
            </g>
            <g id="Entra">
                <g id="g5">
                    <path id="Path" fill="#225086" stroke="none" d="M 1656.988525 229.414429 C 1661.363647 232.119324 1668.636963 235.126038 1676.327393 235.126038 C 1683.329956 235.126038 1689.836426 233.114136 1695.226563 229.682678 C 1695.226563 229.682678 1695.237793 229.682678 1695.249023 229.671509 L 1715.602783 217.063599 L 1715.602783 262.588501 C 1712.377808 262.588501 1709.130249 261.716675 1706.311157 259.973022 L 1656.988525 229.414429 Z"/>
                    <path id="path1" fill="#66ddff" stroke="none" d="M 1702.668945 89.419495 L 1618.096436 183.978943 C 1611.567505 191.288879 1613.270142 202.33197 1621.738647 207.574097 C 1621.738647 207.574097 1653.041748 226.966614 1656.988525 229.414429 C 1661.363647 232.119324 1668.636963 235.126038 1676.327393 235.126038 C 1683.329956 235.126038 1689.836426 233.114136 1695.226563 229.682678 C 1695.226563 229.682678 1695.237793 229.682678 1695.249023 229.671509 L 1715.602783 217.063599 L 1666.392944 186.572083 L 1715.614136 131.535339 L 1715.614136 83.752625 C 1710.832886 83.752625 1706.06311 85.641602 1702.680176 89.419495 L 1702.668945 89.419495 Z"/>
                    <path id="path2" fill="#cbf8ff" stroke="none" d="M 1666.392944 186.572083 L 1666.97937 186.929749 L 1715.602783 217.063599 L 1715.614136 217.063599 L 1715.614136 131.546509 L 1715.602783 131.535339 L 1666.392944 186.572083 Z"/>
                    <path id="path3" fill="#074793" stroke="none" d="M 1809.466919 207.574097 C 1817.935425 202.33197 1819.638184 191.288879 1813.109253 183.978943 L 1757.618408 121.934082 C 1753.141724 119.866272 1748.123779 118.681519 1742.812622 118.681519 C 1732.381958 118.681519 1723.056519 123.141235 1716.854492 130.149353 L 1715.625366 131.52417 L 1764.835205 186.560913 L 1715.614136 217.052429 L 1715.614136 262.577332 C 1718.850464 262.577332 1722.075439 261.705505 1724.894531 259.961853 L 1809.466919 207.562927 L 1809.466919 207.574097 Z"/>
                    <path id="path4" fill="#0294e4" stroke="none" d="M 1715.614136 83.752625 L 1715.614136 131.535339 L 1716.843262 130.160522 C 1723.045166 123.152405 1732.370728 118.692688 1742.80127 118.692688 C 1748.123779 118.692688 1753.130493 119.888672 1757.607178 121.945251 L 1728.525513 89.430664 C 1725.153931 85.652771 1720.372681 83.763794 1715.602783 83.763794 L 1715.614136 83.752625 Z"/>
                    <path id="path5" fill="#96bcc2" stroke="none" d="M 1764.823975 186.572083 L 1715.614136 131.546509 L 1715.614136 217.052429 L 1764.823975 186.572083 Z"/>
                </g>
            </g>
            <g id="Google">
                <g id="g6">
                    <path id="path6" fill="#4285f4" stroke="none" d="M 1804.911255 499.287231 C 1804.911255 492.748535 1804.319336 486.461365 1803.219849 480.425659 L 1715.602783 480.425659 L 1715.602783 516.136902 L 1765.669678 516.136902 C 1763.470825 527.621521 1756.874146 537.345764 1746.979248 543.884399 L 1746.979248 567.105164 L 1777.171509 567.105164 C 1794.762573 551.009949 1804.911255 527.370056 1804.911255 499.287231 Z"/>
                    <path id="path9" fill="#34a853" stroke="none" d="M 1715.602783 589.403748 C 1740.720825 589.403748 1761.779419 581.188477 1777.171509 567.105164 L 1746.979248 543.884399 C 1738.69104 549.417175 1728.119507 552.770325 1715.602783 552.770325 C 1691.415161 552.770325 1670.864014 536.591309 1663.506226 514.795654 L 1632.552734 514.795654 L 1632.552734 538.60321 C 1647.860352 568.697937 1679.236694 589.403748 1715.602783 589.403748 Z"/>
                    <path id="path10" fill="#fbbc05" stroke="none" d="M 1663.506226 514.711853 C 1661.64563 509.179077 1660.546143 503.311035 1660.546143 497.191528 C 1660.546143 491.07196 1661.64563 485.203918 1663.506226 479.671204 L 1663.506226 455.863647 L 1632.552734 455.863647 C 1626.209717 468.270386 1622.57312 482.269897 1622.57312 497.191528 C 1622.57312 512.113098 1626.209717 526.11261 1632.552734 538.519348 L 1656.655884 519.909241 L 1663.506226 514.711853 Z"/>
                    <path id="path11" fill="#ea4335" stroke="none" d="M 1715.602783 441.696472 C 1729.303589 441.696472 1741.482056 446.39093 1751.207764 455.444519 L 1777.848145 429.038269 C 1761.694824 414.116638 1740.720825 404.979248 1715.602783 404.979248 C 1679.236694 404.979248 1647.860352 425.68512 1632.552734 455.863647 L 1663.506226 479.671204 C 1670.864014 457.875549 1691.415161 441.696472 1715.602783 441.696472 Z"/>
                    <path id="path12" fill="none" stroke="none" d="M 1622.57312 404.979248 L 1808.632446 404.979248 L 1808.632446 589.403748 L 1622.57312 589.403748 Z"/>
                </g>
            </g>
        </g>
    </g>
</svg>
