<?xml version="1.0" encoding="UTF-8"?>
<!-- Generated by Pixelmator Pro 3.8 -->
<svg width="1080" height="1130" viewBox="0 0 1080 1130" xmlns="http://www.w3.org/2000/svg">
    <path id="Rectangle-copy" fill="#f3f2e9" fill-rule="evenodd" stroke="none" d="M 0 1130 L 1080 1130 L 1080 0 L 0 0 Z"/>
    <g id="Group-copy">
        <g id="Rounded-Rectangle">
            <path id="path1" fill="none" stroke="#080808" stroke-width="15" d="M 300 1038 C 300 1060.089966 317.908997 1078 340 1078 L 962 1078 C 984.089966 1078 1002 1060.089966 1002 1038 L 1002 175 C 1002 152.908997 984.089966 135 962 135 L 340 135 C 317.908997 135 300 152.908997 300 175 L 300 1038 Z"/>
        </g>
        <text id="ASPNET-Core-Application" xml:space="preserve"><tspan x="276.516528" y="94" font-family="Funnel Sans" font-size="65" fill="#000000" xml:space="preserve">A</tspan><tspan font-family="Funnel Sans" font-size="65" fill="#000000" xml:space="preserve">SP.NE</tspan><tspan font-family="Funnel Sans" font-size="65" fill="#000000" xml:space="preserve">T</tspan><tspan font-family="Funnel Sans" font-size="65" fill="#000000" xml:space="preserve"> C</tspan><tspan font-family="Funnel Sans" font-size="65" fill="#000000" xml:space="preserve">ore </tspan><tspan font-family="Funnel Sans" font-size="65" fill="#000000" xml:space="preserve">A</tspan><tspan font-family="Funnel Sans" font-size="65" fill="#000000" xml:space="preserve">p</tspan><tspan font-family="Funnel Sans" font-size="65" fill="#000000" xml:space="preserve">p</tspan><tspan font-family="Funnel Sans" font-size="65" fill="#000000" xml:space="preserve">l</tspan><tspan font-family="Funnel Sans" font-size="65" fill="#000000" xml:space="preserve">i</tspan><tspan font-family="Funnel Sans" font-size="65" fill="#000000" xml:space="preserve">c</tspan><tspan font-family="Funnel Sans" font-size="65" fill="#000000" xml:space="preserve">a</tspan><tspan font-family="Funnel Sans" font-size="65" fill="#000000" xml:space="preserve">t</tspan><tspan font-family="Funnel Sans" font-size="65" fill="#000000" xml:space="preserve">i</tspan><tspan font-family="Funnel Sans" font-size="65" fill="#000000" xml:space="preserve">o</tspan><tspan font-family="Funnel Sans" font-size="65" fill="#000000" xml:space="preserve">n</tspan></text>
        <g id="g1">
            <g id="g4">
                <path id="path12" fill="none" stroke="#212121" stroke-width="10" d="M 300 928 L 50 928.893005"/>
                <path id="path13" fill="#212121" stroke="none" d="M 50.106995 958.893005 C 33.539001 958.952026 20.059021 945.567993 20 929 C 19.940979 912.432007 33.323975 898.952026 49.893005 898.893005 C 66.460999 898.833984 79.940002 912.21698 80 928.786011 C 80.059021 945.354004 66.674988 958.833008 50.106995 958.893005 Z"/>
            </g>
            <g id="g4-copy">
                <path id="path2" fill="none" stroke="#212121" stroke-width="10" d="M 300 828 L 50 828.893005"/>
                <path id="path3" fill="#212121" stroke="none" d="M 50.106995 858.893005 C 33.539001 858.952026 20.059021 845.567993 20 829 C 19.940979 812.432007 33.323975 798.952026 49.893005 798.893005 C 66.460999 798.833984 79.940002 812.21698 80 828.786011 C 80.059021 845.354004 66.674988 858.833008 50.106995 858.893005 Z"/>
            </g>
            <g id="g4-copy-2">
                <path id="path4" fill="none" stroke="#212121" stroke-width="10" d="M 300 724 L 50 724.893005"/>
                <path id="path5" fill="#212121" stroke="none" d="M 50.106995 754.893005 C 33.539001 754.952026 20.059021 741.567993 20 725 C 19.940979 708.432007 33.323975 694.952026 49.893005 694.893005 C 66.460999 694.833984 79.940002 708.21698 80 724.786011 C 80.059021 741.354004 66.674988 754.833008 50.106995 754.893005 Z"/>
            </g>
            <g id="g4-copy-3">
                <path id="path6" fill="none" stroke="#212121" stroke-width="10" d="M 299 470 L 49 470.893005"/>
                <path id="path7" fill="#212121" stroke="none" d="M 49.106995 500.893005 C 32.539001 500.952026 19.059021 487.567993 19 471 C 18.940979 454.432007 32.323975 440.952026 48.893005 440.893005 C 65.460999 440.833984 78.940002 454.21698 79 470.786011 C 79.059021 487.354004 65.674988 500.833008 49.106995 500.893005 Z"/>
            </g>
            <g id="g4-copy-4">
                <path id="path8" fill="none" stroke="#212121" stroke-width="10" d="M 299 369 L 49 369.893005"/>
                <path id="path9" fill="#212121" stroke="none" d="M 49.106995 399.893005 C 32.539001 399.952026 19.059021 386.567993 19 370 C 18.940979 353.432007 32.323975 339.952026 48.893005 339.893005 C 65.460999 339.833984 78.940002 353.21698 79 369.786011 C 79.059021 386.354004 65.674988 399.833008 49.106995 399.893005 Z"/>
            </g>
            <g id="g4-copy-5">
                <path id="path10" fill="none" stroke="#212121" stroke-width="10" d="M 299 269 L 49 269.893005"/>
                <path id="path11" fill="#212121" stroke="none" d="M 49.106995 299.893005 C 32.539001 299.952026 19.059021 286.567993 19 270 C 18.940979 253.432007 32.323975 239.952026 48.893005 239.893005 C 65.460999 239.833984 78.940002 253.21698 79 269.786011 C 79.059021 286.354004 65.674988 299.833008 49.106995 299.893005 Z"/>
            </g>
        </g>
        <g id="Your-Code"/>
        <text id="IdentityServer-Middleware" xml:space="preserve"><tspan x="446.654031" y="823" font-family="Funnel Sans" font-size="65" fill="#000000" xml:space="preserve">IdentityServer</tspan><tspan x="482.729084" y="904" font-family="Funnel Sans" font-size="65" fill="#000000" xml:space="preserve">Middl</tspan><tspan font-family="Funnel Sans" font-size="65" fill="#000000" xml:space="preserve">e</tspan><tspan font-family="Funnel Sans" font-size="65" fill="#000000" xml:space="preserve">w</tspan><tspan font-family="Funnel Sans" font-size="65" fill="#000000" xml:space="preserve">are</tspan></text>
        <text id="YOUR-CODE" xml:space="preserve" x="471" y="507" font-family="Funnel Sans" font-size="65" fill="#000000">YOUR CODE</text>
        <path id="SETTINGS" fill="#000000" fill-rule="evenodd" stroke="none" d="M 636.09375 398.5 C 634.052124 398.5 632.229126 397.84375 630.625 396.53125 C 629.020874 395.21875 628.072876 393.541687 627.78125 391.5 L 624.5 370.9375 C 621.729126 369.916687 618.8125 368.53125 615.75 366.78125 C 612.6875 365.03125 609.989624 363.208374 607.65625 361.3125 L 588.84375 370.0625 C 586.802063 370.9375 584.760437 371.046875 582.71875 370.390625 C 580.677063 369.734375 579.072937 368.458374 577.90625 366.5625 L 565.21875 343.8125 C 564.052063 341.916626 563.723938 339.947937 564.234375 337.90625 C 564.744812 335.864563 565.875 334.1875 567.625 332.875 L 585.125 319.96875 C 584.833313 318.65625 584.651062 317.161499 584.578125 315.484375 C 584.505188 313.807251 584.46875 312.3125 584.46875 311 C 584.46875 309.6875 584.505188 308.192749 584.578125 306.515625 C 584.651062 304.838501 584.833313 303.34375 585.125 302.03125 L 567.625 289.125 C 565.875 287.8125 564.744812 286.135437 564.234375 284.09375 C 563.723938 282.052063 564.052063 280.083374 565.21875 278.1875 L 577.90625 255.4375 C 579.072937 253.541626 580.677063 252.265625 582.71875 251.609375 C 584.760437 250.953125 586.802063 251.0625 588.84375 251.9375 L 607.65625 260.6875 C 609.989624 258.791626 612.6875 256.96875 615.75 255.21875 C 618.8125 253.46875 621.729126 252.15625 624.5 251.28125 L 627.78125 230.5 C 628.072876 228.458313 629.020874 226.78125 630.625 225.46875 C 632.229126 224.15625 634.052124 223.5 636.09375 223.5 L 661.90625 223.5 C 663.947876 223.5 665.770874 224.15625 667.375 225.46875 C 668.979126 226.78125 669.927124 228.458313 670.21875 230.5 L 673.5 251.0625 C 676.270874 252.083374 679.223877 253.432251 682.359375 255.109375 C 685.494873 256.786499 688.15625 258.645813 690.34375 260.6875 L 709.15625 251.9375 C 711.197876 251.0625 713.203125 250.953125 715.171875 251.609375 C 717.140625 252.265625 718.708374 253.541626 719.875 255.4375 L 732.78125 278.1875 C 733.947876 280.083374 734.276001 282.088501 733.765625 284.203125 C 733.255249 286.317749 732.125 287.958313 730.375 289.125 L 712.875 301.59375 C 713.166626 303.052124 713.348999 304.619751 713.421875 306.296875 C 713.494751 307.973999 713.53125 309.541626 713.53125 311 C 713.53125 312.458374 713.494751 313.989563 713.421875 315.59375 C 713.348999 317.197937 713.166626 318.729126 712.875 320.1875 L 730.375 332.875 C 732.125 334.041687 733.255249 335.682251 733.765625 337.796875 C 734.276001 339.911499 733.947876 341.916626 732.78125 343.8125 L 720.09375 366.5625 C 718.927124 368.458374 717.322876 369.734375 715.28125 370.390625 C 713.239624 371.046875 711.197876 370.9375 709.15625 370.0625 L 690.34375 361.3125 C 688.010376 363.208374 685.348999 365.067688 682.359375 366.890625 C 679.369751 368.713562 676.416748 370.0625 673.5 370.9375 L 670.21875 391.5 C 669.927124 393.541687 668.979126 395.21875 667.375 396.53125 C 665.770874 397.84375 663.947876 398.5 661.90625 398.5 Z M 639.375 385.375 L 658.625 385.375 L 661.6875 360.875 C 666.5 359.708313 671.057251 357.885437 675.359375 355.40625 C 679.661499 352.927063 683.5625 349.9375 687.0625 346.4375 L 710.25 356.5 L 719 340.75 L 698.4375 325.65625 C 699.020874 323.177063 699.494751 320.734375 699.859375 318.328125 C 700.223999 315.921875 700.40625 313.479187 700.40625 311 C 700.40625 308.520813 700.260376 306.078125 699.96875 303.671875 C 699.677124 301.265625 699.166626 298.822937 698.4375 296.34375 L 719 281.25 L 710.25 265.5 L 687.0625 275.5625 C 683.708252 271.770813 679.916748 268.598999 675.6875 266.046875 C 671.458252 263.494751 666.791748 261.854187 661.6875 261.125 L 658.625 236.625 L 639.375 236.625 L 636.3125 261.125 C 631.354126 262.145874 626.723999 263.895813 622.421875 266.375 C 618.119751 268.854187 614.291687 271.916626 610.9375 275.5625 L 587.75 265.5 L 579 281.25 L 599.5625 296.34375 C 598.979187 298.822937 598.505188 301.265625 598.140625 303.671875 C 597.776062 306.078125 597.59375 308.520813 597.59375 311 C 597.59375 313.479187 597.776062 315.921875 598.140625 318.328125 C 598.505188 320.734375 598.979187 323.177063 599.5625 325.65625 L 579 340.75 L 587.75 356.5 L 610.9375 346.4375 C 614.4375 349.9375 618.338501 352.927063 622.640625 355.40625 C 626.942749 357.885437 631.5 359.708313 636.3125 360.875 Z M 649 339.4375 C 656.875 339.4375 663.583252 336.666687 669.125 331.125 C 674.666748 325.583313 677.4375 318.875061 677.4375 311 C 677.4375 303.124939 674.666748 296.416687 669.125 290.875 C 663.583252 285.333313 656.875 282.5625 649 282.5625 C 641.125 282.5625 634.416748 285.333313 628.875 290.875 C 623.333252 296.416687 620.5625 303.124939 620.5625 311 C 620.5625 318.875061 623.333252 325.583313 628.875 331.125 C 634.416748 336.666687 641.125 339.4375 649 339.4375 Z M 649 311 L 649 311 C 649 311 649 311 649 311 C 649 311 649 311 649 311 L 649 311 L 649 311 L 649 311 C 649 311 649 311 649 311 C 649 311 649 311 649 311 C 649 311 649 311 649 311 C 649 311 649 311 649 311 L 649 311 L 649 311 L 649 311 C 649 311 649 311 649 311 C 649 311 649 311 649 311 L 649 311 L 649 311 L 649 311 C 649 311 649 311 649 311 C 649 311 649 311 649 311 L 649 311 L 649 311 L 649 311 C 649 311 649 311 649 311 C 649 311 649 311 649 311 C 649 311 649 311 649 311 C 649 311 649 311 649 311 L 649 311 L 649 311 L 649 311 C 649 311 649 311 649 311 C 649 311 649 311 649 311 L 649 311 Z"/>
        <g id="g6">
            <path id="path24" fill="none" stroke="#212121" stroke-width="15" d="M 330 547 C 330 569.091003 347.908997 587 370 587 L 933 587 C 955.089966 587 973 569.091003 973 547 L 973 202 C 973 179.908997 955.089966 162 933 162 L 370 162 C 347.908997 162 330 179.908997 330 202 L 330 547 Z"/>
        </g>
        <g id="Rounded-Rectangle-copy">
            <path id="path25" fill="none" stroke="#212121" stroke-width="15" d="M 330 1010 C 330 1032.089966 347.908997 1050 370 1050 L 933 1050 C 955.089966 1050 973 1032.089966 973 1010 L 973 665 C 973 642.908997 955.089966 625 933 625 L 370 625 C 347.908997 625 330 642.908997 330 665 L 330 1010 Z"/>
        </g>
        <g id="g7">
            <text id="login" xml:space="preserve" x="96" y="256" font-family="Funnel Sans" font-size="36" fill="#000000">login</text>
            <text id="logout" xml:space="preserve" x="95" y="358" font-family="Funnel Sans" font-size="36" fill="#000000">logout</text>
            <text id="text1" xml:space="preserve" x="96" y="460" font-family="Funnel Sans" font-size="36" fill="#000000">...</text>
            <text id="authorize" xml:space="preserve" x="96" y="715" font-family="Funnel Sans" font-size="36" fill="#000000">authorize</text>
            <text id="token" xml:space="preserve" x="96" y="816" font-family="Funnel Sans" font-size="36" fill="#000000">token</text>
            <text id="discovery" xml:space="preserve" x="96" y="917" font-family="Funnel Sans" font-size="36" fill="#000000">discovery</text>
        </g>
    </g>
</svg>
