<?xml version="1.0" encoding="UTF-8"?>
<!-- Generated by Pixelmator Pro 3.8 -->
<svg width="1580" height="1130" viewBox="0 0 1580 1130" xmlns="http://www.w3.org/2000/svg">
    <g id="Image-Layer"/>
    <path id="Rectangle" fill="#f3f2e9" fill-rule="evenodd" stroke="none" d="M 0 1130 L 1580 1130 L 1580 0 L 0 0 Z"/>
    <g id="Group">
        <g id="Rounded-Rectangle">
            <path id="path1" fill="none" stroke="#080808" stroke-width="15" d="M 800 1038 C 800 1060.089966 817.908997 1078 840 1078 L 1462 1078 C 1484.089966 1078 1502 1060.089966 1502 1038 L 1502 175 C 1502 152.908997 1484.089966 135 1462 135 L 840 135 C 817.908997 135 800 152.908997 800 175 L 800 1038 Z"/>
        </g>
        <text id="ASPNET-Core-Application" xml:space="preserve"><tspan x="776.516528" y="94" font-family="Funnel Sans" font-size="65" fill="#000000" xml:space="preserve">A</tspan><tspan font-family="Funnel Sans" font-size="65" fill="#000000" xml:space="preserve">SP.NE</tspan><tspan font-family="Funnel Sans" font-size="65" fill="#000000" xml:space="preserve">T</tspan><tspan font-family="Funnel Sans" font-size="65" fill="#000000" xml:space="preserve"> C</tspan><tspan font-family="Funnel Sans" font-size="65" fill="#000000" xml:space="preserve">ore </tspan><tspan font-family="Funnel Sans" font-size="65" fill="#000000" xml:space="preserve">A</tspan><tspan font-family="Funnel Sans" font-size="65" fill="#000000" xml:space="preserve">p</tspan><tspan font-family="Funnel Sans" font-size="65" fill="#000000" xml:space="preserve">p</tspan><tspan font-family="Funnel Sans" font-size="65" fill="#000000" xml:space="preserve">l</tspan><tspan font-family="Funnel Sans" font-size="65" fill="#000000" xml:space="preserve">i</tspan><tspan font-family="Funnel Sans" font-size="65" fill="#000000" xml:space="preserve">c</tspan><tspan font-family="Funnel Sans" font-size="65" fill="#000000" xml:space="preserve">a</tspan><tspan font-family="Funnel Sans" font-size="65" fill="#000000" xml:space="preserve">t</tspan><tspan font-family="Funnel Sans" font-size="65" fill="#000000" xml:space="preserve">i</tspan><tspan font-family="Funnel Sans" font-size="65" fill="#000000" xml:space="preserve">o</tspan><tspan font-family="Funnel Sans" font-size="65" fill="#000000" xml:space="preserve">n</tspan></text>
        <g id="Group-copy">
            <g id="g4">
                <path id="path12" fill="none" stroke="#212121" stroke-width="10" d="M 800 928 L 550 928.893005"/>
                <path id="path13" fill="#212121" stroke="none" d="M 550.106995 958.893005 C 533.539001 958.952026 520.059021 945.567993 520 929 C 519.940979 912.432007 533.323975 898.952026 549.893005 898.893005 C 566.460999 898.833984 579.940002 912.21698 580 928.786011 C 580.059021 945.354004 566.674988 958.833008 550.106995 958.893005 Z"/>
            </g>
            <g id="g4-copy">
                <path id="path2" fill="none" stroke="#212121" stroke-width="10" d="M 800 828 L 550 828.893005"/>
                <path id="path3" fill="#212121" stroke="none" d="M 550.106995 858.893005 C 533.539001 858.952026 520.059021 845.567993 520 829 C 519.940979 812.432007 533.323975 798.952026 549.893005 798.893005 C 566.460999 798.833984 579.940002 812.21698 580 828.786011 C 580.059021 845.354004 566.674988 858.833008 550.106995 858.893005 Z"/>
            </g>
            <g id="g4-copy-2">
                <path id="path4" fill="none" stroke="#212121" stroke-width="10" d="M 800 724 L 550 724.893005"/>
                <path id="path5" fill="#212121" stroke="none" d="M 550.106995 754.893005 C 533.539001 754.952026 520.059021 741.567993 520 725 C 519.940979 708.432007 533.323975 694.952026 549.893005 694.893005 C 566.460999 694.833984 579.940002 708.21698 580 724.786011 C 580.059021 741.354004 566.674988 754.833008 550.106995 754.893005 Z"/>
            </g>
            <g id="g4-copy-3">
                <path id="path6" fill="none" stroke="#212121" stroke-width="10" d="M 799 470 L 549 470.893005"/>
                <path id="path7" fill="#212121" stroke="none" d="M 549.106995 500.893005 C 532.539001 500.952026 519.059021 487.567993 519 471 C 518.940979 454.432007 532.323975 440.952026 548.893005 440.893005 C 565.460999 440.833984 578.940002 454.21698 579 470.786011 C 579.059021 487.354004 565.674988 500.833008 549.106995 500.893005 Z"/>
            </g>
            <g id="g4-copy-4">
                <path id="path8" fill="none" stroke="#212121" stroke-width="10" d="M 799 369 L 549 369.893005"/>
                <path id="path9" fill="#212121" stroke="none" d="M 549.106995 399.893005 C 532.539001 399.952026 519.059021 386.567993 519 370 C 518.940979 353.432007 532.323975 339.952026 548.893005 339.893005 C 565.460999 339.833984 578.940002 353.21698 579 369.786011 C 579.059021 386.354004 565.674988 399.833008 549.106995 399.893005 Z"/>
            </g>
            <g id="g4-copy-5">
                <path id="path10" fill="none" stroke="#212121" stroke-width="10" d="M 799 269 L 549 269.893005"/>
                <path id="path11" fill="#212121" stroke="none" d="M 549.106995 299.893005 C 532.539001 299.952026 519.059021 286.567993 519 270 C 518.940979 253.432007 532.323975 239.952026 548.893005 239.893005 C 565.460999 239.833984 578.940002 253.21698 579 269.786011 C 579.059021 286.354004 565.674988 299.833008 549.106995 299.893005 Z"/>
            </g>
        </g>
        <g id="Your-Code"/>
        <text id="IdentityServer-Middleware" xml:space="preserve"><tspan x="946.654031" y="823" font-family="Funnel Sans" font-size="65" fill="#000000" xml:space="preserve">IdentityServer</tspan><tspan x="982.729084" y="904" font-family="Funnel Sans" font-size="65" fill="#000000" xml:space="preserve">Middl</tspan><tspan font-family="Funnel Sans" font-size="65" fill="#000000" xml:space="preserve">e</tspan><tspan font-family="Funnel Sans" font-size="65" fill="#000000" xml:space="preserve">w</tspan><tspan font-family="Funnel Sans" font-size="65" fill="#000000" xml:space="preserve">are</tspan></text>
        <text id="YOUR-CODE" xml:space="preserve" x="971" y="507" font-family="Funnel Sans" font-size="65" fill="#000000">YOUR CODE</text>
        <path id="SETTINGS" fill="#000000" fill-rule="evenodd" stroke="none" d="M 1136.09375 398.5 C 1134.052124 398.5 1132.229126 397.84375 1130.625 396.53125 C 1129.020874 395.21875 1128.072876 393.541687 1127.78125 391.5 L 1124.5 370.9375 C 1121.729126 369.916687 1118.8125 368.53125 1115.75 366.78125 C 1112.6875 365.03125 1109.989624 363.208374 1107.65625 361.3125 L 1088.84375 370.0625 C 1086.802124 370.9375 1084.760498 371.046875 1082.71875 370.390625 C 1080.677124 369.734375 1079.072998 368.458374 1077.90625 366.5625 L 1065.21875 343.8125 C 1064.052124 341.916626 1063.723999 339.947937 1064.234375 337.90625 C 1064.744873 335.864563 1065.875 334.1875 1067.625 332.875 L 1085.125 319.96875 C 1084.833374 318.65625 1084.651123 317.161499 1084.578125 315.484375 C 1084.505249 313.807251 1084.46875 312.3125 1084.46875 311 C 1084.46875 309.6875 1084.505249 308.192749 1084.578125 306.515625 C 1084.651123 304.838501 1084.833374 303.34375 1085.125 302.03125 L 1067.625 289.125 C 1065.875 287.8125 1064.744873 286.135437 1064.234375 284.09375 C 1063.723999 282.052063 1064.052124 280.083374 1065.21875 278.1875 L 1077.90625 255.4375 C 1079.072998 253.541626 1080.677124 252.265625 1082.71875 251.609375 C 1084.760498 250.953125 1086.802124 251.0625 1088.84375 251.9375 L 1107.65625 260.6875 C 1109.989624 258.791626 1112.6875 256.96875 1115.75 255.21875 C 1118.8125 253.46875 1121.729126 252.15625 1124.5 251.28125 L 1127.78125 230.5 C 1128.072876 228.458313 1129.020874 226.78125 1130.625 225.46875 C 1132.229126 224.15625 1134.052124 223.5 1136.09375 223.5 L 1161.90625 223.5 C 1163.947876 223.5 1165.770874 224.15625 1167.375 225.46875 C 1168.979126 226.78125 1169.927124 228.458313 1170.21875 230.5 L 1173.5 251.0625 C 1176.270874 252.083374 1179.223877 253.432251 1182.359375 255.109375 C 1185.494873 256.786499 1188.15625 258.645813 1190.34375 260.6875 L 1209.15625 251.9375 C 1211.197876 251.0625 1213.203125 250.953125 1215.171875 251.609375 C 1217.140625 252.265625 1218.708374 253.541626 1219.875 255.4375 L 1232.78125 278.1875 C 1233.947876 280.083374 1234.276001 282.088501 1233.765625 284.203125 C 1233.255249 286.317749 1232.125 287.958313 1230.375 289.125 L 1212.875 301.59375 C 1213.166626 303.052124 1213.348999 304.619751 1213.421875 306.296875 C 1213.494751 307.973999 1213.53125 309.541626 1213.53125 311 C 1213.53125 312.458374 1213.494751 313.989563 1213.421875 315.59375 C 1213.348999 317.197937 1213.166626 318.729126 1212.875 320.1875 L 1230.375 332.875 C 1232.125 334.041687 1233.255249 335.682251 1233.765625 337.796875 C 1234.276001 339.911499 1233.947876 341.916626 1232.78125 343.8125 L 1220.09375 366.5625 C 1218.927124 368.458374 1217.322876 369.734375 1215.28125 370.390625 C 1213.239624 371.046875 1211.197876 370.9375 1209.15625 370.0625 L 1190.34375 361.3125 C 1188.010376 363.208374 1185.348999 365.067688 1182.359375 366.890625 C 1179.369751 368.713562 1176.416748 370.0625 1173.5 370.9375 L 1170.21875 391.5 C 1169.927124 393.541687 1168.979126 395.21875 1167.375 396.53125 C 1165.770874 397.84375 1163.947876 398.5 1161.90625 398.5 Z M 1139.375 385.375 L 1158.625 385.375 L 1161.6875 360.875 C 1166.5 359.708313 1171.057251 357.885437 1175.359375 355.40625 C 1179.661499 352.927063 1183.5625 349.9375 1187.0625 346.4375 L 1210.25 356.5 L 1219 340.75 L 1198.4375 325.65625 C 1199.020874 323.177063 1199.494751 320.734375 1199.859375 318.328125 C 1200.223999 315.921875 1200.40625 313.479187 1200.40625 311 C 1200.40625 308.520813 1200.260376 306.078125 1199.96875 303.671875 C 1199.677124 301.265625 1199.166626 298.822937 1198.4375 296.34375 L 1219 281.25 L 1210.25 265.5 L 1187.0625 275.5625 C 1183.708252 271.770813 1179.916748 268.598999 1175.6875 266.046875 C 1171.458252 263.494751 1166.791748 261.854187 1161.6875 261.125 L 1158.625 236.625 L 1139.375 236.625 L 1136.3125 261.125 C 1131.354126 262.145874 1126.723999 263.895813 1122.421875 266.375 C 1118.119751 268.854187 1114.291748 271.916626 1110.9375 275.5625 L 1087.75 265.5 L 1079 281.25 L 1099.5625 296.34375 C 1098.979248 298.822937 1098.505249 301.265625 1098.140625 303.671875 C 1097.776123 306.078125 1097.59375 308.520813 1097.59375 311 C 1097.59375 313.479187 1097.776123 315.921875 1098.140625 318.328125 C 1098.505249 320.734375 1098.979248 323.177063 1099.5625 325.65625 L 1079 340.75 L 1087.75 356.5 L 1110.9375 346.4375 C 1114.4375 349.9375 1118.338501 352.927063 1122.640625 355.40625 C 1126.942749 357.885437 1131.5 359.708313 1136.3125 360.875 Z M 1149 339.4375 C 1156.875 339.4375 1163.583252 336.666687 1169.125 331.125 C 1174.666748 325.583313 1177.4375 318.875061 1177.4375 311 C 1177.4375 303.124939 1174.666748 296.416687 1169.125 290.875 C 1163.583252 285.333313 1156.875 282.5625 1149 282.5625 C 1141.125 282.5625 1134.416748 285.333313 1128.875 290.875 C 1123.333252 296.416687 1120.5625 303.124939 1120.5625 311 C 1120.5625 318.875061 1123.333252 325.583313 1128.875 331.125 C 1134.416748 336.666687 1141.125 339.4375 1149 339.4375 Z M 1149 311 L 1149 311 C 1149 311 1149 311 1149 311 C 1149 311 1149 311 1149 311 L 1149 311 L 1149 311 L 1149 311 C 1149 311 1149 311 1149 311 C 1149 311 1149 311 1149 311 C 1149 311 1149 311 1149 311 C 1149 311 1149 311 1149 311 L 1149 311 L 1149 311 L 1149 311 C 1149 311 1149 311 1149 311 C 1149 311 1149 311 1149 311 L 1149 311 L 1149 311 L 1149 311 C 1149 311 1149 311 1149 311 C 1149 311 1149 311 1149 311 L 1149 311 L 1149 311 L 1149 311 C 1149 311 1149 311 1149 311 C 1149 311 1149 311 1149 311 C 1149 311 1149 311 1149 311 C 1149 311 1149 311 1149 311 L 1149 311 L 1149 311 L 1149 311 C 1149 311 1149 311 1149 311 C 1149 311 1149 311 1149 311 L 1149 311 Z"/>
        <g id="g6">
            <path id="path24" fill="none" stroke="#212121" stroke-width="15" d="M 830 547 C 830 569.091003 847.908997 587 870 587 L 1433 587 C 1455.089966 587 1473 569.091003 1473 547 L 1473 202 C 1473 179.908997 1455.089966 162 1433 162 L 870 162 C 847.908997 162 830 179.908997 830 202 L 830 547 Z"/>
        </g>
        <g id="Rounded-Rectangle-copy">
            <path id="path25" fill="none" stroke="#212121" stroke-width="15" d="M 830 1010 C 830 1032.089966 847.908997 1050 870 1050 L 1433 1050 C 1455.089966 1050 1473 1032.089966 1473 1010 L 1473 665 C 1473 642.908997 1455.089966 625 1433 625 L 870 625 C 847.908997 625 830 642.908997 830 665 L 830 1010 Z"/>
        </g>
        <g id="g7">
            <text id="login" xml:space="preserve" x="596" y="256" font-family="Funnel Sans" font-size="36" fill="#000000">login</text>
            <text id="logout" xml:space="preserve" x="595" y="358" font-family="Funnel Sans" font-size="36" fill="#000000">logout</text>
            <text id="text1" xml:space="preserve" x="596" y="460" font-family="Funnel Sans" font-size="36" fill="#000000">...</text>
            <text id="authorize" xml:space="preserve" x="596" y="715" font-family="Funnel Sans" font-size="36" fill="#000000">authorize</text>
            <text id="token" xml:space="preserve" x="596" y="816" font-family="Funnel Sans" font-size="36" fill="#000000">token</text>
            <text id="discovery" xml:space="preserve" x="596" y="917" font-family="Funnel Sans" font-size="36" fill="#000000">discovery</text>
        </g>
    </g>
    <g id="g8">
        <path id="path26" fill="none" stroke="#212121" stroke-width="10" d="M 34 955 C 34 977.091003 51.909 995 74 995 L 362 995 C 384.091003 995 402 977.091003 402 955 L 402 793 C 402 770.908997 384.091003 753 362 753 L 74 753 C 51.909 753 34 770.908997 34 793 L 34 955 Z"/>
        <text id="Client" xml:space="preserve" x="106" y="908" font-family="Funnel Sans" font-size="84" fill="#000000">Client</text>
    </g>
    <g id="g1"/>
    <g id="g9">
        <path id="path27" fill="none" stroke="#000000" stroke-width="6" d="M 218 725 C 218 725 317.179993 568.893982 480.110992 696.552979"/>
        <path id="path28" fill="#000000" stroke="none" d="M 454.994995 698.06897 L 494 708 L 478.541992 670.838013 L 454.994995 698.06897 Z"/>
    </g>
    <g id="g10">
        <path id="path29" fill="none" stroke="#000000" stroke-width="6" d="M 494 649 C 494 649 45.583 268.671997 464.002014 258.218994"/>
        <path id="path30" fill="#000000" stroke="none" d="M 446 276 L 482 258 L 446 240 L 446 276 Z"/>
    </g>
    <text id="1-httpsserverauthorize" xml:space="preserve" x="36" y="1072" font-family="Funnel Sans" font-size="36" fill="#000000">1. https://server/authorize?...</text>
    <text id="2-loginreturnUrlauthorize" xml:space="preserve" x="129" y="188" font-family="Funnel Sans" font-size="36" fill="#000000">2. /login?returnUrl=/authorize?...</text>
</svg>
