<?xml version="1.0" encoding="UTF-8" standalone="no"?>
<!DOCTYPE svg PUBLIC "-//W3C//DTD SVG 1.1//EN" "http://www.w3.org/Graphics/SVG/1.1/DTD/svg11.dtd">
<svg width="100%" height="100%" viewBox="0 0 1450 818" version="1.1" xmlns="http://www.w3.org/2000/svg" xmlns:xlink="http://www.w3.org/1999/xlink" xml:space="preserve" xmlns:serif="http://www.serif.com/" style="fill-rule:evenodd;clip-rule:evenodd;">
    <rect id="Rectangle" x="-28.684" y="-84" width="1507.37" height="1051" style="fill:white;"/>
    <g id="Group">
        <path id="Rounded-Rectangle" d="M202.032,192.289C202.032,209.827 216.25,224.046 233.789,224.046L357.641,224.046C375.18,224.046 389.398,209.827 389.398,192.289L389.398,94.636C389.398,77.097 375.18,62.879 357.641,62.879L233.789,62.879C216.25,62.879 202.032,77.097 202.032,94.636L202.032,192.289Z" style="fill:none;fill-rule:nonzero;stroke:rgb(145,107,219);stroke-width:7.94px;"/>
        <path id="Rounded-Rectangle-copy" d="M641.867,481.278C641.867,498.817 656.085,513.035 673.624,513.035L1030.1,513.035C1047.64,513.035 1061.85,498.817 1061.85,481.278L1061.85,83.521C1061.85,65.982 1047.64,51.764 1030.1,51.764L673.624,51.764C656.085,51.764 641.867,65.982 641.867,83.521L641.867,481.278Z" style="fill:none;fill-rule:nonzero;stroke:rgb(145,107,219);stroke-width:7.94px;"/>
        <path id="Rounded-Rectangle-copy-2" d="M194.886,493.187C194.886,510.725 209.105,524.944 226.643,524.944L348.114,524.944C365.653,524.944 379.871,510.725 379.871,493.187L379.871,401.091C379.871,383.552 365.653,369.334 348.114,369.334L226.643,369.334C209.105,369.334 194.886,383.552 194.886,401.091L194.886,493.187Z" style="fill:none;fill-rule:nonzero;stroke:rgb(145,107,219);stroke-width:7.94px;"/>
        <path id="Rounded-Rectangle-copy-4" d="M723.641,296.293C723.641,313.832 737.859,328.05 755.398,328.05L968.965,328.05C986.503,328.05 1000.72,313.832 1000.72,296.293L1000.72,267.711C1000.72,250.173 986.503,235.954 968.965,235.954L755.398,235.954C737.859,235.954 723.641,250.173 723.641,267.711L723.641,296.293Z" style="fill:none;fill-rule:nonzero;stroke:rgb(145,107,219);stroke-width:7.94px;"/>
        <path id="Rounded-Rectangle-copy-5" d="M723.641,435.23C723.641,452.769 737.859,466.987 755.398,466.987L968.965,466.987C986.503,466.987 1000.72,452.769 1000.72,435.23L1000.72,406.649C1000.72,389.11 986.503,374.892 968.965,374.892L755.398,374.892C737.859,374.892 723.641,389.11 723.641,406.649L723.641,435.23Z" style="fill:none;fill-rule:nonzero;stroke:rgb(145,107,219);stroke-width:7.94px;"/>
        <g id="duende-icon-id.svg" transform="matrix(1.66038,0,0,1.66038,1103.42,655.33)">
            <g>
                <path d="M102.97,4.517L102.97,57.943C102.97,60.436 100.946,62.46 98.453,62.46L4.517,62.46C2.024,62.46 0,60.436 0,57.943L0,4.517C0,2.024 2.024,0 4.517,0L98.453,0C100.946,0 102.97,2.024 102.97,4.517Z" style="fill:url(#_Linear1);"/>
                <path d="M44.79,11.558L44.79,50.902C44.79,52.065 43.845,53.01 42.682,53.01L11.888,53.01C10.725,53.01 9.78,52.065 9.78,50.902L9.78,11.558C9.78,10.395 10.725,9.45 11.888,9.45L42.682,9.45C43.845,9.45 44.79,10.395 44.79,11.558Z" style="fill:url(#_Linear2);"/>
                <g>
                    <circle cx="27.29" cy="24.45" r="8.24" style="fill:url(#_Linear3);"/>
                    <path d="M27.29,34.62C34.26,34.62 39.92,40.28 39.92,47.25L39.92,53.01L14.65,53.01L14.65,47.25C14.65,40.28 20.31,34.62 27.28,34.62L27.29,34.62Z" style="fill:url(#_Linear4);fill-rule:nonzero;"/>
                </g>
                <path d="M93.19,13.102L93.19,16.088C93.19,17.331 92.181,18.34 90.938,18.34L53.142,18.34C51.899,18.34 50.89,17.331 50.89,16.088L50.89,13.102C50.89,11.859 51.899,10.85 53.142,10.85L90.938,10.85C92.181,10.85 93.19,11.859 93.19,13.102Z" style="fill:url(#_Linear5);"/>
                <path d="M61.3,49.927L61.3,50.893C61.3,51.289 60.979,51.61 60.583,51.61L52.557,51.61C52.161,51.61 51.84,51.289 51.84,50.893L51.84,49.927C51.84,49.531 52.161,49.21 52.557,49.21L60.583,49.21C60.979,49.21 61.3,49.531 61.3,49.927Z" style="fill:url(#_Linear6);"/>
                <path d="M72.62,49.927L72.62,50.893C72.62,51.289 72.299,51.61 71.903,51.61L63.877,51.61C63.481,51.61 63.16,51.289 63.16,50.893L63.16,49.927C63.16,49.531 63.481,49.21 63.877,49.21L71.903,49.21C72.299,49.21 72.62,49.531 72.62,49.927Z" style="fill:url(#_Linear7);"/>
                <path d="M85.87,24.491L85.87,25.709C85.87,26.217 85.457,26.63 84.949,26.63L52.411,26.63C51.903,26.63 51.49,26.217 51.49,25.709L51.49,24.491C51.49,23.983 51.903,23.57 52.411,23.57L84.949,23.57C85.457,23.57 85.87,23.983 85.87,24.491Z" style="fill:url(#_Linear8);"/>
                <path d="M79.71,30.311L79.71,31.529C79.71,32.037 79.297,32.45 78.789,32.45L52.411,32.45C51.903,32.45 51.49,32.037 51.49,31.529L51.49,30.311C51.49,29.803 51.903,29.39 52.411,29.39L78.789,29.39C79.297,29.39 79.71,29.803 79.71,30.311Z" style="fill:url(#_Linear9);"/>
                <path d="M85.87,36.131L85.87,37.349C85.87,37.857 85.457,38.27 84.949,38.27L52.411,38.27C51.903,38.27 51.49,37.857 51.49,37.349L51.49,36.131C51.49,35.623 51.903,35.21 52.411,35.21L84.949,35.21C85.457,35.21 85.87,35.623 85.87,36.131Z" style="fill:url(#_Linear10);"/>
                <path d="M79.71,41.951L79.71,43.169C79.71,43.677 79.297,44.09 78.789,44.09L52.411,44.09C51.903,44.09 51.49,43.677 51.49,43.169L51.49,41.951C51.49,41.443 51.903,41.03 52.411,41.03L78.789,41.03C79.297,41.03 79.71,41.443 79.71,41.951Z" style="fill:url(#_Linear11);"/>
            </g>
        </g>
        <g id="Line">
            <path id="path1" d="M1074.56,715.486L982.342,715.486" style="fill:none;fill-rule:nonzero;stroke:black;stroke-width:8.92px;"/>
            <path id="path2" d="M995.719,702.108L968.965,715.486L995.719,728.863L995.719,702.108Z" style="fill-rule:nonzero;"/>
        </g>
        <g id="g1">
            <path id="path3" d="M822.882,637.681L822.882,490.685" style="fill:none;fill-rule:nonzero;stroke:black;stroke-width:8.92px;"/>
            <path id="path4" d="M836.26,504.063L822.882,477.308L809.505,504.063L836.26,504.063Z" style="fill-rule:nonzero;"/>
        </g>
        <g id="Shape">
            <path id="path5" d="M1020.57,420.939L1101.07,340.44" style="fill:none;fill-rule:nonzero;stroke:black;stroke-width:7.94px;"/>
            <path id="path6" d="M1101.07,357.282L1109.49,332.02L1084.23,340.44L1101.07,357.282Z" style="fill-rule:nonzero;"/>
            <path id="path7" d="M1013.42,282.002L1097.58,282.002" style="fill:none;fill-rule:nonzero;stroke:black;stroke-width:7.94px;"/>
            <path id="path8" d="M1085.67,293.911L1109.49,282.002L1085.67,270.093L1085.67,293.911Z" style="fill-rule:nonzero;"/>
            <path id="path9" d="M651.394,170.059L715.033,230.901" style="fill:none;fill-rule:nonzero;stroke:black;stroke-width:7.94px;"/>
            <path id="path10" d="M698.196,231.279L723.641,239.13L714.655,214.063L698.196,231.279Z" style="fill-rule:nonzero;"/>
            <path id="path11" d="M651.394,389.182L714.302,339.409" style="fill:none;fill-rule:nonzero;stroke:black;stroke-width:7.94px;"/>
            <path id="path12" d="M712.352,356.137L723.641,332.02L697.574,337.459L712.352,356.137Z" style="fill-rule:nonzero;"/>
            <path id="path13" d="M403.689,389.182L530.717,389.182" style="fill:none;fill-rule:nonzero;stroke:black;stroke-width:7.94px;"/>
            <path id="path14" d="M518.808,401.091L542.626,389.182L518.808,377.273L518.808,401.091Z" style="fill-rule:nonzero;"/>
            <path id="path15" d="M295.715,637.681L295.015,548.761" style="fill:none;fill-rule:nonzero;stroke:black;stroke-width:7.94px;"/>
            <path id="path16" d="M307.017,560.576L294.921,536.853L283.2,560.763L307.017,560.576Z" style="fill-rule:nonzero;"/>
            <path id="path17" d="M295.715,349.486L295.715,251.039" style="fill:none;fill-rule:nonzero;stroke:black;stroke-width:7.94px;"/>
            <path id="path18" d="M307.624,262.948L295.715,239.13L283.806,262.948L307.624,262.948Z" style="fill-rule:nonzero;"/>
            <path id="path19" d="M403.689,170.059L530.717,170.059" style="fill:none;fill-rule:nonzero;stroke:black;stroke-width:7.94px;"/>
            <path id="path20" d="M518.808,181.967L542.626,170.059L518.808,158.15L518.808,181.967Z" style="fill-rule:nonzero;"/>
        </g>
        <path id="Rounded-Rectangle-copy-3" d="M185.359,747.243C185.359,764.782 199.577,779 217.116,779L926.886,779C944.425,779 958.643,764.782 958.643,747.243L958.643,684.523C958.643,666.984 944.425,652.766 926.886,652.766L217.116,652.766C199.577,652.766 185.359,666.984 185.359,684.523L185.359,747.243Z" style="fill:none;fill-rule:nonzero;stroke:rgb(145,107,219);stroke-width:7.94px;"/>
        <g id="introspection" transform="matrix(1,0,0,1,501,210)">
            <text x="0px" y="0px" style="font-family:'Roboto-Regular', 'Roboto';font-size:19.054px;">intr<tspan x="27.66px " y="0px ">o</tspan>spection</text>
        </g>
        <g id="token" transform="matrix(1,0,0,1,534,364)">
            <text x="0px" y="0px" style="font-family:'Roboto-Regular', 'Roboto';font-size:19.054px;">t<tspan x="6.047px 16.914px 26.386px " y="0px 0px 0px ">oke</tspan>n</text>
        </g>
        <g id="g2">
            <path id="path21" d="M641.867,392.358L565.53,393.033" style="fill:none;fill-rule:nonzero;stroke:rgb(145,107,219);stroke-width:8.92px;"/>
            <path id="path22" d="M565.649,406.41C558.261,406.476 552.219,400.54 552.153,393.152C552.088,385.764 558.024,379.722 565.412,379.657C572.8,379.591 578.842,385.527 578.907,392.915C578.973,400.303 573.036,406.345 565.649,406.41Z" style="fill:rgb(145,107,219);fill-rule:nonzero;"/>
        </g>
        <g id="Line-copy">
            <path id="path23" d="M641.867,170.059L565.53,170.734" style="fill:none;fill-rule:nonzero;stroke:rgb(145,107,219);stroke-width:8.92px;"/>
            <path id="path24" d="M565.649,184.111C558.261,184.176 552.219,178.24 552.153,170.852C552.088,163.465 558.024,157.423 565.412,157.357C572.8,157.292 578.842,163.228 578.907,170.616C578.973,178.004 573.036,184.046 565.649,184.111Z" style="fill:rgb(145,107,219);fill-rule:nonzero;"/>
        </g>
        <g id="g3">
            <g id="access-sub-123-sid">
                <g transform="matrix(1,0,0,1,226,293)">
                    <text x="0px" y="0px" style="font-family:'Roboto-Regular', 'Roboto';font-size:14.291px;">access</text>
                </g>
                <g transform="matrix(1,0,0,1,226,307.4)">
                    <text x="0px" y="0px" style="font-family:'Roboto-Regular', 'Roboto';font-size:14.291px;">sub: 123</text>
                </g>
                <g transform="matrix(1,0,0,1,226,321.8)">
                    <text x="0px" y="0px" style="font-family:'Roboto-Regular', 'Roboto';font-size:14.291px;">sid: 456</text>
                </g>
            </g>
            <g transform="matrix(0.22002,0,0,0.22002,147.599,283.214)">
                <path d="M323.33,34.088L323.33,162.032C323.33,180.846 308.056,196.12 289.242,196.12L34.088,196.12C15.274,196.12 0,180.846 0,162.032L0,34.088C0,15.274 15.274,0 34.088,0L289.242,0C308.056,0 323.33,15.274 323.33,34.088Z" style="fill:url(#_Linear12);"/>
                <path d="M280.67,53.11L280.67,83.56C280.67,83.77 280.35,83.94 279.95,83.94C279.55,83.94 279.23,83.77 279.23,83.56L279.23,53.11C279.23,52.9 279.55,52.73 279.95,52.73C280.35,52.73 280.67,52.9 280.67,53.11Z" style="fill:url(#_Linear13);fill-rule:nonzero;"/>
                <path d="M280.75,4.1L280.75,34.55C280.75,34.76 280.43,34.93 280.03,34.93C279.63,34.93 279.31,34.76 279.31,34.55L279.31,4.1C279.31,3.89 279.63,3.72 280.03,3.72C280.43,3.72 280.75,3.89 280.75,4.1Z" style="fill:url(#_Linear14);fill-rule:nonzero;"/>
                <path d="M281.39,160.96L281.39,191.41C281.39,191.62 281.07,191.79 280.67,191.79C280.27,191.79 279.95,191.62 279.95,191.41L279.95,160.96C279.95,160.75 280.27,160.58 280.67,160.58C281.07,160.58 281.39,160.75 281.39,160.96Z" style="fill:url(#_Linear15);fill-rule:nonzero;"/>
                <path d="M280.67,107.04L280.67,137.49C280.67,137.7 280.35,137.87 279.95,137.87C279.55,137.87 279.23,137.7 279.23,137.49L279.23,107.04C279.23,106.83 279.55,106.66 279.95,106.66C280.35,106.66 280.67,106.83 280.67,107.04Z" style="fill:url(#_Linear16);fill-rule:nonzero;"/>
                <path d="M254.62,63.318L254.62,132.792C254.62,141.572 247.492,148.7 238.712,148.7L38.008,148.7C29.228,148.7 22.1,141.572 22.1,132.792L22.1,63.318C22.1,54.538 29.228,47.41 38.008,47.41L238.712,47.41C247.492,47.41 254.62,54.538 254.62,63.318Z" style="fill:url(#_Linear17);"/>
                <g transform="matrix(1,0,0,1,47.2,133.65)">
                    <text x="0px" y="0px" style="font-family:'Roboto-Regular', 'Roboto';font-size:100px;fill:rgb(210,195,224);">XYZ</text>
                </g>
            </g>
        </g>
        <g id="g31" serif:id="g3" transform="matrix(1,0,0,1,298.513,-185.103)">
            <g id="access-sub-123-sid1" serif:id="access-sub-123-sid">
                <g transform="matrix(1,0,0,1,226,293)">
                    <text x="0px" y="0px" style="font-family:'Roboto-Regular', 'Roboto';font-size:14.291px;">access</text>
                </g>
                <g transform="matrix(1,0,0,1,226,307.4)">
                    <text x="0px" y="0px" style="font-family:'Roboto-Regular', 'Roboto';font-size:14.291px;">sub: 123</text>
                </g>
                <g transform="matrix(1,0,0,1,226,321.8)">
                    <text x="0px" y="0px" style="font-family:'Roboto-Regular', 'Roboto';font-size:14.291px;">sid: 456</text>
                </g>
            </g>
            <g transform="matrix(0.22002,0,0,0.22002,147.599,283.214)">
                <path d="M323.33,34.088L323.33,162.032C323.33,180.846 308.056,196.12 289.242,196.12L34.088,196.12C15.274,196.12 0,180.846 0,162.032L0,34.088C0,15.274 15.274,0 34.088,0L289.242,0C308.056,0 323.33,15.274 323.33,34.088Z" style="fill:url(#_Linear18);"/>
                <path d="M280.67,53.11L280.67,83.56C280.67,83.77 280.35,83.94 279.95,83.94C279.55,83.94 279.23,83.77 279.23,83.56L279.23,53.11C279.23,52.9 279.55,52.73 279.95,52.73C280.35,52.73 280.67,52.9 280.67,53.11Z" style="fill:url(#_Linear19);fill-rule:nonzero;"/>
                <path d="M280.75,4.1L280.75,34.55C280.75,34.76 280.43,34.93 280.03,34.93C279.63,34.93 279.31,34.76 279.31,34.55L279.31,4.1C279.31,3.89 279.63,3.72 280.03,3.72C280.43,3.72 280.75,3.89 280.75,4.1Z" style="fill:url(#_Linear20);fill-rule:nonzero;"/>
                <path d="M281.39,160.96L281.39,191.41C281.39,191.62 281.07,191.79 280.67,191.79C280.27,191.79 279.95,191.62 279.95,191.41L279.95,160.96C279.95,160.75 280.27,160.58 280.67,160.58C281.07,160.58 281.39,160.75 281.39,160.96Z" style="fill:url(#_Linear21);fill-rule:nonzero;"/>
                <path d="M280.67,107.04L280.67,137.49C280.67,137.7 280.35,137.87 279.95,137.87C279.55,137.87 279.23,137.7 279.23,137.49L279.23,107.04C279.23,106.83 279.55,106.66 279.95,106.66C280.35,106.66 280.67,106.83 280.67,107.04Z" style="fill:url(#_Linear22);fill-rule:nonzero;"/>
                <path d="M254.62,63.318L254.62,132.792C254.62,141.572 247.492,148.7 238.712,148.7L38.008,148.7C29.228,148.7 22.1,141.572 22.1,132.792L22.1,63.318C22.1,54.538 29.228,47.41 38.008,47.41L238.712,47.41C247.492,47.41 254.62,54.538 254.62,63.318Z" style="fill:url(#_Linear23);"/>
                <g transform="matrix(1,0,0,1,47.2,133.65)">
                    <text x="0px" y="0px" style="font-family:'Roboto-Regular', 'Roboto';font-size:100px;fill:rgb(210,195,224);">XYZ</text>
                </g>
            </g>
        </g>
        <g id="g32" serif:id="g3" transform="matrix(1,0,0,1,238.704,47.9584)">
            <g id="access-sub-123-sid2" serif:id="access-sub-123-sid">
                <g transform="matrix(1,0,0,1,226,293)">
                    <g transform="matrix(14.2907,0,0,14.2907,44.7909,0)">
                    </g>
                    <text x="0px" y="0px" style="font-family:'Roboto-Regular', 'Roboto';font-size:14.291px;">r<tspan x="4.71px " y="0px ">e</tspan>fr<tspan x="21.966px " y="0px ">e</tspan>sh</text>
                </g>
                <g transform="matrix(1,0,0,1,226,307.4)">
                    <text x="0px" y="0px" style="font-family:'Roboto-Regular', 'Roboto';font-size:14.291px;">sub: 123</text>
                </g>
                <g transform="matrix(1,0,0,1,226,321.8)">
                    <text x="0px" y="0px" style="font-family:'Roboto-Regular', 'Roboto';font-size:14.291px;">sid: 456</text>
                </g>
            </g>
            <g transform="matrix(0.22002,0,0,0.22002,147.599,283.214)">
                <path d="M323.33,34.088L323.33,162.032C323.33,180.846 308.056,196.12 289.242,196.12L34.088,196.12C15.274,196.12 0,180.846 0,162.032L0,34.088C0,15.274 15.274,0 34.088,0L289.242,0C308.056,0 323.33,15.274 323.33,34.088Z" style="fill:url(#_Linear24);"/>
                <path d="M280.67,53.11L280.67,83.56C280.67,83.77 280.35,83.94 279.95,83.94C279.55,83.94 279.23,83.77 279.23,83.56L279.23,53.11C279.23,52.9 279.55,52.73 279.95,52.73C280.35,52.73 280.67,52.9 280.67,53.11Z" style="fill:url(#_Linear25);fill-rule:nonzero;"/>
                <path d="M280.75,4.1L280.75,34.55C280.75,34.76 280.43,34.93 280.03,34.93C279.63,34.93 279.31,34.76 279.31,34.55L279.31,4.1C279.31,3.89 279.63,3.72 280.03,3.72C280.43,3.72 280.75,3.89 280.75,4.1Z" style="fill:url(#_Linear26);fill-rule:nonzero;"/>
                <path d="M281.39,160.96L281.39,191.41C281.39,191.62 281.07,191.79 280.67,191.79C280.27,191.79 279.95,191.62 279.95,191.41L279.95,160.96C279.95,160.75 280.27,160.58 280.67,160.58C281.07,160.58 281.39,160.75 281.39,160.96Z" style="fill:url(#_Linear27);fill-rule:nonzero;"/>
                <path d="M280.67,107.04L280.67,137.49C280.67,137.7 280.35,137.87 279.95,137.87C279.55,137.87 279.23,137.7 279.23,137.49L279.23,107.04C279.23,106.83 279.55,106.66 279.95,106.66C280.35,106.66 280.67,106.83 280.67,107.04Z" style="fill:url(#_Linear28);fill-rule:nonzero;"/>
                <path d="M254.62,63.318L254.62,132.792C254.62,141.572 247.492,148.7 238.712,148.7L38.008,148.7C29.228,148.7 22.1,141.572 22.1,132.792L22.1,63.318C22.1,54.538 29.228,47.41 38.008,47.41L238.712,47.41C247.492,47.41 254.62,54.538 254.62,63.318Z" style="fill:url(#_Linear29);"/>
                <g transform="matrix(1,0,0,1,47.2,133.65)">
                    <text x="0px" y="0px" style="font-family:'Roboto-Regular', 'Roboto';font-size:100px;fill:rgb(210,195,224);">XYZ</text>
                </g>
            </g>
        </g>
        <g id="key-111" transform="matrix(1,0,0,1,745,633)">
            <text x="0px" y="0px" style="font-family:'Roboto-Regular', 'Roboto';font-size:14.291px;">k<tspan x="7.103px " y="0px ">e</tspan>y: 111</text>
        </g>
        <g id="key-111-sub-123">
            <g transform="matrix(1,0,0,1,1138,403)">
                <text x="0px" y="0px" style="font-family:'Roboto-Regular', 'Roboto';font-size:23.818px;">k<tspan x="11.839px 24.318px " y="0px 0px ">ey</tspan>: 111</text>
            </g>
            <g transform="matrix(1,0,0,1,1138,431)">
                <text x="0px" y="0px" style="font-family:'Roboto-Regular', 'Roboto';font-size:23.818px;">sub: 123</text>
            </g>
            <g transform="matrix(1,0,0,1,1138,459)">
                <text x="0px" y="0px" style="font-family:'Roboto-Regular', 'Roboto';font-size:23.818px;">sid: 456</text>
            </g>
            <g transform="matrix(1,0,0,1,1138,487)">
                <text x="0px" y="0px" style="font-family:'Roboto-Regular', 'Roboto';font-size:23.818px;">expir<tspan x="51.462px " y="0px ">e</tspan>s: 10</text>
            </g>
        </g>
        <g id="API" transform="matrix(1,0,0,1,263,160)">
            <text x="0px" y="0px" style="font-family:'Roboto-Regular', 'Roboto';font-size:38.108px;">API</text>
        </g>
        <g id="Browser" transform="matrix(1,0,0,1,499,730)">
            <text x="0px" y="0px" style="font-family:'Roboto-Regular', 'Roboto';font-size:38.108px;">Br<tspan x="36.285px " y="0px ">o</tspan>wser</text>
        </g>
        <g id="Coordiation-Service" transform="matrix(1,0,0,1,-5.9718,-1.22779)">
            <g transform="matrix(1,0,0,1,786.233,279)">
                <text x="0px" y="0px" style="font-family:'Roboto-Regular', 'Roboto';font-size:28.581px;">Coor<tspan x="60.624px " y="0px ">d</tspan>ination</text>
            </g>
            <g transform="matrix(1,0,0,1,821.276,309.6)">
                <text x="0px" y="0px" style="font-family:'Roboto-Regular', 'Roboto';font-size:28.581px;">Ser<tspan x="42.063px " y="0px ">v</tspan>ice</text>
            </g>
        </g>
        <g id="Cookie-Handler">
            <g transform="matrix(1,0,0,1,815.874,418)">
                <text x="0px" y="0px" style="font-family:'Roboto-Regular', 'Roboto';font-size:28.581px;">Cookie</text>
            </g>
            <g transform="matrix(1,0,0,1,809.971,448.6)">
                <text x="0px" y="0px" style="font-family:'Roboto-Regular', 'Roboto';font-size:28.581px;">Handler</text>
            </g>
        </g>
        <g id="Client" transform="matrix(1,0,0,1,236,463)">
            <text x="0px" y="0px" style="font-family:'Roboto-Regular', 'Roboto';font-size:38.108px;">Client</text>
        </g>
        <g id="IdentityServer" transform="matrix(1,0,0,1,739,186)">
            <text x="0px" y="0px" style="font-family:'Roboto-Regular', 'Roboto';font-size:38.108px;">IdentitySer<tspan x="181.425px 199.641px " y="0px 0px ">ve</tspan>r</text>
        </g>
        <g id="Group-copy-3">
            <path id="Path" d="M787.946,125.477C784.557,123.436 783.453,118.994 785.493,115.605L802.715,86.998C804.755,83.609 809.197,82.505 812.586,84.545C815.975,86.585 817.079,91.027 815.039,94.416L797.817,123.024C795.777,126.413 791.335,127.517 787.946,125.477Z" style="fill:rgb(99,62,158);fill-rule:nonzero;"/>
            <path id="path25" d="M811.241,154.958L811.241,154.958C807.78,156.873 803.381,155.608 801.466,152.147L785.302,122.929C783.387,119.467 784.653,115.068 788.114,113.153L788.114,113.153C791.575,111.239 795.974,112.504 797.889,115.965L814.053,145.183C815.968,148.645 814.703,153.043 811.241,154.958Z" style="fill:rgb(67,37,124);fill-rule:nonzero;"/>
            <path id="path26" d="M751.227,119.454C751.227,123.41 754.464,126.647 758.42,126.647L791.811,126.647C795.767,126.647 799.003,123.41 799.003,119.454C799.003,115.499 795.767,112.262 791.811,112.262L758.42,112.262C754.464,112.262 751.227,115.499 751.227,119.454Z" style="fill:rgb(131,97,197);fill-rule:nonzero;"/>
            <g id="g5">
                <path id="path27" d="M834.774,109.647C836.396,110.584 837.663,111.901 838.573,113.599C839.483,115.296 839.939,117.237 839.939,119.422L839.939,120.45C839.939,122.646 839.483,124.59 838.573,126.282C837.663,127.974 836.394,129.289 834.766,130.226C833.138,131.163 831.274,131.632 829.175,131.632L821.914,131.632L821.914,108.241L829.207,108.241C831.296,108.241 833.151,108.71 834.774,109.647ZM834.814,119.39C834.814,117.077 834.337,115.32 833.384,114.121C832.431,112.921 831.039,112.321 829.207,112.321L826.958,112.321L826.958,127.567L829.175,127.567C831.006,127.567 832.404,126.959 833.368,125.744C834.332,124.528 834.814,122.764 834.814,120.45L834.814,119.39Z" style="fill-rule:nonzero;"/>
                <path id="path28" d="M858.735,114.249L858.735,131.632L854.188,131.632L854.06,129.816C853.513,130.502 852.844,131.029 852.051,131.399C851.259,131.768 850.354,131.953 849.336,131.953C847.526,131.953 846.11,131.428 845.087,130.378C844.064,129.329 843.553,127.701 843.553,125.495L843.553,114.249L848.388,114.249L848.388,125.527C848.388,126.384 848.6,127.016 849.023,127.423C849.446,127.83 850.032,128.033 850.782,128.033C852.271,128.033 853.304,127.514 853.883,126.475L853.883,114.249L858.735,114.249Z" style="fill-rule:nonzero;"/>
                <path id="path29" d="M878.076,124.515L867.087,124.515C867.27,125.596 867.719,126.456 868.437,127.093C869.155,127.73 870.076,128.049 871.2,128.049C872.036,128.049 872.809,127.891 873.521,127.575C874.234,127.259 874.842,126.785 875.345,126.153L877.674,128.836C877.064,129.715 876.172,130.453 874.999,131.053C873.827,131.653 872.453,131.953 870.879,131.953C869.101,131.953 867.556,131.578 866.244,130.828C864.932,130.079 863.925,129.061 863.224,127.776C862.522,126.491 862.172,125.072 862.172,123.519L862.172,122.908C862.172,121.173 862.498,119.626 863.152,118.266C863.805,116.905 864.747,115.842 865.979,115.077C867.211,114.311 868.667,113.928 870.349,113.928C871.987,113.928 873.385,114.276 874.542,114.972C875.698,115.668 876.577,116.656 877.176,117.936C877.776,119.216 878.076,120.723 878.076,122.458L878.076,124.515ZM873.321,120.884C873.299,119.942 873.04,119.197 872.542,118.651C872.044,118.105 871.302,117.832 870.317,117.832C869.396,117.832 868.675,118.137 868.156,118.747C867.636,119.358 867.296,120.199 867.136,121.27L873.321,121.27L873.321,120.884Z" style="fill-rule:nonzero;"/>
                <path id="path30" d="M894.911,115.494C895.864,116.539 896.341,118.244 896.341,120.611L896.341,131.632L891.489,131.632L891.489,120.595C891.489,119.567 891.27,118.852 890.831,118.45C890.392,118.049 889.711,117.848 888.79,117.848C888.159,117.848 887.61,117.982 887.144,118.25C886.678,118.517 886.3,118.897 886.011,119.39L886.011,131.632L881.159,131.632L881.159,114.249L885.706,114.249L885.867,116.257C886.477,115.497 887.205,114.919 888.051,114.522C888.898,114.126 889.835,113.928 890.863,113.928C892.608,113.928 893.958,114.45 894.911,115.494Z" style="fill-rule:nonzero;"/>
                <path id="path31" d="M915.457,106.956L915.457,131.632L911.088,131.632L910.847,129.768C909.711,131.225 908.244,131.953 906.445,131.953C905.042,131.953 903.829,131.575 902.806,130.82C901.783,130.065 901.007,129.024 900.477,127.696C899.947,126.368 899.682,124.852 899.682,123.149L899.682,122.812C899.682,121.045 899.947,119.492 900.477,118.153C901.007,116.814 901.783,115.775 902.806,115.036C903.829,114.297 905.053,113.928 906.477,113.928C908.126,113.928 909.503,114.555 910.606,115.808L910.606,106.956L915.457,106.956ZM910.606,126.298L910.606,119.583C910.049,118.426 909.085,117.848 907.714,117.848C906.611,117.848 905.805,118.298 905.296,119.197C904.788,120.097 904.533,121.302 904.533,122.812L904.533,123.149C904.533,124.638 904.782,125.824 905.28,126.708C905.778,127.591 906.579,128.033 907.682,128.033C909.042,128.033 910.017,127.455 910.606,126.298Z" style="fill-rule:nonzero;"/>
                <path id="path32" d="M934.896,124.515L923.907,124.515C924.09,125.596 924.539,126.456 925.257,127.093C925.975,127.73 926.896,128.049 928.02,128.049C928.855,128.049 929.629,127.891 930.341,127.575C931.054,127.259 931.661,126.785 932.165,126.153L934.494,128.836C933.884,129.715 932.992,130.453 931.819,131.053C930.647,131.653 929.273,131.953 927.699,131.953C925.921,131.953 924.376,131.578 923.064,130.828C921.752,130.079 920.745,129.061 920.044,127.776C919.342,126.491 918.992,125.072 918.992,123.519L918.992,122.908C918.992,121.173 919.318,119.626 919.972,118.266C920.625,116.905 921.567,115.842 922.799,115.077C924.031,114.311 925.487,113.928 927.169,113.928C928.807,113.928 930.205,114.276 931.362,114.972C932.518,115.668 933.397,116.656 933.996,117.936C934.596,119.216 934.896,120.723 934.896,122.458L934.896,124.515ZM930.141,120.884C930.119,119.942 929.859,119.197 929.362,118.651C928.863,118.105 928.122,117.832 927.137,117.832C926.216,117.832 925.495,118.137 924.976,118.747C924.456,119.358 924.116,120.199 923.956,121.27L930.141,121.27L930.141,120.884Z" style="fill-rule:nonzero;"/>
            </g>
            <path id="path33" d="M952.493,126.585C952.493,129.521 950.114,131.9 947.178,131.9C944.242,131.9 941.863,129.521 941.863,126.585C941.863,123.649 944.242,121.27 947.178,121.27C950.114,121.27 952.493,123.649 952.493,126.585Z" style="fill:rgb(118,79,193);fill-rule:nonzero;"/>
            <path id="path34" d="M799.89,119.454C799.89,115.499 796.636,112.262 792.659,112.262L787.51,112.262L785.487,115.605C785.281,115.946 785.115,116.3 784.971,116.659C784.939,116.735 784.906,116.811 784.876,116.889C784.867,116.915 784.859,116.941 784.85,116.968C784.151,118.862 784.241,121.035 785.295,122.929L787.363,126.647L792.659,126.647C796.636,126.647 799.89,123.41 799.89,119.454Z" style="fill:rgb(118,79,193);fill-rule:nonzero;"/>
        </g>
        <g transform="matrix(3.36578,0,0,3.36578,1124.1,219.961)">
            <path d="M41.871,6.339L29.585,6.339L29.585,1.344C29.585,0.602 28.983,0 28.241,0L16.324,0C15.582,0 14.98,0.602 14.98,1.344L14.98,6.339L2.694,6.339C1.206,6.339 0,7.545 0,9.033L0,34.892C0,36.38 1.206,37.586 2.694,37.586L41.871,37.586C43.359,37.586 44.565,36.38 44.565,34.892L44.565,9.033C44.565,7.545 43.359,6.339 41.871,6.339ZM16.842,6.339L16.842,3.48C16.842,2.735 17.446,2.131 18.191,2.131L26.372,2.131C27.117,2.131 27.721,2.735 27.721,3.48L27.721,6.339L16.841,6.339L16.842,6.339Z" style="fill:url(#_Linear30);fill-rule:nonzero;"/>
            <path d="M44.651,16.537L27.464,16.537C26.946,15.534 25.909,14.841 24.7,14.841L19.953,14.841C18.744,14.841 17.707,15.534 17.189,16.537L0,16.537L0,19.369L17.187,19.369C17.705,20.372 18.742,21.065 19.951,21.065L24.698,21.065C25.907,21.065 26.944,20.372 27.462,19.369L44.649,19.369L44.649,16.537L44.651,16.537Z" style="fill:url(#_Linear31);fill-rule:nonzero;"/>
        </g>
    </g>
    <g transform="matrix(0.805921,0,0,0.805921,749.42,546.804)">
        <g id="duende-icon-key.svg">
            <g>
                <path d="M50.48,2.67C38.77,-3.38 24.38,1.2 18.32,12.9C14.08,21.11 15.06,30.63 20.06,37.68L0,76.49L10.36,81.85L16.24,78.4L23.41,78.83L26.2,73.44L21.7,67.84L25.06,61.35L32.23,61.78L39.5,47.72C48.14,47.72 56.48,43.03 60.73,34.82C66.78,23.11 62.2,8.72 50.5,2.66L50.48,2.67ZM50.27,30.02L28.29,18.65C27.3,18.14 27.03,16.87 27.68,15.97C31.75,10.3 39.47,8.33 45.85,11.63C52.23,14.93 55.08,22.37 52.81,28.97C52.45,30.02 51.26,30.53 50.27,30.02Z" style="fill:url(#_Linear32);fill-rule:nonzero;"/>
                <path d="M10.36,81.85L0,76.46L20.07,37.68L26.42,50.04L10.36,81.85Z" style="fill:url(#_Linear33);fill-rule:nonzero;"/>
            </g>
        </g>
    </g>
    <defs>
        <linearGradient id="_Linear1" x1="0" y1="0" x2="1" y2="0" gradientUnits="userSpaceOnUse" gradientTransform="matrix(102.97,0,0,102.97,0,31.23)"><stop offset="0" style="stop-color:rgb(119,83,188);stop-opacity:1"/><stop offset="0.41" style="stop-color:rgb(135,96,207);stop-opacity:1"/><stop offset="1" style="stop-color:rgb(159,122,249);stop-opacity:1"/></linearGradient>
        <linearGradient id="_Linear2" x1="0" y1="0" x2="1" y2="0" gradientUnits="userSpaceOnUse" gradientTransform="matrix(35.01,0,0,35.01,9.78,31.23)"><stop offset="0" style="stop-color:rgb(67,37,124);stop-opacity:1"/><stop offset="1" style="stop-color:rgb(110,69,175);stop-opacity:1"/></linearGradient>
        <linearGradient id="_Linear3" x1="0" y1="0" x2="1" y2="0" gradientUnits="userSpaceOnUse" gradientTransform="matrix(16.49,0,0,16.49,19.04,24.45)"><stop offset="0" style="stop-color:rgb(211,196,241);stop-opacity:1"/><stop offset="1" style="stop-color:white;stop-opacity:1"/></linearGradient>
        <linearGradient id="_Linear4" x1="0" y1="0" x2="1" y2="0" gradientUnits="userSpaceOnUse" gradientTransform="matrix(638.573,0,0,638.573,384.856,840.47)"><stop offset="0" style="stop-color:rgb(211,196,241);stop-opacity:1"/><stop offset="1" style="stop-color:white;stop-opacity:1"/></linearGradient>
        <linearGradient id="_Linear5" x1="0" y1="0" x2="1" y2="0" gradientUnits="userSpaceOnUse" gradientTransform="matrix(1789.29,0,0,1789.29,2203.54,120.129)"><stop offset="0" style="stop-color:rgb(67,37,124);stop-opacity:1"/><stop offset="1" style="stop-color:rgb(110,69,175);stop-opacity:1"/></linearGradient>
        <linearGradient id="_Linear6" x1="0" y1="0" x2="1" y2="0" gradientUnits="userSpaceOnUse" gradientTransform="matrix(89.4916,0,0,89.4916,542.246,170.194)"><stop offset="0" style="stop-color:rgb(67,37,124);stop-opacity:1"/><stop offset="1" style="stop-color:rgb(110,69,175);stop-opacity:1"/></linearGradient>
        <linearGradient id="_Linear7" x1="0" y1="0" x2="1" y2="0" gradientUnits="userSpaceOnUse" gradientTransform="matrix(89.4916,0,0,89.4916,660.654,170.194)"><stop offset="0" style="stop-color:rgb(67,37,124);stop-opacity:1"/><stop offset="1" style="stop-color:rgb(110,69,175);stop-opacity:1"/></linearGradient>
        <linearGradient id="_Linear8" x1="0" y1="0" x2="1" y2="0" gradientUnits="userSpaceOnUse" gradientTransform="matrix(1181.98,0,0,1181.98,1821.72,100.376)"><stop offset="0" style="stop-color:rgb(211,196,241);stop-opacity:1"/><stop offset="1" style="stop-color:white;stop-opacity:1"/></linearGradient>
        <linearGradient id="_Linear9" x1="0" y1="0" x2="1" y2="0" gradientUnits="userSpaceOnUse" gradientTransform="matrix(796.086,0,0,796.086,1504.54,124.005)"><stop offset="0" style="stop-color:rgb(211,196,241);stop-opacity:1"/><stop offset="1" style="stop-color:white;stop-opacity:1"/></linearGradient>
        <linearGradient id="_Linear10" x1="0" y1="0" x2="1" y2="0" gradientUnits="userSpaceOnUse" gradientTransform="matrix(1181.98,0,0,1181.98,1821.72,147.634)"><stop offset="0" style="stop-color:rgb(211,196,241);stop-opacity:1"/><stop offset="1" style="stop-color:white;stop-opacity:1"/></linearGradient>
        <linearGradient id="_Linear11" x1="0" y1="0" x2="1" y2="0" gradientUnits="userSpaceOnUse" gradientTransform="matrix(796.086,0,0,796.086,1504.54,171.264)"><stop offset="0" style="stop-color:rgb(211,196,241);stop-opacity:1"/><stop offset="1" style="stop-color:white;stop-opacity:1"/></linearGradient>
        <linearGradient id="_Linear12" x1="0" y1="0" x2="1" y2="0" gradientUnits="userSpaceOnUse" gradientTransform="matrix(323.33,0,0,323.33,0,98.06)"><stop offset="0" style="stop-color:rgb(116,88,165);stop-opacity:1"/><stop offset="0.41" style="stop-color:rgb(125,99,171);stop-opacity:1"/><stop offset="1" style="stop-color:rgb(139,122,185);stop-opacity:1"/></linearGradient>
        <linearGradient id="_Linear13" x1="0" y1="0" x2="1" y2="0" gradientUnits="userSpaceOnUse" gradientTransform="matrix(1.91106e-15,31.21,-31.21,1.91106e-15,279.95,52.73)"><stop offset="0" style="stop-color:rgb(68,45,124);stop-opacity:1"/><stop offset="1" style="stop-color:rgb(109,77,159);stop-opacity:1"/></linearGradient>
        <linearGradient id="_Linear14" x1="0" y1="0" x2="1" y2="0" gradientUnits="userSpaceOnUse" gradientTransform="matrix(44.9424,0,0,44.9424,394.265,44551)"><stop offset="0" style="stop-color:rgb(68,45,124);stop-opacity:1"/><stop offset="1" style="stop-color:rgb(109,77,159);stop-opacity:1"/></linearGradient>
        <linearGradient id="_Linear15" x1="0" y1="0" x2="1" y2="0" gradientUnits="userSpaceOnUse" gradientTransform="matrix(44.9424,0,0,44.9424,620.798,44727.8)"><stop offset="0" style="stop-color:rgb(68,45,124);stop-opacity:1"/><stop offset="1" style="stop-color:rgb(109,77,159);stop-opacity:1"/></linearGradient>
        <linearGradient id="_Linear16" x1="0" y1="0" x2="1" y2="0" gradientUnits="userSpaceOnUse" gradientTransform="matrix(44.9424,0,0,44.9424,542.419,106.66)"><stop offset="0" style="stop-color:rgb(68,45,124);stop-opacity:1"/><stop offset="1" style="stop-color:rgb(109,77,159);stop-opacity:1"/></linearGradient>
        <linearGradient id="_Linear17" x1="0" y1="0" x2="1" y2="0" gradientUnits="userSpaceOnUse" gradientTransform="matrix(232.52,0,0,232.52,22.1,98.06)"><stop offset="0" style="stop-color:rgb(68,45,124);stop-opacity:1"/><stop offset="1" style="stop-color:rgb(109,77,159);stop-opacity:1"/></linearGradient>
        <linearGradient id="_Linear18" x1="0" y1="0" x2="1" y2="0" gradientUnits="userSpaceOnUse" gradientTransform="matrix(323.33,0,0,323.33,0,98.06)"><stop offset="0" style="stop-color:rgb(116,88,165);stop-opacity:1"/><stop offset="0.41" style="stop-color:rgb(125,99,171);stop-opacity:1"/><stop offset="1" style="stop-color:rgb(139,122,185);stop-opacity:1"/></linearGradient>
        <linearGradient id="_Linear19" x1="0" y1="0" x2="1" y2="0" gradientUnits="userSpaceOnUse" gradientTransform="matrix(1.91106e-15,31.21,-31.21,1.91106e-15,279.95,52.73)"><stop offset="0" style="stop-color:rgb(68,45,124);stop-opacity:1"/><stop offset="1" style="stop-color:rgb(109,77,159);stop-opacity:1"/></linearGradient>
        <linearGradient id="_Linear20" x1="0" y1="0" x2="1" y2="0" gradientUnits="userSpaceOnUse" gradientTransform="matrix(44.9424,0,0,44.9424,394.265,44551)"><stop offset="0" style="stop-color:rgb(68,45,124);stop-opacity:1"/><stop offset="1" style="stop-color:rgb(109,77,159);stop-opacity:1"/></linearGradient>
        <linearGradient id="_Linear21" x1="0" y1="0" x2="1" y2="0" gradientUnits="userSpaceOnUse" gradientTransform="matrix(44.9424,0,0,44.9424,620.798,44727.8)"><stop offset="0" style="stop-color:rgb(68,45,124);stop-opacity:1"/><stop offset="1" style="stop-color:rgb(109,77,159);stop-opacity:1"/></linearGradient>
        <linearGradient id="_Linear22" x1="0" y1="0" x2="1" y2="0" gradientUnits="userSpaceOnUse" gradientTransform="matrix(44.9424,0,0,44.9424,542.419,106.66)"><stop offset="0" style="stop-color:rgb(68,45,124);stop-opacity:1"/><stop offset="1" style="stop-color:rgb(109,77,159);stop-opacity:1"/></linearGradient>
        <linearGradient id="_Linear23" x1="0" y1="0" x2="1" y2="0" gradientUnits="userSpaceOnUse" gradientTransform="matrix(232.52,0,0,232.52,22.1,98.06)"><stop offset="0" style="stop-color:rgb(68,45,124);stop-opacity:1"/><stop offset="1" style="stop-color:rgb(109,77,159);stop-opacity:1"/></linearGradient>
        <linearGradient id="_Linear24" x1="0" y1="0" x2="1" y2="0" gradientUnits="userSpaceOnUse" gradientTransform="matrix(323.33,0,0,323.33,0,98.06)"><stop offset="0" style="stop-color:rgb(116,88,165);stop-opacity:1"/><stop offset="0.41" style="stop-color:rgb(125,99,171);stop-opacity:1"/><stop offset="1" style="stop-color:rgb(139,122,185);stop-opacity:1"/></linearGradient>
        <linearGradient id="_Linear25" x1="0" y1="0" x2="1" y2="0" gradientUnits="userSpaceOnUse" gradientTransform="matrix(1.91106e-15,31.21,-31.21,1.91106e-15,279.95,52.73)"><stop offset="0" style="stop-color:rgb(68,45,124);stop-opacity:1"/><stop offset="1" style="stop-color:rgb(109,77,159);stop-opacity:1"/></linearGradient>
        <linearGradient id="_Linear26" x1="0" y1="0" x2="1" y2="0" gradientUnits="userSpaceOnUse" gradientTransform="matrix(44.9424,0,0,44.9424,394.265,44551)"><stop offset="0" style="stop-color:rgb(68,45,124);stop-opacity:1"/><stop offset="1" style="stop-color:rgb(109,77,159);stop-opacity:1"/></linearGradient>
        <linearGradient id="_Linear27" x1="0" y1="0" x2="1" y2="0" gradientUnits="userSpaceOnUse" gradientTransform="matrix(44.9424,0,0,44.9424,620.798,44727.8)"><stop offset="0" style="stop-color:rgb(68,45,124);stop-opacity:1"/><stop offset="1" style="stop-color:rgb(109,77,159);stop-opacity:1"/></linearGradient>
        <linearGradient id="_Linear28" x1="0" y1="0" x2="1" y2="0" gradientUnits="userSpaceOnUse" gradientTransform="matrix(44.9424,0,0,44.9424,542.419,106.66)"><stop offset="0" style="stop-color:rgb(68,45,124);stop-opacity:1"/><stop offset="1" style="stop-color:rgb(109,77,159);stop-opacity:1"/></linearGradient>
        <linearGradient id="_Linear29" x1="0" y1="0" x2="1" y2="0" gradientUnits="userSpaceOnUse" gradientTransform="matrix(232.52,0,0,232.52,22.1,98.06)"><stop offset="0" style="stop-color:rgb(68,45,124);stop-opacity:1"/><stop offset="1" style="stop-color:rgb(109,77,159);stop-opacity:1"/></linearGradient>
        <linearGradient id="_Linear30" x1="0" y1="0" x2="1" y2="0" gradientUnits="userSpaceOnUse" gradientTransform="matrix(44.565,0,0,44.565,0,18.793)"><stop offset="0" style="stop-color:rgb(145,107,219);stop-opacity:1"/><stop offset="0.5" style="stop-color:rgb(131,92,202);stop-opacity:1"/><stop offset="1" style="stop-color:rgb(145,107,219);stop-opacity:1"/></linearGradient>
        <linearGradient id="_Linear31" x1="0" y1="0" x2="1" y2="0" gradientUnits="userSpaceOnUse" gradientTransform="matrix(-44.651,5.46817e-15,-5.46817e-15,-44.651,44.651,17.953)"><stop offset="0" style="stop-color:rgb(211,196,241);stop-opacity:1"/><stop offset="1" style="stop-color:white;stop-opacity:1"/></linearGradient>
        <linearGradient id="_Linear32" x1="0" y1="0" x2="1" y2="0" gradientUnits="userSpaceOnUse" gradientTransform="matrix(63.39,0,0,63.39,0,40.92)"><stop offset="0" style="stop-color:rgb(119,83,188);stop-opacity:1"/><stop offset="0.41" style="stop-color:rgb(135,96,207);stop-opacity:1"/><stop offset="1" style="stop-color:rgb(159,122,249);stop-opacity:1"/></linearGradient>
        <linearGradient id="_Linear33" x1="0" y1="0" x2="1" y2="0" gradientUnits="userSpaceOnUse" gradientTransform="matrix(26.42,0,0,26.42,0,59.77)"><stop offset="0" style="stop-color:rgb(110,69,175);stop-opacity:0.29"/><stop offset="0.3" style="stop-color:rgb(107,66,171);stop-opacity:0.29"/><stop offset="0.56" style="stop-color:rgb(97,60,160);stop-opacity:0.29"/><stop offset="0.81" style="stop-color:rgb(82,48,142);stop-opacity:0.29"/><stop offset="1" style="stop-color:rgb(67,37,124);stop-opacity:0.29"/></linearGradient>
    </defs>
</svg>
