<?xml version="1.0" encoding="UTF-8" standalone="no"?>
<!DOCTYPE svg PUBLIC "-//W3C//DTD SVG 1.1//EN" "http://www.w3.org/Graphics/SVG/1.1/DTD/svg11.dtd">
<svg width="100%" height="100%" viewBox="0 0 1450 818" version="1.1" xmlns="http://www.w3.org/2000/svg" xmlns:xlink="http://www.w3.org/1999/xlink" xml:space="preserve" xmlns:serif="http://www.serif.com/" style="fill-rule:evenodd;clip-rule:evenodd;">
    <rect id="Rectangle" x="-28.684" y="-84" width="1507.37" height="1051" style="fill:white;"/>
    <g id="key-222-sub-123">
        <g transform="matrix(1,0,0,1,77,562)">
            <text x="0px" y="0px" style="font-family:'Roboto-Regular', 'Roboto';font-size:18px;">k<tspan x="8.947px 18.378px " y="0px 0px ">ey</tspan>: 222</text>
        </g>
        <g transform="matrix(1,0,0,1,77,583)">
            <text x="0px" y="0px" style="font-family:'Roboto-Regular', 'Roboto';font-size:18px;">sub: 123</text>
        </g>
        <g transform="matrix(1,0,0,1,77,604)">
            <text x="0px" y="0px" style="font-family:'Roboto-Regular', 'Roboto';font-size:18px;">sid: 456</text>
        </g>
        <g transform="matrix(1,0,0,1,77,625)">
            <text x="0px" y="0px" style="font-family:'Roboto-Regular', 'Roboto';font-size:18px;">access t<tspan x="66.938px 77.203px 86.15px " y="0px 0px 0px ">oke</tspan>n</text>
        </g>
        <g transform="matrix(1,0,0,1,77,646)">
            <text x="0px" y="0px" style="font-family:'Roboto-Regular', 'Roboto';font-size:18px;">r<tspan x="5.933px " y="0px ">e</tspan>fr<tspan x="27.668px " y="0px ">e</tspan>sh t<tspan x="66.595px 76.86px 85.808px " y="0px 0px 0px ">oke</tspan>n</text>
        </g>
    </g>
    <g id="key-111-sub-123">
        <g transform="matrix(1,0,0,1,1268,416)">
            <text x="0px" y="0px" style="font-family:'Roboto-Regular', 'Roboto';font-size:18px;">k<tspan x="8.947px 18.378px " y="0px 0px ">ey</tspan>: 111</text>
        </g>
        <g transform="matrix(1,0,0,1,1268,437)">
            <text x="0px" y="0px" style="font-family:'Roboto-Regular', 'Roboto';font-size:18px;">sub: 123</text>
        </g>
        <g transform="matrix(1,0,0,1,1268,458)">
            <text x="0px" y="0px" style="font-family:'Roboto-Regular', 'Roboto';font-size:18px;">sid: 456</text>
        </g>
        <g transform="matrix(1,0,0,1,1268,479)">
            <text x="0px" y="0px" style="font-family:'Roboto-Regular', 'Roboto';font-size:18px;">expir<tspan x="38.892px " y="0px ">e</tspan>s: *expir<tspan x="113.194px " y="0px ">e</tspan>d*</text>
        </g>
    </g>
    <g id="g3" transform="matrix(1,0,0,1,357.488,-94.172)">
        <g id="Group-copy">
            <g id="g31" serif:id="g3">
                <g id="access-sub-123-sid">
                    <g transform="matrix(1,0,0,1,226,293)">
                        <g transform="matrix(14.2907,0,0,14.2907,44.7909,0)">
                        </g>
                        <text x="0px" y="0px" style="font-family:'Roboto-Regular', 'Roboto';font-size:14.291px;">r<tspan x="4.71px " y="0px ">e</tspan>fr<tspan x="21.966px " y="0px ">e</tspan>sh</text>
                    </g>
                    <g transform="matrix(1,0,0,1,226,307.4)">
                        <text x="0px" y="0px" style="font-family:'Roboto-Regular', 'Roboto';font-size:14.291px;">sub: 123</text>
                    </g>
                    <g transform="matrix(1,0,0,1,226,321.8)">
                        <text x="0px" y="0px" style="font-family:'Roboto-Regular', 'Roboto';font-size:14.291px;">sid: 456</text>
                    </g>
                </g>
                <g transform="matrix(0.22002,0,0,0.22002,147.599,283.214)">
                    <path d="M323.33,34.088L323.33,162.032C323.33,180.846 308.056,196.12 289.242,196.12L34.088,196.12C15.274,196.12 0,180.846 0,162.032L0,34.088C0,15.274 15.274,0 34.088,0L289.242,0C308.056,0 323.33,15.274 323.33,34.088Z" style="fill:url(#_Linear1);"/>
                    <path d="M280.67,53.11L280.67,83.56C280.67,83.77 280.35,83.94 279.95,83.94C279.55,83.94 279.23,83.77 279.23,83.56L279.23,53.11C279.23,52.9 279.55,52.73 279.95,52.73C280.35,52.73 280.67,52.9 280.67,53.11Z" style="fill:url(#_Linear2);fill-rule:nonzero;"/>
                    <path d="M280.75,4.1L280.75,34.55C280.75,34.76 280.43,34.93 280.03,34.93C279.63,34.93 279.31,34.76 279.31,34.55L279.31,4.1C279.31,3.89 279.63,3.72 280.03,3.72C280.43,3.72 280.75,3.89 280.75,4.1Z" style="fill:url(#_Linear3);fill-rule:nonzero;"/>
                    <path d="M281.39,160.96L281.39,191.41C281.39,191.62 281.07,191.79 280.67,191.79C280.27,191.79 279.95,191.62 279.95,191.41L279.95,160.96C279.95,160.75 280.27,160.58 280.67,160.58C281.07,160.58 281.39,160.75 281.39,160.96Z" style="fill:url(#_Linear4);fill-rule:nonzero;"/>
                    <path d="M280.67,107.04L280.67,137.49C280.67,137.7 280.35,137.87 279.95,137.87C279.55,137.87 279.23,137.7 279.23,137.49L279.23,107.04C279.23,106.83 279.55,106.66 279.95,106.66C280.35,106.66 280.67,106.83 280.67,107.04Z" style="fill:url(#_Linear5);fill-rule:nonzero;"/>
                    <path d="M254.62,63.318L254.62,132.792C254.62,141.572 247.492,148.7 238.712,148.7L38.008,148.7C29.228,148.7 22.1,141.572 22.1,132.792L22.1,63.318C22.1,54.538 29.228,47.41 38.008,47.41L238.712,47.41C247.492,47.41 254.62,54.538 254.62,63.318Z" style="fill:url(#_Linear6);"/>
                    <g transform="matrix(1,0,0,1,47.2,133.65)">
                        <text x="0px" y="0px" style="font-family:'Roboto-Regular', 'Roboto';font-size:100px;fill:rgb(210,195,224);">XYZ</text>
                    </g>
                </g>
            </g>
        </g>
    </g>
    <g id="duende-icon-id.svg" transform="matrix(1.42297,0,0,1.42297,1179.36,646.596)">
        <g id="User-copy">
            <g id="duende-icon-id.svg1" serif:id="duende-icon-id.svg">
                <g>
                    <path d="M102.97,5.271L102.97,57.189C102.97,60.098 100.608,62.46 97.699,62.46L5.271,62.46C2.362,62.46 0,60.098 0,57.189L0,5.271C0,2.362 2.362,0 5.271,0L97.699,0C100.608,0 102.97,2.362 102.97,5.271Z" style="fill:url(#_Linear7);"/>
                    <path d="M44.79,11.91L44.79,50.55C44.79,51.908 43.688,53.01 42.33,53.01L12.24,53.01C10.882,53.01 9.78,51.908 9.78,50.55L9.78,11.91C9.78,10.552 10.882,9.45 12.24,9.45L42.33,9.45C43.688,9.45 44.79,10.552 44.79,11.91Z" style="fill:url(#_Linear8);"/>
                    <g>
                        <circle cx="27.29" cy="24.45" r="8.24" style="fill:url(#_Linear9);"/>
                        <path d="M27.29,34.62C34.26,34.62 39.92,40.28 39.92,47.25L39.92,53.01L14.65,53.01L14.65,47.25C14.65,40.28 20.31,34.62 27.28,34.62L27.29,34.62Z" style="fill:url(#_Linear10);fill-rule:nonzero;"/>
                    </g>
                    <path d="M93.19,13.478L93.19,15.712C93.19,17.162 92.012,18.34 90.562,18.34L53.518,18.34C52.068,18.34 50.89,17.162 50.89,15.712L50.89,13.478C50.89,12.028 52.068,10.85 53.518,10.85L90.562,10.85C92.012,10.85 93.19,12.028 93.19,13.478Z" style="fill:url(#_Linear11);"/>
                    <path d="M61.3,50.046L61.3,50.774C61.3,51.235 60.925,51.61 60.464,51.61L52.676,51.61C52.215,51.61 51.84,51.235 51.84,50.774L51.84,50.046C51.84,49.585 52.215,49.21 52.676,49.21L60.464,49.21C60.925,49.21 61.3,49.585 61.3,50.046Z" style="fill:url(#_Linear12);"/>
                    <path d="M72.62,50.046L72.62,50.774C72.62,51.235 72.245,51.61 71.784,51.61L63.996,51.61C63.535,51.61 63.16,51.235 63.16,50.774L63.16,50.046C63.16,49.585 63.535,49.21 63.996,49.21L71.784,49.21C72.245,49.21 72.62,49.585 72.62,50.046Z" style="fill:url(#_Linear13);"/>
                    <path d="M85.87,24.645L85.87,25.555C85.87,26.148 85.388,26.63 84.795,26.63L52.565,26.63C51.972,26.63 51.49,26.148 51.49,25.555L51.49,24.645C51.49,24.052 51.972,23.57 52.565,23.57L84.795,23.57C85.388,23.57 85.87,24.052 85.87,24.645Z" style="fill:url(#_Linear14);"/>
                    <path d="M79.71,30.465L79.71,31.375C79.71,31.968 79.228,32.45 78.635,32.45L52.565,32.45C51.972,32.45 51.49,31.968 51.49,31.375L51.49,30.465C51.49,29.872 51.972,29.39 52.565,29.39L78.635,29.39C79.228,29.39 79.71,29.872 79.71,30.465Z" style="fill:url(#_Linear15);"/>
                    <path d="M85.87,36.285L85.87,37.195C85.87,37.788 85.388,38.27 84.795,38.27L52.565,38.27C51.972,38.27 51.49,37.788 51.49,37.195L51.49,36.285C51.49,35.692 51.972,35.21 52.565,35.21L84.795,35.21C85.388,35.21 85.87,35.692 85.87,36.285Z" style="fill:url(#_Linear16);"/>
                    <path d="M79.71,42.105L79.71,43.015C79.71,43.608 79.228,44.09 78.635,44.09L52.565,44.09C51.972,44.09 51.49,43.608 51.49,43.015L51.49,42.105C51.49,41.512 51.972,41.03 52.565,41.03L78.635,41.03C79.228,41.03 79.71,41.512 79.71,42.105Z" style="fill:url(#_Linear17);"/>
                </g>
            </g>
        </g>
    </g>
    <g id="duende-icon-key.svg" transform="matrix(0.70538,0,0,0.70538,409.863,536.883)">
        <g>
            <path d="M50.48,2.67C38.77,-3.38 24.38,1.2 18.32,12.9C14.08,21.11 15.06,30.63 20.06,37.68L0,76.49L10.36,81.85L16.24,78.4L23.41,78.83L26.2,73.44L21.7,67.84L25.06,61.35L32.23,61.78L39.5,47.72C48.14,47.72 56.48,43.03 60.73,34.82C66.78,23.11 62.2,8.72 50.5,2.66L50.48,2.67ZM50.27,30.02L28.29,18.65C27.3,18.14 27.03,16.87 27.68,15.97C31.75,10.3 39.47,8.33 45.85,11.63C52.23,14.93 55.08,22.37 52.81,28.97C52.45,30.02 51.26,30.53 50.27,30.02Z" style="fill:url(#_Linear18);fill-rule:nonzero;"/>
            <path d="M10.36,81.85L0,76.46L20.07,37.68L26.42,50.04L10.36,81.85Z" style="fill:url(#_Linear19);fill-rule:nonzero;"/>
        </g>
        <g transform="matrix(1,0,0,1,658.956,5.2081)">
            <path d="M50.48,2.67C38.77,-3.38 24.38,1.2 18.32,12.9C14.08,21.11 15.06,30.63 20.06,37.68L0,76.49L10.36,81.85L16.24,78.4L23.41,78.83L26.2,73.44L21.7,67.84L25.06,61.35L32.23,61.78L39.5,47.72C48.14,47.72 56.48,43.03 60.73,34.82C66.78,23.11 62.2,8.72 50.5,2.66L50.48,2.67ZM50.27,30.02L28.29,18.65C27.3,18.14 27.03,16.87 27.68,15.97C31.75,10.3 39.47,8.33 45.85,11.63C52.23,14.93 55.08,22.37 52.81,28.97C52.45,30.02 51.26,30.53 50.27,30.02Z" style="fill:url(#_Linear20);fill-rule:nonzero;"/>
            <path d="M10.36,81.85L0,76.46L20.07,37.68L26.42,50.04L10.36,81.85Z" style="fill:url(#_Linear21);fill-rule:nonzero;"/>
        </g>
        <g transform="matrix(5.47655,0,0,5.47655,1176.36,-474.767)">
            <path d="M41.871,6.339L29.585,6.339L29.585,1.344C29.585,0.602 28.983,0 28.241,0L16.324,0C15.582,0 14.98,0.602 14.98,1.344L14.98,6.339L2.694,6.339C1.206,6.339 0,7.545 0,9.033L0,34.892C0,36.38 1.206,37.586 2.694,37.586L41.871,37.586C43.359,37.586 44.565,36.38 44.565,34.892L44.565,9.033C44.565,7.545 43.359,6.339 41.871,6.339ZM16.842,6.339L16.842,3.48C16.842,2.735 17.446,2.131 18.191,2.131L26.372,2.131C27.117,2.131 27.721,2.735 27.721,3.48L27.721,6.339L16.841,6.339L16.842,6.339Z" style="fill:url(#_Linear22);fill-rule:nonzero;"/>
            <path d="M44.651,16.537L27.464,16.537C26.946,15.534 25.909,14.841 24.7,14.841L19.953,14.841C18.744,14.841 17.707,15.534 17.189,16.537L0,16.537L0,19.369L17.187,19.369C17.705,20.372 18.742,21.065 19.951,21.065L24.698,21.065C25.907,21.065 26.944,20.372 27.462,19.369L44.649,19.369L44.649,16.537L44.651,16.537Z" style="fill:url(#_Linear23);fill-rule:nonzero;"/>
        </g>
        <g transform="matrix(5.47655,0,0,5.47655,-473.802,-238.143)">
            <path d="M41.871,6.339L29.585,6.339L29.585,1.344C29.585,0.602 28.983,0 28.241,0L16.324,0C15.582,0 14.98,0.602 14.98,1.344L14.98,6.339L2.694,6.339C1.206,6.339 0,7.545 0,9.033L0,34.892C0,36.38 1.206,37.586 2.694,37.586L41.871,37.586C43.359,37.586 44.565,36.38 44.565,34.892L44.565,9.033C44.565,7.545 43.359,6.339 41.871,6.339ZM16.842,6.339L16.842,3.48C16.842,2.735 17.446,2.131 18.191,2.131L26.372,2.131C27.117,2.131 27.721,2.735 27.721,3.48L27.721,6.339L16.841,6.339L16.842,6.339Z" style="fill:url(#_Linear24);fill-rule:nonzero;"/>
            <path d="M44.651,16.537L27.464,16.537C26.946,15.534 25.909,14.841 24.7,14.841L19.953,14.841C18.744,14.841 17.707,15.534 17.189,16.537L0,16.537L0,19.369L17.187,19.369C17.705,20.372 18.742,21.065 19.951,21.065L24.698,21.065C25.907,21.065 26.944,20.372 27.462,19.369L44.649,19.369L44.649,16.537L44.651,16.537Z" style="fill:url(#_Linear25);fill-rule:nonzero;"/>
        </g>
    </g>
    <g id="Client-2" transform="matrix(1,0,0,1,397.979,463)">
        <text x="0px" y="0px" style="font-family:'Roboto-Regular', 'Roboto';font-size:36px;">Client 2</text>
    </g>
    <g id="Browser" transform="matrix(1,0,0,1,644.253,706)">
        <text x="0px" y="0px" style="font-family:'Roboto-Regular', 'Roboto';font-size:36px;">Br<tspan x="34.277px " y="0px ">o</tspan>wser</text>
    </g>
    <g id="Session-Monitor">
        <g transform="matrix(1,0,0,1,942.681,229)">
            <text x="0px" y="0px" style="font-family:'Roboto-Regular', 'Roboto';font-size:36px;">Session</text>
        </g>
        <g transform="matrix(1,0,0,1,943.618,266.8)">
            <text x="0px" y="0px" style="font-family:'Roboto-Regular', 'Roboto';font-size:36px;">Monit<tspan x="92.021px " y="0px ">o</tspan>r</text>
        </g>
        <g transform="matrix(0.62468,0,0,0.62468,886.714,202.617)">
            <g id="uuid-6f0b496b-0a3d-41f9-8939-72775ef71757">
                <g>
                    <path d="M42.67,-1L6.35,-1C2.84,-1 0,2.08 0,5.88L0,88.81C0,92.61 2.84,95.69 6.35,95.69L65.24,95.69C68.75,95.69 71.59,92.61 71.59,88.81L71.59,20.41L42.67,-1Z" style="fill:url(#_Linear26);fill-rule:nonzero;"/>
                    <path d="M49.02,20.41L71.59,20.41L42.67,-1L42.67,13.52C42.67,17.32 45.51,20.4 49.02,20.4L49.02,20.41Z" style="fill:url(#_Linear27);fill-rule:nonzero;"/>
                </g>
            </g>
            <g transform="matrix(1,0,0,1,7.66,34.83)">
                <g transform="matrix(12,0,0,12,0,0)">
                    <path d="M0.375,-0.713L0.375,-0L0.258,-0L0.258,-0.574L0.083,-0.514L0.083,-0.612L0.361,-0.713L0.375,-0.713Z" style="fill:rgb(145,107,219);fill-rule:nonzero;"/>
                </g>
                <g transform="matrix(12,0,0,12,6.82163,0)">
                    <path d="M0.517,-0.415L0.517,-0.299C0.517,-0.243 0.512,-0.196 0.501,-0.157C0.49,-0.117 0.474,-0.086 0.454,-0.061C0.433,-0.036 0.409,-0.019 0.38,-0.007C0.352,0.004 0.32,0.01 0.285,0.01C0.257,0.01 0.231,0.006 0.207,-0.001C0.183,-0.008 0.161,-0.019 0.142,-0.035C0.123,-0.05 0.107,-0.07 0.093,-0.094C0.079,-0.118 0.069,-0.147 0.062,-0.181C0.055,-0.215 0.051,-0.254 0.051,-0.299L0.051,-0.415C0.051,-0.471 0.056,-0.518 0.068,-0.557C0.079,-0.596 0.094,-0.627 0.115,-0.651C0.135,-0.676 0.16,-0.693 0.188,-0.704C0.217,-0.715 0.249,-0.721 0.284,-0.721C0.312,-0.721 0.338,-0.717 0.362,-0.71C0.386,-0.703 0.408,-0.692 0.427,-0.677C0.446,-0.662 0.462,-0.643 0.475,-0.619C0.489,-0.595 0.499,-0.566 0.506,-0.533C0.514,-0.499 0.517,-0.46 0.517,-0.415ZM0.399,-0.282L0.399,-0.432C0.399,-0.461 0.398,-0.486 0.394,-0.508C0.391,-0.529 0.386,-0.548 0.38,-0.563C0.374,-0.578 0.366,-0.59 0.357,-0.6C0.347,-0.609 0.336,-0.616 0.324,-0.621C0.312,-0.625 0.299,-0.627 0.284,-0.627C0.265,-0.627 0.249,-0.624 0.235,-0.617C0.22,-0.61 0.208,-0.599 0.199,-0.584C0.189,-0.568 0.182,-0.548 0.176,-0.523C0.171,-0.498 0.169,-0.468 0.169,-0.432L0.169,-0.282C0.169,-0.254 0.17,-0.228 0.174,-0.207C0.177,-0.185 0.182,-0.166 0.188,-0.151C0.195,-0.135 0.203,-0.122 0.212,-0.112C0.221,-0.103 0.232,-0.095 0.244,-0.091C0.256,-0.086 0.27,-0.084 0.285,-0.084C0.303,-0.084 0.32,-0.087 0.334,-0.095C0.348,-0.102 0.36,-0.114 0.37,-0.129C0.38,-0.145 0.387,-0.166 0.392,-0.191C0.397,-0.216 0.399,-0.247 0.399,-0.282Z" style="fill:rgb(145,107,219);fill-rule:nonzero;"/>
                </g>
                <g transform="matrix(12,0,0,12,13.6433,0)">
                    <path d="M0.375,-0.713L0.375,-0L0.258,-0L0.258,-0.574L0.083,-0.514L0.083,-0.612L0.361,-0.713L0.375,-0.713Z" style="fill:rgb(145,107,219);fill-rule:nonzero;"/>
                </g>
                <g transform="matrix(12,0,0,12,20.4649,0)">
                    <path d="M0.517,-0.415L0.517,-0.299C0.517,-0.243 0.512,-0.196 0.501,-0.157C0.49,-0.117 0.474,-0.086 0.454,-0.061C0.433,-0.036 0.409,-0.019 0.38,-0.007C0.352,0.004 0.32,0.01 0.285,0.01C0.257,0.01 0.231,0.006 0.207,-0.001C0.183,-0.008 0.161,-0.019 0.142,-0.035C0.123,-0.05 0.107,-0.07 0.093,-0.094C0.079,-0.118 0.069,-0.147 0.062,-0.181C0.055,-0.215 0.051,-0.254 0.051,-0.299L0.051,-0.415C0.051,-0.471 0.056,-0.518 0.068,-0.557C0.079,-0.596 0.094,-0.627 0.115,-0.651C0.135,-0.676 0.16,-0.693 0.188,-0.704C0.217,-0.715 0.249,-0.721 0.284,-0.721C0.312,-0.721 0.338,-0.717 0.362,-0.71C0.386,-0.703 0.408,-0.692 0.427,-0.677C0.446,-0.662 0.462,-0.643 0.475,-0.619C0.489,-0.595 0.499,-0.566 0.506,-0.533C0.514,-0.499 0.517,-0.46 0.517,-0.415ZM0.399,-0.282L0.399,-0.432C0.399,-0.461 0.398,-0.486 0.394,-0.508C0.391,-0.529 0.386,-0.548 0.38,-0.563C0.374,-0.578 0.366,-0.59 0.357,-0.6C0.347,-0.609 0.336,-0.616 0.324,-0.621C0.312,-0.625 0.299,-0.627 0.284,-0.627C0.265,-0.627 0.249,-0.624 0.235,-0.617C0.22,-0.61 0.208,-0.599 0.199,-0.584C0.189,-0.568 0.182,-0.548 0.176,-0.523C0.171,-0.498 0.169,-0.468 0.169,-0.432L0.169,-0.282C0.169,-0.254 0.17,-0.228 0.174,-0.207C0.177,-0.185 0.182,-0.166 0.188,-0.151C0.195,-0.135 0.203,-0.122 0.212,-0.112C0.221,-0.103 0.232,-0.095 0.244,-0.091C0.256,-0.086 0.27,-0.084 0.285,-0.084C0.303,-0.084 0.32,-0.087 0.334,-0.095C0.348,-0.102 0.36,-0.114 0.37,-0.129C0.38,-0.145 0.387,-0.166 0.392,-0.191C0.397,-0.216 0.399,-0.247 0.399,-0.282Z" style="fill:rgb(145,107,219);fill-rule:nonzero;"/>
                </g>
                <g transform="matrix(12,0,0,12,27.2865,0)">
                    <path d="M0.375,-0.713L0.375,-0L0.258,-0L0.258,-0.574L0.083,-0.514L0.083,-0.612L0.361,-0.713L0.375,-0.713Z" style="fill:rgb(145,107,219);fill-rule:nonzero;"/>
                </g>
                <g transform="matrix(12,0,0,12,34.1082,0)">
                    <path d="M0.517,-0.415L0.517,-0.299C0.517,-0.243 0.512,-0.196 0.501,-0.157C0.49,-0.117 0.474,-0.086 0.454,-0.061C0.433,-0.036 0.409,-0.019 0.38,-0.007C0.352,0.004 0.32,0.01 0.285,0.01C0.257,0.01 0.231,0.006 0.207,-0.001C0.183,-0.008 0.161,-0.019 0.142,-0.035C0.123,-0.05 0.107,-0.07 0.093,-0.094C0.079,-0.118 0.069,-0.147 0.062,-0.181C0.055,-0.215 0.051,-0.254 0.051,-0.299L0.051,-0.415C0.051,-0.471 0.056,-0.518 0.068,-0.557C0.079,-0.596 0.094,-0.627 0.115,-0.651C0.135,-0.676 0.16,-0.693 0.188,-0.704C0.217,-0.715 0.249,-0.721 0.284,-0.721C0.312,-0.721 0.338,-0.717 0.362,-0.71C0.386,-0.703 0.408,-0.692 0.427,-0.677C0.446,-0.662 0.462,-0.643 0.475,-0.619C0.489,-0.595 0.499,-0.566 0.506,-0.533C0.514,-0.499 0.517,-0.46 0.517,-0.415ZM0.399,-0.282L0.399,-0.432C0.399,-0.461 0.398,-0.486 0.394,-0.508C0.391,-0.529 0.386,-0.548 0.38,-0.563C0.374,-0.578 0.366,-0.59 0.357,-0.6C0.347,-0.609 0.336,-0.616 0.324,-0.621C0.312,-0.625 0.299,-0.627 0.284,-0.627C0.265,-0.627 0.249,-0.624 0.235,-0.617C0.22,-0.61 0.208,-0.599 0.199,-0.584C0.189,-0.568 0.182,-0.548 0.176,-0.523C0.171,-0.498 0.169,-0.468 0.169,-0.432L0.169,-0.282C0.169,-0.254 0.17,-0.228 0.174,-0.207C0.177,-0.185 0.182,-0.166 0.188,-0.151C0.195,-0.135 0.203,-0.122 0.212,-0.112C0.221,-0.103 0.232,-0.095 0.244,-0.091C0.256,-0.086 0.27,-0.084 0.285,-0.084C0.303,-0.084 0.32,-0.087 0.334,-0.095C0.348,-0.102 0.36,-0.114 0.37,-0.129C0.38,-0.145 0.387,-0.166 0.392,-0.191C0.397,-0.216 0.399,-0.247 0.399,-0.282Z" style="fill:rgb(145,107,219);fill-rule:nonzero;"/>
                </g>
                <g transform="matrix(12,0,0,12,40.9298,0)">
                    <path d="M0.375,-0.713L0.375,-0L0.258,-0L0.258,-0.574L0.083,-0.514L0.083,-0.612L0.361,-0.713L0.375,-0.713Z" style="fill:rgb(145,107,219);fill-rule:nonzero;"/>
                </g>
                <g transform="matrix(12,0,0,12,47.7514,0)">
                    <path d="M0.517,-0.415L0.517,-0.299C0.517,-0.243 0.512,-0.196 0.501,-0.157C0.49,-0.117 0.474,-0.086 0.454,-0.061C0.433,-0.036 0.409,-0.019 0.38,-0.007C0.352,0.004 0.32,0.01 0.285,0.01C0.257,0.01 0.231,0.006 0.207,-0.001C0.183,-0.008 0.161,-0.019 0.142,-0.035C0.123,-0.05 0.107,-0.07 0.093,-0.094C0.079,-0.118 0.069,-0.147 0.062,-0.181C0.055,-0.215 0.051,-0.254 0.051,-0.299L0.051,-0.415C0.051,-0.471 0.056,-0.518 0.068,-0.557C0.079,-0.596 0.094,-0.627 0.115,-0.651C0.135,-0.676 0.16,-0.693 0.188,-0.704C0.217,-0.715 0.249,-0.721 0.284,-0.721C0.312,-0.721 0.338,-0.717 0.362,-0.71C0.386,-0.703 0.408,-0.692 0.427,-0.677C0.446,-0.662 0.462,-0.643 0.475,-0.619C0.489,-0.595 0.499,-0.566 0.506,-0.533C0.514,-0.499 0.517,-0.46 0.517,-0.415ZM0.399,-0.282L0.399,-0.432C0.399,-0.461 0.398,-0.486 0.394,-0.508C0.391,-0.529 0.386,-0.548 0.38,-0.563C0.374,-0.578 0.366,-0.59 0.357,-0.6C0.347,-0.609 0.336,-0.616 0.324,-0.621C0.312,-0.625 0.299,-0.627 0.284,-0.627C0.265,-0.627 0.249,-0.624 0.235,-0.617C0.22,-0.61 0.208,-0.599 0.199,-0.584C0.189,-0.568 0.182,-0.548 0.176,-0.523C0.171,-0.498 0.169,-0.468 0.169,-0.432L0.169,-0.282C0.169,-0.254 0.17,-0.228 0.174,-0.207C0.177,-0.185 0.182,-0.166 0.188,-0.151C0.195,-0.135 0.203,-0.122 0.212,-0.112C0.221,-0.103 0.232,-0.095 0.244,-0.091C0.256,-0.086 0.27,-0.084 0.285,-0.084C0.303,-0.084 0.32,-0.087 0.334,-0.095C0.348,-0.102 0.36,-0.114 0.37,-0.129C0.38,-0.145 0.387,-0.166 0.392,-0.191C0.397,-0.216 0.399,-0.247 0.399,-0.282Z" style="fill:rgb(145,107,219);fill-rule:nonzero;"/>
                </g>
                <g transform="matrix(1,0,0,1,0,14.4)">
                    <g transform="matrix(12,0,0,12,0,0)">
                        <path d="M0.375,-0.713L0.375,-0L0.258,-0L0.258,-0.574L0.083,-0.514L0.083,-0.612L0.361,-0.713L0.375,-0.713Z" style="fill:rgb(145,107,219);fill-rule:nonzero;"/>
                    </g>
                    <g transform="matrix(12,0,0,12,6.82163,0)">
                        <path d="M0.517,-0.415L0.517,-0.299C0.517,-0.243 0.512,-0.196 0.501,-0.157C0.49,-0.117 0.474,-0.086 0.454,-0.061C0.433,-0.036 0.409,-0.019 0.38,-0.007C0.352,0.004 0.32,0.01 0.285,0.01C0.257,0.01 0.231,0.006 0.207,-0.001C0.183,-0.008 0.161,-0.019 0.142,-0.035C0.123,-0.05 0.107,-0.07 0.093,-0.094C0.079,-0.118 0.069,-0.147 0.062,-0.181C0.055,-0.215 0.051,-0.254 0.051,-0.299L0.051,-0.415C0.051,-0.471 0.056,-0.518 0.068,-0.557C0.079,-0.596 0.094,-0.627 0.115,-0.651C0.135,-0.676 0.16,-0.693 0.188,-0.704C0.217,-0.715 0.249,-0.721 0.284,-0.721C0.312,-0.721 0.338,-0.717 0.362,-0.71C0.386,-0.703 0.408,-0.692 0.427,-0.677C0.446,-0.662 0.462,-0.643 0.475,-0.619C0.489,-0.595 0.499,-0.566 0.506,-0.533C0.514,-0.499 0.517,-0.46 0.517,-0.415ZM0.399,-0.282L0.399,-0.432C0.399,-0.461 0.398,-0.486 0.394,-0.508C0.391,-0.529 0.386,-0.548 0.38,-0.563C0.374,-0.578 0.366,-0.59 0.357,-0.6C0.347,-0.609 0.336,-0.616 0.324,-0.621C0.312,-0.625 0.299,-0.627 0.284,-0.627C0.265,-0.627 0.249,-0.624 0.235,-0.617C0.22,-0.61 0.208,-0.599 0.199,-0.584C0.189,-0.568 0.182,-0.548 0.176,-0.523C0.171,-0.498 0.169,-0.468 0.169,-0.432L0.169,-0.282C0.169,-0.254 0.17,-0.228 0.174,-0.207C0.177,-0.185 0.182,-0.166 0.188,-0.151C0.195,-0.135 0.203,-0.122 0.212,-0.112C0.221,-0.103 0.232,-0.095 0.244,-0.091C0.256,-0.086 0.27,-0.084 0.285,-0.084C0.303,-0.084 0.32,-0.087 0.334,-0.095C0.348,-0.102 0.36,-0.114 0.37,-0.129C0.38,-0.145 0.387,-0.166 0.392,-0.191C0.397,-0.216 0.399,-0.247 0.399,-0.282Z" style="fill:rgb(145,107,219);fill-rule:nonzero;"/>
                    </g>
                    <g transform="matrix(12,0,0,12,13.6433,0)">
                        <path d="M0.375,-0.713L0.375,-0L0.258,-0L0.258,-0.574L0.083,-0.514L0.083,-0.612L0.361,-0.713L0.375,-0.713Z" style="fill:rgb(145,107,219);fill-rule:nonzero;"/>
                    </g>
                    <g transform="matrix(12,0,0,12,20.4649,0)">
                        <path d="M0.517,-0.415L0.517,-0.299C0.517,-0.243 0.512,-0.196 0.501,-0.157C0.49,-0.117 0.474,-0.086 0.454,-0.061C0.433,-0.036 0.409,-0.019 0.38,-0.007C0.352,0.004 0.32,0.01 0.285,0.01C0.257,0.01 0.231,0.006 0.207,-0.001C0.183,-0.008 0.161,-0.019 0.142,-0.035C0.123,-0.05 0.107,-0.07 0.093,-0.094C0.079,-0.118 0.069,-0.147 0.062,-0.181C0.055,-0.215 0.051,-0.254 0.051,-0.299L0.051,-0.415C0.051,-0.471 0.056,-0.518 0.068,-0.557C0.079,-0.596 0.094,-0.627 0.115,-0.651C0.135,-0.676 0.16,-0.693 0.188,-0.704C0.217,-0.715 0.249,-0.721 0.284,-0.721C0.312,-0.721 0.338,-0.717 0.362,-0.71C0.386,-0.703 0.408,-0.692 0.427,-0.677C0.446,-0.662 0.462,-0.643 0.475,-0.619C0.489,-0.595 0.499,-0.566 0.506,-0.533C0.514,-0.499 0.517,-0.46 0.517,-0.415ZM0.399,-0.282L0.399,-0.432C0.399,-0.461 0.398,-0.486 0.394,-0.508C0.391,-0.529 0.386,-0.548 0.38,-0.563C0.374,-0.578 0.366,-0.59 0.357,-0.6C0.347,-0.609 0.336,-0.616 0.324,-0.621C0.312,-0.625 0.299,-0.627 0.284,-0.627C0.265,-0.627 0.249,-0.624 0.235,-0.617C0.22,-0.61 0.208,-0.599 0.199,-0.584C0.189,-0.568 0.182,-0.548 0.176,-0.523C0.171,-0.498 0.169,-0.468 0.169,-0.432L0.169,-0.282C0.169,-0.254 0.17,-0.228 0.174,-0.207C0.177,-0.185 0.182,-0.166 0.188,-0.151C0.195,-0.135 0.203,-0.122 0.212,-0.112C0.221,-0.103 0.232,-0.095 0.244,-0.091C0.256,-0.086 0.27,-0.084 0.285,-0.084C0.303,-0.084 0.32,-0.087 0.334,-0.095C0.348,-0.102 0.36,-0.114 0.37,-0.129C0.38,-0.145 0.387,-0.166 0.392,-0.191C0.397,-0.216 0.399,-0.247 0.399,-0.282Z" style="fill:rgb(145,107,219);fill-rule:nonzero;"/>
                    </g>
                    <g transform="matrix(12,0,0,12,27.2865,0)">
                        <path d="M0.375,-0.713L0.375,-0L0.258,-0L0.258,-0.574L0.083,-0.514L0.083,-0.612L0.361,-0.713L0.375,-0.713Z" style="fill:rgb(145,107,219);fill-rule:nonzero;"/>
                    </g>
                </g>
                <g transform="matrix(1,0,0,1,34.1,14.4)">
                    <g transform="matrix(12,0,0,12,0,0)">
                        <path d="M0.517,-0.415L0.517,-0.299C0.517,-0.243 0.512,-0.196 0.501,-0.157C0.49,-0.117 0.474,-0.086 0.454,-0.061C0.433,-0.036 0.409,-0.019 0.38,-0.007C0.352,0.004 0.32,0.01 0.285,0.01C0.257,0.01 0.231,0.006 0.207,-0.001C0.183,-0.008 0.161,-0.019 0.142,-0.035C0.123,-0.05 0.107,-0.07 0.093,-0.094C0.079,-0.118 0.069,-0.147 0.062,-0.181C0.055,-0.215 0.051,-0.254 0.051,-0.299L0.051,-0.415C0.051,-0.471 0.056,-0.518 0.068,-0.557C0.079,-0.596 0.094,-0.627 0.115,-0.651C0.135,-0.676 0.16,-0.693 0.188,-0.704C0.217,-0.715 0.249,-0.721 0.284,-0.721C0.312,-0.721 0.338,-0.717 0.362,-0.71C0.386,-0.703 0.408,-0.692 0.427,-0.677C0.446,-0.662 0.462,-0.643 0.475,-0.619C0.489,-0.595 0.499,-0.566 0.506,-0.533C0.514,-0.499 0.517,-0.46 0.517,-0.415ZM0.399,-0.282L0.399,-0.432C0.399,-0.461 0.398,-0.486 0.394,-0.508C0.391,-0.529 0.386,-0.548 0.38,-0.563C0.374,-0.578 0.366,-0.59 0.357,-0.6C0.347,-0.609 0.336,-0.616 0.324,-0.621C0.312,-0.625 0.299,-0.627 0.284,-0.627C0.265,-0.627 0.249,-0.624 0.235,-0.617C0.22,-0.61 0.208,-0.599 0.199,-0.584C0.189,-0.568 0.182,-0.548 0.176,-0.523C0.171,-0.498 0.169,-0.468 0.169,-0.432L0.169,-0.282C0.169,-0.254 0.17,-0.228 0.174,-0.207C0.177,-0.185 0.182,-0.166 0.188,-0.151C0.195,-0.135 0.203,-0.122 0.212,-0.112C0.221,-0.103 0.232,-0.095 0.244,-0.091C0.256,-0.086 0.27,-0.084 0.285,-0.084C0.303,-0.084 0.32,-0.087 0.334,-0.095C0.348,-0.102 0.36,-0.114 0.37,-0.129C0.38,-0.145 0.387,-0.166 0.392,-0.191C0.397,-0.216 0.399,-0.247 0.399,-0.282Z" style="fill:rgb(211,196,241);fill-rule:nonzero;"/>
                    </g>
                    <g transform="matrix(12,0,0,12,6.82163,0)">
                        <path d="M0.375,-0.713L0.375,-0L0.258,-0L0.258,-0.574L0.083,-0.514L0.083,-0.612L0.361,-0.713L0.375,-0.713Z" style="fill:rgb(211,196,241);fill-rule:nonzero;"/>
                    </g>
                    <g transform="matrix(12,0,0,12,13.6433,0)">
                        <path d="M0.517,-0.415L0.517,-0.299C0.517,-0.243 0.512,-0.196 0.501,-0.157C0.49,-0.117 0.474,-0.086 0.454,-0.061C0.433,-0.036 0.409,-0.019 0.38,-0.007C0.352,0.004 0.32,0.01 0.285,0.01C0.257,0.01 0.231,0.006 0.207,-0.001C0.183,-0.008 0.161,-0.019 0.142,-0.035C0.123,-0.05 0.107,-0.07 0.093,-0.094C0.079,-0.118 0.069,-0.147 0.062,-0.181C0.055,-0.215 0.051,-0.254 0.051,-0.299L0.051,-0.415C0.051,-0.471 0.056,-0.518 0.068,-0.557C0.079,-0.596 0.094,-0.627 0.115,-0.651C0.135,-0.676 0.16,-0.693 0.188,-0.704C0.217,-0.715 0.249,-0.721 0.284,-0.721C0.312,-0.721 0.338,-0.717 0.362,-0.71C0.386,-0.703 0.408,-0.692 0.427,-0.677C0.446,-0.662 0.462,-0.643 0.475,-0.619C0.489,-0.595 0.499,-0.566 0.506,-0.533C0.514,-0.499 0.517,-0.46 0.517,-0.415ZM0.399,-0.282L0.399,-0.432C0.399,-0.461 0.398,-0.486 0.394,-0.508C0.391,-0.529 0.386,-0.548 0.38,-0.563C0.374,-0.578 0.366,-0.59 0.357,-0.6C0.347,-0.609 0.336,-0.616 0.324,-0.621C0.312,-0.625 0.299,-0.627 0.284,-0.627C0.265,-0.627 0.249,-0.624 0.235,-0.617C0.22,-0.61 0.208,-0.599 0.199,-0.584C0.189,-0.568 0.182,-0.548 0.176,-0.523C0.171,-0.498 0.169,-0.468 0.169,-0.432L0.169,-0.282C0.169,-0.254 0.17,-0.228 0.174,-0.207C0.177,-0.185 0.182,-0.166 0.188,-0.151C0.195,-0.135 0.203,-0.122 0.212,-0.112C0.221,-0.103 0.232,-0.095 0.244,-0.091C0.256,-0.086 0.27,-0.084 0.285,-0.084C0.303,-0.084 0.32,-0.087 0.334,-0.095C0.348,-0.102 0.36,-0.114 0.37,-0.129C0.38,-0.145 0.387,-0.166 0.392,-0.191C0.397,-0.216 0.399,-0.247 0.399,-0.282Z" style="fill:rgb(211,196,241);fill-rule:nonzero;"/>
                    </g>
                </g>
                <g transform="matrix(1,0,0,1,0,28.8)">
                    <g transform="matrix(12,0,0,12,0,0)">
                        <path d="M0.375,-0.713L0.375,-0L0.258,-0L0.258,-0.574L0.083,-0.514L0.083,-0.612L0.361,-0.713L0.375,-0.713Z" style="fill:rgb(211,196,241);fill-rule:nonzero;"/>
                    </g>
                    <g transform="matrix(12,0,0,12,6.82163,0)">
                        <path d="M0.517,-0.415L0.517,-0.299C0.517,-0.243 0.512,-0.196 0.501,-0.157C0.49,-0.117 0.474,-0.086 0.454,-0.061C0.433,-0.036 0.409,-0.019 0.38,-0.007C0.352,0.004 0.32,0.01 0.285,0.01C0.257,0.01 0.231,0.006 0.207,-0.001C0.183,-0.008 0.161,-0.019 0.142,-0.035C0.123,-0.05 0.107,-0.07 0.093,-0.094C0.079,-0.118 0.069,-0.147 0.062,-0.181C0.055,-0.215 0.051,-0.254 0.051,-0.299L0.051,-0.415C0.051,-0.471 0.056,-0.518 0.068,-0.557C0.079,-0.596 0.094,-0.627 0.115,-0.651C0.135,-0.676 0.16,-0.693 0.188,-0.704C0.217,-0.715 0.249,-0.721 0.284,-0.721C0.312,-0.721 0.338,-0.717 0.362,-0.71C0.386,-0.703 0.408,-0.692 0.427,-0.677C0.446,-0.662 0.462,-0.643 0.475,-0.619C0.489,-0.595 0.499,-0.566 0.506,-0.533C0.514,-0.499 0.517,-0.46 0.517,-0.415ZM0.399,-0.282L0.399,-0.432C0.399,-0.461 0.398,-0.486 0.394,-0.508C0.391,-0.529 0.386,-0.548 0.38,-0.563C0.374,-0.578 0.366,-0.59 0.357,-0.6C0.347,-0.609 0.336,-0.616 0.324,-0.621C0.312,-0.625 0.299,-0.627 0.284,-0.627C0.265,-0.627 0.249,-0.624 0.235,-0.617C0.22,-0.61 0.208,-0.599 0.199,-0.584C0.189,-0.568 0.182,-0.548 0.176,-0.523C0.171,-0.498 0.169,-0.468 0.169,-0.432L0.169,-0.282C0.169,-0.254 0.17,-0.228 0.174,-0.207C0.177,-0.185 0.182,-0.166 0.188,-0.151C0.195,-0.135 0.203,-0.122 0.212,-0.112C0.221,-0.103 0.232,-0.095 0.244,-0.091C0.256,-0.086 0.27,-0.084 0.285,-0.084C0.303,-0.084 0.32,-0.087 0.334,-0.095C0.348,-0.102 0.36,-0.114 0.37,-0.129C0.38,-0.145 0.387,-0.166 0.392,-0.191C0.397,-0.216 0.399,-0.247 0.399,-0.282Z" style="fill:rgb(211,196,241);fill-rule:nonzero;"/>
                    </g>
                    <g transform="matrix(12,0,0,12,13.6433,0)">
                        <path d="M0.375,-0.713L0.375,-0L0.258,-0L0.258,-0.574L0.083,-0.514L0.083,-0.612L0.361,-0.713L0.375,-0.713Z" style="fill:rgb(211,196,241);fill-rule:nonzero;"/>
                    </g>
                    <g transform="matrix(12,0,0,12,20.4649,0)">
                        <path d="M0.517,-0.415L0.517,-0.299C0.517,-0.243 0.512,-0.196 0.501,-0.157C0.49,-0.117 0.474,-0.086 0.454,-0.061C0.433,-0.036 0.409,-0.019 0.38,-0.007C0.352,0.004 0.32,0.01 0.285,0.01C0.257,0.01 0.231,0.006 0.207,-0.001C0.183,-0.008 0.161,-0.019 0.142,-0.035C0.123,-0.05 0.107,-0.07 0.093,-0.094C0.079,-0.118 0.069,-0.147 0.062,-0.181C0.055,-0.215 0.051,-0.254 0.051,-0.299L0.051,-0.415C0.051,-0.471 0.056,-0.518 0.068,-0.557C0.079,-0.596 0.094,-0.627 0.115,-0.651C0.135,-0.676 0.16,-0.693 0.188,-0.704C0.217,-0.715 0.249,-0.721 0.284,-0.721C0.312,-0.721 0.338,-0.717 0.362,-0.71C0.386,-0.703 0.408,-0.692 0.427,-0.677C0.446,-0.662 0.462,-0.643 0.475,-0.619C0.489,-0.595 0.499,-0.566 0.506,-0.533C0.514,-0.499 0.517,-0.46 0.517,-0.415ZM0.399,-0.282L0.399,-0.432C0.399,-0.461 0.398,-0.486 0.394,-0.508C0.391,-0.529 0.386,-0.548 0.38,-0.563C0.374,-0.578 0.366,-0.59 0.357,-0.6C0.347,-0.609 0.336,-0.616 0.324,-0.621C0.312,-0.625 0.299,-0.627 0.284,-0.627C0.265,-0.627 0.249,-0.624 0.235,-0.617C0.22,-0.61 0.208,-0.599 0.199,-0.584C0.189,-0.568 0.182,-0.548 0.176,-0.523C0.171,-0.498 0.169,-0.468 0.169,-0.432L0.169,-0.282C0.169,-0.254 0.17,-0.228 0.174,-0.207C0.177,-0.185 0.182,-0.166 0.188,-0.151C0.195,-0.135 0.203,-0.122 0.212,-0.112C0.221,-0.103 0.232,-0.095 0.244,-0.091C0.256,-0.086 0.27,-0.084 0.285,-0.084C0.303,-0.084 0.32,-0.087 0.334,-0.095C0.348,-0.102 0.36,-0.114 0.37,-0.129C0.38,-0.145 0.387,-0.166 0.392,-0.191C0.397,-0.216 0.399,-0.247 0.399,-0.282Z" style="fill:rgb(211,196,241);fill-rule:nonzero;"/>
                    </g>
                    <g transform="matrix(12,0,0,12,27.2865,0)">
                        <path d="M0.375,-0.713L0.375,-0L0.258,-0L0.258,-0.574L0.083,-0.514L0.083,-0.612L0.361,-0.713L0.375,-0.713Z" style="fill:rgb(211,196,241);fill-rule:nonzero;"/>
                    </g>
                    <g transform="matrix(12,0,0,12,34.1082,0)">
                        <path d="M0.517,-0.415L0.517,-0.299C0.517,-0.243 0.512,-0.196 0.501,-0.157C0.49,-0.117 0.474,-0.086 0.454,-0.061C0.433,-0.036 0.409,-0.019 0.38,-0.007C0.352,0.004 0.32,0.01 0.285,0.01C0.257,0.01 0.231,0.006 0.207,-0.001C0.183,-0.008 0.161,-0.019 0.142,-0.035C0.123,-0.05 0.107,-0.07 0.093,-0.094C0.079,-0.118 0.069,-0.147 0.062,-0.181C0.055,-0.215 0.051,-0.254 0.051,-0.299L0.051,-0.415C0.051,-0.471 0.056,-0.518 0.068,-0.557C0.079,-0.596 0.094,-0.627 0.115,-0.651C0.135,-0.676 0.16,-0.693 0.188,-0.704C0.217,-0.715 0.249,-0.721 0.284,-0.721C0.312,-0.721 0.338,-0.717 0.362,-0.71C0.386,-0.703 0.408,-0.692 0.427,-0.677C0.446,-0.662 0.462,-0.643 0.475,-0.619C0.489,-0.595 0.499,-0.566 0.506,-0.533C0.514,-0.499 0.517,-0.46 0.517,-0.415ZM0.399,-0.282L0.399,-0.432C0.399,-0.461 0.398,-0.486 0.394,-0.508C0.391,-0.529 0.386,-0.548 0.38,-0.563C0.374,-0.578 0.366,-0.59 0.357,-0.6C0.347,-0.609 0.336,-0.616 0.324,-0.621C0.312,-0.625 0.299,-0.627 0.284,-0.627C0.265,-0.627 0.249,-0.624 0.235,-0.617C0.22,-0.61 0.208,-0.599 0.199,-0.584C0.189,-0.568 0.182,-0.548 0.176,-0.523C0.171,-0.498 0.169,-0.468 0.169,-0.432L0.169,-0.282C0.169,-0.254 0.17,-0.228 0.174,-0.207C0.177,-0.185 0.182,-0.166 0.188,-0.151C0.195,-0.135 0.203,-0.122 0.212,-0.112C0.221,-0.103 0.232,-0.095 0.244,-0.091C0.256,-0.086 0.27,-0.084 0.285,-0.084C0.303,-0.084 0.32,-0.087 0.334,-0.095C0.348,-0.102 0.36,-0.114 0.37,-0.129C0.38,-0.145 0.387,-0.166 0.392,-0.191C0.397,-0.216 0.399,-0.247 0.399,-0.282Z" style="fill:rgb(211,196,241);fill-rule:nonzero;"/>
                    </g>
                    <g transform="matrix(12,0,0,12,40.9298,0)">
                        <path d="M0.375,-0.713L0.375,-0L0.258,-0L0.258,-0.574L0.083,-0.514L0.083,-0.612L0.361,-0.713L0.375,-0.713Z" style="fill:rgb(211,196,241);fill-rule:nonzero;"/>
                    </g>
                    <g transform="matrix(12,0,0,12,47.7514,0)">
                        <path d="M0.517,-0.415L0.517,-0.299C0.517,-0.243 0.512,-0.196 0.501,-0.157C0.49,-0.117 0.474,-0.086 0.454,-0.061C0.433,-0.036 0.409,-0.019 0.38,-0.007C0.352,0.004 0.32,0.01 0.285,0.01C0.257,0.01 0.231,0.006 0.207,-0.001C0.183,-0.008 0.161,-0.019 0.142,-0.035C0.123,-0.05 0.107,-0.07 0.093,-0.094C0.079,-0.118 0.069,-0.147 0.062,-0.181C0.055,-0.215 0.051,-0.254 0.051,-0.299L0.051,-0.415C0.051,-0.471 0.056,-0.518 0.068,-0.557C0.079,-0.596 0.094,-0.627 0.115,-0.651C0.135,-0.676 0.16,-0.693 0.188,-0.704C0.217,-0.715 0.249,-0.721 0.284,-0.721C0.312,-0.721 0.338,-0.717 0.362,-0.71C0.386,-0.703 0.408,-0.692 0.427,-0.677C0.446,-0.662 0.462,-0.643 0.475,-0.619C0.489,-0.595 0.499,-0.566 0.506,-0.533C0.514,-0.499 0.517,-0.46 0.517,-0.415ZM0.399,-0.282L0.399,-0.432C0.399,-0.461 0.398,-0.486 0.394,-0.508C0.391,-0.529 0.386,-0.548 0.38,-0.563C0.374,-0.578 0.366,-0.59 0.357,-0.6C0.347,-0.609 0.336,-0.616 0.324,-0.621C0.312,-0.625 0.299,-0.627 0.284,-0.627C0.265,-0.627 0.249,-0.624 0.235,-0.617C0.22,-0.61 0.208,-0.599 0.199,-0.584C0.189,-0.568 0.182,-0.548 0.176,-0.523C0.171,-0.498 0.169,-0.468 0.169,-0.432L0.169,-0.282C0.169,-0.254 0.17,-0.228 0.174,-0.207C0.177,-0.185 0.182,-0.166 0.188,-0.151C0.195,-0.135 0.203,-0.122 0.212,-0.112C0.221,-0.103 0.232,-0.095 0.244,-0.091C0.256,-0.086 0.27,-0.084 0.285,-0.084C0.303,-0.084 0.32,-0.087 0.334,-0.095C0.348,-0.102 0.36,-0.114 0.37,-0.129C0.38,-0.145 0.387,-0.166 0.392,-0.191C0.397,-0.216 0.399,-0.247 0.399,-0.282Z" style="fill:rgb(211,196,241);fill-rule:nonzero;"/>
                    </g>
                </g>
                <g transform="matrix(1,0,0,1,0,43.2)">
                    <g transform="matrix(12,0,0,12,0,0)">
                        <path d="M0.375,-0.713L0.375,-0L0.258,-0L0.258,-0.574L0.083,-0.514L0.083,-0.612L0.361,-0.713L0.375,-0.713Z" style="fill:rgb(211,196,241);fill-rule:nonzero;"/>
                    </g>
                    <g transform="matrix(12,0,0,12,6.82163,0)">
                        <path d="M0.517,-0.415L0.517,-0.299C0.517,-0.243 0.512,-0.196 0.501,-0.157C0.49,-0.117 0.474,-0.086 0.454,-0.061C0.433,-0.036 0.409,-0.019 0.38,-0.007C0.352,0.004 0.32,0.01 0.285,0.01C0.257,0.01 0.231,0.006 0.207,-0.001C0.183,-0.008 0.161,-0.019 0.142,-0.035C0.123,-0.05 0.107,-0.07 0.093,-0.094C0.079,-0.118 0.069,-0.147 0.062,-0.181C0.055,-0.215 0.051,-0.254 0.051,-0.299L0.051,-0.415C0.051,-0.471 0.056,-0.518 0.068,-0.557C0.079,-0.596 0.094,-0.627 0.115,-0.651C0.135,-0.676 0.16,-0.693 0.188,-0.704C0.217,-0.715 0.249,-0.721 0.284,-0.721C0.312,-0.721 0.338,-0.717 0.362,-0.71C0.386,-0.703 0.408,-0.692 0.427,-0.677C0.446,-0.662 0.462,-0.643 0.475,-0.619C0.489,-0.595 0.499,-0.566 0.506,-0.533C0.514,-0.499 0.517,-0.46 0.517,-0.415ZM0.399,-0.282L0.399,-0.432C0.399,-0.461 0.398,-0.486 0.394,-0.508C0.391,-0.529 0.386,-0.548 0.38,-0.563C0.374,-0.578 0.366,-0.59 0.357,-0.6C0.347,-0.609 0.336,-0.616 0.324,-0.621C0.312,-0.625 0.299,-0.627 0.284,-0.627C0.265,-0.627 0.249,-0.624 0.235,-0.617C0.22,-0.61 0.208,-0.599 0.199,-0.584C0.189,-0.568 0.182,-0.548 0.176,-0.523C0.171,-0.498 0.169,-0.468 0.169,-0.432L0.169,-0.282C0.169,-0.254 0.17,-0.228 0.174,-0.207C0.177,-0.185 0.182,-0.166 0.188,-0.151C0.195,-0.135 0.203,-0.122 0.212,-0.112C0.221,-0.103 0.232,-0.095 0.244,-0.091C0.256,-0.086 0.27,-0.084 0.285,-0.084C0.303,-0.084 0.32,-0.087 0.334,-0.095C0.348,-0.102 0.36,-0.114 0.37,-0.129C0.38,-0.145 0.387,-0.166 0.392,-0.191C0.397,-0.216 0.399,-0.247 0.399,-0.282Z" style="fill:rgb(211,196,241);fill-rule:nonzero;"/>
                    </g>
                    <g transform="matrix(12,0,0,12,13.6433,0)">
                        <path d="M0.375,-0.713L0.375,-0L0.258,-0L0.258,-0.574L0.083,-0.514L0.083,-0.612L0.361,-0.713L0.375,-0.713Z" style="fill:rgb(211,196,241);fill-rule:nonzero;"/>
                    </g>
                    <g transform="matrix(12,0,0,12,20.4649,0)">
                        <path d="M0.517,-0.415L0.517,-0.299C0.517,-0.243 0.512,-0.196 0.501,-0.157C0.49,-0.117 0.474,-0.086 0.454,-0.061C0.433,-0.036 0.409,-0.019 0.38,-0.007C0.352,0.004 0.32,0.01 0.285,0.01C0.257,0.01 0.231,0.006 0.207,-0.001C0.183,-0.008 0.161,-0.019 0.142,-0.035C0.123,-0.05 0.107,-0.07 0.093,-0.094C0.079,-0.118 0.069,-0.147 0.062,-0.181C0.055,-0.215 0.051,-0.254 0.051,-0.299L0.051,-0.415C0.051,-0.471 0.056,-0.518 0.068,-0.557C0.079,-0.596 0.094,-0.627 0.115,-0.651C0.135,-0.676 0.16,-0.693 0.188,-0.704C0.217,-0.715 0.249,-0.721 0.284,-0.721C0.312,-0.721 0.338,-0.717 0.362,-0.71C0.386,-0.703 0.408,-0.692 0.427,-0.677C0.446,-0.662 0.462,-0.643 0.475,-0.619C0.489,-0.595 0.499,-0.566 0.506,-0.533C0.514,-0.499 0.517,-0.46 0.517,-0.415ZM0.399,-0.282L0.399,-0.432C0.399,-0.461 0.398,-0.486 0.394,-0.508C0.391,-0.529 0.386,-0.548 0.38,-0.563C0.374,-0.578 0.366,-0.59 0.357,-0.6C0.347,-0.609 0.336,-0.616 0.324,-0.621C0.312,-0.625 0.299,-0.627 0.284,-0.627C0.265,-0.627 0.249,-0.624 0.235,-0.617C0.22,-0.61 0.208,-0.599 0.199,-0.584C0.189,-0.568 0.182,-0.548 0.176,-0.523C0.171,-0.498 0.169,-0.468 0.169,-0.432L0.169,-0.282C0.169,-0.254 0.17,-0.228 0.174,-0.207C0.177,-0.185 0.182,-0.166 0.188,-0.151C0.195,-0.135 0.203,-0.122 0.212,-0.112C0.221,-0.103 0.232,-0.095 0.244,-0.091C0.256,-0.086 0.27,-0.084 0.285,-0.084C0.303,-0.084 0.32,-0.087 0.334,-0.095C0.348,-0.102 0.36,-0.114 0.37,-0.129C0.38,-0.145 0.387,-0.166 0.392,-0.191C0.397,-0.216 0.399,-0.247 0.399,-0.282Z" style="fill:rgb(211,196,241);fill-rule:nonzero;"/>
                    </g>
                    <g transform="matrix(12,0,0,12,27.2865,0)">
                        <path d="M0.375,-0.713L0.375,-0L0.258,-0L0.258,-0.574L0.083,-0.514L0.083,-0.612L0.361,-0.713L0.375,-0.713Z" style="fill:rgb(211,196,241);fill-rule:nonzero;"/>
                    </g>
                    <g transform="matrix(12,0,0,12,34.1082,0)">
                        <path d="M0.517,-0.415L0.517,-0.299C0.517,-0.243 0.512,-0.196 0.501,-0.157C0.49,-0.117 0.474,-0.086 0.454,-0.061C0.433,-0.036 0.409,-0.019 0.38,-0.007C0.352,0.004 0.32,0.01 0.285,0.01C0.257,0.01 0.231,0.006 0.207,-0.001C0.183,-0.008 0.161,-0.019 0.142,-0.035C0.123,-0.05 0.107,-0.07 0.093,-0.094C0.079,-0.118 0.069,-0.147 0.062,-0.181C0.055,-0.215 0.051,-0.254 0.051,-0.299L0.051,-0.415C0.051,-0.471 0.056,-0.518 0.068,-0.557C0.079,-0.596 0.094,-0.627 0.115,-0.651C0.135,-0.676 0.16,-0.693 0.188,-0.704C0.217,-0.715 0.249,-0.721 0.284,-0.721C0.312,-0.721 0.338,-0.717 0.362,-0.71C0.386,-0.703 0.408,-0.692 0.427,-0.677C0.446,-0.662 0.462,-0.643 0.475,-0.619C0.489,-0.595 0.499,-0.566 0.506,-0.533C0.514,-0.499 0.517,-0.46 0.517,-0.415ZM0.399,-0.282L0.399,-0.432C0.399,-0.461 0.398,-0.486 0.394,-0.508C0.391,-0.529 0.386,-0.548 0.38,-0.563C0.374,-0.578 0.366,-0.59 0.357,-0.6C0.347,-0.609 0.336,-0.616 0.324,-0.621C0.312,-0.625 0.299,-0.627 0.284,-0.627C0.265,-0.627 0.249,-0.624 0.235,-0.617C0.22,-0.61 0.208,-0.599 0.199,-0.584C0.189,-0.568 0.182,-0.548 0.176,-0.523C0.171,-0.498 0.169,-0.468 0.169,-0.432L0.169,-0.282C0.169,-0.254 0.17,-0.228 0.174,-0.207C0.177,-0.185 0.182,-0.166 0.188,-0.151C0.195,-0.135 0.203,-0.122 0.212,-0.112C0.221,-0.103 0.232,-0.095 0.244,-0.091C0.256,-0.086 0.27,-0.084 0.285,-0.084C0.303,-0.084 0.32,-0.087 0.334,-0.095C0.348,-0.102 0.36,-0.114 0.37,-0.129C0.38,-0.145 0.387,-0.166 0.392,-0.191C0.397,-0.216 0.399,-0.247 0.399,-0.282Z" style="fill:rgb(211,196,241);fill-rule:nonzero;"/>
                    </g>
                    <g transform="matrix(12,0,0,12,40.9298,0)">
                        <path d="M0.375,-0.713L0.375,-0L0.258,-0L0.258,-0.574L0.083,-0.514L0.083,-0.612L0.361,-0.713L0.375,-0.713Z" style="fill:rgb(211,196,241);fill-rule:nonzero;"/>
                    </g>
                    <g transform="matrix(12,0,0,12,47.7514,0)">
                        <path d="M0.517,-0.415L0.517,-0.299C0.517,-0.243 0.512,-0.196 0.501,-0.157C0.49,-0.117 0.474,-0.086 0.454,-0.061C0.433,-0.036 0.409,-0.019 0.38,-0.007C0.352,0.004 0.32,0.01 0.285,0.01C0.257,0.01 0.231,0.006 0.207,-0.001C0.183,-0.008 0.161,-0.019 0.142,-0.035C0.123,-0.05 0.107,-0.07 0.093,-0.094C0.079,-0.118 0.069,-0.147 0.062,-0.181C0.055,-0.215 0.051,-0.254 0.051,-0.299L0.051,-0.415C0.051,-0.471 0.056,-0.518 0.068,-0.557C0.079,-0.596 0.094,-0.627 0.115,-0.651C0.135,-0.676 0.16,-0.693 0.188,-0.704C0.217,-0.715 0.249,-0.721 0.284,-0.721C0.312,-0.721 0.338,-0.717 0.362,-0.71C0.386,-0.703 0.408,-0.692 0.427,-0.677C0.446,-0.662 0.462,-0.643 0.475,-0.619C0.489,-0.595 0.499,-0.566 0.506,-0.533C0.514,-0.499 0.517,-0.46 0.517,-0.415ZM0.399,-0.282L0.399,-0.432C0.399,-0.461 0.398,-0.486 0.394,-0.508C0.391,-0.529 0.386,-0.548 0.38,-0.563C0.374,-0.578 0.366,-0.59 0.357,-0.6C0.347,-0.609 0.336,-0.616 0.324,-0.621C0.312,-0.625 0.299,-0.627 0.284,-0.627C0.265,-0.627 0.249,-0.624 0.235,-0.617C0.22,-0.61 0.208,-0.599 0.199,-0.584C0.189,-0.568 0.182,-0.548 0.176,-0.523C0.171,-0.498 0.169,-0.468 0.169,-0.432L0.169,-0.282C0.169,-0.254 0.17,-0.228 0.174,-0.207C0.177,-0.185 0.182,-0.166 0.188,-0.151C0.195,-0.135 0.203,-0.122 0.212,-0.112C0.221,-0.103 0.232,-0.095 0.244,-0.091C0.256,-0.086 0.27,-0.084 0.285,-0.084C0.303,-0.084 0.32,-0.087 0.334,-0.095C0.348,-0.102 0.36,-0.114 0.37,-0.129C0.38,-0.145 0.387,-0.166 0.392,-0.191C0.397,-0.216 0.399,-0.247 0.399,-0.282Z" style="fill:rgb(211,196,241);fill-rule:nonzero;"/>
                    </g>
                </g>
            </g>
        </g>
    </g>
    <g id="Coordination-Service">
        <g transform="matrix(1,0,0,1,880.737,419)">
            <text x="0px" y="0px" style="font-family:'Roboto-Regular', 'Roboto';font-size:36px;">Coor<tspan x="76.359px " y="0px ">d</tspan>ination</text>
        </g>
        <g transform="matrix(1,0,0,1,924.47,456.8)">
            <text x="0px" y="0px" style="font-family:'Roboto-Regular', 'Roboto';font-size:36px;">Ser<tspan x="52.98px " y="0px ">v</tspan>ice</text>
        </g>
    </g>
    <g id="IdentityServer" transform="matrix(1,0,0,1,845.919,152)">
        <text x="0px" y="0px" style="font-family:'Roboto-Regular', 'Roboto';font-size:36px;">IdentitySer<tspan x="171.387px 188.596px " y="0px 0px ">ve</tspan>r</text>
    </g>
    <path id="Rounded-Rectangle-copy-4" d="M364,707C364,729.091 381.909,747 404,747L1021,747C1043.09,747 1061,729.091 1061,707L1061,672C1061,649.909 1043.09,632 1021,632L404,632C381.909,632 364,649.909 364,672L364,707Z" style="fill:none;fill-rule:nonzero;stroke:rgb(145,107,219);stroke-width:5px;"/>
    <path id="Rounded-Rectangle-copy-8" d="M854,244C854,266.091 871.909,284 894,284L1066,284C1088.09,284 1106,266.091 1106,244L1106,224C1106,201.909 1088.09,184 1066,184L894,184C871.909,184 854,201.909 854,224L854,244Z" style="fill:none;fill-rule:nonzero;stroke:rgb(145,107,219);stroke-width:5px;"/>
    <path id="Rounded-Rectangle-copy-9" d="M854,434C854,456.091 871.909,474 894,474L1066,474C1088.09,474 1106,456.091 1106,434L1106,414C1106,391.909 1088.09,374 1066,374L894,374C871.909,374 854,391.909 854,414L854,434Z" style="fill:none;fill-rule:nonzero;stroke:rgb(145,107,219);stroke-width:5px;"/>
    <path id="Rounded-Rectangle-copy-5" d="M376,477C376,499.091 393.909,517 416,517L507,517C529.091,517 547,499.091 547,477L547,414C547,391.909 529.091,374 507,374L416,374C393.909,374 376,391.909 376,414L376,477Z" style="fill:none;fill-rule:nonzero;stroke:rgb(145,107,219);stroke-width:5px;"/>
    <path id="Rounded-Rectangle-copy-6" d="M268,287C268,309.091 285.909,327 308,327L399,327C421.091,327 439,309.091 439,287L439,224C439,201.909 421.091,184 399,184L308,184C285.909,184 268,201.909 268,224L268,287Z" style="fill:none;fill-rule:nonzero;stroke:rgb(145,107,219);stroke-width:5px;"/>
    <path id="Rounded-Rectangle-copy-7" d="M776,466C776,488.091 793.909,506 816,506L1108,506C1130.09,506 1148,488.091 1148,466L1148,65C1148,42.909 1130.09,25 1108,25L816,25C793.909,25 776,42.909 776,65L776,466Z" style="fill:none;fill-rule:nonzero;stroke:rgb(145,107,219);stroke-width:5px;"/>
    <g id="Line">
        <path id="path1" d="M776,250L711.75,250" style="fill:none;fill-rule:nonzero;stroke:rgb(145,107,219);stroke-width:5px;"/>
        <path id="path2" d="M711.75,259.75C706.365,259.75 702,255.385 702,250C702,244.615 706.365,240.25 711.75,240.25C717.135,240.25 721.5,244.615 721.5,250C721.5,255.385 717.135,259.75 711.75,259.75Z" style="fill:rgb(145,107,219);fill-rule:nonzero;"/>
    </g>
    <g id="Client-1" transform="matrix(1,0,0,1,289.979,273)">
        <text x="0px" y="0px" style="font-family:'Roboto-Regular', 'Roboto';font-size:36px;">Client 1</text>
    </g>
    <g id="Group-copy-3">
        <path id="Path" d="M898.668,93.245C895.337,91.24 894.252,86.873 896.257,83.541L913.187,55.418C915.193,52.086 919.56,51.001 922.891,53.007C926.223,55.013 927.308,59.38 925.302,62.711L908.372,90.834C906.367,94.166 902,95.251 898.668,93.245Z" style="fill:rgb(99,62,158);fill-rule:nonzero;"/>
        <path id="path3" d="M921.569,122.227L921.569,122.227C918.166,124.11 913.842,122.866 911.96,119.463L896.069,90.74C894.187,87.338 895.431,83.013 898.833,81.131L898.833,81.131C902.236,79.248 906.56,80.492 908.443,83.895L924.333,112.618C926.216,116.021 924.972,120.345 921.569,122.227Z" style="fill:rgb(67,37,124);fill-rule:nonzero;"/>
        <path id="path4" d="M862.572,87.325L862.572,87.325C862.572,91.214 865.754,94.395 869.642,94.395L902.468,94.395C906.357,94.395 909.538,91.214 909.538,87.325L909.538,87.325C909.538,83.436 906.357,80.255 902.468,80.255L869.642,80.255C865.754,80.255 862.572,83.436 862.572,87.325Z" style="fill:rgb(131,97,197);fill-rule:nonzero;"/>
        <g id="Group">
            <path id="path5" d="M944.703,77.683C946.298,78.605 947.543,79.9 948.438,81.568C949.333,83.237 949.78,85.146 949.78,87.293L949.78,88.304C949.78,90.462 949.333,92.373 948.438,94.037C947.543,95.7 946.295,96.993 944.695,97.914C943.095,98.835 941.263,99.296 939.199,99.296L932.061,99.296L932.061,76.302L939.231,76.302C941.284,76.302 943.108,76.762 944.703,77.683ZM944.742,87.262C944.742,84.988 944.274,83.261 943.337,82.082C942.4,80.903 941.031,80.313 939.231,80.313L937.02,80.313L937.02,95.3L939.199,95.3C940.999,95.3 942.373,94.703 943.321,93.508C944.268,92.313 944.742,90.578 944.742,88.304L944.742,87.262Z" style="fill-rule:nonzero;"/>
            <path id="path6" d="M968.258,82.208L968.258,99.296L963.788,99.296L963.662,97.511C963.125,98.185 962.467,98.704 961.688,99.067C960.908,99.43 960.019,99.612 959.018,99.612C957.239,99.612 955.847,99.096 954.841,98.064C953.836,97.032 953.333,95.432 953.333,93.263L953.333,82.208L958.087,82.208L958.087,93.295C958.087,94.137 958.295,94.758 958.711,95.158C959.126,95.558 959.703,95.758 960.44,95.758C961.903,95.758 962.919,95.248 963.488,94.226L963.488,82.208L968.258,82.208Z" style="fill-rule:nonzero;"/>
            <path id="path7" d="M987.271,92.3L976.469,92.3C976.648,93.363 977.09,94.208 977.796,94.834C978.501,95.461 979.407,95.774 980.512,95.774C981.333,95.774 982.094,95.619 982.794,95.308C983.494,94.998 984.092,94.532 984.587,93.911L986.877,96.548C986.276,97.411 985.4,98.138 984.247,98.727C983.094,99.317 981.744,99.612 980.196,99.612C978.448,99.612 976.93,99.243 975.64,98.506C974.35,97.769 973.361,96.769 972.671,95.506C971.981,94.242 971.636,92.847 971.636,91.32L971.636,90.72C971.636,89.015 971.958,87.493 972.6,86.156C973.242,84.819 974.169,83.774 975.379,83.021C976.59,82.269 978.022,81.892 979.675,81.892C981.286,81.892 982.66,82.234 983.797,82.919C984.934,83.603 985.797,84.574 986.387,85.833C986.977,87.091 987.271,88.573 987.271,90.278L987.271,92.3ZM982.597,88.731C982.576,87.804 982.32,87.072 981.831,86.535C981.341,85.998 980.612,85.73 979.643,85.73C978.738,85.73 978.03,86.03 977.519,86.63C977.009,87.23 976.674,88.057 976.516,89.11L982.597,89.11L982.597,88.731Z" style="fill-rule:nonzero;"/>
            <path id="path8" d="M1003.82,83.432C1004.76,84.459 1005.23,86.135 1005.23,88.462L1005.23,99.296L1000.46,99.296L1000.46,88.446C1000.46,87.435 1000.24,86.733 999.81,86.338C999.378,85.943 998.71,85.746 997.804,85.746C997.183,85.746 996.644,85.877 996.185,86.141C995.727,86.404 995.356,86.777 995.072,87.262L995.072,99.296L990.303,99.296L990.303,82.208L994.772,82.208L994.93,84.182C995.53,83.435 996.246,82.866 997.078,82.477C997.91,82.087 998.831,81.892 999.842,81.892C1001.56,81.892 1002.88,82.406 1003.82,83.432Z" style="fill-rule:nonzero;"/>
            <path id="path9" d="M1024.02,75.038L1024.02,99.296L1019.72,99.296L1019.49,97.464C1018.37,98.896 1016.93,99.612 1015.16,99.612C1013.78,99.612 1012.59,99.241 1011.58,98.498C1010.58,97.756 1009.81,96.732 1009.29,95.427C1008.77,94.121 1008.51,92.631 1008.51,90.957L1008.51,90.626C1008.51,88.888 1008.77,87.362 1009.29,86.046C1009.81,84.73 1010.58,83.708 1011.58,82.982C1012.59,82.255 1013.79,81.892 1015.19,81.892C1016.81,81.892 1018.17,82.508 1019.25,83.74L1019.25,75.038L1024.02,75.038ZM1019.25,94.053L1019.25,87.451C1018.7,86.314 1017.75,85.746 1016.41,85.746C1015.32,85.746 1014.53,86.188 1014.03,87.072C1013.53,87.957 1013.28,89.141 1013.28,90.626L1013.28,90.957C1013.28,92.421 1013.52,93.587 1014.01,94.455C1014.5,95.324 1015.29,95.758 1016.38,95.758C1017.71,95.758 1018.67,95.19 1019.25,94.053Z" style="fill-rule:nonzero;"/>
            <path id="path10" d="M1043.13,92.3L1032.33,92.3C1032.51,93.363 1032.95,94.208 1033.65,94.834C1034.36,95.461 1035.26,95.774 1036.37,95.774C1037.19,95.774 1037.95,95.619 1038.65,95.308C1039.35,94.998 1039.95,94.532 1040.44,93.911L1042.73,96.548C1042.13,97.411 1041.26,98.138 1040.1,98.727C1038.95,99.317 1037.6,99.612 1036.05,99.612C1034.31,99.612 1032.79,99.243 1031.5,98.506C1030.21,97.769 1029.22,96.769 1028.53,95.506C1027.84,94.242 1027.49,92.847 1027.49,91.32L1027.49,90.72C1027.49,89.015 1027.82,87.493 1028.46,86.156C1029.1,84.819 1030.03,83.774 1031.24,83.021C1032.45,82.269 1033.88,81.892 1035.53,81.892C1037.14,81.892 1038.52,82.234 1039.65,82.919C1040.79,83.603 1041.65,84.574 1042.24,85.833C1042.83,87.091 1043.13,88.573 1043.13,90.278L1043.13,92.3ZM1038.45,88.731C1038.43,87.804 1038.18,87.072 1037.69,86.535C1037.2,85.998 1036.47,85.73 1035.5,85.73C1034.6,85.73 1033.89,86.03 1033.38,86.63C1032.87,87.23 1032.53,88.057 1032.37,89.11L1038.45,89.11L1038.45,88.731Z" style="fill-rule:nonzero;"/>
        </g>
        <path id="path11" d="M1060.43,94.335C1060.43,97.221 1058.09,99.56 1055.2,99.56C1052.32,99.56 1049.98,97.221 1049.98,94.335C1049.98,91.449 1052.32,89.11 1055.2,89.11C1058.09,89.11 1060.43,91.449 1060.43,94.335Z" style="fill:rgb(118,79,193);fill-rule:nonzero;"/>
        <path id="path12" d="M910.41,87.325L910.41,87.325C910.41,83.436 907.211,80.254 903.302,80.254L898.24,80.254L896.251,83.541C896.048,83.876 895.885,84.224 895.744,84.577C895.713,84.652 895.68,84.727 895.651,84.803C895.642,84.829 895.633,84.855 895.625,84.88C894.938,86.743 895.026,88.879 896.062,90.74L898.095,94.395L903.302,94.395C907.211,94.395 910.41,91.214 910.41,87.325Z" style="fill:rgb(118,79,193);fill-rule:nonzero;"/>
    </g>
    <g id="g1">
        <g id="g2">
            <path id="path13" d="M1160,692L1079.75,692" style="fill:none;fill-rule:nonzero;stroke:black;stroke-width:5px;"/>
            <path id="path14" d="M1089.5,682.25L1070,692L1089.5,701.75L1089.5,682.25Z" style="fill-rule:nonzero;"/>
        </g>
        <g id="Line-copy">
            <path id="path15" d="M939,617L938.999,526.75" style="fill:none;fill-rule:nonzero;stroke:black;stroke-width:5px;"/>
            <path id="path16" d="M948.749,536.5L938.999,517L929.249,536.5L948.749,536.5Z" style="fill-rule:nonzero;"/>
        </g>
        <g id="Line-copy-2">
            <path id="path17" d="M1123,429L1216.02,363.608" style="fill:none;fill-rule:nonzero;stroke:black;stroke-width:5px;"/>
            <path id="path18" d="M1213.65,377.192L1224,358.001L1202.44,361.239L1213.65,377.192Z" style="fill-rule:nonzero;"/>
        </g>
        <g id="Line-copy-3">
            <path id="path19" d="M1115,245L1203.25,245" style="fill:none;fill-rule:nonzero;stroke:black;stroke-width:5px;"/>
            <path id="path20" d="M1193.5,254.75L1213,245L1193.5,235.25L1193.5,254.75Z" style="fill-rule:nonzero;"/>
        </g>
        <g id="Line-copy-4">
            <path id="path21" d="M987,293L987,351.25" style="fill:none;fill-rule:nonzero;stroke:black;stroke-width:5px;"/>
            <path id="path22" d="M977.25,341.5L987,361L996.75,341.5L977.25,341.5Z" style="fill-rule:nonzero;"/>
        </g>
        <g id="Line-copy-5">
            <path id="path23" d="M785,250L870.678,350.577" style="fill:none;fill-rule:nonzero;stroke:black;stroke-width:5px;"/>
            <path id="path24" d="M856.933,349.478L877,357.999L871.777,336.833L856.933,349.478Z" style="fill-rule:nonzero;"/>
        </g>
        <g id="Line-copy-6">
            <path id="path25" d="M467,250L675.25,250" style="fill:none;fill-rule:nonzero;stroke:black;stroke-width:5px;"/>
            <path id="path26" d="M665.5,259.75L685,250L665.5,240.25L665.5,259.75Z" style="fill-rule:nonzero;"/>
        </g>
        <g id="Line-copy-7">
            <path id="path27" d="M685,278L465.75,278" style="fill:none;fill-rule:nonzero;stroke:black;stroke-width:5px;"/>
            <path id="path28" d="M475.5,268.25L456,278L475.5,287.75L475.5,268.25Z" style="fill-rule:nonzero;"/>
        </g>
        <g id="Line-copy-8">
            <path id="path29" d="M846,458L567.75,456.068" style="fill:none;fill-rule:nonzero;stroke:black;stroke-width:5px;"/>
            <path id="path30" d="M577.568,446.386L558,456L577.432,465.886L577.568,446.386Z" style="fill-rule:nonzero;"/>
        </g>
        <g id="Line-copy-9">
            <path id="path31" d="M364,456L299.75,456" style="fill:none;fill-rule:nonzero;stroke:black;stroke-width:5px;"/>
            <path id="path32" d="M309.5,446.25L290,456L309.5,465.75L309.5,446.25Z" style="fill-rule:nonzero;"/>
        </g>
        <g id="Line-copy-10">
            <path id="path33" d="M484.001,616L484,539.75" style="fill:none;fill-rule:nonzero;stroke:black;stroke-width:5px;"/>
            <path id="path34" d="M493.75,549.5L484,530L474.25,549.501L493.75,549.5Z" style="fill-rule:nonzero;"/>
        </g>
    </g>
    <g id="token" transform="matrix(1,0,0,1,697.851,227)">
        <text x="0px" y="0px" style="font-family:'Roboto-Regular', 'Roboto';font-size:20px;">t<tspan x="6.348px 17.754px 27.695px " y="0px 0px 0px ">oke</tspan>n</text>
    </g>
    <g id="invalidgrant" transform="matrix(1,0,0,1,518.482,311)">
        <text x="0px" y="0px" style="font-family:'Roboto-Regular', 'Roboto';font-size:20px;">inv<tspan x="25.449px " y="0px ">a</tspan>lid_gr<tspan x="83.975px " y="0px ">a</tspan>nt</text>
    </g>
    <g id="back-channel-logout">
        <g transform="matrix(1,0,0,1,596.108,483)">
            <text x="0px" y="0px" style="font-family:'Roboto-Regular', 'Roboto';font-size:20px;">back-channel</text>
        </g>
        <g transform="matrix(1,0,0,1,628.362,504.6)">
            <text x="0px" y="0px" style="font-family:'Roboto-Regular', 'Roboto';font-size:20px;">logout</text>
        </g>
    </g>
    <g id="key-111" transform="matrix(1,0,0,1,788.863,576)">
        <text x="0px" y="0px" style="font-family:'Roboto-Regular', 'Roboto';font-size:20px;">k<tspan x="9.941px 20.42px " y="0px 0px ">ey</tspan>: 111</text>
    </g>
    <g transform="matrix(1,0,0,1,335.863,576)">
        <g id="key-222">
            <text x="0px" y="0px" style="font-family:'Roboto-Regular', 'Roboto';font-size:20px;">k<tspan x="9.941px 20.42px " y="0px 0px ">ey</tspan>:222</text>
        </g>
    </g>
    <defs>
        <linearGradient id="_Linear1" x1="0" y1="0" x2="1" y2="0" gradientUnits="userSpaceOnUse" gradientTransform="matrix(323.33,0,0,323.33,0,98.06)"><stop offset="0" style="stop-color:rgb(116,88,165);stop-opacity:1"/><stop offset="0.41" style="stop-color:rgb(125,99,171);stop-opacity:1"/><stop offset="1" style="stop-color:rgb(139,122,185);stop-opacity:1"/></linearGradient>
        <linearGradient id="_Linear2" x1="0" y1="0" x2="1" y2="0" gradientUnits="userSpaceOnUse" gradientTransform="matrix(1.91106e-15,31.21,-31.21,1.91106e-15,279.95,52.73)"><stop offset="0" style="stop-color:rgb(68,45,124);stop-opacity:1"/><stop offset="1" style="stop-color:rgb(109,77,159);stop-opacity:1"/></linearGradient>
        <linearGradient id="_Linear3" x1="0" y1="0" x2="1" y2="0" gradientUnits="userSpaceOnUse" gradientTransform="matrix(44.9424,0,0,44.9424,394.265,44551)"><stop offset="0" style="stop-color:rgb(68,45,124);stop-opacity:1"/><stop offset="1" style="stop-color:rgb(109,77,159);stop-opacity:1"/></linearGradient>
        <linearGradient id="_Linear4" x1="0" y1="0" x2="1" y2="0" gradientUnits="userSpaceOnUse" gradientTransform="matrix(44.9424,0,0,44.9424,620.798,44727.8)"><stop offset="0" style="stop-color:rgb(68,45,124);stop-opacity:1"/><stop offset="1" style="stop-color:rgb(109,77,159);stop-opacity:1"/></linearGradient>
        <linearGradient id="_Linear5" x1="0" y1="0" x2="1" y2="0" gradientUnits="userSpaceOnUse" gradientTransform="matrix(44.9424,0,0,44.9424,542.419,106.66)"><stop offset="0" style="stop-color:rgb(68,45,124);stop-opacity:1"/><stop offset="1" style="stop-color:rgb(109,77,159);stop-opacity:1"/></linearGradient>
        <linearGradient id="_Linear6" x1="0" y1="0" x2="1" y2="0" gradientUnits="userSpaceOnUse" gradientTransform="matrix(232.52,0,0,232.52,22.1,98.06)"><stop offset="0" style="stop-color:rgb(68,45,124);stop-opacity:1"/><stop offset="1" style="stop-color:rgb(109,77,159);stop-opacity:1"/></linearGradient>
        <linearGradient id="_Linear7" x1="0" y1="0" x2="1" y2="0" gradientUnits="userSpaceOnUse" gradientTransform="matrix(102.97,0,0,102.97,0,31.23)"><stop offset="0" style="stop-color:rgb(119,83,188);stop-opacity:1"/><stop offset="0.41" style="stop-color:rgb(135,96,207);stop-opacity:1"/><stop offset="1" style="stop-color:rgb(159,122,249);stop-opacity:1"/></linearGradient>
        <linearGradient id="_Linear8" x1="0" y1="0" x2="1" y2="0" gradientUnits="userSpaceOnUse" gradientTransform="matrix(35.01,0,0,35.01,9.78,31.23)"><stop offset="0" style="stop-color:rgb(67,37,124);stop-opacity:1"/><stop offset="1" style="stop-color:rgb(110,69,175);stop-opacity:1"/></linearGradient>
        <linearGradient id="_Linear9" x1="0" y1="0" x2="1" y2="0" gradientUnits="userSpaceOnUse" gradientTransform="matrix(16.49,0,0,16.49,19.04,24.45)"><stop offset="0" style="stop-color:rgb(211,196,241);stop-opacity:1"/><stop offset="1" style="stop-color:white;stop-opacity:1"/></linearGradient>
        <linearGradient id="_Linear10" x1="0" y1="0" x2="1" y2="0" gradientUnits="userSpaceOnUse" gradientTransform="matrix(638.573,0,0,638.573,384.856,840.47)"><stop offset="0" style="stop-color:rgb(211,196,241);stop-opacity:1"/><stop offset="1" style="stop-color:white;stop-opacity:1"/></linearGradient>
        <linearGradient id="_Linear11" x1="0" y1="0" x2="1" y2="0" gradientUnits="userSpaceOnUse" gradientTransform="matrix(1789.29,0,0,1789.29,2203.54,120.129)"><stop offset="0" style="stop-color:rgb(67,37,124);stop-opacity:1"/><stop offset="1" style="stop-color:rgb(110,69,175);stop-opacity:1"/></linearGradient>
        <linearGradient id="_Linear12" x1="0" y1="0" x2="1" y2="0" gradientUnits="userSpaceOnUse" gradientTransform="matrix(89.4916,0,0,89.4916,542.246,170.194)"><stop offset="0" style="stop-color:rgb(67,37,124);stop-opacity:1"/><stop offset="1" style="stop-color:rgb(110,69,175);stop-opacity:1"/></linearGradient>
        <linearGradient id="_Linear13" x1="0" y1="0" x2="1" y2="0" gradientUnits="userSpaceOnUse" gradientTransform="matrix(89.4916,0,0,89.4916,660.654,170.194)"><stop offset="0" style="stop-color:rgb(67,37,124);stop-opacity:1"/><stop offset="1" style="stop-color:rgb(110,69,175);stop-opacity:1"/></linearGradient>
        <linearGradient id="_Linear14" x1="0" y1="0" x2="1" y2="0" gradientUnits="userSpaceOnUse" gradientTransform="matrix(1181.98,0,0,1181.98,1821.72,100.376)"><stop offset="0" style="stop-color:rgb(211,196,241);stop-opacity:1"/><stop offset="1" style="stop-color:white;stop-opacity:1"/></linearGradient>
        <linearGradient id="_Linear15" x1="0" y1="0" x2="1" y2="0" gradientUnits="userSpaceOnUse" gradientTransform="matrix(796.086,0,0,796.086,1504.54,124.005)"><stop offset="0" style="stop-color:rgb(211,196,241);stop-opacity:1"/><stop offset="1" style="stop-color:white;stop-opacity:1"/></linearGradient>
        <linearGradient id="_Linear16" x1="0" y1="0" x2="1" y2="0" gradientUnits="userSpaceOnUse" gradientTransform="matrix(1181.98,0,0,1181.98,1821.72,147.634)"><stop offset="0" style="stop-color:rgb(211,196,241);stop-opacity:1"/><stop offset="1" style="stop-color:white;stop-opacity:1"/></linearGradient>
        <linearGradient id="_Linear17" x1="0" y1="0" x2="1" y2="0" gradientUnits="userSpaceOnUse" gradientTransform="matrix(796.086,0,0,796.086,1504.54,171.264)"><stop offset="0" style="stop-color:rgb(211,196,241);stop-opacity:1"/><stop offset="1" style="stop-color:white;stop-opacity:1"/></linearGradient>
        <linearGradient id="_Linear18" x1="0" y1="0" x2="1" y2="0" gradientUnits="userSpaceOnUse" gradientTransform="matrix(63.39,0,0,63.39,0,40.92)"><stop offset="0" style="stop-color:rgb(119,83,188);stop-opacity:1"/><stop offset="0.41" style="stop-color:rgb(135,96,207);stop-opacity:1"/><stop offset="1" style="stop-color:rgb(159,122,249);stop-opacity:1"/></linearGradient>
        <linearGradient id="_Linear19" x1="0" y1="0" x2="1" y2="0" gradientUnits="userSpaceOnUse" gradientTransform="matrix(26.42,0,0,26.42,0,59.77)"><stop offset="0" style="stop-color:rgb(110,69,175);stop-opacity:0.29"/><stop offset="0.3" style="stop-color:rgb(107,66,171);stop-opacity:0.29"/><stop offset="0.56" style="stop-color:rgb(97,60,160);stop-opacity:0.29"/><stop offset="0.81" style="stop-color:rgb(82,48,142);stop-opacity:0.29"/><stop offset="1" style="stop-color:rgb(67,37,124);stop-opacity:0.29"/></linearGradient>
        <linearGradient id="_Linear20" x1="0" y1="0" x2="1" y2="0" gradientUnits="userSpaceOnUse" gradientTransform="matrix(63.39,0,0,63.39,0,40.92)"><stop offset="0" style="stop-color:rgb(119,83,188);stop-opacity:1"/><stop offset="0.41" style="stop-color:rgb(135,96,207);stop-opacity:1"/><stop offset="1" style="stop-color:rgb(159,122,249);stop-opacity:1"/></linearGradient>
        <linearGradient id="_Linear21" x1="0" y1="0" x2="1" y2="0" gradientUnits="userSpaceOnUse" gradientTransform="matrix(26.42,0,0,26.42,0,59.77)"><stop offset="0" style="stop-color:rgb(110,69,175);stop-opacity:0.29"/><stop offset="0.3" style="stop-color:rgb(107,66,171);stop-opacity:0.29"/><stop offset="0.56" style="stop-color:rgb(97,60,160);stop-opacity:0.29"/><stop offset="0.81" style="stop-color:rgb(82,48,142);stop-opacity:0.29"/><stop offset="1" style="stop-color:rgb(67,37,124);stop-opacity:0.29"/></linearGradient>
        <linearGradient id="_Linear22" x1="0" y1="0" x2="1" y2="0" gradientUnits="userSpaceOnUse" gradientTransform="matrix(44.565,0,0,44.565,0,18.793)"><stop offset="0" style="stop-color:rgb(145,107,219);stop-opacity:1"/><stop offset="0.5" style="stop-color:rgb(131,92,202);stop-opacity:1"/><stop offset="1" style="stop-color:rgb(145,107,219);stop-opacity:1"/></linearGradient>
        <linearGradient id="_Linear23" x1="0" y1="0" x2="1" y2="0" gradientUnits="userSpaceOnUse" gradientTransform="matrix(-44.651,5.46817e-15,-5.46817e-15,-44.651,44.651,17.953)"><stop offset="0" style="stop-color:rgb(211,196,241);stop-opacity:1"/><stop offset="1" style="stop-color:white;stop-opacity:1"/></linearGradient>
        <linearGradient id="_Linear24" x1="0" y1="0" x2="1" y2="0" gradientUnits="userSpaceOnUse" gradientTransform="matrix(44.565,0,0,44.565,0,18.793)"><stop offset="0" style="stop-color:rgb(145,107,219);stop-opacity:1"/><stop offset="0.5" style="stop-color:rgb(131,92,202);stop-opacity:1"/><stop offset="1" style="stop-color:rgb(145,107,219);stop-opacity:1"/></linearGradient>
        <linearGradient id="_Linear25" x1="0" y1="0" x2="1" y2="0" gradientUnits="userSpaceOnUse" gradientTransform="matrix(-44.651,5.46817e-15,-5.46817e-15,-44.651,44.651,17.953)"><stop offset="0" style="stop-color:rgb(211,196,241);stop-opacity:1"/><stop offset="1" style="stop-color:white;stop-opacity:1"/></linearGradient>
        <linearGradient id="_Linear26" x1="0" y1="0" x2="1" y2="0" gradientUnits="userSpaceOnUse" gradientTransform="matrix(71.59,0,0,71.59,0,47.35)"><stop offset="0" style="stop-color:rgb(211,196,241);stop-opacity:1"/><stop offset="1" style="stop-color:white;stop-opacity:1"/></linearGradient>
        <linearGradient id="_Linear27" x1="0" y1="0" x2="1" y2="0" gradientUnits="userSpaceOnUse" gradientTransform="matrix(72.58,0,0,72.58,32.79,9.71)"><stop offset="0" style="stop-color:rgb(211,196,241);stop-opacity:1"/><stop offset="1" style="stop-color:white;stop-opacity:1"/></linearGradient>
    </defs>
</svg>
