<?xml version="1.0" encoding="UTF-8"?>
<svg width="1200pt" height="1200pt" version="1.1" viewBox="0 0 1200 1200" xmlns="http://www.w3.org/2000/svg">
 <path d="m337.5 1075c54.984 0 107.48-20.016 150-62.484l240-240c82.5-82.5 82.5-217.5 0-297.52-20.016-20.016-50.016-20.016-69.984 0-20.016 20.016-20.016 50.016 0 69.984 42.516 42.516 42.516 114.98 0 157.5l-240 240c-42.516 42.516-114.98 42.516-157.5 0s-42.516-114.98 0-157.5l75-75c20.016-20.016 20.016-50.016 0-69.984-20.016-20.016-50.016-20.016-69.984 0l-75 75c-82.5 82.5-82.5 217.5 0 297.52 37.453 39.984 92.484 62.484 147.47 62.484z" fill="#fff"/>
 <path d="m1012.5 187.5c-82.5-82.5-217.5-82.5-297.52 0l-240 240c-82.5 82.5-82.5 217.5 0 297.52 9.9844 9.9844 22.5 15 35.016 15s24.984-5.0156 35.016-15c20.016-20.016 20.016-50.016 0-69.984-42.516-42.516-42.516-114.98 0-157.5l240-240c42.516-42.516 114.98-42.516 157.5 0s42.516 114.98 0 157.5l-75 75c-20.016 20.016-20.016 50.016 0 69.984 20.016 20.016 50.016 20.016 69.984 0l75-75c82.5-80.016 82.5-215.02 0-297.52z" fill="#fff"/>
</svg>
