<?xml version="1.0" encoding="UTF-8"?>
<!-- Generated by Pixelmator Pro 3.6.17 -->
<svg width="1299" height="468" viewBox="0 0 1299 468" xmlns="http://www.w3.org/2000/svg">
    <g id="Group">
        <path id="Path" fill="#633e9e" stroke="none" d="M 238.167175 272.056885 L 238.167114 272.056885 C 216.336304 258.914795 209.227173 230.300781 222.369049 208.469971 L 333.30188 24.192627 C 346.443787 2.361816 375.0578 -4.747314 396.888611 8.394531 L 396.888733 8.394531 C 418.719543 21.536377 425.828674 50.150391 412.686768 71.981201 L 301.753937 256.258789 C 288.61203 278.0896 259.997986 285.19873 238.167175 272.056885 Z"/>
        <path id="path1" fill="#43257c" stroke="none" d="M 388.226257 461.964844 L 388.226135 461.964844 C 365.929504 474.300049 337.594482 466.149658 325.259399 443.853027 L 221.13681 255.643555 C 208.801727 233.346924 216.952057 205.011963 239.248688 192.676758 L 239.248779 192.676758 C 261.54541 180.341797 289.880432 188.491943 302.215546 210.788574 L 406.338074 398.998047 C 418.673157 421.294678 410.522827 449.629639 388.226257 461.964844 Z"/>
        <path id="path2" fill="#8361c5" stroke="none" d="M 1.643295 233.264404 L 1.643295 233.264404 C 1.643295 258.74585 22.491577 279.593994 47.972794 279.593994 L 263.064148 279.593994 C 288.54541 279.593994 309.393677 258.745605 309.393677 233.264404 L 309.393677 233.264404 C 309.393677 207.783203 288.54538 186.934814 263.064148 186.934814 L 47.972794 186.934814 C 22.491577 186.934814 1.643234 207.783203 1.643295 233.264404 Z"/>
        <g id="g1">
            <path id="path3" fill="#444444" stroke="none" d="M 539.810364 170.087891 C 550.262207 176.124512 558.420105 184.610107 564.28418 195.544678 C 570.148254 206.479492 573.080261 218.983643 573.080261 233.057373 L 573.080261 239.68042 C 573.080261 253.823242 570.148254 266.344482 564.28418 277.244873 C 558.420105 288.14502 550.244934 296.613525 539.758667 302.649902 C 529.272339 308.686523 517.26825 311.704834 503.74646 311.704834 L 471.045776 311.704834 L 456.972046 311.704834 L 456.972046 161.033203 L 489.465759 161.033203 L 503.95343 161.033203 C 517.40625 161.033203 529.358582 164.05127 539.810364 170.087891 Z M 540.069092 232.850586 C 540.069092 217.948975 536.999084 206.634766 530.85907 198.907959 C 524.719055 191.181152 515.750549 187.317871 503.95343 187.317871 L 489.465759 187.317871 L 489.465759 285.523438 L 503.74646 285.523438 C 515.543579 285.523438 524.54657 281.608398 530.755615 273.778076 C 536.9646 265.947998 540.069092 254.582031 540.069092 239.68042 L 540.069092 232.850586 Z"/>
            <path id="path4" fill="#444444" stroke="none" d="M 694.15564 199.73584 L 694.15564 311.704834 L 664.869934 311.704834 L 664.042053 300.01123 C 660.520752 304.426514 656.208923 307.824219 651.10376 310.204346 C 645.998596 312.584473 640.169006 313.774414 633.615112 313.774414 C 621.955994 313.774414 612.832214 310.394043 606.243774 303.633057 C 599.655334 296.87207 596.361084 286.385986 596.361084 272.174072 L 596.361084 199.73584 L 627.509583 199.73584 L 627.509583 272.381104 C 627.509583 277.900146 628.87207 281.970459 631.597168 284.592285 C 634.322205 287.213623 638.099365 288.524414 642.928589 288.524414 C 652.518005 288.524414 659.175476 285.178467 662.903748 278.486572 L 662.903748 199.73584 L 694.15564 199.73584 Z"/>
            <path id="path5" fill="#444444" stroke="none" d="M 818.743774 265.861572 L 747.961182 265.861572 C 749.134033 272.82959 752.031555 278.365967 756.653809 282.470703 C 761.276062 286.575684 767.209106 288.62793 774.452942 288.62793 C 779.834045 288.62793 784.818481 287.610352 789.40625 285.575195 C 793.994019 283.540039 797.909119 280.487305 801.151611 276.416992 L 816.156677 293.69873 C 812.224304 299.355713 806.481018 304.115967 798.926758 307.979492 C 791.372437 311.842773 782.524597 313.774414 772.38324 313.774414 C 760.931091 313.774414 750.979492 311.359863 742.52832 306.530518 C 734.077209 301.701416 727.592285 295.147461 723.073486 286.868896 C 718.554749 278.590088 716.295349 269.448975 716.295349 259.445801 L 716.295349 255.513428 C 716.295349 244.337158 718.399475 234.368164 722.607788 225.606689 C 726.816101 216.845215 732.887146 209.998047 740.820862 205.065186 C 748.754578 200.132568 758.137085 197.66626 768.968323 197.66626 C 779.523621 197.66626 788.526672 199.908447 795.977417 204.392578 C 803.428223 208.876953 809.085327 215.241211 812.948669 223.485352 C 816.812073 231.729492 818.743774 241.439697 818.743774 252.615723 L 818.743774 265.861572 Z M 788.112732 242.474365 C 787.974731 236.403564 786.301758 231.608643 783.09375 228.090332 C 779.885803 224.571777 775.108337 222.812744 768.761353 222.812744 C 762.828308 222.812744 758.188843 224.778809 754.842834 228.711182 C 751.496887 232.643555 749.306519 238.059082 748.271667 244.958008 L 788.112732 244.958008 L 788.112732 242.474365 Z"/>
            <path id="path6" fill="#444444" stroke="none" d="M 927.188477 207.755859 C 933.328491 214.482178 936.398438 225.46875 936.398438 240.715332 L 936.398438 311.704834 L 905.146484 311.704834 L 905.146484 240.611816 C 905.146484 233.98877 903.7323 229.383789 900.903687 226.796631 C 898.075195 224.209717 893.694336 222.91626 887.761353 222.91626 C 883.69104 222.91626 880.155273 223.778564 877.154297 225.503174 C 874.15332 227.228027 871.721436 229.677002 869.858765 232.850586 L 869.858765 311.704834 L 838.606812 311.704834 L 838.606812 199.73584 L 867.892578 199.73584 L 868.927368 212.671387 C 872.859741 207.772949 877.551025 204.047607 883.001099 201.495117 C 888.451294 198.942627 894.487793 197.66626 901.110718 197.66626 C 912.355835 197.66626 921.048462 201.029297 927.188477 207.755859 Z"/>
            <path id="path7" fill="#444444" stroke="none" d="M 1059.537842 152.754395 L 1059.537842 311.704834 L 1031.390381 311.704834 L 1029.838135 299.700684 C 1022.525269 309.083252 1013.073853 313.774414 1001.483765 313.774414 C 992.446167 313.774414 984.633179 311.342529 978.0448 306.47876 C 971.456299 301.615234 966.45459 294.906006 963.039673 286.351318 C 959.624756 277.796875 957.917236 268.034912 957.917236 257.065674 L 957.917236 254.892578 C 957.917236 243.509277 959.624756 233.505859 963.039673 224.882324 C 966.45459 216.258789 971.456299 209.566895 978.0448 204.806641 C 984.633179 200.046387 992.515137 197.66626 1001.690674 197.66626 C 1012.314941 197.66626 1021.180054 201.702148 1028.285889 209.773682 L 1028.285889 152.754395 L 1059.537842 152.754395 Z M 1028.285889 277.348389 L 1028.285889 234.092285 C 1024.698486 226.641602 1018.489502 222.91626 1009.658936 222.91626 C 1002.553101 222.91626 997.361572 225.813721 994.084717 231.608643 C 990.807739 237.403809 989.169189 245.165039 989.169189 254.892578 L 989.169189 257.065674 C 989.169189 266.655029 990.773193 274.295654 993.981201 279.987061 C 997.189209 285.678711 1002.346069 288.524414 1009.451904 288.524414 C 1018.213501 288.524414 1024.491455 284.799072 1028.285889 277.348389 Z"/>
            <path id="path8" fill="#444444" stroke="none" d="M 1184.752563 265.861572 L 1113.969971 265.861572 C 1115.142822 272.82959 1118.040405 278.365967 1122.662598 282.470703 C 1127.284912 286.575684 1133.217896 288.62793 1140.46167 288.62793 C 1145.842896 288.62793 1150.827271 287.610352 1155.415039 285.575195 C 1160.002808 283.540039 1163.917969 280.487305 1167.1604 276.416992 L 1182.165405 293.69873 C 1178.233154 299.355713 1172.489746 304.115967 1164.935547 307.979492 C 1157.381226 311.842773 1148.533447 313.774414 1138.39209 313.774414 C 1126.939941 313.774414 1116.988281 311.359863 1108.537109 306.530518 C 1100.08606 301.701416 1093.601074 295.147461 1089.082275 286.868896 C 1084.563477 278.590088 1082.304199 269.448975 1082.304199 259.445801 L 1082.304199 255.513428 C 1082.304199 244.337158 1084.408325 234.368164 1088.616577 225.606689 C 1092.824951 216.845215 1098.895996 209.998047 1106.829712 205.065186 C 1114.763428 200.132568 1124.145874 197.66626 1134.977173 197.66626 C 1145.532471 197.66626 1154.535522 199.908447 1161.986328 204.392578 C 1169.437012 208.876953 1175.094116 215.241211 1178.95752 223.485352 C 1182.820923 231.729492 1184.752563 241.439697 1184.752563 252.615723 L 1184.752563 265.861572 Z M 1154.12146 242.474365 C 1153.983521 236.403564 1152.310547 231.608643 1149.102539 228.090332 C 1145.894653 224.571777 1141.117188 222.812744 1134.770142 222.812744 C 1128.837158 222.812744 1124.197632 224.778809 1120.851685 228.711182 C 1117.505737 232.643555 1115.315308 238.059082 1114.280518 244.958008 L 1154.12146 244.958008 L 1154.12146 242.474365 Z"/>
        </g>
        <path id="path9" fill="#764fc1" stroke="none" d="M 1298.107178 279.196777 C 1298.107178 298.106445 1282.777954 313.435547 1263.868286 313.435547 C 1244.958862 313.435547 1229.629517 298.106445 1229.629517 279.196777 C 1229.629517 260.287354 1244.958862 244.958008 1263.868286 244.958008 C 1282.777954 244.958008 1298.107178 260.287354 1298.107178 279.196777 Z"/>
        <path id="path10" fill="#764fc1" stroke="none" d="M 315.106964 233.264404 L 315.106964 233.26416 C 315.106964 207.783203 294.145996 186.934814 268.527161 186.934814 L 235.361481 186.934814 L 222.327576 208.469971 C 220.997986 210.666748 219.929993 212.945068 219.007233 215.256348 C 218.798859 215.750244 218.585876 216.23999 218.394836 216.740479 C 218.334503 216.908447 218.280823 217.077148 218.222504 217.245605 C 213.720886 229.450439 214.303345 243.444336 221.088776 255.643555 L 234.410309 279.593994 L 268.527161 279.593994 C 294.145996 279.593994 315.106964 258.745605 315.106964 233.264404 Z"/>
    </g>
</svg>
