<?xml version="1.0" encoding="UTF-8"?>
<!-- Generated by Pixelmator Pro 3.6.17 -->
<svg width="1299" height="469" viewBox="0 0 1299 469" xmlns="http://www.w3.org/2000/svg">
    <g id="Group">
        <path id="Path" fill="#633e9e" stroke="none" d="M 237.284668 272.438965 L 237.284424 272.438965 C 215.453613 259.297119 208.344482 230.683105 221.486328 208.852295 L 332.419434 24.574707 C 345.561279 2.743896 374.175293 -4.365234 396.006104 8.776611 L 396.006104 8.776855 C 417.836914 21.918701 424.946045 50.532715 411.804199 72.363525 L 300.871338 256.641113 C 287.729492 278.471924 259.115479 285.581055 237.284668 272.438965 Z"/>
        <path id="path1" fill="#43257c" stroke="none" d="M 387.343506 462.346924 L 387.343506 462.346924 C 365.046875 474.682129 336.711914 466.531738 324.376709 444.235352 L 220.25415 256.025879 C 207.919189 233.729248 216.06958 205.394043 238.365967 193.059082 L 238.366211 193.059082 C 260.662842 180.723877 288.997803 188.874268 301.333008 211.170898 L 405.455566 399.380127 C 417.790527 421.677002 409.640137 450.011963 387.343506 462.346924 Z"/>
        <path id="path2" fill="#8361c5" stroke="none" d="M 0.76062 233.646729 L 0.76062 233.646729 C 0.76062 259.12793 21.609009 279.976318 47.090332 279.976318 L 262.181641 279.976318 C 287.662842 279.976318 308.510986 259.12793 308.510986 233.646729 L 308.510986 233.646729 C 308.510986 208.165283 287.662842 187.317139 262.181641 187.317139 L 47.090332 187.317139 C 21.609009 187.317139 0.76062 208.165283 0.76062 233.646729 Z"/>
        <g id="g1">
            <path id="path3" fill="#ffffff" stroke="none" d="M 538.927734 170.470215 C 549.379639 176.506592 557.537598 184.992188 563.401611 195.927002 C 569.265625 206.861816 572.197754 219.365967 572.197754 233.439697 L 572.197754 240.062744 C 572.197754 254.205322 569.265625 266.726807 563.401611 277.626953 C 557.537598 288.527344 549.362305 296.995605 538.875977 303.032227 C 528.389648 309.068604 516.385742 312.086914 502.86377 312.086914 L 470.16333 312.086914 L 456.089355 312.086914 L 456.089355 161.415283 L 488.583252 161.415283 L 503.070801 161.415283 C 516.523682 161.415283 528.47583 164.433594 538.927734 170.470215 Z M 539.186523 233.232666 C 539.186523 218.331055 536.116455 207.01709 529.976563 199.290283 C 523.836426 191.563477 514.86792 187.700195 503.070801 187.700195 L 488.583252 187.700195 L 488.583252 285.905762 L 502.86377 285.905762 C 514.661133 285.905762 523.664063 281.990479 529.873047 274.1604 C 536.082031 266.330078 539.186523 254.964111 539.186523 240.062744 L 539.186523 233.232666 Z"/>
            <path id="path4" fill="#ffffff" stroke="none" d="M 693.272949 200.118164 L 693.272949 312.086914 L 663.987305 312.086914 L 663.159424 300.393311 C 659.638184 304.808594 655.326416 308.206299 650.221191 310.586426 C 645.115967 312.966553 639.286377 314.156738 632.732422 314.156738 C 621.073486 314.156738 611.949707 310.776123 605.361084 304.015381 C 598.772705 297.254395 595.478516 286.768066 595.478516 272.556396 L 595.478516 200.118164 L 626.626953 200.118164 L 626.626953 272.763428 C 626.626953 278.282471 627.989502 282.352783 630.7146 284.974365 C 633.439697 287.595947 637.216797 288.906738 642.045898 288.906738 C 651.635498 288.906738 658.292969 285.560791 662.02124 278.868896 L 662.02124 200.118164 L 693.272949 200.118164 Z"/>
            <path id="path5" fill="#ffffff" stroke="none" d="M 817.861084 266.243896 L 747.078613 266.243896 C 748.251465 273.21167 751.148926 278.748047 755.77124 282.853027 C 760.393555 286.957764 766.326416 289.010254 773.570313 289.010254 C 778.951416 289.010254 783.936035 287.992676 788.523682 285.95752 C 793.111328 283.922363 797.026611 280.869629 800.269043 276.799072 L 815.273926 294.080811 C 811.341797 299.738037 805.598389 304.498291 798.044189 308.361572 C 790.489746 312.224854 781.64209 314.156738 771.500732 314.156738 C 760.048584 314.156738 750.096924 311.741943 741.645752 306.912842 C 733.19458 302.083496 726.709717 295.529541 722.190918 287.250977 C 717.672119 278.972412 715.412842 269.831299 715.412842 259.827881 L 715.412842 255.895508 C 715.412842 244.719482 717.516846 234.750488 721.725098 225.989014 C 725.933594 217.227295 732.004639 210.380127 739.938232 205.44751 C 747.87207 200.514648 757.254639 198.04834 768.085693 198.04834 C 778.641113 198.04834 787.644043 200.290527 795.094727 204.774902 C 802.545654 209.259033 808.202637 215.623291 812.066162 223.867432 C 815.929443 232.111572 817.861084 241.821777 817.861084 252.998047 L 817.861084 266.243896 Z M 787.230225 242.856689 C 787.092285 236.785645 785.419189 231.990967 782.211182 228.472412 C 779.003174 224.954102 774.22583 223.194824 767.878662 223.194824 C 761.945801 223.194824 757.306152 225.161133 753.960205 229.093506 C 750.614258 233.025879 748.423828 238.441406 747.38916 245.340332 L 787.230225 245.340332 L 787.230225 242.856689 Z"/>
            <path id="path6" fill="#ffffff" stroke="none" d="M 926.305908 208.137939 C 932.445801 214.864502 935.515869 225.85083 935.515869 241.097412 L 935.515869 312.086914 L 904.263916 312.086914 L 904.263916 240.993896 C 904.263916 234.371094 902.849609 229.766113 900.020996 227.178955 C 897.192627 224.591797 892.811768 223.29834 886.878662 223.29834 C 882.80835 223.29834 879.272705 224.160645 876.271729 225.885498 C 873.270752 227.610107 870.838867 230.059326 868.976318 233.232666 L 868.976318 312.086914 L 837.724121 312.086914 L 837.724121 200.118164 L 867.01001 200.118164 L 868.044678 213.053467 C 871.977295 208.155273 876.668457 204.429932 882.118408 201.877197 C 887.568604 199.324707 893.605225 198.04834 900.228027 198.04834 C 911.473389 198.04834 920.165771 201.411621 926.305908 208.137939 Z"/>
            <path id="path7" fill="#ffffff" stroke="none" d="M 1058.655273 153.136719 L 1058.655273 312.086914 L 1030.507813 312.086914 L 1028.955566 300.083008 C 1021.642578 309.465332 1012.191162 314.156738 1000.601074 314.156738 C 991.563477 314.156738 983.750488 311.724854 977.162109 306.861084 C 970.57373 301.997314 965.572021 295.288086 962.156982 286.733643 C 958.742188 278.178955 957.034668 268.416992 957.034668 257.447754 L 957.034668 255.274658 C 957.034668 243.891602 958.742188 233.888184 962.156982 225.264404 C 965.572021 216.640869 970.57373 209.948975 977.162109 205.188721 C 983.750488 200.428467 991.632568 198.04834 1000.808105 198.04834 C 1011.432373 198.04834 1020.297363 202.084229 1027.40332 210.156006 L 1027.40332 153.136719 L 1058.655273 153.136719 Z M 1027.40332 277.730469 L 1027.40332 234.474609 C 1023.815674 227.023682 1017.606934 223.29834 1008.776123 223.29834 C 1001.67041 223.29834 996.479248 226.195801 993.202148 231.990967 C 989.925049 237.786133 988.286621 245.547119 988.286621 255.274658 L 988.286621 257.447754 C 988.286621 267.037354 989.890625 274.677734 993.098633 280.369385 C 996.306396 286.061035 1001.463379 288.906738 1008.569092 288.906738 C 1017.330811 288.906738 1023.608887 285.181396 1027.40332 277.730469 Z"/>
            <path id="path8" fill="#ffffff" stroke="none" d="M 1183.870117 266.243896 L 1113.087402 266.243896 C 1114.260254 273.21167 1117.157959 278.748047 1121.780029 282.853027 C 1126.4021 286.957764 1132.335205 289.010254 1139.579102 289.010254 C 1144.960205 289.010254 1149.94458 287.992676 1154.532471 285.95752 C 1159.120361 283.922363 1163.0354 280.869629 1166.277832 276.799072 L 1181.282959 294.080811 C 1177.350586 299.738037 1171.607422 304.498291 1164.052979 308.361572 C 1156.498535 312.224854 1147.650879 314.156738 1137.509521 314.156738 C 1126.057373 314.156738 1116.105713 311.741943 1107.654541 306.912842 C 1099.203369 302.083496 1092.718262 295.529541 1088.199707 287.250977 C 1083.680908 278.972412 1081.421631 269.831299 1081.421631 259.827881 L 1081.421631 255.895508 C 1081.421631 244.719482 1083.525635 234.750488 1087.734131 225.989014 C 1091.942383 217.227295 1098.013428 210.380127 1105.947021 205.44751 C 1113.880859 200.514648 1123.263184 198.04834 1134.094727 198.04834 C 1144.649902 198.04834 1153.652832 200.290527 1161.10376 204.774902 C 1168.554443 209.259033 1174.211426 215.623291 1178.074951 223.867432 C 1181.938232 232.111572 1183.870117 241.821777 1183.870117 252.998047 L 1183.870117 266.243896 Z M 1153.239014 242.856689 C 1153.101074 236.785645 1151.427979 231.990967 1148.219971 228.472412 C 1145.011963 224.954102 1140.234619 223.194824 1133.887695 223.194824 C 1127.95459 223.194824 1123.314941 225.161133 1119.968994 229.093506 C 1116.623047 233.025879 1114.432617 238.441406 1113.397949 245.340332 L 1153.239014 245.340332 L 1153.239014 242.856689 Z"/>
        </g>
        <path id="path9" fill="#764fc1" stroke="none" d="M 1297.224609 279.579102 C 1297.224609 298.488525 1281.895264 313.817871 1262.98584 313.817871 C 1244.076172 313.817871 1228.746826 298.488525 1228.746826 279.579102 C 1228.746826 260.669434 1244.076172 245.340332 1262.98584 245.340332 C 1281.895264 245.340332 1297.224609 260.669434 1297.224609 279.579102 Z"/>
        <path id="path10" fill="#764fc1" stroke="none" d="M 314.224365 233.646729 L 314.224365 233.646484 C 314.224365 208.165283 293.263428 187.316895 267.644531 187.316895 L 234.479004 187.316895 L 221.445068 208.852295 C 220.115479 211.049072 219.047363 213.327393 218.124756 215.638672 C 217.91626 216.132568 217.703125 216.622314 217.512207 217.122803 C 217.451904 217.290527 217.398193 217.459473 217.339844 217.62793 C 212.838379 229.83252 213.420654 243.82666 220.206299 256.025879 L 233.527832 279.976318 L 267.644531 279.976318 C 293.263428 279.976318 314.224365 259.12793 314.224365 233.646729 Z"/>
    </g>
</svg>
