<?xml version="1.0" encoding="UTF-8"?>
<svg width="100pt" height="100pt" version="1.1" viewBox="0 0 100 100" xmlns="http://www.w3.org/2000/svg">
 <g>
  <path d="m34.84 24.051c-2.3164 0-4 1.7461-4 4.1484 0 2.3359 1.6992 4.1016 3.9492 4.1016 2.3164 0 4-1.7266 4-4.1289-0.0625-2.4258-1.6875-4.1211-3.9492-4.1211z"/>
  <path d="m34.84 41.699c-2.3164 0-4 1.7461-4 4.1484 0 2.3398 1.6992 4.1016 3.9492 4.1016 2.3164 0 4-1.7266 4-4.1289-0.0625-2.4258-1.6875-4.1211-3.9492-4.1211z"/>
  <path d="m53.438 34.375h-12.348c-0.55078 0-1 0.44922-1 1v3.25c0 0.55469 0.44922 1 1 1h12.352c0.55469 0 1-0.44531 1-1v-3.25c-0.003906-0.55078-0.44922-1-1.0039-1z"/>
  <path d="m68.859 56.66c-4.0508-5.7617-6.0195-12.168-6.0195-19.586 0-7.8477 1.9961-14.34 6.1016-19.855 0.22656-0.30469 0.26172-0.70703 0.09375-1.0469-0.17188-0.33984-0.51562-0.55078-0.89453-0.55078h-3.4492c-0.3125 0-0.60938 0.14844-0.80078 0.39844-4.5 6-6.7109 12.883-6.75 21.051 0 8.0781 2.2109 14.918 6.7539 20.902 0.1875 0.25 0.48438 0.39453 0.79688 0.39453h3.4492 0.019531c0.55469 0 1-0.44531 1-1 0-0.26953-0.11328-0.52344-0.30078-0.70703z"/>
  <path d="m29.199 86.941c-1.8711 0-3.6289-0.72656-4.9492-2.0508-1.3203-1.3203-2.0508-3.0781-2.0508-4.9492s0.72656-3.6289 2.0469-4.9492c1.3164-1.3203 3.0742-2.0469 4.9453-2.0508 1.8711 0 3.6289 0.72656 4.9531 2.0469 1.3203 1.3242 2.0469 3.082 2.0469 4.9492 0 1.8711-0.72656 3.6289-2.0469 4.9492-1.3164 1.3281-3.0742 2.0547-4.9453 2.0547zm0-9.9961c-0.80078 0-1.5547 0.3125-2.1211 0.87891-0.56641 0.56641-0.87891 1.3164-0.87891 2.1172 0 0.80469 0.3125 1.5586 0.87891 2.125 1.1328 1.1328 3.1133 1.1289 4.2422 0 0.5625-0.5625 0.875-1.3164 0.875-2.1211 0-0.80469-0.3125-1.5586-0.875-2.125-0.5625-0.5625-1.3203-0.875-2.1211-0.875z"/>
  <path d="m19.219 94.426c-1.1992 0-2.332-0.46875-3.1797-1.3164-0.85156-0.85156-1.3164-1.9805-1.3203-3.1836 0-1.2031 0.46484-2.3359 1.3164-3.1836 0.84766-0.84766 1.9805-1.3164 3.1836-1.3164s2.3359 0.46875 3.1836 1.3203c0.84766 0.84766 1.3164 1.9766 1.3164 3.1797s-0.46875 2.332-1.3164 3.1836c-0.85156 0.84766-1.9844 1.3164-3.1836 1.3164zm0-6c-0.40234 0-0.77734 0.15625-1.0625 0.4375-0.28125 0.28125-0.4375 0.66016-0.4375 1.0625 0 0.40234 0.15625 0.77734 0.44141 1.0625 0.5625 0.5625 1.5547 0.5625 2.1211-0.003906 0.28125-0.28125 0.4375-0.66016 0.4375-1.0625s-0.15625-0.77734-0.4375-1.0586c-0.28516-0.28125-0.66406-0.4375-1.0625-0.4375z"/>
  <path d="m42.008 76.133c-2.4062 0-4.668-0.93359-6.3633-2.6328-0.87891-0.87891-1.5547-1.9102-2.0078-3.0625-0.18359-0.46875-0.32812-0.94922-0.42969-1.4375h-20.207c-2.1367 0-4.1445-0.83203-5.6562-2.3438s-2.3438-3.5195-2.3438-5.6562v-48c0-2.1367 0.83203-4.1445 2.3438-5.6562s3.5195-2.3438 5.6562-2.3438h74c2.1367 0 4.1445 0.83203 5.6562 2.3438s2.3438 3.5195 2.3438 5.6562v48c0 2.1367-0.83203 4.1445-2.3438 5.6562s-3.5195 2.3438-5.6562 2.3438h-36.191c-0.10156 0.48828-0.24609 0.96875-0.42969 1.4375-0.45312 1.1523-1.125 2.1836-2.0039 3.0625-1.6992 1.6953-3.957 2.6328-6.3672 2.6328zm-29.008-67.133c-1.0664 0-2.0742 0.41406-2.8281 1.1719-0.75781 0.75391-1.1719 1.7617-1.1719 2.8281v48c0 1.0664 0.41406 2.0742 1.1719 2.8281 0.75391 0.75781 1.7617 1.1719 2.8281 1.1719h22.02c0.53516 0 1.0508 0.21484 1.4297 0.60156 0.375 0.38281 0.58203 0.90234 0.57031 1.4375-0.011719 0.66797 0.10547 1.3203 0.34766 1.9375 0.25 0.63672 0.62109 1.2031 1.1094 1.6914 0.94141 0.94141 2.1953 1.4609 3.5352 1.4609 1.3398 0 2.5938-0.51953 3.5352-1.4609 0.48828-0.48828 0.85938-1.0586 1.1094-1.6914 0.24219-0.61719 0.35938-1.2695 0.34375-1.9375-0.011719-0.53516 0.19531-1.0547 0.57031-1.4375 0.375-0.38281 0.89063-0.60156 1.4297-0.60156h38c1.0664 0 2.0703-0.41406 2.8281-1.1719 0.75781-0.75391 1.1719-1.7617 1.1719-2.8281v-48c0-1.0664-0.41406-2.0742-1.1719-2.8281-0.75781-0.75781-1.7617-1.1719-2.8281-1.1719z"/>
 </g>
</svg>
